<svg width="326" height="72" viewBox="0 0 326 72" fill="none" xmlns="http://www.w3.org/2000/svg">
<path d="M307.353 0C310.297 0 311.77 1.57287 311.77 4.71777V17.2637H321.986C324.203 17.2639 326 19.0612 326 21.2783C326 23.4955 324.203 25.2927 321.986 25.293H311.77V51.791C311.77 54.4004 312.338 56.1736 313.476 57.1104C314.68 57.9801 316.453 58.415 318.795 58.415H319.398C321.204 58.4151 322.71 58.5824 323.914 58.917C325.119 59.1847 325.721 60.2218 325.721 62.0283C325.721 64.0357 324.784 65.2738 322.91 65.7422C321.104 66.2775 319.029 66.5449 316.688 66.5449C312.138 66.5449 308.692 65.6751 306.35 63.9355C304.008 62.1289 302.836 58.7157 302.836 53.6973V25.293H189.096C186.879 25.2929 185.081 23.4956 185.081 21.2783C185.081 19.0611 186.879 17.2637 189.096 17.2637H302.836V4.71777C302.836 1.57301 304.342 0.000149261 307.353 0Z" fill="url(#paint0_linear_165_951)"/>
<path d="M281.718 66.2358C278.49 66.2358 275.575 65.4891 272.974 63.9956C270.42 62.5021 268.397 60.3823 266.903 57.6362C265.458 54.8901 264.735 51.6863 264.735 48.0248C264.735 44.3152 265.458 41.1114 266.903 38.4134C268.397 35.6673 270.42 33.5475 272.974 32.054C275.575 30.5124 278.49 29.7415 281.718 29.7415C285.717 29.7415 289.161 30.8496 292.052 33.0658C293.353 34.0293 293.931 35.1133 293.786 36.3177C293.69 37.5222 293.064 38.5339 291.907 39.3529C290.751 40.1719 289.739 40.5332 288.872 40.4369C288.053 40.3405 286.969 39.8588 285.62 38.9916C284.512 38.3171 283.211 37.9798 281.718 37.9798C279.405 37.9798 277.526 38.847 276.081 40.5814C274.684 42.2676 273.985 44.7488 273.985 48.0248C273.985 51.2527 274.684 53.7338 276.081 55.4682C277.526 57.1544 279.405 57.9975 281.718 57.9975C283.163 57.9975 284.416 57.7085 285.476 57.1303C286.728 56.3595 287.812 55.8777 288.728 55.685C289.643 55.4441 290.679 55.7332 291.835 56.5522C292.991 57.4194 293.642 58.4311 293.786 59.5874C293.979 60.7436 293.473 61.8035 292.269 62.7671C289.378 65.0796 285.861 66.2358 281.718 66.2358Z" fill="url(#paint1_linear_165_951)"/>
<path d="M244.39 66.2358C239.283 66.2358 235.14 64.7423 231.96 61.7553C228.781 58.7202 227.191 54.1433 227.191 48.0248C227.191 44.2188 227.889 40.9668 229.287 38.2689C230.732 35.5228 232.707 33.4271 235.212 31.9818C237.718 30.4883 240.608 29.7415 243.884 29.7415C247.16 29.7415 249.931 30.4883 252.195 31.9818C254.507 33.4753 256.266 35.4024 257.47 37.763C258.675 40.0756 259.277 42.5326 259.277 45.1342C259.277 47.2058 258.868 48.5307 258.048 49.1088C257.229 49.6869 256.049 49.976 254.507 49.976H236.152C236.393 53.2039 237.26 55.42 238.753 56.6245C240.295 57.7807 242.222 58.3588 244.535 58.3588C247.088 58.3588 249.112 57.6121 250.605 56.1186C251.713 55.0105 252.725 54.2879 253.64 53.9506C254.604 53.6134 255.616 53.8302 256.675 54.601C257.784 55.3719 258.386 56.3595 258.482 57.5639C258.627 58.7202 258.121 59.9246 256.965 61.1772C255.326 62.9598 253.448 64.2606 251.328 65.0796C249.256 65.8504 246.944 66.2358 244.39 66.2358ZM236.513 43.0385H250.316C249.449 38.8952 247.257 36.8236 243.74 36.8236C241.813 36.8236 240.247 37.3054 239.043 38.2689C237.838 39.2325 236.995 40.8223 236.513 43.0385Z" fill="url(#paint2_linear_165_951)"/>
<path d="M195.088 65.4409C192.053 65.4409 190.536 63.8511 190.536 60.6714V35.3783C190.536 32.1986 191.885 30.6087 194.583 30.6087C197.329 30.6087 198.774 31.2591 198.918 32.5599L199.135 34.5111C200.099 33.2585 201.327 32.1504 202.821 31.1868C204.363 30.2233 206.169 29.7415 208.241 29.7415C211.854 29.7415 214.793 30.8978 217.057 33.2103C219.37 35.5228 220.526 38.9434 220.526 43.4721V60.6714C220.526 63.8511 219.008 65.4409 215.973 65.4409C212.938 65.4409 211.421 63.8511 211.421 60.6714V45.7123C211.421 43.1589 210.915 41.2318 209.903 39.931C208.939 38.6302 207.615 37.9798 205.928 37.9798C204.098 37.9798 202.58 38.6543 201.376 40.0033C200.219 41.3041 199.641 43.3757 199.641 46.2182V60.6714C199.641 63.8511 198.124 65.4409 195.088 65.4409Z" fill="url(#paint3_linear_165_951)"/>
<path d="M156.627 65.4409C153.591 65.4409 152.074 63.8511 152.074 60.6714V35.3783C152.074 32.1986 153.423 30.6087 156.121 30.6087C158.867 30.6087 160.312 31.2591 160.457 32.5599L160.673 34.5111C161.637 33.2585 162.866 32.1504 164.359 31.1868C165.901 30.2233 167.707 29.7415 169.779 29.7415C173.392 29.7415 176.331 30.8978 178.595 33.2103C180.908 35.5228 182.064 38.9434 182.064 43.4721V60.6714C182.064 63.8511 180.547 65.4409 177.511 65.4409C174.476 65.4409 172.959 63.8511 172.959 60.6714V45.7123C172.959 43.1589 172.453 41.2318 171.441 39.931C170.478 38.6302 169.153 37.9798 167.466 37.9798C165.636 37.9798 164.118 38.6543 162.914 40.0033C161.757 41.3041 161.179 43.3757 161.179 46.2182V60.6714C161.179 63.8511 159.662 65.4409 156.627 65.4409Z" fill="url(#paint4_linear_165_951)"/>
<path d="M128.435 66.2358C125.207 66.2358 122.292 65.4891 119.691 63.9956C117.137 62.5021 115.114 60.3823 113.62 57.6362C112.175 54.8901 111.452 51.6863 111.452 48.0248C111.452 44.3152 112.175 41.1114 113.62 38.4134C115.114 35.6673 117.137 33.5475 119.691 32.054C122.292 30.5124 125.207 29.7415 128.435 29.7415C131.711 29.7415 134.626 30.5124 137.179 32.054C139.732 33.5475 141.732 35.6673 143.177 38.4134C144.671 41.1114 145.417 44.3152 145.417 48.0248C145.417 51.6863 144.671 54.8901 143.177 57.6362C141.732 60.3823 139.732 62.5021 137.179 63.9956C134.626 65.4891 131.711 66.2358 128.435 66.2358ZM128.435 57.9975C130.747 57.9975 132.626 57.1544 134.072 55.4682C135.565 53.7338 136.312 51.2527 136.312 48.0248C136.312 44.7488 135.565 42.2676 134.072 40.5814C132.626 38.847 130.747 37.9798 128.435 37.9798C126.122 37.9798 124.243 38.847 122.798 40.5814C121.401 42.2676 120.702 44.7488 120.702 48.0248C120.702 51.2527 121.401 53.7338 122.798 55.4682C124.243 57.1544 126.122 57.9975 128.435 57.9975Z" fill="url(#paint5_linear_165_951)"/>
<path d="M86.7465 66.6694C82.1696 66.6694 78.0745 65.5854 74.4612 63.4175C70.8479 61.2495 68.0055 58.1902 65.9339 54.2397C63.9104 50.241 62.8987 45.5437 62.8987 40.1478C62.8987 34.7038 63.9104 30.0065 65.9339 26.0559C68.0055 22.0572 70.8479 18.9739 74.4612 16.8059C78.0745 14.5897 82.1696 13.4817 86.7465 13.4817C90.167 13.4817 93.2986 14.0839 96.141 15.2883C98.9835 16.4927 101.465 18.203 103.584 20.4192C104.693 21.6236 105.054 22.8281 104.668 24.0325C104.283 25.2369 103.536 26.1764 102.428 26.8509L102.067 27.0677C101.344 27.5013 100.332 27.6699 99.0317 27.5735C97.7791 27.4772 96.5987 26.9231 95.4906 25.9114C93.0818 23.7434 90.167 22.6594 86.7465 22.6594C83.904 22.6594 81.4229 23.4062 79.3031 24.8997C77.2314 26.345 75.6175 28.3685 74.4612 30.97C73.305 33.5716 72.7269 36.6309 72.7269 40.1478C72.7269 43.6166 73.305 46.6517 74.4612 49.2533C75.6175 51.8549 77.2314 53.9024 79.3031 55.3959C81.4229 56.8413 83.904 57.5639 86.7465 57.5639C90.167 57.5639 93.0818 56.4799 95.4906 54.3119C96.5987 53.3002 97.7068 52.7221 98.8149 52.5776C99.9711 52.3849 101.055 52.5535 102.067 53.0834L102.211 53.1557C103.319 53.7338 104.114 54.6733 104.596 55.9741C105.078 57.2267 104.789 58.4311 103.729 59.5874C101.609 61.8517 99.1039 63.6102 96.2133 64.8628C93.3227 66.0672 90.167 66.6694 86.7465 66.6694Z" fill="url(#paint6_linear_165_951)"/>
<path d="M30.1104 11.6429C46.7399 11.6429 60.2214 25.1237 60.2217 41.7532C60.2217 58.383 46.7401 71.8645 30.1104 71.8645C13.4808 71.8643 0 58.3828 0 41.7532C0.000257697 25.1238 13.481 11.6431 30.1104 11.6429ZM31.1152 20.7161C27.7431 20.7161 24.6519 21.3185 21.8418 22.5227C19.0315 23.687 16.5818 25.313 14.4941 27.4007C12.4466 29.4883 10.841 31.9176 9.67676 34.6878C8.55262 37.458 7.99023 40.4088 7.99023 43.5403C7.99023 46.8724 8.57218 49.8633 9.73633 52.513C10.9005 55.1224 12.5268 57.3508 14.6143 59.1975C16.7421 61.0042 19.1917 62.3893 21.9619 63.3528C24.7321 64.2762 27.7033 64.7386 30.875 64.7386C34.0465 64.7385 36.917 64.2363 39.4863 63.2327C42.0959 62.229 44.3241 60.8837 46.1709 59.1975C46.9737 58.4749 47.375 57.7726 47.375 57.0901C47.4151 56.3675 47.1548 55.7448 46.5928 55.2229C45.9907 54.661 45.328 54.5008 44.6055 54.7415C43.8828 54.9422 43.0193 55.4444 42.0156 56.2473C40.6105 57.3714 39.0047 58.2146 37.1982 58.7766C35.4318 59.2985 33.3238 59.5588 30.875 59.5589C27.5428 59.5589 24.5919 58.9566 22.0225 57.7522C19.4932 56.5076 17.5253 54.701 16.1201 52.3323C14.7151 49.9636 14.0127 47.033 14.0127 43.5403C14.0127 40.0876 14.6955 37.0562 16.0605 34.4466C17.4657 31.797 19.4531 29.7492 22.0225 28.304C24.5918 26.8187 27.6227 26.0765 31.1152 26.0764C34.1263 26.0764 36.7566 26.7185 39.0049 28.0032C41.253 29.2478 42.9996 30.9545 44.2441 33.1223C45.4886 35.2902 46.1104 37.7392 46.1104 40.469C46.1104 41.7939 45.8899 43.0789 45.4482 44.3235C45.0066 45.5278 44.3441 46.5314 43.4609 47.3343C42.5777 48.0971 41.4335 48.4788 40.0283 48.4788C38.5028 48.4788 37.8608 47.9367 38.1016 46.8528L40.3291 36.3138C40.6303 34.9962 40.6319 33.9785 40.333 33.261L40.2061 32.9837C39.8744 32.3131 39.313 31.9778 38.5225 31.9778C37.8001 31.9778 37.178 32.0984 36.6562 32.3391C36.1343 32.5399 35.7924 32.841 35.6318 33.2425L35.3311 34.0257C34.0464 32.6206 32.4406 31.9174 30.5137 31.9173C28.3458 31.9173 26.3379 32.4593 24.4912 33.5432C22.6847 34.587 21.2392 36.0927 20.1553 38.0598C19.0713 40.0271 18.5293 42.4165 18.5293 45.2268C18.5293 47.2341 18.9111 48.8399 19.6738 50.0442C20.4768 51.2485 21.5201 52.1122 22.8047 52.6341C24.0894 53.156 25.4551 53.4163 26.9004 53.4163C29.1082 53.4162 31.0552 52.7342 32.7412 51.3694C33.6244 52.7343 35.3711 53.4162 37.9805 53.4163C41.2724 53.4163 43.9223 52.7945 45.9297 51.5501C47.9772 50.3055 49.4633 48.699 50.3867 46.7317C51.3501 44.7245 51.832 42.6369 51.832 40.469C51.832 37.6989 51.2696 35.1297 50.1455 32.761C49.0616 30.3522 47.5559 28.2444 45.6289 26.4378C43.742 24.6312 41.534 23.2256 39.0049 22.222C36.5157 21.2183 33.8854 20.7161 31.1152 20.7161ZM30.7539 36.6751C31.316 36.6751 31.8784 36.7955 32.4404 37.0364C33.0024 37.2371 33.5242 37.6987 34.0059 38.4212L33.4043 42.5169C32.9225 44.6044 32.2397 46.0499 31.3564 46.8528C30.5134 47.6556 29.3291 48.0568 27.8037 48.0569C26.9206 48.0569 26.1978 47.8159 25.6357 47.3343C25.0737 46.8525 24.792 45.9288 24.792 44.5638C24.792 42.8777 25.0932 41.4526 25.6953 40.2884C26.2975 39.1241 27.061 38.2412 27.9844 37.6389C28.9077 36.9967 29.8306 36.6751 30.7539 36.6751Z" fill="url(#paint7_linear_165_951)"/>
<defs>
<linearGradient id="paint0_linear_165_951" x1="326" y1="33.2725" x2="185.081" y2="33.2725" gradientUnits="userSpaceOnUse">
<stop stop-color="#116792"/>
<stop offset="0.255" stop-color="#0E6E8D"/>
<stop offset="0.655" stop-color="#0D7489"/>
<stop offset="1" stop-color="white" stop-opacity="0"/>
</linearGradient>
<linearGradient id="paint1_linear_165_951" x1="55.4037" y1="21.4791" x2="334.029" y2="21.4791" gradientUnits="userSpaceOnUse">
<stop stop-color="#07847E"/>
<stop offset="1" stop-color="#116792"/>
</linearGradient>
<linearGradient id="paint2_linear_165_951" x1="55.4037" y1="21.4791" x2="334.029" y2="21.4791" gradientUnits="userSpaceOnUse">
<stop stop-color="#07847E"/>
<stop offset="1" stop-color="#116792"/>
</linearGradient>
<linearGradient id="paint3_linear_165_951" x1="55.4037" y1="21.4791" x2="334.029" y2="21.4791" gradientUnits="userSpaceOnUse">
<stop stop-color="#07847E"/>
<stop offset="1" stop-color="#116792"/>
</linearGradient>
<linearGradient id="paint4_linear_165_951" x1="55.4037" y1="21.4791" x2="334.029" y2="21.4791" gradientUnits="userSpaceOnUse">
<stop stop-color="#07847E"/>
<stop offset="1" stop-color="#116792"/>
</linearGradient>
<linearGradient id="paint5_linear_165_951" x1="55.4037" y1="21.4791" x2="334.029" y2="21.4791" gradientUnits="userSpaceOnUse">
<stop stop-color="#07847E"/>
<stop offset="1" stop-color="#116792"/>
</linearGradient>
<linearGradient id="paint6_linear_165_951" x1="55.4037" y1="21.4791" x2="334.029" y2="21.4791" gradientUnits="userSpaceOnUse">
<stop stop-color="#07847E"/>
<stop offset="1" stop-color="#116792"/>
</linearGradient>
<linearGradient id="paint7_linear_165_951" x1="0" y1="41.7537" x2="60.2217" y2="41.7537" gradientUnits="userSpaceOnUse">
<stop stop-color="#009970"/>
<stop offset="1" stop-color="#07847E"/>
</linearGradient>
</defs>
</svg>
