<svg width="304" height="216" viewBox="0 0 304 216" fill="none" xmlns="http://www.w3.org/2000/svg">
<g clip-path="url(#clip0_509_1391)">
<path fill-rule="evenodd" clip-rule="evenodd" d="M258.78 131.593C258.863 133.048 257.931 134.52 256.018 135.64L202.574 166.65C198.88 168.791 192.907 168.791 189.213 166.65L135.77 135.623C134.006 134.603 133.075 133.265 133.008 131.91V139.671C133.075 141.026 134.006 142.347 135.77 143.384L189.213 174.394C192.907 176.535 198.88 176.535 202.574 174.394L256.018 143.384C257.931 142.264 258.863 140.792 258.78 139.337V131.576V131.593Z" fill="#B9B9B9"/>
<path fill-rule="evenodd" clip-rule="evenodd" d="M133.008 131.927C132.925 130.472 133.857 129 135.77 127.88L189.214 96.8695C192.907 94.7286 198.881 94.7286 202.574 96.8695L256.018 127.88C257.781 128.9 258.713 130.238 258.78 131.593L258.78 139.354C258.713 137.999 257.781 136.677 256.018 135.64L202.574 104.63C198.881 102.489 192.907 102.489 189.214 104.63L135.77 135.623C133.857 136.744 132.925 138.216 133.008 139.671V131.91L133.008 131.927Z" fill="#B9B9B9"/>
<path d="M202.575 96.8695L256.018 127.879C259.712 130.02 259.712 133.499 256.018 135.64L202.575 166.65C198.881 168.791 192.907 168.791 189.214 166.65L135.77 135.624C132.077 133.483 132.077 130.004 135.77 127.863L189.214 96.8528C192.907 94.7118 198.881 94.7118 202.575 96.8528V96.8695Z" fill="#ECECEC"/>
<path d="M195.887 62.6337L235.48 85.4338L195.887 108.25L156.294 85.4338L195.887 62.6337Z" fill="#FDEAAA"/>
<path d="M156.294 85.4338L195.887 108.25V153.883L156.294 131.067V85.4338Z" fill="#FFC337"/>
<path d="M195.887 108.25L235.48 85.4338V131.067L195.887 153.883V108.25Z" fill="#B9B9B9"/>
<path d="M195.887 62.6337L222.282 77.8393L195.887 93.0448L169.492 77.8393L195.887 62.6337Z" fill="#FDEAAA"/>
<path d="M169.492 77.8392L195.887 93.0448V100.656L169.492 85.4338V77.8392Z" fill="#FFC337"/>
<path d="M195.887 93.0448L222.282 77.8392V85.4338L195.887 100.656V93.0448Z" fill="#B9B9B9"/>
<path d="M162.901 104.445L189.296 119.667L182.689 123.456L156.294 108.25L162.901 104.445Z" fill="#FDEAAA"/>
<path d="M156.294 108.25L182.689 123.456V153.883L156.294 138.678V108.25Z" fill="#FFC337"/>
<path d="M159.647 117.764L166.237 121.647V136.775L159.647 140.564V117.764Z" fill="#B9B9B9"/>
<path d="M166.237 136.775L186.042 148.175L177.647 152.706L157.859 141.289L166.237 136.775Z" fill="#ECECEC"/>
<path d="M166.237 113.959L186.042 125.359V148.175L166.237 136.775V113.959Z" fill="#FFC337"/>
<path d="M182.706 123.441L189.313 119.651V150.063L182.706 153.868V123.441Z" fill="#B9B9B9"/>
<path d="M175.982 119.558L182.706 123.441V153.871L175.982 149.988V119.558Z" fill="#FFC337"/>
<path d="M161.651 45.9028L214.441 76.3138V99.1303L161.651 68.7193V45.9028Z" fill="#FFC337"/>
<path d="M214.441 76.3138L217.745 74.4111V97.2276L214.441 99.1303V76.3138Z" fill="#FEA612"/>
<path fill-rule="evenodd" clip-rule="evenodd" d="M169.754 60.0421L172.679 61.7316C174.734 62.9126 175.473 64.2084 175.473 65.6847C175.473 66.2424 175.309 66.6361 174.997 66.8165L178.3 64.9138C178.596 64.7333 178.777 64.3397 178.777 63.782C178.777 62.3057 178.021 61.0099 175.983 59.8288L173.057 58.1393L169.754 60.0421Z" fill="#FEA612"/>
<path fill-rule="evenodd" clip-rule="evenodd" d="M175.013 66.8165C174.734 66.9805 174.339 66.9805 173.863 66.8165L177.166 64.9138C177.643 65.0942 178.037 65.0942 178.317 64.9138L175.013 66.8165Z" fill="#FEA612"/>
<path fill-rule="evenodd" clip-rule="evenodd" d="M173.863 66.8001V66.8821L177.166 64.9794V64.8973L173.863 66.8001Z" fill="#FEA612"/>
<path fill-rule="evenodd" clip-rule="evenodd" d="M173.863 66.8821C175.079 67.8171 175.736 69.0309 175.736 70.2447C175.736 70.9828 175.539 71.4749 175.144 71.7046L178.448 69.8018C178.826 69.5722 179.04 69.0801 179.04 68.342C179.04 67.1282 178.382 65.9143 177.166 64.9794L173.863 66.8821Z" fill="#FEA612"/>
<path fill-rule="evenodd" clip-rule="evenodd" d="M175.144 71.7045C174.651 71.9998 173.879 71.8522 172.827 71.2617L169.754 69.4901L173.057 67.5874L176.131 69.3589C177.182 69.9658 177.955 70.0971 178.448 69.8018L175.144 71.7045Z" fill="#FEA612"/>
<path fill-rule="evenodd" clip-rule="evenodd" d="M169.754 69.4738V60.0257L173.057 58.1229V67.571L169.754 69.4738Z" fill="#FEA612"/>
<path fill-rule="evenodd" clip-rule="evenodd" d="M171.151 62.076V64.7333L174.454 62.8306V60.1733L171.151 62.076Z" fill="#FEA612"/>
<path fill-rule="evenodd" clip-rule="evenodd" d="M171.151 64.7169L172.4 65.4386C173.024 65.7995 173.468 65.8979 173.747 65.7503L177.051 63.8475C176.771 63.9788 176.328 63.8967 175.703 63.5359L174.454 62.8141L171.151 64.7169Z" fill="#FEA612"/>
<path fill-rule="evenodd" clip-rule="evenodd" d="M173.747 65.7503C173.961 65.6355 174.076 65.3894 174.076 65.0286C174.076 64.192 173.682 63.5195 172.531 62.8634L171.151 62.076L174.454 60.1733L175.835 60.9606C176.969 61.6167 177.38 62.2893 177.38 63.1258C177.38 63.5031 177.281 63.7491 177.051 63.8475L173.747 65.7503Z" fill="#FEA612"/>
<path fill-rule="evenodd" clip-rule="evenodd" d="M171.151 65.9471V69.0473L174.454 67.1445V64.0444L171.151 65.9471Z" fill="#FEA612"/>
<path fill-rule="evenodd" clip-rule="evenodd" d="M171.151 69.0473L172.663 69.9166C173.221 70.2447 173.649 70.3267 173.912 70.1955L177.215 68.2927C176.952 68.424 176.525 68.3419 175.966 68.0139L174.454 67.1445L171.151 69.0473Z" fill="#FEA612"/>
<path fill-rule="evenodd" clip-rule="evenodd" d="M173.928 70.2119C174.175 70.0807 174.306 69.7854 174.306 69.3097C174.306 68.342 173.649 67.3906 172.498 66.7345L171.151 65.9635L174.454 64.0608L175.802 64.8317C176.936 65.4878 177.61 66.4392 177.61 67.407C177.61 67.8827 177.478 68.1943 177.232 68.3092L173.928 70.2119Z" fill="#FEA612"/>
<path fill-rule="evenodd" clip-rule="evenodd" d="M181.801 66.9805L184.332 77.8721L187.635 75.9693L185.104 65.0778L181.801 66.9805Z" fill="#FEA612"/>
<path fill-rule="evenodd" clip-rule="evenodd" d="M184.315 77.8721L182.82 77.0191L186.123 75.1164L187.619 75.9693L184.315 77.8721Z" fill="#FEA612"/>
<path fill-rule="evenodd" clip-rule="evenodd" d="M182.836 77.0191L182.146 73.8369L185.449 71.9342L186.14 75.1164L182.836 77.0191Z" fill="#FEA612"/>
<path fill-rule="evenodd" clip-rule="evenodd" d="M182.129 73.837L179.615 72.3935L182.918 70.4908L185.433 71.9342L182.129 73.837Z" fill="#FEA612"/>
<path fill-rule="evenodd" clip-rule="evenodd" d="M179.615 72.3935L178.908 74.7556L182.212 72.8528L182.918 70.4908L179.615 72.3935Z" fill="#FEA612"/>
<path fill-rule="evenodd" clip-rule="evenodd" d="M178.908 74.7555L177.56 73.9846L180.864 72.0818L182.212 72.8528L178.908 74.7555Z" fill="#FEA612"/>
<path fill-rule="evenodd" clip-rule="evenodd" d="M177.56 73.9682L180.075 65.98L183.379 64.0772L180.864 72.0654L177.56 73.9682Z" fill="#FEA612"/>
<path fill-rule="evenodd" clip-rule="evenodd" d="M180.075 65.9799L181.801 66.9641L185.104 65.0614L183.379 64.0772L180.075 65.9799Z" fill="#FEA612"/>
<path fill-rule="evenodd" clip-rule="evenodd" d="M181.883 72.4755L181.406 70.2939C181.226 69.4409 181.094 68.6864 180.913 67.6858L184.217 65.7831C184.398 66.7673 184.529 67.5382 184.71 68.3911L185.187 70.5727L181.883 72.4755Z" fill="#FEA612"/>
<path fill-rule="evenodd" clip-rule="evenodd" d="M180.913 67.6858L180.815 67.6366L184.118 65.7339L184.217 65.7831L180.913 67.6858Z" fill="#FEA612"/>
<path fill-rule="evenodd" clip-rule="evenodd" d="M180.831 67.6366C180.65 68.4404 180.502 69.0309 180.322 69.6542L179.878 71.3273L183.181 69.4245L183.625 67.7514C183.806 67.1281 183.954 66.5212 184.135 65.7339L180.831 67.6366Z" fill="#FEA612"/>
<path fill-rule="evenodd" clip-rule="evenodd" d="M179.878 71.3109L181.883 72.4591L185.187 70.5563L183.181 69.4081L179.878 71.3109Z" fill="#FEA612"/>
<path fill-rule="evenodd" clip-rule="evenodd" d="M192.878 73.3612V82.8093L196.182 80.9066V71.4585L192.878 73.3612Z" fill="#FEA612"/>
<path fill-rule="evenodd" clip-rule="evenodd" d="M192.878 82.793L191.136 81.7924L194.44 79.8896L196.182 80.8902L192.878 82.793Z" fill="#FEA612"/>
<path fill-rule="evenodd" clip-rule="evenodd" d="M191.136 81.7924L189.147 75.7889C188.671 74.3291 188.342 73.2629 187.98 71.9998L191.284 70.0971C191.646 71.3765 191.974 72.4263 192.451 73.8862L194.44 79.8897L191.136 81.7924Z" fill="#FEA612"/>
<path fill-rule="evenodd" clip-rule="evenodd" d="M187.98 71.9998L187.833 71.9178L191.136 70.0151L191.284 70.0971L187.98 71.9998Z" fill="#FEA612"/>
<path fill-rule="evenodd" clip-rule="evenodd" d="M187.833 71.9178C187.882 73.066 187.898 74.1978 187.898 75.3624V79.9389L191.202 78.0361V73.4597C191.202 72.2951 191.185 71.1633 191.136 70.0151L187.833 71.9178Z" fill="#FEA612"/>
<path fill-rule="evenodd" clip-rule="evenodd" d="M187.898 79.9388L186.583 79.1843L189.887 77.2816L191.202 78.0361L187.898 79.9388Z" fill="#FEA612"/>
<path fill-rule="evenodd" clip-rule="evenodd" d="M186.6 79.1843V69.7362L189.903 67.8335V77.2816L186.6 79.1843Z" fill="#FEA612"/>
<path fill-rule="evenodd" clip-rule="evenodd" d="M186.6 69.7362L188.737 70.9665L192.04 69.0637L189.903 67.8335L186.6 69.7362Z" fill="#FEA612"/>
<path fill-rule="evenodd" clip-rule="evenodd" d="M188.736 70.9664L190.429 76.1333C190.889 77.5768 191.218 78.725 191.514 79.988L194.818 78.0853C194.505 76.8058 194.193 75.674 193.733 74.2306L192.04 69.0637L188.736 70.9664Z" fill="#FEA612"/>
<path fill-rule="evenodd" clip-rule="evenodd" d="M191.53 80.0044L191.678 80.0864L194.982 78.1837L194.834 78.1017L191.53 80.0044Z" fill="#FEA612"/>
<path fill-rule="evenodd" clip-rule="evenodd" d="M191.678 80.0865C191.613 78.889 191.58 77.8393 191.58 76.5762V72.6067L194.883 70.704V74.6735C194.883 75.9365 194.933 77.0027 194.982 78.1837L191.678 80.0865Z" fill="#FEA612"/>
<path fill-rule="evenodd" clip-rule="evenodd" d="M191.563 72.6067L192.878 73.3613L196.182 71.4585L194.867 70.704L191.563 72.6067Z" fill="#FEA612"/>
<path fill-rule="evenodd" clip-rule="evenodd" d="M202.016 78.6266L199.173 80.7426L202.477 78.8399L205.32 76.7239L202.016 78.6266Z" fill="#FEA612"/>
<path fill-rule="evenodd" clip-rule="evenodd" d="M199.173 80.759L202.263 88.2223L205.566 86.3196L202.477 78.8563L199.173 80.759Z" fill="#FEA612"/>
<path fill-rule="evenodd" clip-rule="evenodd" d="M202.263 88.2059L200.652 87.271L203.956 85.3682L205.566 86.3032L202.263 88.2059Z" fill="#FEA612"/>
<path fill-rule="evenodd" clip-rule="evenodd" d="M200.652 87.2709L198.269 81.3659L201.573 79.4631L203.956 85.3682L200.652 87.2709Z" fill="#FEA612"/>
<path fill-rule="evenodd" clip-rule="evenodd" d="M198.269 81.3659L197.316 82.0548L200.619 80.1521L201.573 79.4631L198.269 81.3659Z" fill="#FEA612"/>
<path fill-rule="evenodd" clip-rule="evenodd" d="M197.299 82.0548V85.3518L200.603 83.4491V80.1521L197.299 82.0548Z" fill="#FEA612"/>
<path fill-rule="evenodd" clip-rule="evenodd" d="M197.299 85.3518L195.902 84.5481L199.206 82.6453L200.603 83.4491L197.299 85.3518Z" fill="#FEA612"/>
<path fill-rule="evenodd" clip-rule="evenodd" d="M195.902 84.5481V75.1L199.206 73.1973V82.6454L195.902 84.5481Z" fill="#FEA612"/>
<path fill-rule="evenodd" clip-rule="evenodd" d="M195.902 75.1L197.299 75.9038L200.603 74.001L199.206 73.1973L195.902 75.1Z" fill="#FEA612"/>
<path fill-rule="evenodd" clip-rule="evenodd" d="M197.299 75.9037V80.2177L200.603 78.3149V74.001L197.299 75.9037Z" fill="#FEA612"/>
<path fill-rule="evenodd" clip-rule="evenodd" d="M197.299 80.2177L200.389 77.6916L203.693 75.7889L200.603 78.3149L197.299 80.2177Z" fill="#FEA612"/>
<path fill-rule="evenodd" clip-rule="evenodd" d="M200.389 77.6916L202.016 78.6266L205.32 76.7239L203.693 75.7889L200.389 77.6916Z" fill="#FEA612"/>
<path d="M169.754 60.0421L172.679 61.7316C174.734 62.9126 175.473 64.2084 175.473 65.6847C175.473 66.7673 174.832 67.1774 173.846 66.8001V66.8821C175.062 67.8171 175.72 69.0309 175.72 70.2447C175.72 71.9178 174.684 72.3279 172.811 71.2453L169.737 69.4738V60.0257L169.754 60.0421ZM171.151 62.0761V64.7333L172.4 65.4551C173.517 66.0948 174.06 65.8815 174.06 65.045C174.06 64.2084 173.665 63.5359 172.515 62.8798L171.134 62.0925L171.151 62.0761ZM171.151 65.9472V69.0473L172.663 69.9167C173.747 70.54 174.29 70.2775 174.29 69.277C174.29 68.2764 173.632 67.3578 172.482 66.7017L171.134 65.9308L171.151 65.9472ZM181.801 66.9805L184.332 77.8721L182.836 77.0191L182.146 73.837L179.631 72.3935L178.925 74.7555L177.577 73.9846L180.091 65.9964L181.817 66.9805H181.801ZM181.883 72.4755L181.406 70.2939C181.226 69.441 181.094 68.6864 180.913 67.6859L180.815 67.6367C180.634 68.4404 180.486 69.0309 180.305 69.6542L179.861 71.3273L181.866 72.4755H181.883ZM192.878 73.3613V82.8094L191.136 81.8088L189.147 75.8053C188.671 74.3455 188.342 73.2793 187.98 72.0162L187.833 71.9342C187.882 73.0824 187.898 74.2142 187.898 75.3788V79.9553L186.583 79.2007V69.7526L188.72 70.9829L190.413 76.1498C190.873 77.5932 191.202 78.7415 191.498 80.0045L191.646 80.0865C191.58 78.8891 191.547 77.8393 191.547 76.5763V72.6068L192.862 73.3613H192.878ZM202.016 78.6266L199.173 80.7426L202.263 88.206L200.652 87.271L198.269 81.3659L197.316 82.0548V85.3518L195.919 84.5481V75.1L197.316 75.9037V80.2177L200.406 77.6917L202.033 78.6266H202.016Z" fill="white"/>
<path d="M164.954 44L217.745 74.4111L214.441 76.3138L161.651 45.9027L164.954 44Z" fill="#FDEAAA"/>
</g>
<circle cx="87.5" cy="85.5" r="37" fill="white" stroke="#B9B9B9" stroke-width="9"/>
<path d="M88 89H103" stroke="#B9B9B9" stroke-width="10" stroke-linecap="round"/>
<path d="M88 89L88 64" stroke="#B9B9B9" stroke-width="10" stroke-linecap="round"/>
<path d="M114.346 50.4091C116.885 47.8708 121.001 47.8708 123.54 50.4091C126.078 52.9473 126.078 57.0631 123.54 59.6014L97.1384 85.9999L123.54 112.398C126.078 114.937 126.078 119.052 123.54 121.591C121.001 124.129 116.885 124.129 114.346 121.591L87.9451 95.1913L61.5447 121.591C59.0062 124.129 54.8908 124.129 52.3523 121.591C49.8138 119.052 49.8138 114.937 52.3523 112.398L78.7527 85.9999L52.3523 59.6014C49.8138 57.0631 49.8138 52.9474 52.3523 50.4091C54.8908 47.8709 59.0062 47.8709 61.5447 50.4091L87.9451 76.8075L114.346 50.4091Z" fill="#F56262" fill-opacity="0.65"/>
<defs>
<clipPath id="clip0_509_1391">
<rect width="125.788" height="132" fill="white" transform="translate(133 44)"/>
</clipPath>
</defs>
</svg>
