<svg width="304" height="216" viewBox="0 0 304 216" fill="none" xmlns="http://www.w3.org/2000/svg">
<rect x="182" y="6" width="100" height="100" rx="50" fill="#E0FDF3"/>
<rect width="40.3626" height="23.0643" transform="matrix(0.867139 0.498066 -0.867139 0.498066 225 29.4341)" fill="#FEFFFF"/>
<rect width="40.3626" height="22.9751" transform="matrix(0.867139 0.498066 0 1 205 40.9217)" fill="#E6E6E6"/>
<rect width="23.0643" height="22.9751" transform="matrix(0.867139 -0.498066 0 1 240 61.0249)" fill="#B9B9B9"/>
<path d="M205 40.9234L225 29.4359L242.5 27.9999L222.5 39.4875L205 40.9234Z" fill="#86DED5"/>
<path d="M240 61.0267L260 49.5391L242.5 27.9999L222.5 39.4875L240 61.0267Z" fill="#1E9384"/>
<path d="M205 40.9235L240 61.0267L222.5 39.4875L205 40.9235Z" fill="#3EC3B5"/>
<mask id="mask0_509_1399" style="mask-type:alpha" maskUnits="userSpaceOnUse" x="226" y="57" width="11" height="19">
<rect width="11.5322" height="11.4876" transform="matrix(0.867186 0.497984 0 1 226.362 57.8389)" fill="#D9D9D9"/>
</mask>
<g mask="url(#mask0_509_1399)">
<rect width="1.15322" height="11.4876" transform="matrix(0.867186 -0.497984 0 1 226.362 57.8389)" fill="#B9B9B9"/>
<rect width="11.5322" height="1.15322" transform="matrix(0.867139 0.498066 -0.867139 0.498066 227.362 68.752)" fill="#FEFFFF"/>
<rect width="11.5322" height="11.4876" transform="matrix(0.867139 0.498066 0 1 227.362 57.2645)" fill="#939393"/>
</g>
<mask id="mask1_509_1399" style="mask-type:alpha" maskUnits="userSpaceOnUse" x="213" y="51" width="11" height="24">
<rect width="11.5322" height="17.2313" transform="matrix(0.867186 0.497984 0 1 213.66 51.6483)" fill="#D9D9D9"/>
</mask>
<g mask="url(#mask1_509_1399)">
<rect width="2.88304" height="17.2313" transform="matrix(0.867186 -0.497984 0 1 213.66 51.6483)" fill="#B9B9B9"/>
<rect width="11.5322" height="3.59423" transform="matrix(0.867139 0.498066 -0.867139 0.498066 216.16 67.4437)" fill="#E0FDF3"/>
<rect width="11.5322" height="17.2313" transform="matrix(0.867139 0.498066 0 1 216.16 50.2124)" fill="#939393"/>
</g>
<rect x="22" y="6" width="100" height="100" rx="50" fill="#E0FDF3"/>
<path d="M90.7154 49.2335C90.7154 49.2335 88.9437 41.1624 88.7822 35.7365C88.5662 28.4574 86.7159 25.309 81.6297 25.285C77.2984 25.2653 73.6196 29.5667 76.4256 39.1408C76.4256 39.1408 76.2904 47.2184 81.4049 47.9448C86.5195 48.6712 89.6681 47.2534 90.7133 49.2357L90.7154 49.2335Z" fill="#FDEDED"/>
<path d="M78.4986 52.2637L79.343 42.6327C79.4543 40.6395 79.0724 39.7206 78.372 39.0052C77.6629 38.2788 76.4235 38.5632 76.0831 39.5193C75.8104 40.2851 75.6205 41.3921 75.734 42.9608C75.8213 44.1576 75.902 51.0144 75.902 51.0144L75.4962 54.445L76.4082 56.1122L78.4964 52.2637H78.4986Z" fill="#FFCAB2"/>
<path d="M75.1535 57.4577L74.3112 58.4488L73.8421 59.569C73.5737 60.0284 73.098 60.6629 72.7097 61.0261C72.2885 61.4221 71.9765 61.7197 71.8696 61.8137C71.7103 61.9516 71.5074 62.0785 71.4092 61.956C71.3372 61.8641 71.4768 61.6409 71.4768 61.6409C71.4768 61.6409 71.0208 62.1857 70.9466 62.2557C70.8724 62.3257 70.7131 62.4395 70.6106 62.341C70.5058 62.2426 70.5931 62.0063 70.5931 62.0063C70.4055 62.2294 70.2571 62.2448 70.1611 62.1704C70.0389 62.0785 70.1698 61.7153 70.1698 61.7153C70.1698 61.7153 69.8774 61.7219 70.1109 61.199C70.3204 60.7286 71.3546 59.5777 71.3546 59.5777C71.4834 59.2911 71.6187 59.0176 71.5903 58.7814C71.5728 58.637 71.4441 58.5057 71.3001 58.4816C71.2128 58.4663 70.8986 58.5494 70.8091 58.5516C70.5669 58.5582 69.7422 58.4794 69.7902 58.0856C69.7923 58.0637 69.7989 58.0419 69.8142 58.0265C69.8316 58.009 69.8556 58.0025 69.8796 57.9959C70.0389 57.9609 70.2113 57.9521 70.3727 57.9434C70.7153 57.9215 71.0557 57.8843 71.3983 57.8559C71.407 57.8559 71.4157 57.8559 71.4245 57.8559C71.6972 57.8428 71.9503 57.7377 72.1685 57.5736C72.6944 57.182 73.4581 57.1492 73.4581 57.1492L75.4873 54.1693L76.9252 54.6135L75.1578 57.4599L75.1535 57.4577Z" fill="#FDB4AC"/>
<path d="M87.1217 51.5045L88.5073 41.8603C88.8891 40.4229 88.0382 39.609 87.1588 39.1955C84.451 38.1847 82.1228 36.7888 77.1217 38.6704C76.4366 38.9286 76.4104 41.7728 76.4278 42.6523C76.4278 42.6523 75.5856 45.3959 75.651 46.1595C75.8365 48.3168 76.67 48.7718 76.9297 51.6467C75.8125 55.0532 76.1202 55.0401 71.9373 88.5496C71.9373 88.5496 81.9504 96.811 92.6683 89.0572C92.077 83.5219 87.1217 51.5045 87.1217 51.5045Z" fill="#FBE9E9"/>
<path d="M78.4154 34.4062C78.5805 34.4062 78.7144 34.272 78.7144 34.1065C78.7144 33.941 78.5805 33.8068 78.4154 33.8068C78.2504 33.8068 78.1165 33.941 78.1165 34.1065C78.1165 34.272 78.2504 34.4062 78.4154 34.4062Z" fill="white"/>
<path d="M84.3701 36.686C85.2702 36.686 86 35.9298 86 34.997C86 34.0641 85.2702 33.3079 84.3701 33.3079C83.4699 33.3079 82.7401 34.0641 82.7401 34.997C82.7401 35.9298 83.4699 36.686 84.3701 36.686Z" fill="#342810"/>
<path d="M81.9788 34.7847C82.8516 34.776 83.3207 35.2639 83.3251 35.6905L83.7942 38.5435C83.7593 39.038 82.9236 39.4471 81.9286 39.458C80.9336 39.4668 80.1568 39.0751 80.1917 38.5785L80.5932 35.5877C80.6238 35.1523 81.106 34.7935 81.9788 34.7847Z" fill="#FFCAB2"/>
<path d="M81.719 27.1972C84.3592 27.0069 85.2451 28.9344 85.4371 31.3476C84.9309 34.2225 83.7046 35.6184 82.6703 36.0122C81.4113 36.4913 79.8359 36.9552 78.6577 34.5595C77.9573 33.1351 77.774 30.5753 78.0205 29.5558C78.2344 28.6697 79.0766 27.3876 81.719 27.1972Z" fill="#FFCAB2"/>
<path d="M82.0965 28.93C82.7773 29.0372 82.4325 29.8686 82.9148 30.7197C83.397 31.5708 83.7308 31.3848 84.1585 32.0784C84.5643 32.7325 84.9266 33.262 84.9789 34.0737C85.2211 34.0956 85.6204 33.844 85.7622 33.6099C85.9368 33.3189 86.0808 33.0104 86.2052 32.6953C86.4888 31.9711 86.3623 30.9954 86.3688 30.2165C86.3819 28.849 85.7513 27.6326 84.44 27.1206C84.44 27.1206 82.6507 25.0115 78.9785 27.2038C77.7675 27.9258 76.7332 29.5732 77.9529 31.5314C77.7849 31.2601 81.5947 28.8512 82.0965 28.93Z" fill="#342810"/>
<path d="M83.9817 32.8748C83.9817 32.8748 83.9556 31.9755 84.7345 32.0302C85.3979 32.0784 85.5593 32.5247 85.4306 33.2861C85.2997 34.0475 84.7302 34.4216 84.2676 34.4369C83.805 34.4522 83.9839 32.8726 83.9839 32.8726L83.9817 32.8748Z" fill="#FFCAB2"/>
<path d="M85.6007 40.3726C85.6749 39.4209 86.7288 38.8586 87.5492 39.3421C88.3587 39.8191 88.9282 40.5564 89.3166 42.3898L91.1233 51.2113L86.9906 58.0922L85.5767 57.2433L88.3609 50.8569C88.3609 50.8569 86.4997 44.6389 86.1266 43.5756C85.6378 42.1841 85.5396 41.134 85.6007 40.3726Z" fill="#FFCAB2"/>
<path d="M84.6908 58.7441C84.6908 58.7441 84.2369 59.1752 84.0602 59.3655C83.8638 59.5733 83.6827 59.7965 83.5191 60.0284C83.218 60.4551 82.9736 60.9167 82.7903 61.4024C82.7794 61.4309 82.7685 61.4615 82.7576 61.4899C82.6048 61.9166 82.5285 62.3629 82.4259 62.8005C82.3997 62.912 82.3168 63.0718 82.4172 63.1833C82.4215 63.1877 82.5263 63.2687 82.5285 63.2512C82.5285 63.2577 82.4739 63.5115 82.5874 63.5969C82.679 63.6647 82.799 63.6712 82.9256 63.5246C82.9256 63.5246 82.8885 63.6931 82.9889 63.7806C83.0892 63.8681 83.2049 63.8003 83.2572 63.7566C83.3096 63.7128 83.6107 63.354 83.6107 63.354C83.6107 63.354 83.5278 63.505 83.5998 63.5837C83.986 63.9994 84.5512 62.667 84.6101 62.4526C84.6472 62.3191 84.6733 62.1791 84.7366 62.0566C84.8261 61.8837 84.9854 61.7547 85.1272 61.6168C85.4436 61.3105 85.6967 60.9473 85.8713 60.5491C86.0371 60.1706 85.9454 59.7943 86.1418 59.4377L88.4307 55.7993L86.6044 54.7906L84.693 58.7441H84.6908Z" fill="#FDB4AC"/>
<path opacity="0.4" d="M79.9996 26.2849C79.9996 26.2849 81.3372 32.9711 86.3034 36.1916C86.3034 36.1916 88.1712 30.2559 86.742 28.0899C84.6494 24.9175 79.9996 26.2849 79.9996 26.2849Z" fill="#FDEDED"/>
<path d="M84.2895 38.3313C84.2306 38.3313 84.1738 38.3073 84.1346 38.2679C84.0931 38.2263 84.0713 38.1716 84.0713 38.1125C84.0713 38.0535 84.0931 37.9988 84.1346 37.9572C84.2175 37.8762 84.3615 37.8762 84.4422 37.9572C84.4837 37.9988 84.5077 38.0557 84.5077 38.1125C84.5077 38.1279 84.5077 38.141 84.5033 38.1563C84.5033 38.1694 84.4968 38.1826 84.4902 38.1957C84.4859 38.2088 84.4771 38.2219 84.4706 38.2351C84.4619 38.246 84.4531 38.2569 84.4422 38.2679C84.4029 38.3073 84.3462 38.3313 84.2895 38.3313Z" fill="white"/>
<path d="M81.3503 41.2171C81.3394 41.3374 81.2368 41.4271 81.1147 41.4184C80.9946 41.4096 80.9052 41.3046 80.9139 41.1843V41.1799C80.9139 41.1799 80.9139 41.1799 80.9139 41.1843C80.8768 41.298 80.7546 41.3615 80.639 41.3265C80.5255 41.2893 80.4622 41.1668 80.4972 41.0508V41.0464C80.4972 41.0464 80.4972 41.0464 80.4972 41.0508C80.4361 41.1536 80.303 41.1908 80.1982 41.1296C80.0957 41.0705 80.0586 40.9348 80.1197 40.832C80.1197 40.832 80.1197 40.8298 80.1197 40.8276C80.0389 40.9195 79.9015 40.9283 79.812 40.8473C79.7204 40.7686 79.7116 40.6307 79.7902 40.5388C79.6964 40.6132 79.5589 40.5979 79.4847 40.5016C79.4105 40.4076 79.4258 40.2697 79.5218 40.1953C79.5218 40.1953 79.5262 40.1953 79.5284 40.191C79.5284 40.191 79.524 40.1932 79.5218 40.1932C79.4149 40.25 79.2818 40.2085 79.2272 40.1013C79.1705 39.9941 79.212 39.8628 79.3189 39.8059C79.3189 39.8059 79.3189 39.8059 79.3232 39.8037L79.3189 39.8059C79.2032 39.8409 79.081 39.7731 79.0483 39.6571C79.0134 39.5434 79.0789 39.4208 79.1945 39.3858C79.0745 39.3946 78.9698 39.3027 78.961 39.1824C78.9523 39.062 79.0418 38.957 79.1618 38.9483C79.044 38.9264 78.9632 38.8126 78.985 38.6945C79.0047 38.5741 79.1181 38.4954 79.2381 38.5172C79.2381 38.5172 79.2425 38.5172 79.2447 38.5194C79.2447 38.5194 79.2403 38.5172 79.2381 38.5151C79.1291 38.4625 79.081 38.3335 79.1334 38.2241C79.1836 38.1147 79.3145 38.0687 79.4236 38.1191C79.5327 38.1716 79.5785 38.3006 79.5284 38.41C79.4847 38.5041 79.3822 38.5523 79.2862 38.5304C79.3756 38.5698 79.4323 38.6682 79.4149 38.771C79.3974 38.8739 79.3102 38.9461 79.2098 38.9504C79.308 38.9658 79.3887 39.0467 79.3953 39.1517C79.404 39.2589 79.3342 39.3508 79.236 39.3793C79.3363 39.3683 79.4345 39.4318 79.4651 39.5346C79.4956 39.6374 79.4476 39.7446 79.3538 39.7928C79.4542 39.76 79.5633 39.8037 79.6135 39.9C79.6636 39.9962 79.6353 40.1122 79.5502 40.1757C79.6418 40.1231 79.7596 40.145 79.8273 40.2325C79.8949 40.3157 79.8884 40.4338 79.8207 40.5104C79.9015 40.447 80.0193 40.4491 80.1 40.5192C80.1786 40.5892 80.196 40.7073 80.1415 40.797C80.2091 40.7182 80.3248 40.6964 80.4164 40.7489C80.5102 40.8014 80.5473 40.913 80.5146 41.0092C80.5626 40.9195 80.6695 40.8736 80.7721 40.9064C80.8725 40.9392 80.9335 41.0355 80.9226 41.1361C80.951 41.0399 81.0448 40.972 81.1474 40.9808C81.2587 40.9874 81.3438 41.0771 81.3503 41.1843C81.359 41.0771 81.4441 40.9895 81.5554 40.983C81.6645 40.9764 81.7605 41.053 81.7823 41.158C81.7758 41.0508 81.85 40.9545 81.9591 40.9327C82.0682 40.913 82.1729 40.9764 82.2078 41.0792C82.186 40.972 82.2471 40.8648 82.354 40.8298C82.4588 40.797 82.5722 40.8473 82.618 40.9458C82.5853 40.843 82.6333 40.727 82.7337 40.6811C82.8319 40.6329 82.9497 40.6679 83.0086 40.7576C82.965 40.6592 82.9977 40.5432 83.0915 40.4841C83.1832 40.4251 83.3054 40.4448 83.373 40.5257C83.3185 40.436 83.3359 40.3135 83.421 40.2435C83.5039 40.1735 83.6261 40.1778 83.7068 40.25C83.637 40.1669 83.6392 40.0444 83.7134 39.9634C83.7854 39.8825 83.9032 39.8694 83.9905 39.924C83.9141 39.854 83.8989 39.7359 83.9556 39.6462C84.0145 39.5543 84.128 39.5215 84.2218 39.5609C84.1367 39.5062 84.0974 39.3968 84.1345 39.2961C84.1738 39.1999 84.272 39.1452 84.3702 39.1605C84.2785 39.1255 84.2174 39.0314 84.2305 38.9286C84.2436 38.8279 84.3222 38.7513 84.416 38.7382C84.32 38.7295 84.2392 38.6595 84.2218 38.5588C84.2 38.4407 84.2785 38.3269 84.3964 38.305C84.5142 38.2831 84.6276 38.3619 84.6495 38.4801C84.6713 38.5982 84.5927 38.7142 84.4749 38.736H84.4662C84.4662 38.736 84.4705 38.7382 84.4727 38.7382C84.5927 38.7513 84.6778 38.8607 84.6626 38.9811C84.6495 39.1014 84.5404 39.1867 84.4204 39.1714H84.4138H84.4182C84.5295 39.2174 84.5862 39.3443 84.5425 39.4558C84.4989 39.5696 84.3723 39.6243 84.2589 39.5806C84.2589 39.5806 84.2589 39.5806 84.2545 39.5806H84.2567C84.3593 39.6462 84.3876 39.7796 84.3243 39.8825C84.2589 39.9831 84.1236 40.0138 84.0232 39.9481C84.1105 40.0313 84.1171 40.1669 84.0363 40.2566C83.9556 40.3463 83.8181 40.3529 83.7287 40.2719C83.805 40.3638 83.7919 40.5016 83.7003 40.5804C83.6065 40.657 83.4712 40.6439 83.3926 40.552C83.4559 40.6548 83.4254 40.7883 83.325 40.8539C83.2246 40.9173 83.0915 40.8889 83.0261 40.7883C83.0741 40.8977 83.0261 41.0246 82.9192 41.0771C82.8101 41.1274 82.6791 41.0814 82.6289 40.972C82.666 41.0858 82.6028 41.2105 82.4893 41.2477C82.3737 41.2849 82.2515 41.2215 82.2144 41.1055C82.2362 41.2236 82.1598 41.3374 82.0398 41.3615C81.922 41.3834 81.8085 41.3068 81.7867 41.1886C81.7911 41.309 81.6994 41.4118 81.5794 41.4184H81.5663C81.4529 41.4184 81.3569 41.3287 81.3503 41.2127V41.2171Z" fill="white"/>
<path d="M79.572 38.165C79.5131 38.165 79.4564 38.1431 79.4171 38.1015C79.3975 38.0819 79.38 38.0578 79.3691 38.0315C79.3582 38.0031 79.3538 37.9768 79.3538 37.9484C79.3538 37.9178 79.3582 37.8915 79.3691 37.8631C79.38 37.8368 79.3975 37.8127 79.4171 37.7931C79.4782 37.7318 79.5742 37.7121 79.6549 37.7449C79.6811 37.7559 79.7051 37.7712 79.7248 37.7931C79.7444 37.8127 79.7619 37.8368 79.7728 37.8631C79.7837 37.8915 79.788 37.9178 79.788 37.9484C79.788 37.9768 79.7837 38.0031 79.7728 38.0315C79.7619 38.0578 79.7444 38.0819 79.7248 38.1015C79.7051 38.1234 79.6811 38.1387 79.6549 38.1497C79.6266 38.1606 79.6004 38.165 79.572 38.165Z" fill="white"/>
<path d="M84.2719 34.6622C84.437 34.6622 84.5708 34.528 84.5708 34.3625C84.5708 34.1969 84.437 34.0627 84.2719 34.0627C84.1068 34.0627 83.973 34.1969 83.973 34.3625C83.973 34.528 84.1068 34.6622 84.2719 34.6622Z" fill="white"/>
<path d="M53.4828 53.089L54.1131 55.1441L54.1432 56.2833C54.1393 56.8083 54.2213 57.5819 54.3657 58.0868C54.5237 58.6333 54.6359 59.0449 54.6785 59.1762C54.7436 59.3738 54.8525 59.5823 54.9943 59.53C55.1009 59.4896 55.0958 59.2302 55.0958 59.2302C55.0958 59.2302 55.2072 59.921 55.2336 60.0181C55.2601 60.1152 55.3375 60.2914 55.4761 60.2604C55.6147 60.2294 55.6597 59.9881 55.6597 59.9881C55.7056 60.2727 55.8239 60.3583 55.9428 60.3463C56.0923 60.3305 56.1652 59.9592 56.1652 59.9592C56.1652 59.9592 56.4084 60.1129 56.475 59.5527C56.5345 59.0489 56.2398 57.5532 56.2398 57.5532C56.2739 57.2468 56.2986 56.9476 56.4423 56.761C56.5308 56.6462 56.7046 56.6033 56.8381 56.6531C56.9213 56.6848 57.1444 56.9143 57.218 56.96C57.4204 57.0885 58.1565 57.4412 58.3123 57.0835C58.3204 57.0632 58.3257 57.0413 58.3226 57.0217C58.3163 56.9985 58.3 56.9803 58.2816 56.9626C58.1654 56.8514 58.0225 56.7588 57.8914 56.6676C57.613 56.4759 57.3443 56.2702 57.0674 56.0758C57.0615 56.0706 57.0534 56.066 57.0475 56.0609C56.8256 55.9104 56.6626 55.6941 56.5608 55.4452C56.3143 54.8479 55.6859 54.4342 55.6859 54.4342L55.6485 52.3558L53.4795 53.0854L53.4828 53.089Z" fill="#FFCAB2"/>
<path d="M56.3011 55.0291L53.6129 54.6178C53.6129 54.6178 52.2186 42.0091 55.5745 41.775C58.9303 41.5409 56.3011 55.0291 56.3011 55.0291Z" fill="white"/>
<path d="M59.4389 34.9248C59.4127 36.8392 58.4962 46.0917 56.8619 47.7567C56.5761 48.0477 53.6544 47.6823 53.6152 47.4438C53.2246 45.0897 56.0262 32.6232 57.6453 32.6188C59.2643 32.6144 59.4389 34.8898 59.4389 34.9248Z" fill="white"/>
<path d="M60.7938 81.8985L60.9313 86.1451C60.9313 86.1451 56.3164 88.4927 53.3249 88.3177C52.6791 88.2805 51.6142 87.5804 52.1423 86.9568C52.4696 86.574 55.7142 85.0425 57.5318 81.5725C59.2185 81.5419 60.7938 81.8985 60.7938 81.8985Z" fill="#372112"/>
<path d="M70.2735 82.3297L70.7713 86.5477C70.7713 86.5477 66.3721 89.2833 63.3779 89.3664C62.7321 89.3839 61.609 88.7776 62.0843 88.1116C62.3762 87.7012 65.4803 85.8969 66.9954 82.2835C68.6724 82.108 70.2737 82.3275 70.2737 82.3275L70.2735 82.3297Z" fill="#372112"/>
<path d="M70.4492 68.3052L71.1277 50.0036C71.1277 50.0036 69.2491 51.7211 63.637 51.9071C59.0199 52.0602 56.7136 50.3734 56.7136 50.3734L55.9412 67.5788L56.539 81.9182C56.539 81.9182 57.2023 82.4432 58.5792 82.4104C60.1371 82.3754 61.6645 82.0866 61.6645 82.0866L62.4435 67.9486L63.3752 57.0157L64.6669 68.6684L65.5113 83.0668C65.5113 83.0668 67.0693 83.6488 68.3588 83.651C69.6615 83.6553 71.2063 82.8589 71.2063 82.8589L70.4513 68.3052H70.4492Z" fill="white"/>
<path d="M71.0601 61.9188L71.9678 34.0387C72.1729 32.8091 58.5726 31.3804 57.4227 32.6975C55.5309 34.8614 55.9237 61.8488 55.9237 61.8488C55.9237 61.8488 58.1231 63.4022 63.301 63.3738C68.9392 63.3431 71.0601 61.9188 71.0601 61.9188Z" fill="white"/>
<path d="M61.9438 31.5882C62.6464 30.8356 65.3739 30.4877 66.6612 31.8552C66.7551 32.5225 66.8903 32.9557 66.8903 32.9557L64.5338 33.8046L62.0049 33.4457C62.0049 33.4457 61.8805 32.1068 61.946 31.5882H61.9438Z" fill="#DBDBDB"/>
<path d="M64.1279 29.7373C65.184 29.7045 65.7622 30.2821 65.7796 30.7984L66.4233 32.6122C66.3928 33.2116 65.3934 33.728 64.1912 33.7674C62.9889 33.8046 62.0376 33.3495 62.0681 32.75L62.4761 30.7459C62.5023 30.2186 63.074 29.7723 64.1301 29.7395L64.1279 29.7373Z" fill="#FFCAB2"/>
<path d="M64.3003 21.2965C67.3048 21.2243 68.206 23.4603 68.2911 26.2061C68.4024 29.7811 66.0917 30.9538 64.8981 31.3454C63.4449 31.8202 61.6317 32.2599 60.4272 29.477C59.7115 27.8229 59.6439 24.9087 59.9777 23.7688C60.268 22.7755 61.2935 21.3687 64.3003 21.2965Z" fill="#FFCAB2"/>
<path d="M62.6551 23.4909C62.6551 23.4909 63.1242 25.1822 65.7491 26.0551C66.4801 26.3111 66.059 27.5122 66.059 27.5122C66.059 27.5122 67.4576 27.5823 67.6125 29.2494C68.9108 28.1511 71.036 22.9921 67.3921 21.3599C67.3921 21.3599 65.5178 18.6273 61.2324 20.9092C59.8207 21.6619 58.5202 24.3354 59.7967 26.624C59.7967 26.624 60.2222 24.2501 62.6551 23.4887V23.4909Z" fill="#3B3E3F"/>
<path d="M66.4343 27.0133C66.4343 27.0133 66.4539 25.9916 67.3332 26.0966C68.0838 26.1863 68.0816 26.6742 67.8918 27.5297C67.702 28.3873 67.1958 28.8074 66.6699 28.8008C66.144 28.7943 66.4343 27.0112 66.4343 27.0112V27.0133Z" fill="#FFCAB2"/>
<path d="M63.0369 33.6405C63.0369 33.6405 63.5868 34.997 64.0668 36.2441C65.4044 35.6928 66.3186 34.9926 67.4249 33.2423C67.1063 32.7326 66.6612 31.8552 66.6612 31.8552C66.6612 31.8552 65.1033 33.3714 63.0369 33.6405Z" fill="white"/>
<path d="M63.037 33.6405C63.037 33.6405 62.1446 32.8923 61.946 31.5883C61.946 31.5883 61.4332 32.2644 61.1452 32.6122C60.927 34.1219 61.1692 34.8636 61.4878 35.6709C62.2013 34.4719 63.0392 33.6405 63.0392 33.6405" fill="white"/>
<path d="M73.2946 47.6779C72.9367 47.9208 70.2704 48.3037 69.751 47.4351C67.7305 44.0482 68.2913 34.7126 68.2913 34.7126C68.2913 34.7126 71.3657 33.553 71.8305 33.8177C73.1637 34.5726 74.2808 47.0106 73.2946 47.6779Z" fill="white"/>
<path d="M72.5112 55.2917L72.2733 57.4271L72.4566 58.5539C72.557 59.068 72.6224 59.8447 72.5723 60.3676C72.5199 60.9343 72.485 61.3587 72.4675 61.4966C72.4413 61.7022 72.3715 61.9298 72.2231 61.9035C72.1097 61.8838 72.0682 61.6278 72.0682 61.6278C72.0682 61.6278 72.0879 62.328 72.0791 62.4264C72.0704 62.5249 72.0289 62.7152 71.8871 62.7108C71.7453 62.7065 71.6558 62.4767 71.6558 62.4767C71.6624 62.7655 71.5642 62.8727 71.4442 62.8815C71.2936 62.8924 71.154 62.5424 71.154 62.5424C71.154 62.5424 70.9423 62.7393 70.7743 62.2011C70.6216 61.7175 70.2441 60.3676 70.2441 60.3676C70.1525 60.0722 70.0001 60 70.2441 59.6053C70.5001 59 70.4455 58.7625 70.5001 58.5C70.631 57.8677 70.5954 57.0267 70.5954 57.0267L70.2441 54.9767L72.5112 55.2917Z" fill="#FFCAB2"/>
<path d="M69.9799 56.9545L72.6921 56.7576C72.6921 56.7576 75.0748 44.2976 71.7495 43.801C68.4874 43.3131 69.9821 56.9567 69.9821 56.9567L69.9799 56.9545Z" fill="white"/>
<path d="M61.9198 48.0061C61.9198 48.0061 58.4461 42.8908 57.5428 37.1433C58.1734 36.8239 59.1902 36.6226 59.1902 36.6226L58.1734 34.8635L61.4442 32.2315C61.4442 32.2315 59.0658 38.5348 61.922 48.0083L61.9198 48.0061Z" fill="#DBDBDB"/>
<path d="M60.3989 49.8177C60.3989 49.8177 66.7834 43.4947 69.2927 38.2504C68.7799 37.7647 67.8635 37.2768 67.8635 37.2768L69.3407 35.8831L67.9922 33.9643L66.9601 32.4219C66.9601 32.4219 64.7607 43.3131 60.3989 49.8177Z" fill="#DBDBDB"/>
<path d="M63.0894 36.7932C63.0937 36.8326 63.0654 36.8676 63.0261 36.8742C62.7206 36.9201 62.5962 37.0448 62.0638 37.2045C61.9482 37.2395 61.754 37.1936 61.6493 37.0754C60.8245 36.1719 60.6586 34.6841 61.3525 34.4456C61.4398 34.4106 61.6449 34.5397 61.7802 34.6841C62.4064 35.3492 62.5701 35.6008 62.9192 35.9334C62.965 35.9771 63.0043 36.0428 63.0086 36.0821L63.0894 36.7932Z" fill="#B64A3D"/>
<path d="M63.0916 36.7932C63.096 36.8326 63.1353 36.8982 63.1811 36.942C63.5302 37.2745 63.696 37.5261 64.3201 38.1912C64.4554 38.3356 64.6605 38.4647 64.7477 38.4297C65.4438 38.1891 65.2758 36.7035 64.451 35.7999C64.3463 35.6817 64.1521 35.6358 64.0364 35.6708C63.504 35.8305 63.3818 35.9552 63.0742 36.0012C63.0349 36.0077 63.0065 36.0427 63.0109 36.0821L63.0916 36.7932Z" fill="#B64A3D"/>
<path d="M63.6305 37.2593C63.6414 37.3577 63.5694 37.4015 63.469 37.3577L62.8035 37.0667C62.7031 37.023 62.6137 36.9092 62.6027 36.8107L62.4675 35.6183C62.4566 35.5199 62.5286 35.4761 62.6289 35.5199L63.2944 35.8109C63.3948 35.8546 63.4843 35.9684 63.4952 36.0669L63.6305 37.2593Z" fill="#B64A3D"/>
<g clip-path="url(#clip0_509_1399)">
<path d="M148.679 126.23C148.679 126.23 132.322 101.342 134.688 98.0969C137.053 94.8609 152.012 108.357 156.101 112.023C156.163 112.084 148.67 126.23 148.67 126.23H148.679Z" fill="#C5C7EC"/>
<path d="M151.977 93.9577L152.988 99.4825L157.473 97.0796C157.473 97.0796 159.109 97.9303 160.665 97.7461C161.316 97.6672 161.976 97.7549 162.556 98.053C162.574 98.053 162.591 98.0706 162.609 98.0794C163.347 98.4389 164.113 98.7722 164.851 99.1405C165.203 99.3159 165.572 99.5 165.942 99.6228C165.994 99.6403 166.056 99.6579 166.118 99.6403C166.17 99.6228 166.205 99.5877 166.241 99.5439C166.812 98.7809 165.194 97.6233 164.675 97.3427C164.482 97.2375 163.726 97.0358 163.567 96.8955C163.295 96.6675 163.18 96.2465 163.321 95.922C163.55 95.3871 164.156 94.9837 164.772 94.5452C164.772 94.5452 168.316 93.3876 169.319 92.6598C170.435 91.8442 169.82 91.511 169.82 91.511C169.82 91.511 170.523 90.9146 170.383 90.5726C170.268 90.3008 169.952 90.1517 169.283 90.3884C169.283 90.3884 169.75 90.0026 169.644 89.6693C169.547 89.3361 169.081 89.3799 168.835 89.4413C168.597 89.494 166.988 90.0815 166.988 90.0815C166.988 90.0815 167.542 89.7921 167.507 89.5115C167.445 89.1432 166.874 89.1607 166.373 89.2572C166.038 89.3186 165.027 89.5641 163.673 89.8886C162.424 90.1867 160.674 90.9322 159.557 91.5636L157.086 92.8615L151.95 93.9577H151.968H151.977Z" fill="#FFCAB2"/>
<path d="M134.485 99.5175C135.532 106.13 157.271 99.4824 157.271 99.4824L157.394 92.686C157.394 92.686 133.369 92.4843 134.485 99.5175Z" fill="#C5C7EC"/>
<path d="M156.391 174.138C142.233 167.85 143.218 162.395 143.218 162.395C143.218 162.395 149.998 112.4 151.036 110.12C151.906 108.217 184.101 117.495 183.31 120.442L178.684 177.076C178.684 177.076 169.011 177.917 156.4 174.138H156.391Z" fill="#C5C7EC"/>
<path d="M161.606 110.322C161.316 111.567 161.298 114.856 161.298 114.856L167.366 116.346L173.311 114.847C173.311 114.847 173.091 113.759 173.021 112.111C170.216 108.471 163.497 108.655 161.597 110.313L161.606 110.322Z" fill="#C5C7EC"/>
<path d="M167.375 106.349C164.799 106.174 163.295 107.121 163.101 108.401L161.219 117.144C160.999 118.6 163.207 119.933 166.144 120.135C169.081 120.328 171.64 119.319 171.86 117.863L171.13 109.331C171.209 108.068 169.943 106.524 167.366 106.349H167.375Z" fill="#FFCAB2"/>
<path d="M189.105 98.8949L186.529 103.885L182.941 100.289C182.941 100.289 181.129 100.64 179.687 100.009C179.089 99.7543 178.429 99.6491 177.787 99.7631C177.761 99.7631 177.743 99.7631 177.726 99.7719C176.908 99.8946 176.081 99.9911 175.272 100.131C174.885 100.193 174.481 100.28 174.085 100.28C174.023 100.28 173.962 100.28 173.909 100.245C173.865 100.219 173.839 100.166 173.821 100.123C173.487 99.2281 175.378 98.588 175.958 98.4652C176.178 98.4213 176.952 98.4389 177.154 98.36C177.48 98.2196 177.708 97.8426 177.673 97.4918C177.611 96.913 177.145 96.3517 176.688 95.7554C176.688 95.7554 173.637 93.6332 172.889 92.6422C172.054 91.546 172.74 91.3969 172.74 91.3969C172.74 91.3969 172.238 90.6252 172.476 90.3358C172.66 90.1078 173.012 90.064 173.575 90.4849C173.575 90.4849 173.25 89.985 173.434 89.6956C173.628 89.4062 174.059 89.5904 174.27 89.7132C174.481 89.8359 175.853 90.862 175.853 90.862C175.853 90.862 175.404 90.4147 175.527 90.1604C175.686 89.8184 176.231 90.0026 176.679 90.2393C176.987 90.3972 177.875 90.9321 179.08 91.6162C180.188 92.2563 181.648 93.4753 182.527 94.4049L184.515 96.3605L189.105 98.8949Z" fill="#FFCAB2"/>
<path d="M180.513 101.605C180.513 101.605 206.315 122.985 209.71 115.636C213.175 108.138 184.567 96.3079 184.567 96.3079L180.513 101.605Z" fill="#C5C7EC"/>
<path d="M159.759 90.4674C158.493 93.0895 157.491 100.149 158.555 104.428C160.349 111.628 164.895 111.295 168.597 110.725C171.64 110.26 177.691 108.348 178.851 99.6754C179.748 93.0105 178.473 87.2489 171.192 86.2229C163.901 85.1968 160.859 88.1873 159.759 90.4674Z" fill="#FFCAB2"/>
<path d="M166.337 90.862C160.155 91.7302 158.177 97.2901 158.177 97.2901C156.013 91.2566 160.226 85.3196 163.937 84.0656C175.202 80.2684 178.623 87.6173 178.623 87.6173C186.766 93.0105 179.564 104.621 175.985 106.752C176.284 102.666 172.933 101.938 172.933 101.938C172.933 101.938 174.428 99.2018 172.775 98.2986C166.786 95.1415 166.337 90.8708 166.337 90.8708V90.862Z" fill="#3A3E3F"/>
<path d="M174.041 100.877C174.041 100.877 172.625 105.069 173.892 105.288C175.158 105.516 176.547 104.7 177.356 102.71C178.157 100.719 178.359 99.5439 176.582 99.0265C174.498 98.4214 174.041 100.877 174.041 100.877Z" fill="#FFCAB2"/>
<path d="M160.788 121.363L163.963 122.161L166.355 119.346L163.77 115.583L160.155 118.109L160.797 121.363H160.788Z" fill="#4D7B60"/>
<path d="M160.788 121.363C160.788 121.363 156.391 130.237 153.911 146.426C153.718 147.706 156.813 151.504 156.813 151.504C156.813 151.504 161.808 148.995 161.888 147.68C162.82 133.28 163.963 122.161 163.963 122.161L160.788 121.363Z" fill="#4D7B60"/>
<path d="M173.021 112.119C173.021 112.119 174.147 114.61 174.718 116.53C171.517 120.95 169.011 121.371 165.625 122.178C164.763 119.021 163.752 115.583 163.752 115.583C168.853 115.426 173.012 112.119 173.012 112.119H173.021Z" fill="#DEE2FF"/>
<path d="M163.77 115.583C163.77 115.583 161.527 117.407 159.496 120.152C158.915 118.109 158.511 116.241 159.408 112.619C160.19 111.839 161.606 110.322 161.606 110.322C161.773 113.549 163.761 115.583 163.761 115.583" fill="#DEE2FF"/>
<path d="M175.457 117.372C174.947 117.328 180.399 134.517 180.399 134.517C180.399 134.517 211.776 118.968 209.894 114.136C208.021 109.296 176.75 117.486 175.448 117.372H175.457Z" fill="#C5C7EC"/>
<path d="M136.024 75.6819C135.787 75.5065 135.681 75.1908 135.857 74.9277C136.007 74.6909 136.385 74.5769 136.622 74.7611C138.249 75.9713 140.474 76.4185 142.514 76.5764C144.959 76.7693 147.588 76.5325 149.822 75.4539C150.869 74.954 151.898 74.2261 152.496 73.2264C152.619 73.0159 152.671 72.9195 152.751 72.6739C152.83 72.4284 152.847 72.3582 152.865 72.1477C152.874 72.0337 152.883 71.911 152.883 71.797C152.883 71.7443 152.883 71.7005 152.883 71.6479C152.883 71.7794 152.883 71.6128 152.883 71.5953C152.847 71.4023 152.803 71.2094 152.751 71.0165C152.733 70.9755 152.733 70.9755 152.751 71.0165C152.751 71.0165 152.724 70.9551 152.715 70.92C152.698 70.8761 152.68 70.8235 152.654 70.7797C152.61 70.692 152.566 70.6043 152.522 70.5166C152.469 70.4289 152.416 70.3412 152.364 70.2623C152.337 70.2184 152.311 70.1746 152.276 70.1395C152.346 70.236 152.241 70.0957 152.241 70.0957C152.1 69.9203 151.959 69.7536 151.801 69.5958C151.73 69.5256 151.651 69.4555 151.572 69.3853C151.546 69.359 151.519 69.3415 151.493 69.3152C151.361 69.2012 151.572 69.3766 151.44 69.2713C150.746 68.7188 150.148 68.4294 149.295 68.2453C149.224 68.2277 149.154 68.219 149.092 68.2014C149.198 68.219 149.022 68.1927 149.022 68.1927C148.916 68.1751 148.802 68.1576 148.697 68.1488C148.468 68.1225 148.239 68.105 148.011 68.0874C147.518 68.0611 147.017 68.0699 146.516 68.105C145.443 68.1751 144.247 68.4031 143.165 68.7101C140.791 69.3766 138.504 70.5254 136.649 72.1565C135.752 72.9458 134.943 73.849 134.353 74.8838C134.142 75.2522 134.002 75.5854 133.879 76.0326C133.843 76.1817 133.879 76.0239 133.861 76.1116C133.861 76.1554 133.852 76.1993 133.843 76.2343C133.843 76.3045 133.826 76.3659 133.826 76.436C133.826 76.4799 133.843 76.7254 133.826 76.5501C133.835 76.6202 133.843 76.6904 133.861 76.7605C133.87 76.8131 133.966 77.0412 133.887 76.8833C133.914 76.9447 133.94 77.0061 133.975 77.0675C134.01 77.1288 134.046 77.1815 134.081 77.2428C133.984 77.1025 134.116 77.2779 134.142 77.313C134.195 77.3744 134.257 77.427 134.318 77.4884C134.222 77.4095 134.406 77.5761 134.318 77.4884C134.345 77.5147 134.38 77.5322 134.406 77.5586C134.529 77.6462 134.661 77.7252 134.793 77.7953C134.82 77.8041 134.978 77.883 134.846 77.8216C134.881 77.8392 134.916 77.8567 134.96 77.8743C135.039 77.9093 135.11 77.9356 135.189 77.962C135.338 78.0146 135.488 78.0672 135.646 78.1023C135.84 78.1549 136.033 78.1987 136.227 78.2338C136.244 78.2338 136.402 78.2601 136.271 78.2338C136.314 78.2338 136.367 78.2513 136.411 78.2601C136.508 78.2777 136.605 78.2864 136.701 78.304C137.528 78.4092 138.372 78.4267 139.208 78.4004C139.595 78.3917 139.99 78.3654 140.377 78.3303C140.237 78.3478 140.439 78.3303 140.465 78.3303C140.509 78.3303 140.553 78.3303 140.606 78.3215C140.694 78.3215 140.782 78.304 140.87 78.2952C141.037 78.2777 141.204 78.2601 141.38 78.2338C142.673 78.0584 143.939 77.6901 145.179 77.2692C145.988 76.9973 146.815 76.6728 147.685 76.2519C148.565 75.8309 149.365 75.3574 150.06 74.7698C150.236 74.6207 150.411 74.4629 150.57 74.2963C150.631 74.2349 150.684 74.1647 150.746 74.1033C150.746 74.1033 150.86 73.9718 150.79 74.0507C150.825 74.0157 150.851 73.9718 150.886 73.928C151.018 73.7613 151.141 73.5772 151.256 73.3842C151.379 73.1738 151.379 73.1738 151.467 72.937C151.625 72.5161 151.66 72.288 151.651 71.8233C151.651 71.8057 151.634 71.5953 151.651 71.7093C151.651 71.6566 151.643 71.6128 151.634 71.5602C151.625 71.4637 151.607 71.3672 151.581 71.2708C151.563 71.1831 151.537 71.0954 151.511 71.0077C151.511 70.9814 151.449 70.8498 151.511 70.9814C151.502 70.9551 151.493 70.9288 151.484 70.9025C151.449 70.8235 151.405 70.7358 151.361 70.6569C151.344 70.6218 151.326 70.5955 151.3 70.5604C151.229 70.4552 151.379 70.6569 151.3 70.5604C151.256 70.5078 151.203 70.4552 151.159 70.4026C151.132 70.3763 151.106 70.35 151.08 70.3324C150.992 70.2447 151.185 70.4026 151.08 70.3324C151.009 70.2886 150.948 70.2447 150.877 70.2009C150.842 70.1834 150.816 70.1658 150.781 70.1483C150.807 70.157 150.921 70.2184 150.781 70.1483C150.64 70.1044 150.499 70.0518 150.359 70.0255C150.508 70.0518 150.236 70.0167 150.192 70.008C150.112 70.008 150.033 69.9992 149.945 69.9992C149.857 69.9992 149.778 69.9992 149.69 69.9992C149.646 69.9992 149.602 69.9992 149.558 69.9992C149.708 69.9904 149.558 69.9992 149.532 69.9992C149.145 70.0518 148.776 70.1307 148.406 70.2272C147.571 70.464 146.779 70.8148 145.935 71.2445C145.1 71.6742 144.282 72.1565 143.499 72.6827C143.306 72.8142 143.104 72.9458 142.91 73.0773C142.998 73.0159 142.857 73.1124 142.857 73.1124C142.813 73.1387 142.769 73.1738 142.734 73.2001C142.655 73.2615 142.567 73.3229 142.488 73.3842C142.18 73.6123 141.872 73.849 141.582 74.0946C141.178 74.4366 140.808 74.7961 140.456 75.1732C140.228 75.4275 139.999 75.6819 139.771 75.9362C139.489 76.2694 139.375 76.4097 139.085 76.7605C138.504 77.4709 137.941 78.2075 137.414 78.9354C136.886 79.672 136.385 80.4174 135.919 81.1979C135.708 81.5575 135.505 81.917 135.33 82.2941C135.312 82.3204 135.303 82.3467 135.286 82.373C135.303 82.338 135.303 82.338 135.286 82.373C135.286 82.373 135.25 82.452 135.233 82.4958C135.198 82.5747 135.162 82.6537 135.127 82.7326C135.066 82.8817 135.004 83.0395 134.951 83.1886C134.907 83.3289 134.863 83.4692 134.828 83.6183C134.828 83.6534 134.811 83.6885 134.802 83.7236C134.776 83.8376 134.82 83.6008 134.802 83.7148C134.802 83.7762 134.784 83.8376 134.776 83.8989C134.776 83.9691 134.767 84.0393 134.776 84.1006C134.776 84.127 134.776 84.1533 134.776 84.1796C134.776 84.2848 134.74 84.048 134.776 84.1357C134.793 84.1796 134.793 84.241 134.802 84.2848C134.828 84.4427 134.749 84.2059 134.802 84.3023C134.846 84.3725 134.934 84.4514 134.811 84.3462C134.837 84.3725 134.881 84.4164 134.907 84.4427C134.951 84.5128 134.793 84.3813 134.872 84.4164C134.899 84.4164 134.907 84.4514 134.934 84.4602C135.092 84.504 134.837 84.4427 134.969 84.4777C135.031 84.4953 135.101 84.5128 135.154 84.5304C135.25 84.5654 135.022 84.5304 135.136 84.5304C135.171 84.5304 135.198 84.5391 135.233 84.5391C135.312 84.5391 135.382 84.5391 135.461 84.5391C135.488 84.5391 135.567 84.5391 135.461 84.5391C135.514 84.5391 135.567 84.5216 135.611 84.5128C136.112 84.4251 136.49 84.241 136.974 83.9954C137.528 83.706 138.056 83.364 138.566 83.0132C139.498 82.373 140.369 81.6627 141.274 80.9787C142.541 80.014 143.833 79.0055 144.977 77.9707C146.12 76.9359 147.237 75.8134 148.134 74.5594C148.503 74.042 148.855 73.4895 149.11 72.9019C149.312 72.4284 149.47 71.9548 149.506 71.4988C149.506 71.3936 149.506 71.2971 149.506 71.1919C149.506 71.034 149.523 71.3059 149.506 71.148C149.506 71.1042 149.488 71.0603 149.479 71.0165C149.47 70.9726 149.453 70.9288 149.444 70.8849C149.409 70.7446 149.497 70.9902 149.444 70.8674C149.409 70.7885 149.374 70.7183 149.33 70.6569C149.435 70.806 149.136 70.4991 149.277 70.5955C149.215 70.5429 149.136 70.4991 149.066 70.464C149.189 70.5254 149.048 70.464 149.031 70.464C148.987 70.4552 148.943 70.4377 148.899 70.4289C148.749 70.3851 149.004 70.4377 148.846 70.4201C148.793 70.4201 148.741 70.4114 148.688 70.4026C148.169 70.3675 147.65 70.5078 147.114 70.6832C147.026 70.7095 147.219 70.6394 147.07 70.7008C147.034 70.7183 146.99 70.7271 146.955 70.7446C146.885 70.7709 146.806 70.7972 146.735 70.8323C146.568 70.9025 146.41 70.9726 146.252 71.0515C145.416 71.4462 144.616 71.9197 143.833 72.4196C142.057 73.5684 140.333 74.9715 138.891 76.5764C138.24 77.2955 137.625 78.111 137.15 78.988C136.939 79.3739 136.781 79.7334 136.631 80.1982C136.596 80.3122 136.561 80.435 136.526 80.5577C136.508 80.6104 136.499 80.663 136.49 80.7156C136.49 80.7156 136.455 80.891 136.473 80.777C136.438 80.9611 136.411 81.1453 136.402 81.3295C136.402 81.4435 136.402 81.5662 136.402 81.6802C136.402 81.7329 136.402 81.7767 136.402 81.8293C136.402 81.9872 136.385 81.7153 136.402 81.8819C136.42 82.0749 136.455 82.2766 136.508 82.4695C136.526 82.5309 136.543 82.5923 136.561 82.6537C136.517 82.5221 136.561 82.6712 136.578 82.6887C136.613 82.7677 136.657 82.8554 136.701 82.9255C136.728 82.9606 136.869 83.1711 136.781 83.0658C136.833 83.136 136.886 83.1974 136.948 83.2588C136.983 83.3026 137.027 83.3377 137.071 83.3815C137.088 83.3991 137.194 83.4868 137.088 83.3991C137.159 83.4517 137.22 83.5043 137.291 83.5482C137.361 83.592 137.44 83.6359 137.51 83.6797C137.528 83.6885 137.66 83.7499 137.537 83.6972C137.581 83.7148 137.616 83.7323 137.66 83.7499C137.827 83.82 138.003 83.8726 138.179 83.9077C138.223 83.9165 138.276 83.9253 138.32 83.934C138.478 83.9691 138.214 83.9165 138.372 83.9428C138.469 83.9603 138.566 83.9691 138.671 83.9779C140.5 84.162 142.506 83.5657 144.194 82.8817C145.082 82.5221 145.953 82.11 146.771 81.6189C146.947 81.5136 147.131 81.3996 147.298 81.2856C147.333 81.2593 147.377 81.233 147.413 81.2067C147.43 81.1979 147.553 81.1102 147.448 81.1804C147.562 81.1015 147.668 81.0138 147.782 80.9261C148.274 80.5314 148.732 80.0842 149.119 79.5843C149.752 78.76 150.262 77.7603 150.341 76.7868C150.359 76.5237 150.359 76.3396 150.341 76.1642C150.323 76.059 150.306 75.9537 150.279 75.8573C150.271 75.8046 150.253 75.7608 150.236 75.7082C150.183 75.5503 150.279 75.8046 150.218 75.6556C150.165 75.5503 150.112 75.4451 150.051 75.3399C150.051 75.3311 149.954 75.1908 150.016 75.2872C149.989 75.2434 149.954 75.2083 149.919 75.1645C149.752 74.9715 149.69 74.9189 149.514 74.8049C148.705 74.2787 147.597 74.2437 146.621 74.4892C145.32 74.8137 144.124 75.5591 143.139 76.4448C142.602 76.9271 142.101 77.4621 141.732 78.0847C141.459 78.5495 141.257 79.1546 141.31 79.6194C141.415 80.4876 142.119 81.1365 142.91 81.461C143.13 81.5487 143.359 81.6189 143.596 81.6802C143.631 81.689 143.675 81.6978 143.71 81.7066C143.825 81.7416 143.561 81.689 143.728 81.7066C143.983 81.7329 144.247 81.7592 144.502 81.7679C145.24 81.7943 145.979 81.7679 146.718 81.7066C146.753 81.7066 146.788 81.7066 146.823 81.6978C146.762 81.6978 146.762 81.6978 146.823 81.6978C146.876 81.6978 146.929 81.689 146.982 81.6802C147.087 81.6715 147.193 81.6627 147.298 81.6452C147.518 81.6189 147.729 81.5926 147.949 81.5662C148.398 81.5049 148.855 81.4259 149.303 81.3382C149.717 81.2505 150.139 81.1541 150.543 81.0313C150.658 80.9962 150.772 80.9611 150.886 80.9261C150.93 80.9085 150.983 80.891 151.027 80.8734C151.045 80.8734 151.203 80.8121 151.071 80.8559C151.247 80.7858 151.423 80.7156 151.599 80.6367C151.774 80.5577 151.95 80.47 152.117 80.3736C152.188 80.3297 152.258 80.2859 152.328 80.242C152.355 80.2245 152.469 80.1456 152.346 80.2333C152.381 80.207 152.408 80.1894 152.443 80.1631C152.575 80.0666 152.689 79.9526 152.803 79.8299C152.83 79.8036 152.9 79.7071 152.803 79.8299C152.821 79.8036 152.847 79.7773 152.865 79.7422C152.891 79.6983 152.926 79.6457 152.962 79.6019C152.988 79.5668 153.006 79.5229 153.023 79.4879C152.944 79.6282 153.006 79.5317 153.023 79.4879C153.041 79.4265 153.067 79.3651 153.085 79.3037C153.102 79.2686 153.102 79.1546 153.085 79.3125C153.085 79.2774 153.094 79.2511 153.094 79.216C153.094 79.1546 153.094 79.0757 153.094 79.0143C153.094 78.9266 153.12 79.1371 153.094 78.988C153.094 78.9529 153.085 78.9178 153.076 78.8828C153.058 78.8038 153.041 78.7337 153.014 78.6635C152.953 78.5144 153.006 78.6284 153.014 78.6635C152.997 78.6284 152.988 78.5934 152.97 78.5583C152.935 78.4881 152.9 78.4267 152.856 78.3654C152.803 78.2864 152.926 78.4443 152.83 78.3303C152.803 78.304 152.786 78.2777 152.759 78.2426C152.707 78.19 152.654 78.1373 152.592 78.0847C152.707 78.19 152.522 78.0321 152.487 78.0146C152.416 77.9707 152.346 77.9269 152.285 77.8918C152.258 77.883 152.091 77.8041 152.232 77.8567C152.188 77.8392 152.153 77.8216 152.117 77.8129C152.047 77.7866 151.986 77.7603 151.915 77.7427C151.827 77.7164 151.748 77.6901 151.66 77.6726C151.616 77.6638 151.572 77.655 151.528 77.6375C151.511 77.6375 151.361 77.6024 151.484 77.6287C151.08 77.5586 150.666 77.541 150.253 77.5673C150.227 77.5673 150.024 77.5849 150.139 77.5673C150.086 77.5673 150.033 77.5761 149.98 77.5849C149.875 77.5936 149.769 77.6112 149.664 77.6287C149.444 77.6638 149.233 77.7164 149.022 77.769C147.36 78.2075 145.759 79.3475 145.293 81.0576C145.276 81.1278 145.258 81.1892 145.24 81.2593C145.24 81.2856 145.214 81.4084 145.24 81.2768C145.223 81.3645 145.214 81.4435 145.205 81.5224C145.205 81.6013 145.197 81.6802 145.205 81.7592C145.205 81.7943 145.205 81.8381 145.205 81.8732C145.17 81.7504 145.205 81.996 145.205 81.8732C145.223 81.9521 145.232 82.0398 145.249 82.1187C145.258 82.1713 145.346 82.373 145.276 82.2064C145.328 82.3292 145.39 82.4432 145.46 82.5572C145.513 82.6361 145.372 82.4607 145.478 82.5747C145.496 82.6011 145.522 82.6274 145.539 82.6537C145.583 82.7063 145.636 82.7501 145.68 82.8028C145.707 82.8291 145.733 82.8466 145.759 82.8729C145.645 82.7677 145.733 82.8466 145.759 82.8729C145.812 82.9168 145.874 82.9518 145.935 82.9957C146.006 83.0395 146.076 83.0834 146.155 83.1272C146.19 83.1448 146.401 83.25 146.261 83.1798C146.392 83.2325 146.524 83.2938 146.656 83.3377C146.823 83.3903 146.99 83.4429 147.166 83.478C147.202 83.4868 147.457 83.5394 147.316 83.5131C147.404 83.5306 147.483 83.5394 147.571 83.5569C147.94 83.6096 148.31 83.6271 148.679 83.6271C148.872 83.6271 149.075 83.6271 149.268 83.6096C149.312 83.6096 149.576 83.5832 149.435 83.6008C149.514 83.6008 149.585 83.5832 149.664 83.5745C150.033 83.5306 150.394 83.4692 150.754 83.3815C150.93 83.3377 151.106 83.2938 151.282 83.2412C151.361 83.2149 151.44 83.1886 151.511 83.1623C151.537 83.1623 151.669 83.1009 151.519 83.1623C151.555 83.1448 151.59 83.136 151.634 83.1185C151.915 83.0045 152.188 82.8817 152.443 82.7151C152.478 82.6975 152.513 82.6712 152.548 82.6449C152.408 82.7326 152.504 82.68 152.531 82.6449C152.575 82.6098 152.61 82.5835 152.654 82.5484C152.698 82.5134 152.742 82.4695 152.777 82.4344C152.795 82.4169 152.812 82.3906 152.83 82.373C152.9 82.3029 152.759 82.487 152.812 82.3994C152.839 82.3467 152.883 82.3029 152.918 82.2503C153.014 82.1187 152.9 82.338 152.935 82.224C152.944 82.1889 152.962 82.1275 152.979 82.0924C153.023 82.0135 152.979 82.224 152.979 82.1363C152.979 82.11 152.979 82.0836 152.979 82.0661C152.979 82.0398 152.979 81.996 152.979 81.9696C152.997 81.8819 153.023 82.1012 152.979 82.0223C152.962 81.9872 152.944 81.9083 152.944 81.8732C152.944 81.7855 153.014 81.9872 152.962 81.9083C152.944 81.8907 152.935 81.8556 152.926 81.8293C152.9 81.7767 152.874 81.7329 152.839 81.6802C152.742 81.5399 152.9 81.7416 152.795 81.6189C152.751 81.5662 152.707 81.5136 152.654 81.4698C152.742 81.5487 152.619 81.4435 152.61 81.4435C152.566 81.4172 152.531 81.3909 152.487 81.3733C152.355 81.3032 152.584 81.4084 152.443 81.3558C152.399 81.3382 152.355 81.3295 152.311 81.3119C152.293 81.3119 152.144 81.2768 152.267 81.3032C152.188 81.2944 152.109 81.2856 152.029 81.2856C152.003 81.2856 151.801 81.2944 151.933 81.2856C151.88 81.2856 151.836 81.2944 151.783 81.3032C151.678 81.3207 151.581 81.347 151.484 81.3733C151.475 81.3733 151.308 81.4347 151.423 81.3909C151.37 81.4084 151.326 81.4347 151.273 81.4522C151.176 81.4961 151.08 81.5399 150.992 81.5926C150.772 81.7153 150.71 81.7592 150.508 81.9521C150.315 82.1275 150.297 82.145 150.165 82.3467C150.13 82.3994 150.095 82.4607 150.068 82.5134C149.989 82.6449 150.104 82.4169 150.051 82.5572C150.016 82.6449 149.989 82.7326 149.963 82.8203C149.989 82.6975 149.963 82.8378 149.963 82.8554C149.963 82.8992 149.963 82.9431 149.963 82.9869C149.963 82.9957 149.972 83.136 149.963 83.0483C149.963 83.1185 149.98 83.1886 149.989 83.25C150.068 83.7586 150.183 84.127 150.411 84.5479C150.543 84.7934 150.587 84.8461 150.746 85.0302C150.807 85.1004 150.877 85.1793 150.948 85.2407C150.983 85.2758 151.018 85.3021 151.053 85.3372C151.168 85.4424 150.965 85.2758 151.089 85.3635C151.247 85.4775 151.405 85.5827 151.581 85.6704C151.704 85.7406 151.475 85.6266 151.607 85.6792C151.651 85.6967 151.687 85.7142 151.722 85.723C151.801 85.7493 151.871 85.7756 151.95 85.7932C152.003 85.8107 152.047 85.8195 152.1 85.8283C151.95 85.7932 152.082 85.8283 152.109 85.8283C152.188 85.8283 152.258 85.8458 152.328 85.8458C152.39 85.8458 152.452 85.8458 152.504 85.8458C152.328 85.8458 152.548 85.837 152.601 85.8283C152.645 85.8195 152.689 85.8019 152.733 85.7932C152.839 85.7756 152.619 85.8546 152.715 85.7932C152.768 85.7581 152.83 85.7318 152.883 85.7055C152.926 85.6792 152.97 85.6178 152.874 85.7142C152.9 85.6967 152.926 85.6792 152.944 85.6529C152.97 85.6353 152.988 85.609 153.014 85.5915C153.094 85.5125 152.944 85.6967 153.006 85.6002C153.032 85.5564 153.138 85.3547 153.076 85.5038C153.102 85.4424 153.12 85.381 153.138 85.3108C153.129 85.4336 153.173 85.1968 153.138 85.3108C153.138 85.2758 153.138 85.2319 153.146 85.1968C153.146 85.1179 153.146 85.039 153.146 84.9601C153.155 85.1179 153.146 84.925 153.129 84.8899C153.12 84.8461 153.111 84.8022 153.102 84.7496C153.085 84.6531 153.05 84.5567 153.014 84.4602C153.05 84.5742 152.988 84.3988 152.988 84.3988C152.962 84.3462 152.944 84.2936 152.918 84.241C152.865 84.127 152.803 84.013 152.742 83.9077L153.058 84.1708C153.225 84.2147 153.094 84.1796 153.05 84.1708C153.217 84.1796 153.085 84.162 153.032 84.1883C152.953 84.2322 153.138 84.127 152.997 84.2059C152.953 84.2322 152.9 84.2585 152.856 84.2936C152.97 84.2147 152.812 84.3374 152.795 84.355C152.742 84.3988 152.698 84.4427 152.654 84.4953C152.61 84.5391 152.61 84.5479 152.636 84.504C152.61 84.5304 152.592 84.5654 152.566 84.5917C152.522 84.6444 152.487 84.697 152.452 84.7584C152.117 85.2758 151.968 85.9335 152.029 86.6175C152.091 87.3015 152.399 87.7839 153.014 88.0382C153.586 88.275 154.149 88.3188 154.712 88.1171C154.993 88.0206 155.31 88.275 155.371 88.5293C155.442 88.845 155.231 89.0818 154.949 89.187C153.832 89.5816 152.346 89.2221 151.572 88.3363C150.658 87.3015 150.772 85.6266 151.361 84.4602C151.599 83.9866 151.968 83.5306 152.443 83.2675C152.645 83.1535 152.883 83.0834 153.12 83.0921C153.524 83.0921 153.718 83.3728 153.876 83.706C154.263 84.5128 154.465 85.5476 153.841 86.293C153.305 86.9332 152.425 87.0385 151.66 86.8543C150.737 86.635 149.972 85.9598 149.488 85.1618C148.925 84.2234 148.582 82.9343 149.119 81.9258C149.585 81.0313 150.587 80.3297 151.634 80.1894C152.671 80.0491 153.762 80.5753 154.026 81.6452C154.184 82.2766 153.885 82.8817 153.41 83.2938C152.865 83.7762 152.153 84.0656 151.467 84.2673C150.658 84.5128 149.805 84.6268 148.96 84.6619C147.501 84.7145 145.592 84.4953 144.634 83.2588C143.376 81.6539 144.493 79.3651 145.838 78.1812C147.36 76.8394 149.629 76.1379 151.643 76.5062C152.504 76.6641 153.331 77.0499 153.823 77.7953C154.272 78.4706 154.307 79.3914 153.947 80.0754C153.586 80.7682 152.856 81.233 152.161 81.5575C151.282 81.9696 150.323 82.224 149.374 82.4169C147.641 82.7589 145.786 82.9606 144.027 82.8203C142.013 82.6537 139.85 81.1453 140.245 78.9091C140.527 77.2779 141.872 75.9362 143.156 74.9891C144.361 74.0946 145.786 73.3755 147.298 73.2439C148.468 73.1387 149.84 73.4369 150.666 74.3314C151.449 75.182 151.563 76.3571 151.344 77.4358C150.833 79.9 148.784 81.7504 146.648 82.8992C144.695 83.9516 142.479 84.7847 140.263 85.0039C139.287 85.1004 138.223 85.1004 137.326 84.7408C136.429 84.3813 135.778 83.7236 135.47 82.8028C134.802 80.7858 135.91 78.5758 137.097 76.9885C138.583 74.9978 140.509 73.3492 142.549 71.9285C143.429 71.3146 144.361 70.7358 145.302 70.2623C146.234 69.7887 147.246 69.359 148.292 69.2801C149.339 69.2012 150.35 69.6835 150.57 70.7709C150.807 71.9723 150.218 73.2527 149.62 74.27C148.749 75.7433 147.536 77.0324 146.305 78.2075C145.021 79.4265 143.64 80.549 142.224 81.6013C141.151 82.3906 140.122 83.2325 139.023 83.9866C138.038 84.6619 136.877 85.4512 135.655 85.5739C134.96 85.6441 134.16 85.4599 133.835 84.7759C133.544 84.1533 133.694 83.4254 133.905 82.8028C134.195 81.9609 134.626 81.1541 135.092 80.3911C135.62 79.5142 136.2 78.6723 136.807 77.8567C137.827 76.4711 138.909 75.1031 140.131 73.8753C141.353 72.6476 142.866 71.6566 144.352 70.7885C145.258 70.2623 146.199 69.78 147.184 69.4116C148.072 69.0784 149.004 68.7978 149.963 68.7978C150.746 68.7978 151.555 69.0433 152.073 69.6484C152.671 70.35 152.865 71.376 152.759 72.2705C152.496 74.4015 150.552 75.8748 148.837 76.7956C147.122 77.7164 145.24 78.3566 143.359 78.8477C141.881 79.2335 140.342 79.3914 138.821 79.4089C137.88 79.4177 136.939 79.3651 136.007 79.1897C135.233 79.0494 134.433 78.8214 133.791 78.3127C133.14 77.8041 132.77 77.1025 132.788 76.2782C132.814 75.2259 133.404 74.2174 134.002 73.393C135.681 71.0778 138.152 69.3853 140.791 68.3067C143.156 67.3332 145.812 66.7194 148.38 66.9211C149.391 67 150.394 67.228 151.264 67.7103C152.135 68.1927 152.883 68.8591 153.437 69.7273C153.982 70.5955 154.193 71.6303 153.955 72.6301C153.656 73.9192 152.636 74.9101 151.581 75.6468C149.259 77.2692 146.164 77.7076 143.394 77.6199C141.995 77.5761 140.597 77.3832 139.252 77.0148C138.144 76.7079 137.027 76.2782 136.112 75.5942L136.13 75.5766L136.024 75.6819Z" fill="#8A8A8A"/>
<path d="M131.179 139.717L194.487 176.172L158.308 197L95 160.545L131.179 139.717Z" fill="#C5D7D9"/>
<path d="M167.683 169.902V170.779L150.376 180.75L120.089 163.307V162.43L167.683 169.902Z" fill="#717171"/>
<path d="M137.396 152.468L167.683 169.902L150.376 179.873L120.089 162.43L137.396 152.468Z" fill="#8A8A8A"/>
<path d="M120.978 138.095L151.256 155.529V180.241L150.376 180.75L120.098 138.972L120.978 138.095Z" fill="#A1A1A1"/>
<path d="M120.098 138.972L150.376 156.406V180.75L120.089 163.307L120.098 138.972Z" fill="#B7B7B7"/>
</g>
<defs>
<clipPath id="clip0_509_1399">
<rect width="115" height="130" fill="white" transform="translate(95 67)"/>
</clipPath>
</defs>
</svg>
