<svg width="304" height="216" viewBox="0 0 304 216" fill="none" xmlns="http://www.w3.org/2000/svg">
<g clip-path="url(#clip0_509_1395)">
<path d="M189.679 126.23C189.679 126.23 173.322 101.342 175.688 98.0969C178.053 94.8609 193.012 108.357 197.101 112.023C197.163 112.084 189.67 126.23 189.67 126.23H189.679Z" fill="#C5C7EC"/>
<path d="M192.977 93.9577L193.988 99.4825L198.473 97.0796C198.473 97.0796 200.109 97.9303 201.665 97.7461C202.316 97.6672 202.976 97.7549 203.556 98.053C203.574 98.053 203.591 98.0706 203.609 98.0794C204.347 98.4389 205.113 98.7722 205.851 99.1405C206.203 99.3159 206.572 99.5 206.942 99.6228C206.994 99.6403 207.056 99.6579 207.118 99.6403C207.17 99.6228 207.206 99.5877 207.241 99.5439C207.812 98.7809 206.194 97.6233 205.675 97.3427C205.482 97.2375 204.726 97.0358 204.567 96.8955C204.295 96.6675 204.18 96.2465 204.321 95.922C204.55 95.3871 205.157 94.9837 205.772 94.5452C205.772 94.5452 209.316 93.3876 210.319 92.6598C211.436 91.8442 210.82 91.511 210.82 91.511C210.82 91.511 211.523 90.9146 211.383 90.5726C211.268 90.3008 210.952 90.1517 210.283 90.3884C210.283 90.3884 210.75 90.0026 210.644 89.6693C210.547 89.3361 210.081 89.3799 209.835 89.4413C209.598 89.494 207.988 90.0815 207.988 90.0815C207.988 90.0815 208.542 89.7921 208.507 89.5115C208.446 89.1432 207.874 89.1607 207.373 89.2572C207.038 89.3186 206.027 89.5641 204.673 89.8886C203.424 90.1867 201.674 90.9322 200.557 91.5636L198.086 92.8615L192.95 93.9577H192.968H192.977Z" fill="#FFCAB2"/>
<path d="M175.485 99.5175C176.532 106.13 198.271 99.4824 198.271 99.4824L198.394 92.686C198.394 92.686 174.368 92.4843 175.485 99.5175Z" fill="#C5C7EC"/>
<path d="M197.391 174.138C183.233 167.85 184.218 162.395 184.218 162.395C184.218 162.395 190.998 112.4 192.036 110.12C192.906 108.217 225.101 117.495 224.31 120.442L219.684 177.076C219.684 177.076 210.011 177.917 197.4 174.138H197.391Z" fill="#C5C7EC"/>
<path d="M202.606 110.322C202.316 111.567 202.298 114.856 202.298 114.856L208.366 116.346L214.311 114.847C214.311 114.847 214.091 113.759 214.021 112.111C211.216 108.471 204.497 108.655 202.597 110.313L202.606 110.322Z" fill="#C5C7EC"/>
<path d="M208.375 106.349C205.799 106.174 204.295 107.121 204.101 108.401L202.219 117.144C201.999 118.6 204.207 119.933 207.144 120.135C210.081 120.328 212.64 119.319 212.86 117.863L212.13 109.331C212.209 108.068 210.943 106.524 208.366 106.349H208.375Z" fill="#FFCAB2"/>
<path d="M230.105 98.8949L227.529 103.885L223.941 100.289C223.941 100.289 222.129 100.64 220.687 100.009C220.089 99.7543 219.429 99.6491 218.787 99.7631C218.761 99.7631 218.743 99.7631 218.726 99.7719C217.908 99.8946 217.081 99.9911 216.272 100.131C215.885 100.193 215.481 100.28 215.085 100.28C215.023 100.28 214.962 100.28 214.909 100.245C214.865 100.219 214.839 100.166 214.821 100.123C214.487 99.2281 216.378 98.588 216.958 98.4652C217.178 98.4213 217.952 98.4389 218.154 98.36C218.48 98.2196 218.708 97.8426 218.673 97.4918C218.611 96.913 218.145 96.3517 217.688 95.7554C217.688 95.7554 214.637 93.6332 213.889 92.6422C213.054 91.546 213.74 91.3969 213.74 91.3969C213.74 91.3969 213.238 90.6252 213.476 90.3358C213.66 90.1078 214.012 90.064 214.575 90.4849C214.575 90.4849 214.25 89.985 214.434 89.6956C214.628 89.4062 215.059 89.5904 215.27 89.7132C215.481 89.8359 216.853 90.862 216.853 90.862C216.853 90.862 216.404 90.4147 216.527 90.1604C216.686 89.8184 217.231 90.0026 217.679 90.2393C217.987 90.3972 218.875 90.9321 220.08 91.6162C221.188 92.2563 222.648 93.4753 223.527 94.4049L225.515 96.3605L230.105 98.8949Z" fill="#FFCAB2"/>
<path d="M221.513 101.605C221.513 101.605 247.315 122.985 250.71 115.636C254.175 108.138 225.568 96.3079 225.568 96.3079L221.513 101.605Z" fill="#C5C7EC"/>
<path d="M200.76 90.4674C199.493 93.0895 198.491 100.149 199.555 104.428C201.349 111.628 205.895 111.295 209.598 110.725C212.64 110.26 218.691 108.348 219.851 99.6754C220.748 93.0105 219.473 87.2489 212.192 86.2229C204.902 85.1968 201.859 88.1873 200.76 90.4674Z" fill="#FFCAB2"/>
<path d="M207.337 90.862C201.155 91.7302 199.177 97.2901 199.177 97.2901C197.013 91.2566 201.226 85.3196 204.937 84.0656C216.202 80.2684 219.623 87.6173 219.623 87.6173C227.766 93.0105 220.564 104.621 216.985 106.752C217.284 102.666 213.933 101.938 213.933 101.938C213.933 101.938 215.428 99.2018 213.775 98.2986C207.786 95.1415 207.337 90.8708 207.337 90.8708V90.862Z" fill="#3A3E3F"/>
<path d="M215.041 100.877C215.041 100.877 213.625 105.069 214.892 105.288C216.158 105.516 217.547 104.7 218.356 102.71C219.157 100.719 219.359 99.5439 217.583 99.0265C215.498 98.4214 215.041 100.877 215.041 100.877Z" fill="#FFCAB2"/>
<path d="M201.788 121.363L204.963 122.161L207.355 119.346L204.77 115.583L201.155 118.109L201.797 121.363H201.788Z" fill="#4D7B60"/>
<path d="M201.788 121.363C201.788 121.363 197.391 130.237 194.911 146.426C194.718 147.706 197.814 151.504 197.814 151.504C197.814 151.504 202.809 148.995 202.888 147.68C203.82 133.28 204.963 122.161 204.963 122.161L201.788 121.363Z" fill="#4D7B60"/>
<path d="M214.021 112.119C214.021 112.119 215.147 114.61 215.718 116.53C212.517 120.95 210.011 121.371 206.625 122.178C205.763 119.021 204.752 115.583 204.752 115.583C209.853 115.426 214.012 112.119 214.012 112.119H214.021Z" fill="#DEE2FF"/>
<path d="M204.77 115.583C204.77 115.583 202.527 117.407 200.496 120.152C199.915 118.109 199.511 116.241 200.408 112.619C201.19 111.839 202.606 110.322 202.606 110.322C202.773 113.549 204.761 115.583 204.761 115.583" fill="#DEE2FF"/>
<path d="M216.457 117.372C215.947 117.328 221.399 134.517 221.399 134.517C221.399 134.517 252.776 118.968 250.894 114.136C249.021 109.296 217.75 117.486 216.448 117.372H216.457Z" fill="#C5C7EC"/>
<path d="M177.024 75.6819C176.787 75.5065 176.681 75.1908 176.857 74.9277C177.007 74.6909 177.385 74.5769 177.622 74.7611C179.249 75.9713 181.474 76.4185 183.514 76.5764C185.959 76.7693 188.588 76.5325 190.822 75.4539C191.869 74.954 192.898 74.2261 193.496 73.2264C193.619 73.0159 193.671 72.9195 193.751 72.6739C193.83 72.4284 193.847 72.3582 193.865 72.1477C193.874 72.0337 193.883 71.911 193.883 71.797C193.883 71.7443 193.883 71.7005 193.883 71.6479C193.883 71.7794 193.883 71.6128 193.883 71.5953C193.847 71.4023 193.803 71.2094 193.751 71.0165C193.733 70.9755 193.733 70.9755 193.751 71.0165C193.751 71.0165 193.724 70.9551 193.715 70.92C193.698 70.8761 193.68 70.8235 193.654 70.7797C193.61 70.692 193.566 70.6043 193.522 70.5166C193.469 70.4289 193.416 70.3412 193.364 70.2623C193.337 70.2184 193.311 70.1746 193.276 70.1395C193.346 70.236 193.241 70.0957 193.241 70.0957C193.1 69.9203 192.959 69.7536 192.801 69.5958C192.73 69.5256 192.651 69.4555 192.572 69.3853C192.546 69.359 192.519 69.3415 192.493 69.3152C192.361 69.2012 192.572 69.3766 192.44 69.2713C191.746 68.7188 191.148 68.4294 190.295 68.2453C190.224 68.2277 190.154 68.219 190.092 68.2014C190.198 68.219 190.022 68.1927 190.022 68.1927C189.916 68.1751 189.802 68.1576 189.697 68.1488C189.468 68.1225 189.239 68.105 189.011 68.0874C188.518 68.0611 188.017 68.0699 187.516 68.105C186.443 68.1751 185.247 68.4031 184.165 68.7101C181.791 69.3766 179.504 70.5254 177.649 72.1565C176.752 72.9458 175.943 73.849 175.353 74.8838C175.142 75.2522 175.002 75.5854 174.879 76.0326C174.843 76.1817 174.879 76.0239 174.861 76.1116C174.861 76.1554 174.852 76.1993 174.843 76.2343C174.843 76.3045 174.826 76.3659 174.826 76.436C174.826 76.4799 174.843 76.7254 174.826 76.5501C174.835 76.6202 174.843 76.6904 174.861 76.7605C174.87 76.8131 174.966 77.0412 174.887 76.8833C174.914 76.9447 174.94 77.0061 174.975 77.0675C175.01 77.1288 175.046 77.1815 175.081 77.2428C174.984 77.1025 175.116 77.2779 175.142 77.313C175.195 77.3744 175.257 77.427 175.318 77.4884C175.222 77.4095 175.406 77.5761 175.318 77.4884C175.345 77.5147 175.38 77.5322 175.406 77.5586C175.529 77.6462 175.661 77.7252 175.793 77.7953C175.82 77.8041 175.978 77.883 175.846 77.8216C175.881 77.8392 175.916 77.8567 175.96 77.8743C176.039 77.9093 176.11 77.9356 176.189 77.962C176.338 78.0146 176.488 78.0672 176.646 78.1023C176.84 78.1549 177.033 78.1987 177.227 78.2338C177.244 78.2338 177.402 78.2601 177.271 78.2338C177.314 78.2338 177.367 78.2513 177.411 78.2601C177.508 78.2777 177.605 78.2864 177.701 78.304C178.528 78.4092 179.372 78.4267 180.208 78.4004C180.595 78.3917 180.99 78.3654 181.377 78.3303C181.237 78.3478 181.439 78.3303 181.465 78.3303C181.509 78.3303 181.553 78.3303 181.606 78.3215C181.694 78.3215 181.782 78.304 181.87 78.2952C182.037 78.2777 182.204 78.2601 182.38 78.2338C183.673 78.0584 184.939 77.6901 186.179 77.2692C186.988 76.9973 187.815 76.6728 188.685 76.2519C189.565 75.8309 190.365 75.3574 191.06 74.7698C191.236 74.6207 191.411 74.4629 191.57 74.2963C191.631 74.2349 191.684 74.1647 191.746 74.1033C191.746 74.1033 191.86 73.9718 191.79 74.0507C191.825 74.0157 191.851 73.9718 191.886 73.928C192.018 73.7613 192.141 73.5772 192.256 73.3842C192.379 73.1738 192.379 73.1738 192.467 72.937C192.625 72.5161 192.66 72.288 192.651 71.8233C192.651 71.8057 192.634 71.5953 192.651 71.7093C192.651 71.6566 192.643 71.6128 192.634 71.5602C192.625 71.4637 192.607 71.3672 192.581 71.2708C192.563 71.1831 192.537 71.0954 192.511 71.0077C192.511 70.9814 192.449 70.8498 192.511 70.9814C192.502 70.9551 192.493 70.9288 192.484 70.9025C192.449 70.8235 192.405 70.7358 192.361 70.6569C192.344 70.6218 192.326 70.5955 192.3 70.5604C192.229 70.4552 192.379 70.6569 192.3 70.5604C192.256 70.5078 192.203 70.4552 192.159 70.4026C192.132 70.3763 192.106 70.35 192.08 70.3324C191.992 70.2447 192.185 70.4026 192.08 70.3324C192.009 70.2886 191.948 70.2447 191.877 70.2009C191.842 70.1834 191.816 70.1658 191.781 70.1483C191.807 70.157 191.921 70.2184 191.781 70.1483C191.64 70.1044 191.499 70.0518 191.359 70.0255C191.508 70.0518 191.236 70.0167 191.192 70.008C191.112 70.008 191.033 69.9992 190.945 69.9992C190.857 69.9992 190.778 69.9992 190.69 69.9992C190.646 69.9992 190.602 69.9992 190.558 69.9992C190.708 69.9904 190.558 69.9992 190.532 69.9992C190.145 70.0518 189.776 70.1307 189.406 70.2272C188.571 70.464 187.779 70.8148 186.935 71.2445C186.1 71.6742 185.282 72.1565 184.499 72.6827C184.306 72.8142 184.104 72.9458 183.91 73.0773C183.998 73.0159 183.857 73.1124 183.857 73.1124C183.813 73.1387 183.769 73.1738 183.734 73.2001C183.655 73.2615 183.567 73.3229 183.488 73.3842C183.18 73.6123 182.872 73.849 182.582 74.0946C182.178 74.4366 181.808 74.7961 181.456 75.1732C181.228 75.4275 180.999 75.6819 180.771 75.9362C180.489 76.2694 180.375 76.4097 180.085 76.7605C179.504 77.4709 178.941 78.2075 178.414 78.9354C177.886 79.672 177.385 80.4174 176.919 81.1979C176.708 81.5575 176.505 81.917 176.33 82.2941C176.312 82.3204 176.303 82.3467 176.286 82.373C176.303 82.338 176.303 82.338 176.286 82.373C176.286 82.373 176.25 82.452 176.233 82.4958C176.198 82.5747 176.162 82.6537 176.127 82.7326C176.066 82.8817 176.004 83.0395 175.951 83.1886C175.907 83.3289 175.863 83.4692 175.828 83.6183C175.828 83.6534 175.811 83.6885 175.802 83.7236C175.776 83.8376 175.82 83.6008 175.802 83.7148C175.802 83.7762 175.784 83.8376 175.776 83.8989C175.776 83.9691 175.767 84.0393 175.776 84.1006C175.776 84.127 175.776 84.1533 175.776 84.1796C175.776 84.2848 175.74 84.048 175.776 84.1357C175.793 84.1796 175.793 84.241 175.802 84.2848C175.828 84.4427 175.749 84.2059 175.802 84.3023C175.846 84.3725 175.934 84.4514 175.811 84.3462C175.837 84.3725 175.881 84.4164 175.907 84.4427C175.951 84.5128 175.793 84.3813 175.872 84.4164C175.899 84.4164 175.907 84.4514 175.934 84.4602C176.092 84.504 175.837 84.4427 175.969 84.4777C176.031 84.4953 176.101 84.5128 176.154 84.5304C176.25 84.5654 176.022 84.5304 176.136 84.5304C176.171 84.5304 176.198 84.5391 176.233 84.5391C176.312 84.5391 176.382 84.5391 176.461 84.5391C176.488 84.5391 176.567 84.5391 176.461 84.5391C176.514 84.5391 176.567 84.5216 176.611 84.5128C177.112 84.4251 177.49 84.241 177.974 83.9954C178.528 83.706 179.056 83.364 179.566 83.0132C180.498 82.373 181.369 81.6627 182.274 80.9787C183.541 80.014 184.833 79.0055 185.977 77.9707C187.12 76.9359 188.237 75.8134 189.134 74.5594C189.503 74.042 189.855 73.4895 190.11 72.9019C190.312 72.4284 190.47 71.9548 190.506 71.4988C190.506 71.3936 190.506 71.2971 190.506 71.1919C190.506 71.034 190.523 71.3059 190.506 71.148C190.506 71.1042 190.488 71.0603 190.479 71.0165C190.47 70.9726 190.453 70.9288 190.444 70.8849C190.409 70.7446 190.497 70.9902 190.444 70.8674C190.409 70.7885 190.374 70.7183 190.33 70.6569C190.435 70.806 190.136 70.4991 190.277 70.5955C190.215 70.5429 190.136 70.4991 190.066 70.464C190.189 70.5254 190.048 70.464 190.031 70.464C189.987 70.4552 189.943 70.4377 189.899 70.4289C189.749 70.3851 190.004 70.4377 189.846 70.4201C189.793 70.4201 189.741 70.4114 189.688 70.4026C189.169 70.3675 188.65 70.5078 188.114 70.6832C188.026 70.7095 188.219 70.6394 188.07 70.7008C188.034 70.7183 187.99 70.7271 187.955 70.7446C187.885 70.7709 187.806 70.7972 187.735 70.8323C187.568 70.9025 187.41 70.9726 187.252 71.0515C186.416 71.4462 185.616 71.9197 184.833 72.4196C183.057 73.5684 181.333 74.9715 179.891 76.5764C179.24 77.2955 178.625 78.111 178.15 78.988C177.939 79.3739 177.781 79.7334 177.631 80.1982C177.596 80.3122 177.561 80.435 177.526 80.5577C177.508 80.6104 177.499 80.663 177.49 80.7156C177.49 80.7156 177.455 80.891 177.473 80.777C177.438 80.9611 177.411 81.1453 177.402 81.3295C177.402 81.4435 177.402 81.5662 177.402 81.6802C177.402 81.7329 177.402 81.7767 177.402 81.8293C177.402 81.9872 177.385 81.7153 177.402 81.8819C177.42 82.0749 177.455 82.2766 177.508 82.4695C177.526 82.5309 177.543 82.5923 177.561 82.6537C177.517 82.5221 177.561 82.6712 177.578 82.6887C177.613 82.7677 177.657 82.8554 177.701 82.9255C177.728 82.9606 177.869 83.1711 177.781 83.0658C177.833 83.136 177.886 83.1974 177.948 83.2588C177.983 83.3026 178.027 83.3377 178.071 83.3815C178.088 83.3991 178.194 83.4868 178.088 83.3991C178.159 83.4517 178.22 83.5043 178.291 83.5482C178.361 83.592 178.44 83.6359 178.51 83.6797C178.528 83.6885 178.66 83.7499 178.537 83.6972C178.581 83.7148 178.616 83.7323 178.66 83.7499C178.827 83.82 179.003 83.8726 179.179 83.9077C179.223 83.9165 179.276 83.9253 179.32 83.934C179.478 83.9691 179.214 83.9165 179.372 83.9428C179.469 83.9603 179.566 83.9691 179.671 83.9779C181.5 84.162 183.506 83.5657 185.194 82.8817C186.082 82.5221 186.953 82.11 187.771 81.6189C187.947 81.5136 188.131 81.3996 188.298 81.2856C188.333 81.2593 188.377 81.233 188.413 81.2067C188.43 81.1979 188.553 81.1102 188.448 81.1804C188.562 81.1015 188.668 81.0138 188.782 80.9261C189.274 80.5314 189.732 80.0842 190.119 79.5843C190.752 78.76 191.262 77.7603 191.341 76.7868C191.359 76.5237 191.359 76.3396 191.341 76.1642C191.323 76.059 191.306 75.9537 191.279 75.8573C191.271 75.8046 191.253 75.7608 191.236 75.7082C191.183 75.5503 191.279 75.8046 191.218 75.6556C191.165 75.5503 191.112 75.4451 191.051 75.3399C191.051 75.3311 190.954 75.1908 191.016 75.2872C190.989 75.2434 190.954 75.2083 190.919 75.1645C190.752 74.9715 190.69 74.9189 190.514 74.8049C189.705 74.2787 188.597 74.2437 187.621 74.4892C186.32 74.8137 185.124 75.5591 184.139 76.4448C183.602 76.9271 183.101 77.4621 182.732 78.0847C182.459 78.5495 182.257 79.1546 182.31 79.6194C182.415 80.4876 183.119 81.1365 183.91 81.461C184.13 81.5487 184.359 81.6189 184.596 81.6802C184.631 81.689 184.675 81.6978 184.71 81.7066C184.825 81.7416 184.561 81.689 184.728 81.7066C184.983 81.7329 185.247 81.7592 185.502 81.7679C186.24 81.7943 186.979 81.7679 187.718 81.7066C187.753 81.7066 187.788 81.7066 187.823 81.6978C187.762 81.6978 187.762 81.6978 187.823 81.6978C187.876 81.6978 187.929 81.689 187.982 81.6802C188.087 81.6715 188.193 81.6627 188.298 81.6452C188.518 81.6189 188.729 81.5926 188.949 81.5662C189.398 81.5049 189.855 81.4259 190.303 81.3382C190.717 81.2505 191.139 81.1541 191.543 81.0313C191.658 80.9962 191.772 80.9611 191.886 80.9261C191.93 80.9085 191.983 80.891 192.027 80.8734C192.045 80.8734 192.203 80.8121 192.071 80.8559C192.247 80.7858 192.423 80.7156 192.599 80.6367C192.774 80.5577 192.95 80.47 193.117 80.3736C193.188 80.3297 193.258 80.2859 193.328 80.242C193.355 80.2245 193.469 80.1456 193.346 80.2333C193.381 80.207 193.408 80.1894 193.443 80.1631C193.575 80.0666 193.689 79.9526 193.803 79.8299C193.83 79.8036 193.9 79.7071 193.803 79.8299C193.821 79.8036 193.847 79.7773 193.865 79.7422C193.891 79.6983 193.926 79.6457 193.962 79.6019C193.988 79.5668 194.006 79.5229 194.023 79.4879C193.944 79.6282 194.006 79.5317 194.023 79.4879C194.041 79.4265 194.067 79.3651 194.085 79.3037C194.102 79.2686 194.102 79.1546 194.085 79.3125C194.085 79.2774 194.094 79.2511 194.094 79.216C194.094 79.1546 194.094 79.0757 194.094 79.0143C194.094 78.9266 194.12 79.1371 194.094 78.988C194.094 78.9529 194.085 78.9178 194.076 78.8828C194.058 78.8038 194.041 78.7337 194.014 78.6635C193.953 78.5144 194.006 78.6284 194.014 78.6635C193.997 78.6284 193.988 78.5934 193.97 78.5583C193.935 78.4881 193.9 78.4267 193.856 78.3654C193.803 78.2864 193.926 78.4443 193.83 78.3303C193.803 78.304 193.786 78.2777 193.759 78.2426C193.707 78.19 193.654 78.1373 193.592 78.0847C193.707 78.19 193.522 78.0321 193.487 78.0146C193.416 77.9707 193.346 77.9269 193.285 77.8918C193.258 77.883 193.091 77.8041 193.232 77.8567C193.188 77.8392 193.153 77.8216 193.117 77.8129C193.047 77.7866 192.986 77.7603 192.915 77.7427C192.827 77.7164 192.748 77.6901 192.66 77.6726C192.616 77.6638 192.572 77.655 192.528 77.6375C192.511 77.6375 192.361 77.6024 192.484 77.6287C192.08 77.5586 191.666 77.541 191.253 77.5673C191.227 77.5673 191.024 77.5849 191.139 77.5673C191.086 77.5673 191.033 77.5761 190.98 77.5849C190.875 77.5936 190.769 77.6112 190.664 77.6287C190.444 77.6638 190.233 77.7164 190.022 77.769C188.36 78.2075 186.759 79.3475 186.293 81.0576C186.276 81.1278 186.258 81.1892 186.24 81.2593C186.24 81.2856 186.214 81.4084 186.24 81.2768C186.223 81.3645 186.214 81.4435 186.205 81.5224C186.205 81.6013 186.197 81.6802 186.205 81.7592C186.205 81.7943 186.205 81.8381 186.205 81.8732C186.17 81.7504 186.205 81.996 186.205 81.8732C186.223 81.9521 186.232 82.0398 186.249 82.1187C186.258 82.1713 186.346 82.373 186.276 82.2064C186.328 82.3292 186.39 82.4432 186.46 82.5572C186.513 82.6361 186.372 82.4607 186.478 82.5747C186.496 82.6011 186.522 82.6274 186.539 82.6537C186.583 82.7063 186.636 82.7501 186.68 82.8028C186.707 82.8291 186.733 82.8466 186.759 82.8729C186.645 82.7677 186.733 82.8466 186.759 82.8729C186.812 82.9168 186.874 82.9518 186.935 82.9957C187.006 83.0395 187.076 83.0834 187.155 83.1272C187.19 83.1448 187.401 83.25 187.261 83.1798C187.392 83.2325 187.524 83.2938 187.656 83.3377C187.823 83.3903 187.99 83.4429 188.166 83.478C188.202 83.4868 188.457 83.5394 188.316 83.5131C188.404 83.5306 188.483 83.5394 188.571 83.5569C188.94 83.6096 189.31 83.6271 189.679 83.6271C189.872 83.6271 190.075 83.6271 190.268 83.6096C190.312 83.6096 190.576 83.5832 190.435 83.6008C190.514 83.6008 190.585 83.5832 190.664 83.5745C191.033 83.5306 191.394 83.4692 191.754 83.3815C191.93 83.3377 192.106 83.2938 192.282 83.2412C192.361 83.2149 192.44 83.1886 192.511 83.1623C192.537 83.1623 192.669 83.1009 192.519 83.1623C192.555 83.1448 192.59 83.136 192.634 83.1185C192.915 83.0045 193.188 82.8817 193.443 82.7151C193.478 82.6975 193.513 82.6712 193.548 82.6449C193.408 82.7326 193.504 82.68 193.531 82.6449C193.575 82.6098 193.61 82.5835 193.654 82.5484C193.698 82.5134 193.742 82.4695 193.777 82.4344C193.795 82.4169 193.812 82.3906 193.83 82.373C193.9 82.3029 193.759 82.487 193.812 82.3994C193.839 82.3467 193.883 82.3029 193.918 82.2503C194.014 82.1187 193.9 82.338 193.935 82.224C193.944 82.1889 193.962 82.1275 193.979 82.0924C194.023 82.0135 193.979 82.224 193.979 82.1363C193.979 82.11 193.979 82.0836 193.979 82.0661C193.979 82.0398 193.979 81.996 193.979 81.9696C193.997 81.8819 194.023 82.1012 193.979 82.0223C193.962 81.9872 193.944 81.9083 193.944 81.8732C193.944 81.7855 194.014 81.9872 193.962 81.9083C193.944 81.8907 193.935 81.8556 193.926 81.8293C193.9 81.7767 193.874 81.7329 193.839 81.6802C193.742 81.5399 193.9 81.7416 193.795 81.6189C193.751 81.5662 193.707 81.5136 193.654 81.4698C193.742 81.5487 193.619 81.4435 193.61 81.4435C193.566 81.4172 193.531 81.3909 193.487 81.3733C193.355 81.3032 193.584 81.4084 193.443 81.3558C193.399 81.3382 193.355 81.3295 193.311 81.3119C193.293 81.3119 193.144 81.2768 193.267 81.3032C193.188 81.2944 193.109 81.2856 193.029 81.2856C193.003 81.2856 192.801 81.2944 192.933 81.2856C192.88 81.2856 192.836 81.2944 192.783 81.3032C192.678 81.3207 192.581 81.347 192.484 81.3733C192.475 81.3733 192.308 81.4347 192.423 81.3909C192.37 81.4084 192.326 81.4347 192.273 81.4522C192.176 81.4961 192.08 81.5399 191.992 81.5926C191.772 81.7153 191.71 81.7592 191.508 81.9521C191.315 82.1275 191.297 82.145 191.165 82.3467C191.13 82.3994 191.095 82.4607 191.068 82.5134C190.989 82.6449 191.104 82.4169 191.051 82.5572C191.016 82.6449 190.989 82.7326 190.963 82.8203C190.989 82.6975 190.963 82.8378 190.963 82.8554C190.963 82.8992 190.963 82.9431 190.963 82.9869C190.963 82.9957 190.972 83.136 190.963 83.0483C190.963 83.1185 190.98 83.1886 190.989 83.25C191.068 83.7586 191.183 84.127 191.411 84.5479C191.543 84.7934 191.587 84.8461 191.746 85.0302C191.807 85.1004 191.877 85.1793 191.948 85.2407C191.983 85.2758 192.018 85.3021 192.053 85.3372C192.168 85.4424 191.965 85.2758 192.089 85.3635C192.247 85.4775 192.405 85.5827 192.581 85.6704C192.704 85.7406 192.475 85.6266 192.607 85.6792C192.651 85.6967 192.687 85.7142 192.722 85.723C192.801 85.7493 192.871 85.7756 192.95 85.7932C193.003 85.8107 193.047 85.8195 193.1 85.8283C192.95 85.7932 193.082 85.8283 193.109 85.8283C193.188 85.8283 193.258 85.8458 193.328 85.8458C193.39 85.8458 193.452 85.8458 193.504 85.8458C193.328 85.8458 193.548 85.837 193.601 85.8283C193.645 85.8195 193.689 85.8019 193.733 85.7932C193.839 85.7756 193.619 85.8546 193.715 85.7932C193.768 85.7581 193.83 85.7318 193.883 85.7055C193.926 85.6792 193.97 85.6178 193.874 85.7142C193.9 85.6967 193.926 85.6792 193.944 85.6529C193.97 85.6353 193.988 85.609 194.014 85.5915C194.094 85.5125 193.944 85.6967 194.006 85.6002C194.032 85.5564 194.138 85.3547 194.076 85.5038C194.102 85.4424 194.12 85.381 194.138 85.3108C194.129 85.4336 194.173 85.1968 194.138 85.3108C194.138 85.2758 194.138 85.2319 194.146 85.1968C194.146 85.1179 194.146 85.039 194.146 84.9601C194.155 85.1179 194.146 84.925 194.129 84.8899C194.12 84.8461 194.111 84.8022 194.102 84.7496C194.085 84.6531 194.05 84.5567 194.014 84.4602C194.05 84.5742 193.988 84.3988 193.988 84.3988C193.962 84.3462 193.944 84.2936 193.918 84.241C193.865 84.127 193.803 84.013 193.742 83.9077L194.058 84.1708C194.225 84.2147 194.094 84.1796 194.05 84.1708C194.217 84.1796 194.085 84.162 194.032 84.1883C193.953 84.2322 194.138 84.127 193.997 84.2059C193.953 84.2322 193.9 84.2585 193.856 84.2936C193.97 84.2147 193.812 84.3374 193.795 84.355C193.742 84.3988 193.698 84.4427 193.654 84.4953C193.61 84.5391 193.61 84.5479 193.636 84.504C193.61 84.5304 193.592 84.5654 193.566 84.5917C193.522 84.6444 193.487 84.697 193.452 84.7584C193.117 85.2758 192.968 85.9335 193.029 86.6175C193.091 87.3015 193.399 87.7839 194.014 88.0382C194.586 88.275 195.149 88.3188 195.712 88.1171C195.993 88.0206 196.31 88.275 196.371 88.5293C196.442 88.845 196.231 89.0818 195.949 89.187C194.832 89.5816 193.346 89.2221 192.572 88.3363C191.658 87.3015 191.772 85.6266 192.361 84.4602C192.599 83.9866 192.968 83.5306 193.443 83.2675C193.645 83.1535 193.883 83.0834 194.12 83.0921C194.524 83.0921 194.718 83.3728 194.876 83.706C195.263 84.5128 195.465 85.5476 194.841 86.293C194.305 86.9332 193.425 87.0385 192.66 86.8543C191.737 86.635 190.972 85.9598 190.488 85.1618C189.925 84.2234 189.582 82.9343 190.119 81.9258C190.585 81.0313 191.587 80.3297 192.634 80.1894C193.671 80.0491 194.762 80.5753 195.026 81.6452C195.184 82.2766 194.885 82.8817 194.41 83.2938C193.865 83.7762 193.153 84.0656 192.467 84.2673C191.658 84.5128 190.805 84.6268 189.96 84.6619C188.501 84.7145 186.592 84.4953 185.634 83.2588C184.376 81.6539 185.493 79.3651 186.838 78.1812C188.36 76.8394 190.629 76.1379 192.643 76.5062C193.504 76.6641 194.331 77.0499 194.823 77.7953C195.272 78.4706 195.307 79.3914 194.947 80.0754C194.586 80.7682 193.856 81.233 193.161 81.5575C192.282 81.9696 191.323 82.224 190.374 82.4169C188.641 82.7589 186.786 82.9606 185.027 82.8203C183.013 82.6537 180.85 81.1453 181.245 78.9091C181.527 77.2779 182.872 75.9362 184.156 74.9891C185.361 74.0946 186.786 73.3755 188.298 73.2439C189.468 73.1387 190.84 73.4369 191.666 74.3314C192.449 75.182 192.563 76.3571 192.344 77.4358C191.833 79.9 189.784 81.7504 187.648 82.8992C185.695 83.9516 183.479 84.7847 181.263 85.0039C180.287 85.1004 179.223 85.1004 178.326 84.7408C177.429 84.3813 176.778 83.7236 176.47 82.8028C175.802 80.7858 176.91 78.5758 178.097 76.9885C179.583 74.9978 181.509 73.3492 183.549 71.9285C184.429 71.3146 185.361 70.7358 186.302 70.2623C187.234 69.7887 188.246 69.359 189.292 69.2801C190.339 69.2012 191.35 69.6835 191.57 70.7709C191.807 71.9723 191.218 73.2527 190.62 74.27C189.749 75.7433 188.536 77.0324 187.305 78.2075C186.021 79.4265 184.64 80.549 183.224 81.6013C182.151 82.3906 181.122 83.2325 180.023 83.9866C179.038 84.6619 177.877 85.4512 176.655 85.5739C175.96 85.6441 175.16 85.4599 174.835 84.7759C174.544 84.1533 174.694 83.4254 174.905 82.8028C175.195 81.9609 175.626 81.1541 176.092 80.3911C176.62 79.5142 177.2 78.6723 177.807 77.8567C178.827 76.4711 179.909 75.1031 181.131 73.8753C182.353 72.6476 183.866 71.6566 185.352 70.7885C186.258 70.2623 187.199 69.78 188.184 69.4116C189.072 69.0784 190.004 68.7978 190.963 68.7978C191.746 68.7978 192.555 69.0433 193.073 69.6484C193.671 70.35 193.865 71.376 193.759 72.2705C193.496 74.4015 191.552 75.8748 189.837 76.7956C188.122 77.7164 186.24 78.3566 184.359 78.8477C182.881 79.2335 181.342 79.3914 179.821 79.4089C178.88 79.4177 177.939 79.3651 177.007 79.1897C176.233 79.0494 175.433 78.8214 174.791 78.3127C174.14 77.8041 173.77 77.1025 173.788 76.2782C173.814 75.2259 174.404 74.2174 175.002 73.393C176.681 71.0778 179.152 69.3853 181.791 68.3067C184.156 67.3332 186.812 66.7194 189.38 66.9211C190.391 67 191.394 67.228 192.264 67.7103C193.135 68.1927 193.883 68.8591 194.437 69.7273C194.982 70.5955 195.193 71.6303 194.955 72.6301C194.656 73.9192 193.636 74.9101 192.581 75.6468C190.259 77.2692 187.164 77.7076 184.394 77.6199C182.995 77.5761 181.597 77.3832 180.252 77.0148C179.144 76.7079 178.027 76.2782 177.112 75.5942L177.13 75.5766L177.024 75.6819Z" fill="#8A8A8A"/>
<path d="M172.179 139.717L235.487 176.172L199.308 197L136 160.545L172.179 139.717Z" fill="#C5D7D9"/>
<path d="M208.683 169.902V170.779L191.376 180.75L161.089 163.307V162.43L208.683 169.902Z" fill="#717171"/>
<path d="M178.396 152.468L208.683 169.902L191.376 179.873L161.089 162.43L178.396 152.468Z" fill="#8A8A8A"/>
<path d="M161.978 138.095L192.256 155.529V180.241L191.376 180.75L161.098 138.972L161.978 138.095Z" fill="#A1A1A1"/>
<path d="M161.098 138.972L191.376 156.406V180.75L161.089 163.307L161.098 138.972Z" fill="#B7B7B7"/>
</g>
<g clip-path="url(#clip1_509_1395)">
<path d="M102 152.814L53 181V81.1855L101.987 53L102 152.814Z" fill="#E6E6E6"/>
<path d="M68.105 105.049L96.6296 88.6452L96.6165 80.0659L68.105 96.4695V105.049Z" fill="white"/>
<path d="M65.8968 97.7323L59.873 101.208V109.788L65.8968 106.325V97.7323Z" fill="#BCBCBC"/>
<path d="M73.5277 116.544L96.6296 103.252L96.6165 94.6859L73.5277 107.965V116.544Z" fill="white"/>
<path d="M71.3325 109.228L59.873 115.815V124.395L71.3325 117.807V109.228Z" fill="#BCBCBC"/>
<path d="M68.105 148.883L96.6296 132.479L96.6165 123.9L68.105 140.303V148.883Z" fill="white"/>
<path d="M65.8968 141.566L59.873 145.042V153.622L65.8968 150.146V141.566Z" fill="#BCBCBC"/>
<path d="M96.6296 147.086L59.873 168.229V159.649L96.6165 138.507L96.6296 147.086Z" fill="#4AC2B8"/>
<path d="M73.5277 87.3173L96.6296 74.0252L96.6165 65.4589L73.5277 78.738V87.3173Z" fill="white"/>
<path d="M71.3325 80.0008L59.873 86.6013V95.1806L71.3325 88.5931V80.0008Z" fill="#BCBCBC"/>
<path d="M68.105 134.276L96.6296 117.859L96.6165 109.293L68.105 125.696V134.276Z" fill="white"/>
<path d="M65.8968 126.959L59.873 130.422V139.015L65.8968 135.539V126.959Z" fill="#BCBCBC"/>
</g>
<g clip-path="url(#clip2_509_1395)">
<path d="M155 121.814L106 150V50.1855L154.987 22L155 121.814Z" fill="#E6E6E6"/>
<path d="M121.105 74.0488L149.63 57.6452L149.617 49.0659L121.105 65.4695V74.0488Z" fill="white"/>
<path d="M118.897 66.7323L112.873 70.2083V78.7876L118.897 75.3246V66.7323Z" fill="#BCBCBC"/>
<path d="M126.528 85.5443L149.63 72.2522L149.617 63.6859L126.528 76.965V85.5443Z" fill="white"/>
<path d="M124.333 78.2278L112.873 84.8153V93.3946L124.333 86.8072V78.2278Z" fill="#BCBCBC"/>
<path d="M121.105 117.883L149.63 101.479L149.617 92.8999L121.105 109.303V117.883Z" fill="white"/>
<path d="M118.897 110.566L112.873 114.042V122.622L118.897 119.146V110.566Z" fill="#BCBCBC"/>
<path d="M149.63 116.086L112.873 137.229V128.649L149.617 107.507L149.63 116.086Z" fill="#4AC2B8"/>
<path d="M126.528 56.3173L149.63 43.0252L149.617 34.4589L126.528 47.738V56.3173Z" fill="white"/>
<path d="M124.333 49.0008L112.873 55.6013V64.1806L124.333 57.5931V49.0008Z" fill="#BCBCBC"/>
<path d="M121.105 103.276L149.63 86.8592L149.617 78.2929L121.105 94.6965V103.276Z" fill="white"/>
<path d="M118.897 95.9594L112.873 99.4223V108.015L118.897 104.539V95.9594Z" fill="#BCBCBC"/>
</g>
<defs>
<clipPath id="clip0_509_1395">
<rect width="115" height="130" fill="white" transform="translate(136 67)"/>
</clipPath>
<clipPath id="clip1_509_1395">
<rect width="49" height="128" fill="white" transform="translate(53 53)"/>
</clipPath>
<clipPath id="clip2_509_1395">
<rect width="49" height="128" fill="white" transform="translate(106 22)"/>
</clipPath>
</defs>
</svg>
