<svg width="200" height="180" viewBox="0 0 200 180" fill="none" xmlns="http://www.w3.org/2000/svg">
<path fill-rule="evenodd" clip-rule="evenodd" d="M51 28.5V42L144.531 96.5V82.5L146.263 81.5L52.7321 27.5L51 28.5Z" fill="#1E9384"/>
<path fill-rule="evenodd" clip-rule="evenodd" d="M144.531 82.5V140.5C144.531 143.151 143.637 145.045 142.179 145.993L143.911 144.993C145.37 144.045 146.263 142.151 146.263 139.5V81.5L144.531 82.5Z" fill="#1E9384"/>
<g clip-path="url(#clip0_509_1504)">
<path d="M51 28.5117L144.609 82.5572V140.5C144.609 146.023 140.732 148.261 135.949 145.5L59.6603 101.455C54.8773 98.6932 51 91.9774 51 86.4546V28.5117Z" fill="#FAFAFA"/>
<rect width="108.091" height="10" transform="matrix(0.866025 0.5 0 1 51 28.5117)" fill="#1E9384"/>
<rect width="108.091" height="32" transform="matrix(0.866025 0.5 0 1 51 64.5117)" fill="#C6F6F0"/>
<path d="M134.849 128.314L137.771 134.971C138.486 136.616 138.644 136.959 139.056 137.785L135.904 135.965C135.734 135.419 135.383 134.474 135.067 133.704L133.188 129.147L131.964 129.854V131.618C131.964 132.486 131.988 132.962 132.061 133.746L129.49 132.262C129.563 131.59 129.587 131.086 129.587 130.246V122.742C129.587 121.888 129.563 121.328 129.49 120.614L132.061 122.098C131.988 122.784 131.964 123.232 131.964 124.114V126.592L134.376 125.003C134.849 124.702 135.164 124.408 135.431 124.044L138.705 125.934C138.486 126.06 138.402 126.123 138.232 126.221C137.601 126.585 137.601 126.585 137.383 126.711L134.849 128.314Z" fill="#1E9384"/>
<path d="M122.385 118.262L124.689 123.568C125.04 124.373 125.271 124.954 125.562 125.738C125.513 125.066 125.489 124.408 125.489 123.624V120.432C125.489 119.508 125.465 118.934 125.392 118.248L127.974 119.739C127.902 120.327 127.877 120.901 127.877 121.811V129.245C127.877 130.099 127.914 130.764 127.974 131.387L125.319 129.854C125.101 129.196 124.822 128.517 124.41 127.551L122.167 122.35C121.839 121.601 121.633 121.062 121.294 120.124C121.354 120.789 121.379 121.573 121.379 122.259V125.395C121.379 126.361 121.403 126.991 121.476 127.635L118.893 126.144C118.966 125.64 118.99 125.038 118.99 124.002V116.638C118.99 115.826 118.966 115.182 118.893 114.496L121.524 116.015C121.645 116.463 121.912 117.177 122.385 118.262Z" fill="#1E9384"/>
<path d="M118.055 125.66L115.218 124.022C115.121 123.294 115.048 122.888 114.927 122.342L114.6 120.963L111.144 118.968L110.817 119.969C110.659 120.438 110.574 120.823 110.514 121.306L107.677 119.668C107.859 119.353 107.968 119.08 108.259 118.296L110.878 111.38C111.096 110.82 111.205 110.463 111.266 110.092L114.43 111.919C114.515 112.374 114.6 112.787 114.842 113.669L117.473 123.616C117.704 124.491 117.898 125.177 118.055 125.66ZM114.006 118.268L112.854 113.403L111.726 116.952L114.006 118.268Z" fill="#1E9384"/>
<path d="M103.774 117.415L100.476 115.511C99.5549 114.979 99.2033 114.79 98.682 114.517C98.7547 113.957 98.779 113.495 98.779 112.515V104.857C98.779 104.115 98.7547 103.499 98.682 102.785C99.3003 103.184 99.4701 103.282 100.464 103.856L103.641 105.69C105.605 106.824 106.757 108.581 106.757 110.429C106.757 111.283 106.514 111.815 106.054 112.025C105.787 112.137 105.569 112.151 105.072 112.074C105.666 112.571 105.981 112.921 106.332 113.474C106.854 114.307 107.121 115.217 107.121 116.141C107.121 118.157 105.884 118.633 103.774 117.415ZM101.155 108.749L103.289 109.981C103.932 110.352 104.332 110.149 104.332 109.463C104.332 108.777 103.956 108.168 103.265 107.769L101.155 106.551V108.749ZM101.155 110.989V113.593L103.386 114.881C104.15 115.322 104.611 115.098 104.611 114.272C104.611 113.46 104.15 112.718 103.374 112.27L101.155 110.989Z" fill="#1E9384"/>
</g>
<rect width="86" height="5.99496" transform="matrix(0.866025 0.5 0 1 60.5263 53.9949)" fill="#1E9384"/>
<defs>
<clipPath id="clip0_509_1504">
<path d="M51 28.5117L144.609 82.5572V140.5C144.609 146.023 140.732 148.261 135.949 145.5L59.6603 101.455C54.8773 98.6932 51 91.9774 51 86.4546V28.5117Z" fill="white"/>
</clipPath>
</defs>
</svg>
