<svg width="200" height="180" viewBox="0 0 200 180" fill="none" xmlns="http://www.w3.org/2000/svg">
<path d="M40.1706 48.9452C32.5839 51.2976 30.2976 53.5839 27.9452 61.1706C27.8068 61.6098 27.1871 61.6098 27.0548 61.1706C24.7084 53.5839 22.4161 51.2976 14.8294 48.9452C14.3902 48.8068 14.3902 48.1871 14.8294 48.0548C22.4221 45.7024 24.7084 43.4161 27.0548 35.8294C27.1932 35.3902 27.8129 35.3902 27.9452 35.8294C30.2916 43.4161 32.5839 45.7024 40.1706 48.0548C40.6098 48.1932 40.6098 48.8129 40.1706 48.9452Z" fill="#FFC51A"/>
<path d="M175.221 68.8767C168.802 70.8672 166.867 72.8017 164.877 79.2213C164.76 79.5929 164.235 79.5929 164.123 79.2213C162.138 72.8017 160.198 70.8672 153.779 68.8767C153.407 68.7596 153.407 68.2353 153.779 68.1233C160.203 66.1328 162.138 64.1983 164.123 57.7787C164.24 57.4071 164.765 57.4071 164.877 57.7787C166.862 64.1983 168.802 66.1328 175.221 68.1233C175.593 68.2404 175.593 68.7647 175.221 68.8767Z" fill="#FFC51A"/>
<path d="M182.31 84.2569C177.933 85.614 176.614 86.933 175.257 91.31C175.177 91.5633 174.82 91.5633 174.743 91.31C173.389 86.933 172.067 85.614 167.69 84.2569C167.437 84.177 167.437 83.8195 167.69 83.7431C172.07 82.386 173.389 81.067 174.743 76.69C174.823 76.4367 175.18 76.4367 175.257 76.69C176.611 81.067 177.933 82.386 182.31 83.7431C182.563 83.823 182.563 84.1805 182.31 84.2569Z" fill="#FFC51A"/>
<path fill-rule="evenodd" clip-rule="evenodd" d="M55.3513 32.0069C56.9308 30.98 59.1731 31.064 61.6602 32.4999L137.87 76.4999C142.654 79.2614 146.531 85.9771 146.531 91.4999V139.5C146.531 142.151 145.637 144.045 144.179 144.993L145.045 144.493C146.503 143.545 147.397 141.651 147.397 139V90.9999C147.397 85.4771 143.52 78.7614 138.736 75.9999L62.5262 31.9999C60.0391 30.564 57.7969 30.48 56.2173 31.5069L55.3513 32.0069Z" fill="#1E9384"/>
<path fill-rule="evenodd" clip-rule="evenodd" d="M144.179 144.993C142.6 146.02 140.358 145.936 137.87 144.5L61.6603 100.5C56.8773 97.7385 53 91.0227 53 85.4999V37.4999C53 34.8489 53.8933 32.9547 55.3514 32.0068L56.2174 31.5068C54.7594 32.4547 53.866 34.3489 53.866 36.9999V84.9999C53.866 90.5227 57.7434 97.2385 62.5263 99.9999L138.737 144C141.224 145.436 143.466 145.52 145.045 144.493L144.179 144.993Z" fill="#1E9384"/>
<g clip-path="url(#clip0_509_1507)">
<rect width="108" height="68" rx="10" transform="matrix(0.866025 0.5 0 1 53 27.5)" fill="#3EC3B5"/>
<rect width="108" height="12" transform="matrix(0.866025 0.5 0 1 53 35.5)" fill="#1E9384"/>
<path d="M59.9282 45.5L65.1244 44.5V52.5L59.9282 45.5Z" fill="white"/>
<rect width="86" height="6" transform="matrix(0.866025 0.5 0 1 62.5263 85)" fill="white"/>
<rect width="16" height="16" rx="5" transform="matrix(0.866025 0.5 0 1 59.0622 59)" fill="#FFC924"/>
<path d="M132.795 112.062V106.303C132.795 105.584 132.777 105.225 132.713 104.702C133.079 104.934 133.307 105.077 134.067 105.515L135.98 106.62C137.105 107.27 138.011 108.152 138.625 109.193C139.293 110.34 139.631 111.645 139.631 113.05C139.631 114.498 139.265 115.449 138.57 115.851C137.957 116.194 137.087 116.051 135.998 115.423L134.067 114.308C133.362 113.901 133.106 113.763 132.722 113.563C132.777 113.129 132.795 112.791 132.795 112.062ZM134.607 112.77L135.833 113.478C136.428 113.822 136.849 113.885 137.179 113.695C137.554 113.468 137.755 112.876 137.755 111.999C137.755 111.1 137.581 110.345 137.224 109.727C136.904 109.172 136.465 108.749 135.806 108.369L134.607 107.676V112.77Z" fill="white"/>
<path d="M131.95 113.086L129.809 111.849C129.754 111.479 129.644 110.983 129.36 109.942C129.068 108.853 128.958 108.547 128.729 108.182C128.537 107.871 128.308 107.654 128.015 107.485L127.082 106.946V108.679C127.082 109.398 127.1 109.799 127.155 110.317L125.187 109.181C125.242 108.727 125.26 108.42 125.26 107.638V101.953C125.26 101.297 125.242 100.896 125.187 100.357C125.59 100.611 125.929 100.817 126.551 101.176L128.93 102.55C130.413 103.406 131.273 104.79 131.273 106.312C131.273 107.062 131.09 107.548 130.733 107.733C130.504 107.844 130.312 107.849 129.864 107.76C130.331 108.198 130.541 108.563 130.834 109.482C130.971 109.9 131.099 110.333 131.511 111.712C131.612 112.066 131.722 112.394 131.95 113.086ZM127.082 105.139L128.509 105.963C129.049 106.275 129.379 106.085 129.379 105.482C129.379 104.89 129.086 104.415 128.518 104.087L127.082 103.258V105.139Z" fill="white"/>
<path d="M124.555 108.816L122.413 107.579C122.34 107.03 122.285 106.723 122.193 106.311L121.946 105.27L119.338 103.764L119.091 104.52C118.972 104.874 118.908 105.165 118.862 105.529L116.721 104.293C116.858 104.055 116.94 103.849 117.16 103.257L119.137 98.0367C119.301 97.614 119.384 97.3446 119.43 97.0645L121.818 98.4436C121.882 98.7871 121.946 99.0988 122.129 99.7646L124.115 107.273C124.289 107.933 124.436 108.451 124.555 108.816ZM121.498 103.236L120.629 99.5638L119.777 102.243L121.498 103.236Z" fill="white"/>
<path d="M116.266 97.8797L114.38 97.2139C114.206 96.1519 113.721 95.3963 112.934 94.9418C111.818 94.2972 111.168 94.9366 111.168 96.6802C111.168 98.4028 111.845 99.84 112.98 100.495C113.483 100.786 113.914 100.791 114.179 100.522C114.335 100.358 114.399 100.183 114.453 99.7713L116.357 101.198C116.183 101.996 115.982 102.397 115.597 102.693C115.03 103.116 114.142 103.005 113.035 102.366C111.918 101.721 110.976 100.775 110.326 99.6392C109.649 98.4556 109.264 96.9973 109.264 95.5812C109.264 94.144 109.649 93.1506 110.372 92.7438C111.003 92.4003 111.928 92.543 112.998 93.1612C114.179 93.8428 115.103 94.8415 115.698 96.1043C115.991 96.7067 116.147 97.1875 116.266 97.8797Z" fill="white"/>
<path d="M103.334 87.7718L105.302 88.9079C105.247 89.3094 105.228 89.6899 105.228 90.4296V96.0939C105.228 96.7808 105.247 97.1507 105.302 97.7002L103.334 96.5642C103.389 96.152 103.407 95.7716 103.407 95.0424V92.9923L100.323 91.2116V93.2618C100.323 93.9487 100.341 94.3608 100.396 94.8681L98.4286 93.732C98.4835 93.3305 98.5018 92.95 98.5018 92.2103V86.546C98.5018 85.8168 98.4835 85.4258 98.4286 84.9397L100.396 86.0757C100.341 86.5407 100.323 86.9423 100.323 87.5975V89.3517L103.407 91.1324V89.3781C103.407 88.649 103.389 88.2157 103.334 87.7718Z" fill="white"/>
<path d="M91.2108 86.9122L93.1144 87.7999C93.151 88.2015 93.215 88.4287 93.3523 88.7193C93.5719 89.1632 93.9563 89.5647 94.4231 89.8342C95.1278 90.2411 95.5488 90.1248 95.5488 89.533C95.5488 89.2054 95.4023 88.8356 95.1644 88.5714C94.9722 88.3547 94.7434 88.1487 93.7916 87.3455C92.9496 86.648 92.6568 86.3521 92.3181 85.8819C91.7416 85.084 91.4304 84.1963 91.4304 83.3403C91.4304 81.7129 92.5652 81.343 94.3682 82.384C95.5305 83.055 96.4182 83.9797 96.9124 85.0576C97.1412 85.5384 97.251 85.9189 97.37 86.5899L95.4298 85.7128C95.32 84.9625 94.9905 84.4869 94.295 84.0854C93.7367 83.7631 93.3248 83.874 93.3248 84.3601C93.3248 84.656 93.4621 84.9572 93.755 85.2848C93.938 85.4856 93.938 85.4856 95.018 86.3627C95.7135 86.9334 96.1528 87.3666 96.5006 87.8211C97.1595 88.677 97.489 89.5753 97.489 90.5475C97.489 91.3401 97.2693 91.8896 96.8483 92.1221C96.3175 92.4075 95.5122 92.2489 94.4414 91.6307C93.6635 91.1816 92.8947 90.5475 92.4005 89.9346C91.9429 89.3745 91.6043 88.7246 91.4121 88.0113C91.3206 87.7048 91.2748 87.4353 91.2108 86.9122Z" fill="white"/>
<path d="M90.807 89.3317L88.6655 88.0953C88.5922 87.5457 88.5373 87.2393 88.4458 86.8271L88.1987 85.7862L85.5904 84.2803L85.3433 85.0359C85.2243 85.3899 85.1603 85.6805 85.1145 86.0451L82.973 84.8087C83.1102 84.5709 83.1926 84.3649 83.4123 83.7731L85.3891 78.5526C85.5538 78.1299 85.6362 77.8604 85.6819 77.5804L88.0706 78.9595C88.1346 79.3029 88.1987 79.6147 88.3817 80.2804L90.3677 87.7888C90.5416 88.4493 90.688 88.9671 90.807 89.3317ZM87.7503 83.7519L86.8808 80.0796L86.0297 82.7586L87.7503 83.7519Z" fill="white"/>
<path d="M82.5179 78.3955L80.6326 77.7298C80.4587 76.6677 79.9736 75.9121 79.1866 75.4577C78.07 74.8131 77.4203 75.4524 77.4203 77.1961C77.4203 78.9186 78.0975 80.3559 79.2323 81.0111C79.7357 81.3017 80.1658 81.3069 80.4312 81.0375C80.5868 80.8737 80.6509 80.6993 80.7058 80.2872L82.6094 81.7138C82.4355 82.5117 82.2342 82.9132 81.8498 83.2091C81.2824 83.6318 80.3946 83.5209 79.2873 82.8815C78.1707 82.2369 77.2281 81.2911 76.5783 80.1551C75.901 78.9715 75.5167 77.5131 75.5167 76.0971C75.5167 74.6599 75.901 73.6665 76.624 73.2596C77.2555 72.9162 78.1799 73.0588 79.2506 73.6771C80.4312 74.3587 81.3556 75.3573 81.9505 76.6202C82.2433 77.2225 82.3989 77.7034 82.5179 78.3955Z" fill="white"/>
</g>
<defs>
<clipPath id="clip0_509_1507">
<rect width="108" height="68" rx="10" transform="matrix(0.866025 0.5 0 1 53 27.5)" fill="white"/>
</clipPath>
</defs>
</svg>
