<svg width="203" height="180" viewBox="0 0 203 180" fill="none" xmlns="http://www.w3.org/2000/svg">
<path fill-rule="evenodd" clip-rule="evenodd" d="M68 38.5V52L161.531 106.5V92.5L163.263 91.5L69.7321 37.5L68 38.5Z" fill="#1E9384"/>
<path fill-rule="evenodd" clip-rule="evenodd" d="M161.531 92.5V150.5C161.531 153.151 160.637 155.045 159.179 155.993L160.911 154.993C162.37 154.045 163.263 152.151 163.263 149.5V91.5L161.531 92.5Z" fill="#1E9384"/>
<g clip-path="url(#clip0_509_1515)">
<path d="M68 38.5117L161.609 92.5572V150.5C161.609 156.023 157.732 158.261 152.949 155.5L76.6603 111.455C71.8773 108.693 68 101.977 68 96.4546V38.5117Z" fill="#FAFAFA"/>
<rect width="108.091" height="10" transform="matrix(0.866025 0.5 0 1 68 38.5117)" fill="#1E9384"/>
<rect width="108.091" height="32" transform="matrix(0.866025 0.5 0 1 68 74.5117)" fill="#C6F6F0"/>
<path d="M151.849 138.314L154.771 144.971C155.486 146.616 155.644 146.959 156.056 147.785L152.904 145.965C152.734 145.419 152.383 144.474 152.067 143.704L150.188 139.147L148.964 139.854V141.618C148.964 142.486 148.988 142.962 149.061 143.746L146.49 142.262C146.563 141.59 146.587 141.086 146.587 140.246V132.742C146.587 131.888 146.563 131.328 146.49 130.614L149.061 132.098C148.988 132.784 148.964 133.232 148.964 134.114V136.592L151.376 135.003C151.849 134.702 152.164 134.408 152.431 134.044L155.705 135.934C155.486 136.06 155.402 136.123 155.232 136.221C154.601 136.585 154.601 136.585 154.383 136.711L151.849 138.314Z" fill="#1E9384"/>
<path d="M139.385 128.262L141.689 133.568C142.04 134.373 142.271 134.954 142.562 135.738C142.513 135.066 142.489 134.408 142.489 133.624V130.432C142.489 129.508 142.465 128.934 142.392 128.248L144.974 129.739C144.902 130.327 144.877 130.901 144.877 131.811V139.245C144.877 140.099 144.914 140.764 144.974 141.387L142.319 139.854C142.101 139.196 141.822 138.517 141.41 137.551L139.167 132.35C138.839 131.601 138.633 131.062 138.294 130.124C138.354 130.789 138.379 131.573 138.379 132.259V135.395C138.379 136.361 138.403 136.991 138.476 137.635L135.893 136.144C135.966 135.64 135.99 135.038 135.99 134.002V126.638C135.99 125.826 135.966 125.182 135.893 124.496L138.524 126.015C138.645 126.463 138.912 127.177 139.385 128.262Z" fill="#1E9384"/>
<path d="M135.055 135.66L132.218 134.022C132.121 133.294 132.048 132.888 131.927 132.342L131.6 130.963L128.144 128.968L127.817 129.969C127.659 130.438 127.574 130.823 127.514 131.306L124.677 129.668C124.859 129.353 124.968 129.08 125.259 128.296L127.878 121.38C128.096 120.82 128.205 120.463 128.266 120.092L131.43 121.919C131.515 122.374 131.6 122.787 131.842 123.669L134.473 133.616C134.704 134.491 134.898 135.177 135.055 135.66ZM131.006 128.268L129.854 123.403L128.726 126.952L131.006 128.268Z" fill="#1E9384"/>
<path d="M120.774 127.415L117.476 125.511C116.555 124.979 116.203 124.79 115.682 124.517C115.755 123.957 115.779 123.495 115.779 122.515V114.857C115.779 114.115 115.755 113.499 115.682 112.785C116.3 113.184 116.47 113.282 117.464 113.856L120.641 115.69C122.605 116.824 123.757 118.581 123.757 120.429C123.757 121.283 123.514 121.815 123.054 122.025C122.787 122.137 122.569 122.151 122.072 122.074C122.666 122.571 122.981 122.921 123.332 123.474C123.854 124.307 124.121 125.217 124.121 126.141C124.121 128.157 122.884 128.633 120.774 127.415ZM118.155 118.749L120.289 119.981C120.932 120.352 121.332 120.149 121.332 119.463C121.332 118.777 120.956 118.168 120.265 117.769L118.155 116.551V118.749ZM118.155 120.989V123.593L120.386 124.881C121.15 125.322 121.611 125.098 121.611 124.272C121.611 123.46 121.15 122.718 120.374 122.27L118.155 120.989Z" fill="#1E9384"/>
</g>
<rect width="86" height="5.99496" transform="matrix(0.866025 0.5 0 1 77.5262 63.9949)" fill="#1E9384"/>
<ellipse cx="62.5812" cy="76.5809" rx="18" ry="28.5" transform="rotate(-37.2609 62.5812 76.5809)" fill="white"/>
<path d="M62.0006 47.8568C48.7452 40.2037 38 46.4082 38 61.7121C38 77.0159 48.7452 95.6293 62.0006 103.282C75.2561 110.935 86 104.73 86 89.4249C86 74.1195 75.2548 55.5091 62.0006 47.8568ZM45.6845 61.3094L58.5832 73.2285C58.5832 73.2285 55.9026 77.6332 50.4761 72.6862C45.0503 67.7396 45.6845 61.3094 45.6845 61.3094ZM62 92.0017C56.1219 88.608 51.3574 79.6904 51.3574 79.6904C51.3574 79.6904 56.1219 84.0943 62 87.488C67.8781 90.8817 72.6426 91.9794 72.6426 91.9794C72.6426 91.9794 67.8774 95.3951 62 92.0017ZM73.5239 85.9921C68.0981 84.6735 65.4168 77.1731 65.4168 77.1731L78.3155 80.1482C78.3155 80.1482 78.9497 87.3107 73.5239 85.9921Z" fill="#E27070"/>
<path d="M37.6431 55L22.139 41.8687L22.0579 48.8271L3.64307 27L19.3636 38.403L20.0466 32.6596L37.6431 55Z" fill="#F9A800"/>
<path d="M34.9678 58.2046L18.8885 54.3868L21.396 59.4661L0 50.4104L15.5988 52.8943L13.9756 48.475L34.9678 58.2046Z" fill="#F9A800"/>
<defs>
<clipPath id="clip0_509_1515">
<path d="M68 38.5117L161.609 92.5572V150.5C161.609 156.023 157.732 158.261 152.949 155.5L76.6603 111.455C71.8773 108.693 68 101.977 68 96.4546V38.5117Z" fill="white"/>
</clipPath>
</defs>
</svg>
