<svg width="200" height="180" viewBox="0 0 200 180" fill="none" xmlns="http://www.w3.org/2000/svg">
<path d="M99.0642 19.3096C99.7689 18.8488 100.769 18.8868 101.879 19.5312L148.245 46.459C150.379 47.6985 152.108 50.712 152.108 53.1904V160.901C152.108 162.091 151.71 162.941 151.059 163.366C151.008 163.4 150.955 163.429 150.901 163.457L147.195 165.61C146.49 166.071 145.49 166.034 144.381 165.39L98.0154 138.462C95.8815 137.223 94.1511 134.208 94.1511 131.729V24.0186C94.1512 22.8291 94.5496 21.9791 95.2 21.5537C95.2507 21.5205 95.3034 21.4899 95.3572 21.4619L99.0642 19.3096Z" fill="#B9B9B9"/>
<path d="M94.1511 23.8976C94.1511 21.6884 95.6998 20.797 97.6101 21.9064L145.65 49.8066C147.083 50.6387 148.244 52.6564 148.244 54.3132V163C148.244 165.761 146.309 166.876 143.921 165.489L96.7454 138.091C95.3126 137.259 94.1511 135.241 94.1511 133.584V23.8976Z" fill="#ECECEC"/>
<rect width="57.1924" height="107.711" transform="matrix(0.864743 0.502215 0 1 96.4694 25.7319)" fill="white"/>
<rect width="28.75" height="20" transform="matrix(0.866025 0.5 0 1 107.151 77)" fill="white"/>
<path d="M132.049 111.375L107.151 97V78.2245L119.6 99.2895L132.049 92.5995V111.375Z" fill="#4AC2B8"/>
<path d="M119.6 96.4324L130.666 90.5764L108.534 77.7986L119.6 96.4324Z" fill="#4AC2B8"/>
<path d="M67.5756 57.7246C75.0895 62.0628 81.1977 72.5929 81.1977 81.198C81.1977 89.803 75.0854 93.2777 67.5756 88.9419C60.0657 84.6061 53.9535 74.0736 53.9535 65.4685C53.9535 56.8635 60.0616 53.3864 67.5756 57.7246Z" fill="#B9B9B9"/>
<path d="M86.1477 139.549L49 118.102C49 117.476 49 99.1146 49 98.3325C49 91.5026 51.8159 87.0443 56.1829 85.6593C59.3237 90.3161 63.2749 94.3059 67.5756 96.7889C71.8762 99.2718 75.824 99.8426 78.9648 98.8124C83.3318 105.24 86.1512 112.948 86.1512 119.778C86.1512 120.564 86.1512 138.926 86.1512 139.547" fill="#B9B9B9"/>
</svg>
