<svg width="200" height="180" viewBox="0 0 200 180" fill="none" xmlns="http://www.w3.org/2000/svg">
<path d="M75.9131 19.3096C76.6178 18.8488 77.618 18.8868 78.7275 19.5312L125.094 46.459C127.227 47.6985 128.957 50.712 128.957 53.1904V160.901C128.957 162.091 128.559 162.941 127.908 163.366C127.857 163.4 127.804 163.429 127.75 163.457L124.044 165.61C123.339 166.071 122.339 166.034 121.229 165.39L74.8643 138.462C72.7303 137.223 71 134.208 71 131.729V24.0186C71.0001 22.8291 71.3985 21.9791 72.0488 21.5537C72.0996 21.5205 72.1523 21.4899 72.2061 21.4619L75.9131 19.3096Z" fill="#B9B9B9"/>
<path d="M71 23.8976C71 21.6884 72.5486 20.797 74.459 21.9064L122.499 49.8066C123.932 50.6387 125.093 52.6564 125.093 54.3132V163C125.093 165.761 123.157 166.876 120.77 165.489L73.5942 138.091C72.1615 137.259 71 135.241 71 133.584V23.8976Z" fill="#ECECEC"/>
<rect width="57.1924" height="107.711" transform="matrix(0.864743 0.502215 0 1 73.3183 25.7319)" fill="white"/>
<path d="M97.8385 65.0542C101.38 67.0986 104.258 72.2454 104.258 76.5271C104.258 80.8089 101.378 82.6307 97.8385 80.5873C94.2993 78.544 91.4188 73.3961 91.4188 69.1144C91.4188 64.8326 94.2974 63.0097 97.8385 65.0542Z" fill="#B9B9B9"/>
<path d="M106.591 105.487L89.0844 95.3792C89.0844 95.0679 89.0844 85.9313 89.0844 85.5422C89.0844 82.1437 90.4114 79.8825 92.4695 79.1271C93.9496 81.3965 95.8117 83.3217 97.8385 84.4918C99.8652 85.662 101.726 85.886 103.206 85.3257C105.264 88.4576 106.593 92.25 106.593 95.6485C106.593 96.0396 106.593 105.176 106.593 105.486" fill="#B9B9B9"/>
<path d="M113.828 125.851V128C113.4 127.695 113.042 127.466 112.186 126.971L109.051 125.162C108.295 124.725 108.017 124.576 107.589 124.352C107.648 123.927 107.668 123.513 107.668 122.72L107.668 116.446C107.668 115.734 107.648 115.32 107.589 114.723C107.997 114.981 108.275 115.154 109.051 115.602L112.226 117.434C112.902 117.825 113.241 117.997 113.708 118.21V120.359C113.251 120.037 112.892 119.807 112.226 119.422L109.639 117.929V119.618L111.788 120.859C112.445 121.238 112.684 121.364 113.281 121.64V123.766C112.813 123.438 112.475 123.22 111.788 122.823L109.639 121.582V123.513L112.206 124.995C112.962 125.432 113.4 125.662 113.828 125.851Z" fill="#4AC2B8"/>
<path d="M102.709 121.5L100.978 120.501C100.928 120.07 100.819 119.581 100.55 118.553L99.6346 114.968C99.6247 114.905 99.3261 113.664 99.2963 113.555C99.1868 113.078 99.1868 113.078 99.1371 112.888C99.1968 113.647 99.2366 114.612 99.2366 115.221V117.714C99.2366 118.507 99.2565 119.024 99.3162 119.541L97.3558 118.409C97.4155 117.927 97.4354 117.456 97.4354 116.674V110.688C97.4354 109.998 97.4056 109.372 97.3558 108.849L99.9829 110.366C100.053 110.9 100.132 111.314 100.361 112.205L101.854 118.019L103.336 113.922C103.565 113.285 103.645 112.963 103.705 112.515L106.342 114.037C106.282 114.554 106.262 115.014 106.262 115.784V121.77C106.262 122.644 106.282 123.103 106.342 123.597L104.381 122.465C104.441 121.971 104.461 121.546 104.461 120.73V118.226C104.461 117.95 104.491 117.105 104.511 116.76C104.54 116.169 104.54 116.169 104.55 116.002C104.331 116.772 104.232 117.128 104.103 117.467L103.137 120.058C102.889 120.73 102.759 121.161 102.709 121.5Z" fill="#4AC2B8"/>
<path d="M96.6683 118.012L94.3398 116.668C94.2602 116.07 94.2004 115.737 94.1009 115.289L93.8323 114.157L90.9962 112.52L90.7276 113.341C90.5982 113.726 90.5285 114.042 90.4788 114.439L88.1503 113.094C88.2995 112.836 88.3891 112.612 88.6279 111.968L90.7773 106.292C90.9564 105.832 91.046 105.539 91.0957 105.235L93.6929 106.734C93.7626 107.108 93.8323 107.447 94.0313 108.171L96.1906 116.334C96.3797 117.053 96.5389 117.616 96.6683 118.012ZM93.3447 111.945L92.3993 107.952L91.4739 110.865L93.3447 111.945Z" fill="#4AC2B8"/>
<path d="M82.8659 101.92L84.7566 106.275C85.0451 106.935 85.2342 107.412 85.473 108.056C85.4332 107.504 85.4133 106.964 85.4133 106.321V103.701C85.4133 102.942 85.3934 102.471 85.3337 101.908L87.4533 103.132C87.3936 103.615 87.3737 104.086 87.3737 104.833V110.934C87.3737 111.635 87.4035 112.181 87.4533 112.692L85.274 111.434C85.0949 110.894 84.866 110.336 84.5277 109.544L82.6868 105.275C82.4181 104.66 82.2489 104.218 81.9703 103.448C82.02 103.994 82.0399 104.637 82.0399 105.2V107.774C82.0399 108.567 82.0598 109.084 82.1196 109.613L80 108.389C80.0597 107.975 80.0796 107.481 80.0796 106.631V100.587C80.0796 99.9204 80.0597 99.3919 80 98.8289L82.1594 100.076C82.2589 100.443 82.4778 101.029 82.8659 101.92Z" fill="#4AC2B8"/>
</svg>
