<svg width="200" height="180" viewBox="0 0 200 180" fill="none" xmlns="http://www.w3.org/2000/svg">
<path d="M42.9131 19.3096C43.6178 18.8488 44.618 18.8868 45.7275 19.5312L92.0938 46.459C94.2274 47.6985 95.957 50.712 95.957 53.1904V160.901C95.957 162.091 95.5586 162.941 94.9082 163.366C94.8573 163.4 94.8039 163.429 94.75 163.457L91.0439 165.61C90.3393 166.071 89.339 166.034 88.2295 165.39L41.8643 138.462C39.7303 137.223 38 134.208 38 131.729V24.0186C38.0001 22.8291 38.3985 21.9791 39.0488 21.5537C39.0996 21.5205 39.1523 21.4899 39.2061 21.4619L42.9131 19.3096Z" fill="#B9B9B9"/>
<path d="M38 23.8976C38 21.6884 39.5486 20.797 41.459 21.9064L89.499 49.8066C90.9318 50.6387 92.0933 52.6564 92.0933 54.3132V163C92.0933 165.761 90.1575 166.876 87.7696 165.489L40.5942 138.091C39.1615 137.259 38 135.241 38 133.584V23.8976Z" fill="#ECECEC"/>
<rect width="57.1924" height="107.711" transform="matrix(0.864743 0.502215 0 1 40.3183 25.7319)" fill="white"/>
<path d="M60.4859 85.9084C61.879 85.7467 63.0046 85.5089 63.3947 85.473C63.7848 85.4241 63.7625 84.7194 63.4393 83.8801C63.1049 83.0343 60.3633 76.047 60.3633 76.047C59.9287 74.9476 59.4606 73.8157 58.7919 73.8996C58.1232 73.9835 57.6217 74.0334 55.9054 74.2565C54.178 74.4602 51.8933 79.9032 57.8892 95.1398C65 114.255 70.037 114.803 71.7644 114.599C73.4807 114.389 73.9934 114.333 74.6509 114.255C75.3196 114.171 74.8961 113.039 74.4726 111.933C74.4726 111.933 71.731 104.946 71.3966 104.1C71.0623 103.254 70.5496 102.619 70.1596 102.655C69.7695 102.704 68.577 102.759 67.1839 102.934C65.7908 103.096 64.2417 99.7603 62.2245 94.6142C60.2073 89.4811 59.104 86.0896 60.4971 85.9279L60.4859 85.9084Z" fill="#4AC2B8"/>
<path d="M108.913 19.3096C109.618 18.8488 110.618 18.8868 111.728 19.5312L158.094 46.459C160.227 47.6985 161.957 50.712 161.957 53.1904V160.901C161.957 162.091 161.559 162.941 160.908 163.366C160.857 163.4 160.804 163.429 160.75 163.457L157.044 165.61C156.339 166.071 155.339 166.034 154.229 165.39L107.864 138.462C105.73 137.223 104 134.208 104 131.729V24.0186C104 22.8291 104.399 21.9791 105.049 21.5537C105.1 21.5205 105.152 21.4899 105.206 21.4619L108.913 19.3096Z" fill="#B9B9B9"/>
<path d="M104 23.8976C104 21.6884 105.549 20.797 107.459 21.9064L155.499 49.8066C156.932 50.6387 158.093 52.6564 158.093 54.3132V163C158.093 165.761 156.157 166.876 153.77 165.489L106.594 138.091C105.161 137.259 104 135.241 104 133.584V23.8976Z" fill="#ECECEC"/>
<rect width="57.1924" height="107.711" transform="matrix(0.864743 0.502215 0 1 106.318 25.7319)" fill="white"/>
<rect width="28.75" height="20" transform="matrix(0.866025 0.5 0 1 117 76.3125)" fill="white"/>
<path d="M141.898 110.688L117 96.3125V77.537L129.449 98.602L141.898 91.912V110.688Z" fill="#4AC2B8"/>
<path d="M129.449 95.7449L140.515 89.8889L118.383 77.1111L129.449 95.7449Z" fill="#4AC2B8"/>
</svg>
