<svg width="480" height="480" viewBox="0 0 480 480" fill="none" xmlns="http://www.w3.org/2000/svg">
<rect width="480" height="480" fill="#ACFFA8"/>
<path d="M19.0625 209.818H30.6989V221.455H19.0625V209.818ZM30.6989 209.818H42.3352V221.455H30.6989V209.818ZM42.3352 209.818H53.9716V221.455H42.3352V209.818ZM30.6989 221.455H42.3352V233.091H30.6989V221.455ZM30.6989 233.091H42.3352V244.727H30.6989V233.091ZM30.6989 244.727H42.3352V256.364H30.6989V244.727ZM30.6989 256.364H42.3352V268H30.6989V256.364ZM77.1989 221.455H88.8352V233.091H77.1989V221.455ZM88.8352 233.091H100.472V244.727H88.8352V233.091ZM65.5625 233.091H77.1989V244.727H65.5625V233.091ZM88.8352 244.727H100.472V256.364H88.8352V244.727ZM77.1989 244.727H88.8352V256.364H77.1989V244.727ZM65.5625 244.727H77.1989V256.364H65.5625V244.727ZM65.5625 256.364H77.1989V268H65.5625V256.364ZM77.1989 268H88.8352V279.636H77.1989V268ZM135.335 221.455H146.972V233.091H135.335V221.455ZM123.699 221.455H135.335V233.091H123.699V221.455ZM112.062 233.091H123.699V244.727H112.062V233.091ZM135.335 244.727H146.972V256.364H135.335V244.727ZM135.335 256.364H146.972V268H135.335V256.364ZM112.062 256.364H123.699V268H112.062V256.364ZM112.062 221.455H123.699V233.091H112.062V221.455ZM123.699 256.364H135.335V268H123.699V256.364ZM158.562 209.818H170.199V221.455H158.562V209.818ZM158.562 221.455H170.199V233.091H158.562V221.455ZM158.562 233.091H170.199V244.727H158.562V233.091ZM158.562 244.727H170.199V256.364H158.562V244.727ZM158.562 256.364H170.199V268H158.562V256.364ZM170.199 256.364H181.835V268H170.199V256.364ZM170.199 221.455H181.835V233.091H170.199V221.455ZM228.312 209.818H239.949V221.455H228.312V209.818ZM228.312 221.455H239.949V233.091H228.312V221.455ZM228.312 233.091H239.949V244.727H228.312V233.091ZM228.312 244.727H239.949V256.364H228.312V244.727ZM228.312 256.364H239.949V268H228.312V256.364ZM251.562 256.364H263.199V268H251.562V256.364ZM251.562 244.727H263.199V256.364H251.562V244.727ZM251.562 233.091H263.199V244.727H251.562V233.091ZM251.562 221.455H263.199V233.091H251.562V221.455ZM263.199 221.455H274.835V233.091H263.199V221.455ZM274.835 233.091H286.472V244.727H274.835V233.091ZM274.835 244.727H286.472V256.364H274.835V244.727ZM274.835 256.364H286.472V268H274.835V256.364ZM286.472 221.455H298.108V233.091H286.472V221.455ZM298.108 233.091H309.744V244.727H298.108V233.091ZM298.108 244.727H309.744V256.364H298.108V244.727ZM298.108 256.364H309.744V268H298.108V256.364ZM344.71 221.455H356.347V233.091H344.71V221.455ZM344.71 233.091H356.347V244.727H344.71V233.091ZM344.71 244.727H356.347V256.364H344.71V244.727ZM344.71 256.364H356.347V268H344.71V256.364ZM333.074 221.455H344.71V233.091H333.074V221.455ZM333.074 256.364H344.71V268H333.074V256.364ZM321.438 233.091H333.074V244.727H321.438V233.091ZM321.438 244.727H333.074V256.364H321.438V244.727ZM391.21 221.455H402.847V233.091H391.21V221.455ZM391.21 233.091H402.847V244.727H391.21V233.091ZM391.21 244.727H402.847V256.364H391.21V244.727ZM391.21 256.364H402.847V268H391.21V256.364ZM391.21 268H402.847V279.636H391.21V268ZM379.574 268H391.21V279.636H379.574V268ZM367.938 268H379.574V279.636H367.938V268ZM379.574 221.455H391.21V233.091H379.574V221.455ZM367.938 233.091H379.574V244.727H367.938V233.091ZM367.938 244.727H379.574V256.364H367.938V244.727ZM426.074 221.455H437.71V233.091H426.074V221.455ZM437.71 233.091H449.347V244.727H437.71V233.091ZM414.438 233.091H426.074V244.727H414.438V233.091ZM437.71 244.727H449.347V256.364H437.71V244.727ZM426.074 244.727H437.71V256.364H426.074V244.727ZM414.438 244.727H426.074V256.364H414.438V244.727ZM414.438 256.364H426.074V268H414.438V256.364ZM426.074 268H437.71V279.636H426.074V268Z" fill="white"/>
</svg>
