<svg width="493" height="166" viewBox="0 0 493 166" fill="none" xmlns="http://www.w3.org/2000/svg">
<mask id="mask0_509_2750" style="mask-type:luminance" maskUnits="userSpaceOnUse" x="0" y="0" width="489" height="166">
<path d="M488.43 0H0.429565V166H488.43V0Z" fill="white"/>
</mask>
<g mask="url(#mask0_509_2750)">
<path d="M29.2368 33.5869C21.4754 30.8921 14.7757 28.584 14.7757 19.6104C14.7757 16.815 15.5361 12.0844 20.6003 11.8264L49.6371 10.737V0H19.2661C7.47355 0 0.429565 7.32521 0.429565 19.6104C0.429565 36.7837 11.2753 40.7259 20.8442 44.195C28.6484 47.0334 35.3912 49.4703 35.3912 58.4584C35.3912 61.7985 34.3727 65.8122 29.5666 66.0561L0.429565 67.1454V77.8823H30.8865C42.6791 77.8823 49.7231 70.4997 49.7231 58.143C49.7231 40.6829 38.8344 36.9128 29.2224 33.5869H29.2368Z" fill="#175C90"/>
<path d="M237.686 11.7834H266.495V0H236.325C230.715 0 225.966 1.76321 222.609 5.17495C219.223 8.61538 217.416 13.5323 217.516 18.994V77.868H231.848V36.3968L260.885 34.5619V25.0003H231.848V18.8793C231.848 14.2921 232.737 11.9124 237.672 11.7691L237.686 11.7834Z" fill="#175C90"/>
<path d="M125.27 35.1495C132.084 34.4329 140.878 33.9884 140.964 33.9742L142.112 33.9167V24.9861H129.846C120.292 24.9861 105.859 24.9861 105.859 44.2236V58.6303C105.859 77.8823 120.292 77.8823 129.846 77.8823H142.112V68.9515L140.95 68.8943C140.864 68.8943 132.687 68.5216 125.27 67.7189C118.441 66.9733 117.867 61.612 117.867 56.1791V46.6893C117.867 41.2419 118.441 35.8663 125.27 35.1495Z" fill="#175C90"/>
<path d="M91.8582 27.3942C87.2529 25.0145 81.744 25.0002 77.2679 25.0002H76.7516C72.3187 25.0002 66.7952 25.0002 62.2045 27.3942C56.7099 30.2468 53.9125 35.9092 53.9125 44.2378V58.7162C53.9125 67.045 56.6955 72.7215 62.2045 75.5744C66.8096 77.9538 72.3187 77.9683 76.7946 77.9683H77.3112C81.744 77.9683 87.2529 77.9683 91.8582 75.5744C97.3526 72.7215 100.15 67.0593 100.15 58.7162V44.2378C100.15 35.9092 97.367 30.2325 91.8582 27.3942ZM88.1424 45.7287V57.211C88.1424 66.1991 84.1255 67.948 77.1964 67.948H76.8664C69.937 67.948 65.9203 66.1991 65.9203 57.211V45.7287C65.9203 36.7549 69.937 34.9918 76.8664 34.9918H77.1964C84.1255 34.9918 88.1424 36.7549 88.1424 45.7287Z" fill="#175C90"/>
<path d="M299.204 25.0003V57.2256C299.204 66.2137 295.187 67.9625 288.257 67.9625H287.913C280.983 67.9625 276.968 66.2137 276.968 57.2256V25.0003H264.972V58.7163C264.972 77.9541 279.262 77.9541 287.813 77.9541H288.387C292.591 77.9541 298.342 77.9541 302.962 75.5457C308.442 72.6931 311.225 67.0308 311.225 58.7021V24.9861H299.218L299.204 25.0003Z" fill="#175C90"/>
<path d="M387.23 24.9426V57.2252C387.23 66.2132 383.215 67.9623 376.285 67.9623H375.941C369.012 67.9623 364.994 66.2132 364.994 57.2252V25.0144H352.987V58.7161C352.987 77.9537 367.29 77.9537 375.825 77.9537H376.399C380.603 77.9537 386.357 77.9537 390.976 75.5455C396.456 72.6929 399.24 67.0304 399.24 58.7019V24.9283H387.23V24.9426Z" fill="#175C90"/>
<path d="M348.239 68.9803C348.239 68.9803 341.251 68.5646 336.274 67.8047C329.43 66.7727 328.87 61.526 328.87 56.2364V35.0349L347.321 33.9167V24.9861H316.877V58.7021C316.877 72.1913 323.377 77.9396 338.598 77.9396H349.401V69.0233L348.267 68.9515L348.239 68.9803Z" fill="#175C90"/>
<path d="M426.684 25.0145C419.641 25.0145 404.963 25.0145 404.963 44.2521V77.8823H416.97V46.7465C416.97 41.4712 417.544 36.2244 424.388 35.1779C426.928 34.791 432.652 34.361 440.111 34.0169L441.489 33.9451V25.0288H426.684V25.0145Z" fill="#175C90"/>
<path d="M465.589 24.9575H465.032C456.494 24.9575 442.191 24.9575 442.191 44.1951V58.6305C442.191 65.798 444.071 70.7724 447.931 73.8401C451.402 76.5924 456.51 77.8825 463.997 77.8825H486.076V69.009L484.9 68.9805C484.772 68.9805 472.233 68.6221 461.602 67.7189C454.758 67.1456 454.184 61.6837 454.184 56.1506V54.7456H483.752C487.11 54.7456 488.416 53.4125 488.416 49.9721V44.1951C488.416 24.9575 474.127 24.9575 465.575 24.9575H465.589ZM476.423 45.686C476.423 45.686 476.423 45.8293 476.423 45.8866C476.279 45.8866 476.093 45.8866 475.863 45.8866H454.2V45.686C454.2 36.6979 458.216 34.9488 465.145 34.9488H465.475C472.405 34.9488 476.423 36.7122 476.423 45.686Z" fill="#175C90"/>
<path d="M188.809 25.0003H188.25C179.714 25.0003 165.425 25.0003 165.425 44.2381V58.7163C165.425 77.9541 179.714 77.9541 188.264 77.9541H188.824C193.027 77.9541 198.78 77.9541 203.4 75.5457C208.88 72.6931 211.663 67.0308 211.663 58.7021V44.2236C211.663 24.9861 197.374 24.9861 188.824 24.9861L188.809 25.0003ZM199.641 45.7288V57.2111C199.641 66.1992 195.624 67.9483 188.695 67.9483H188.365C181.435 67.9483 177.418 66.1992 177.418 57.2111V45.7288C177.418 36.755 181.435 34.9919 188.365 34.9919H188.695C195.624 34.9919 199.641 36.755 199.641 45.7288Z" fill="#175C90"/>
<path d="M159.715 24.9861H147.807V77.8823H159.715V24.9861Z" fill="#175C90"/>
<path d="M153.833 19.2234C156.717 19.2234 161.523 19.2234 161.523 12.744V9.48995C161.523 3.0105 156.703 3.0105 153.833 3.0105H153.661C150.778 3.0105 145.972 3.0105 145.972 9.48995V12.744C145.972 19.2234 150.792 19.2234 153.661 19.2234H153.833Z" fill="#E60012"/>
<path d="M80.6387 97.507L71.4285 121.117L71.2996 121.446H76.6936L78.745 116.071H87.9266L89.9495 121.446H95.6879L86.2912 97.507H80.6531H80.6387ZM86.4489 111.885H80.2657L83.3645 103.083L86.4489 111.885Z" fill="#175C90"/>
<path d="M110.048 105.75C108.843 104.201 106.993 103.427 104.54 103.427C99.2601 103.427 96.9072 107.9 96.9072 112.329C96.9072 116.759 98.9015 121.848 104.511 121.848C107.194 121.848 109.13 120.672 110.192 119.411V121.447H113.692V97.5212H110.048V105.75ZM105.242 118.809C104.181 118.809 103.263 118.422 102.502 117.648C101.139 116.257 100.695 114.035 100.738 112.559C100.695 110.48 101.269 108.674 102.33 107.599C103.076 106.839 104.052 106.452 105.214 106.452C108.542 106.452 110.048 109.677 110.048 112.659C110.048 115.641 108.542 118.809 105.242 118.809Z" fill="#00A053"/>
<path d="M125.399 117.39L120.895 103.829H116.921L123.247 121.446H127.35L133.677 103.829H130.004L125.399 117.39Z" fill="#00A053"/>
<path d="M147.191 119.597V121.447H150.662L150.619 121.174C150.533 120.501 150.49 119.425 150.49 117.849V110.753C150.49 105.75 148.223 103.428 143.36 103.428C141.366 103.428 139.429 103.987 137.593 105.076L137.464 105.148L137.665 108.459L138.023 108.158C139.257 107.112 141.108 106.467 142.844 106.467C145.598 106.467 146.775 107.613 146.832 110.437C145.713 110.38 144.867 110.38 143.719 110.38C140.663 110.38 135.513 111.627 135.513 116.272C135.513 119.87 137.837 121.848 142.04 121.848C144.752 121.848 146.387 120.501 147.176 119.597H147.191ZM139.358 116.272C139.358 113.62 142.93 113.218 145.068 113.218C145.397 113.218 145.727 113.233 146.057 113.247C146.316 113.247 146.574 113.276 146.832 113.276V114.551C146.832 117.175 145.096 118.809 142.299 118.809C141.108 118.809 139.343 118.006 139.343 116.257L139.358 116.272Z" fill="#00A053"/>
<path d="M158.998 113.276C158.998 110.724 159.643 106.467 163.961 106.452C166.443 106.61 167.361 108.201 167.361 112.33V121.447H171.005V111.025C171.005 106.051 168.696 103.428 164.349 103.428C162.068 103.428 160.016 104.431 158.911 106.022V103.829H155.368V121.447H159.012V113.276H158.998Z" fill="#00A053"/>
<path d="M187.747 121.117L187.905 121.045L187.618 117.648L187.274 117.877C186.399 118.436 185.122 118.809 184.003 118.809C180.215 118.809 178.522 115.713 178.522 112.631C178.522 109.549 180.33 106.452 183.802 106.452C184.835 106.452 186.026 106.71 187.145 107.169L187.446 107.298L187.761 104.173L187.589 104.101C186.628 103.714 184.935 103.413 183.659 103.413C178.365 103.413 174.678 107.198 174.678 112.631C174.678 118.064 178.537 121.834 183.659 121.834C185.337 121.834 186.671 121.59 187.733 121.103L187.747 121.117Z" fill="#00A053"/>
<path d="M198.851 121.848C201.376 121.848 202.768 121.318 203.901 120.888C204.059 120.83 204.203 120.773 204.36 120.716L204.518 120.658V116.817L204.131 117.146C203.428 117.72 201.046 118.809 199.009 118.809C196.054 118.809 193.73 116.53 193.601 113.577H205.838V113.333C205.838 106.753 203.213 103.413 198.034 103.413C193.156 103.413 189.756 107.083 189.756 112.315C189.756 118.451 192.998 121.834 198.88 121.834L198.851 121.848ZM197.948 106.467C200.63 106.467 201.893 108.574 201.979 110.753H193.615C193.916 108.631 195.208 106.467 197.948 106.467Z" fill="#00A053"/>
<path d="M222.092 119.411V121.447H225.593V97.5212H221.949V105.75C220.744 104.201 218.893 103.427 216.44 103.427C211.16 103.427 208.808 107.9 208.808 112.329C208.808 116.759 210.802 121.848 216.411 121.848C219.094 121.848 221.031 120.672 222.092 119.411ZM217.157 118.809C216.096 118.809 215.177 118.422 214.417 117.648C213.054 116.257 212.609 114.035 212.652 112.559C212.609 110.48 213.183 108.674 214.245 107.599C214.991 106.839 215.966 106.452 217.128 106.452C220.457 106.452 221.963 109.677 221.963 112.659C221.963 115.641 220.457 118.809 217.157 118.809Z" fill="#00A053"/>
<path d="M245.104 121.446H250.284V101.693H257.011V97.507H238.376V101.693H245.104V121.446Z" fill="#175C90"/>
<path d="M270.668 120.73L270.826 120.673V116.831L270.424 117.16C269.722 117.734 267.34 118.823 265.302 118.823C262.349 118.823 260.025 116.544 259.909 113.591H272.146V113.347C272.146 106.767 269.52 103.428 264.343 103.428C259.465 103.428 256.065 107.097 256.065 112.33C256.065 118.465 259.307 121.848 265.188 121.848C267.714 121.848 269.104 121.318 270.224 120.888C270.382 120.83 270.526 120.773 270.668 120.716V120.73ZM264.257 106.467C266.938 106.467 268.202 108.574 268.288 110.753H259.923C260.225 108.631 261.517 106.467 264.257 106.467Z" fill="#00A053"/>
<path d="M288.041 121.045L287.755 117.648L287.411 117.877C286.535 118.436 285.259 118.809 284.139 118.809C280.351 118.809 278.66 115.713 278.66 112.631C278.66 109.549 280.468 106.452 283.939 106.452C284.971 106.452 286.163 106.71 287.281 107.169L287.583 107.298L287.899 104.173L287.725 104.101C286.765 103.714 285.071 103.413 283.795 103.413C278.502 103.413 274.814 107.198 274.814 112.631C274.814 118.064 278.674 121.834 283.795 121.834C285.473 121.834 286.807 121.59 287.869 121.103L288.013 121.031L288.041 121.045Z" fill="#00A053"/>
<path d="M306.764 121.447V111.025C306.764 106.051 304.454 103.427 300.106 103.427C297.898 103.427 295.991 104.302 294.771 105.864V97.5212H291.127V121.447H294.771V113.276C294.771 110.724 295.417 106.466 299.734 106.452C302.216 106.61 303.134 108.201 303.134 112.329V121.447H306.778H306.764Z" fill="#00A053"/>
<path d="M320.651 103.428C318.369 103.428 316.317 104.431 315.213 106.022V103.829H311.669V121.447H315.313V113.276C315.313 110.724 315.959 106.467 320.263 106.452C322.745 106.61 323.663 108.201 323.663 112.33V121.447H327.306V111.025C327.306 106.051 324.996 103.428 320.637 103.428H320.651Z" fill="#00A053"/>
<path d="M348.411 112.645C348.411 107.212 344.723 103.428 339.46 103.428C334.194 103.428 330.478 107.212 330.478 112.645C330.478 118.078 334.338 121.848 339.46 121.848C344.581 121.848 348.411 117.892 348.411 112.645ZM339.46 118.809C335.93 118.809 334.322 115.612 334.322 112.631C334.322 109.649 336.13 106.452 339.46 106.452C342.788 106.452 344.565 109.635 344.565 112.631C344.565 115.627 342.973 118.809 339.46 118.809Z" fill="#00A053"/>
<path d="M356.028 97.5212H352.385V121.447H356.028V97.5212Z" fill="#00A053"/>
<path d="M368.926 121.848C374.033 121.848 377.877 117.892 377.877 112.645C377.877 107.398 374.191 103.428 368.926 103.428C363.66 103.428 359.944 107.212 359.944 112.645C359.944 118.078 363.804 121.848 368.926 121.848ZM368.926 106.467C372.239 106.467 374.033 109.649 374.033 112.645C374.033 115.641 372.439 118.823 368.926 118.823C365.41 118.823 363.79 115.627 363.79 112.645C363.79 109.663 365.584 106.467 368.926 106.467Z" fill="#00A053"/>
<path d="M394.19 105.865C393.07 104.23 391.276 103.428 388.708 103.428C383.515 103.428 380.805 108.129 380.805 112.774C380.805 117.089 383.143 121.447 388.378 121.447C390.588 121.447 392.626 120.587 393.96 119.139V120.228C393.96 123.755 392.066 125.876 388.88 125.876C386.515 125.876 385.095 125.403 382.799 124.357L382.497 124.213L382.095 127.654L382.283 127.711C385.195 128.715 386.773 128.901 388.508 128.901C394.534 128.901 397.59 126.063 397.59 120.458V103.815H394.19V105.85V105.865ZM389.182 118.408C386.213 118.408 384.649 115.483 384.649 112.602C384.649 109.721 386.24 106.452 389.182 106.452C392.712 106.452 393.96 109.893 393.96 112.831C393.96 116.014 391.908 118.408 389.182 118.408Z" fill="#00A053"/>
<path d="M413.255 103.829L408.693 117.576L404.276 103.987L404.217 103.815H400.244L406.169 120.128C406.225 120.3 406.297 120.486 406.383 120.673C406.555 121.103 406.757 121.633 406.757 121.848C406.757 122.192 405.839 125.848 403.227 125.848C402.698 125.848 402.179 125.704 401.822 125.59L401.519 125.489L401.275 128.6L401.722 128.672C402.224 128.758 402.798 128.872 403.688 128.872C407.919 128.872 409.239 125.16 410.415 121.877L416.829 104.116L416.943 103.786H413.227L413.255 103.829Z" fill="#00A053"/>
<path d="M119.503 151.923L114.109 134.778L114.066 134.606H106.118V158.546H111.096V140.254L117.064 158.546H121.928L127.896 140.254V158.546H132.888V134.606H124.94L119.503 151.923Z" fill="#175C90"/>
<path d="M334.108 150.461C334.108 152.195 334.108 154.36 331.282 154.36C330.292 154.36 329.632 154.159 329.114 153.973L328.784 153.858V158.46L328.972 158.503C330.22 158.818 331.238 158.947 332.63 158.947C337.206 158.947 339.302 155.722 339.302 152.726V134.606H334.108V150.475V150.461Z" fill="#175C90"/>
<path d="M90.7817 145.644V145.386H87.1519V145.616C86.9799 148.167 86.65 149.601 85.8896 150.905L81.5427 145.945C83.5367 145.013 86.5352 143.035 86.5352 139.753C86.5352 137.187 84.9426 134.205 80.4809 134.205C76.5502 134.205 74.1255 136.413 74.1255 139.953C74.1255 142.132 75.1729 143.695 76.3924 145.2C72.9636 146.676 71.2996 148.956 71.2996 152.152C71.2996 156.281 74.3695 158.947 79.1038 158.947C82.1308 158.947 84.1537 158.173 85.8178 156.381L87.6255 158.546H92.4743L88.1418 153.643C89.5048 151.522 90.4803 149.328 90.7673 145.659L90.7817 145.644ZM80.3661 137.23C82.0878 137.23 82.9198 138.09 82.9198 139.882C82.9198 141.86 80.6245 143.222 79.692 143.68C78.7165 142.591 77.7839 141.415 77.7839 140.011C77.7839 137.961 79.118 137.23 80.3661 137.23ZM79.7206 155.908C77.5973 155.908 75.3595 154.503 75.3595 151.909C75.3595 149.859 76.5502 148.841 78.3721 147.594L83.7519 153.887C82.9198 154.79 81.6431 155.894 79.735 155.894L79.7206 155.908Z" fill="#00A053"/>
<path d="M151.638 154.933V147.852C151.638 142.849 149.371 140.512 144.508 140.512C142.514 140.512 140.577 141.071 138.741 142.161L138.612 142.233L138.813 145.544L139.171 145.228C140.405 144.182 142.256 143.537 143.992 143.537C146.746 143.537 147.922 144.698 147.98 147.508C146.861 147.451 146.014 147.451 144.867 147.451C141.811 147.451 136.661 148.683 136.661 153.328C136.661 156.926 138.985 158.904 143.188 158.904C145.9 158.904 147.535 157.557 148.324 156.653V158.503H151.796L151.753 158.23C151.667 157.571 151.624 156.482 151.624 154.905L151.638 154.933ZM148.009 151.651C148.009 154.274 146.273 155.908 143.475 155.908C142.284 155.908 140.52 155.105 140.52 153.356C140.52 150.705 144.106 150.303 146.23 150.303C146.559 150.303 146.889 150.317 147.219 150.332C147.478 150.332 147.736 150.36 147.994 150.36V151.636L148.009 151.651Z" fill="#00A053"/>
<path d="M165.482 140.512C163.201 140.512 161.15 141.516 160.045 143.107V140.914H156.501V158.531H160.145V150.36C160.145 147.809 160.791 143.537 165.109 143.537C167.591 143.695 168.509 145.286 168.509 149.414V158.531H172.153V148.11C172.153 143.136 169.844 140.512 165.497 140.512H165.482Z" fill="#00A053"/>
<path d="M190.646 154.933V147.852C190.646 142.849 188.379 140.512 183.516 140.512C181.522 140.512 179.585 141.071 177.749 142.161L177.62 142.233L177.82 145.544L178.179 145.228C179.413 144.182 181.263 143.537 182.999 143.537C185.754 143.537 186.93 144.698 186.987 147.508C185.869 147.451 185.022 147.451 183.875 147.451C180.819 147.451 175.668 148.683 175.668 153.328C175.668 156.926 177.992 158.904 182.196 158.904C184.907 158.904 186.543 157.557 187.332 156.653V158.503H190.804L190.761 158.23C190.674 157.571 190.631 156.482 190.631 154.905L190.646 154.933ZM187.016 151.651C187.016 154.274 185.28 155.908 182.483 155.908C181.292 155.908 179.528 155.105 179.528 153.356C179.528 150.705 183.1 150.303 185.237 150.303C185.567 150.303 185.897 150.317 186.242 150.332C186.5 150.332 186.758 150.36 187.016 150.36V151.636V151.651Z" fill="#00A053"/>
<path d="M207.689 142.949C206.584 141.315 204.776 140.512 202.208 140.512C197.015 140.512 194.304 145.214 194.304 149.859C194.304 154.174 196.642 158.531 201.878 158.531C204.088 158.531 206.125 157.671 207.459 156.224V157.313C207.459 160.839 205.565 162.947 202.381 162.947C200.014 162.947 198.593 162.474 196.298 161.427L195.997 161.284L195.595 164.724L195.781 164.782C198.694 165.771 200.272 165.971 202.008 165.971C208.033 165.971 211.089 163.133 211.089 157.528V140.885H207.674V142.906L207.689 142.949ZM202.682 155.507C199.698 155.507 198.148 152.583 198.148 149.701C198.148 146.82 199.741 143.551 202.682 143.551C206.211 143.551 207.445 146.992 207.445 149.93C207.445 153.113 205.393 155.507 202.682 155.507Z" fill="#00A053"/>
<path d="M223.197 140.512C218.32 140.512 214.92 144.182 214.92 149.414C214.92 155.55 218.162 158.933 224.044 158.933C226.569 158.933 227.96 158.402 229.094 157.987C229.252 157.929 229.395 157.872 229.553 157.815L229.71 157.757V153.916L229.309 154.245C228.606 154.819 226.224 155.908 224.187 155.908C221.232 155.908 218.908 153.629 218.779 150.676H231.016V150.432C231.016 143.852 228.391 140.512 223.212 140.512H223.197ZM218.793 147.837C219.094 145.716 220.386 143.551 223.126 143.551C225.866 143.551 227.071 145.673 227.157 147.837H218.793Z" fill="#00A053"/>
<path d="M253.841 140.512C252.092 140.512 249.782 141.458 248.548 143.537C247.614 141.645 245.822 140.512 243.654 140.512C241.302 140.512 239.61 141.286 238.376 142.964V140.928H234.932V158.546H238.576V149.672C238.576 146.719 239.696 143.566 242.838 143.566C245.176 143.566 245.664 146.031 245.664 148.096V158.56H249.308V149.687C249.308 146.734 250.425 143.58 253.567 143.58C255.891 143.58 256.379 146.046 256.379 148.11V158.574H260.023V147.35C260.023 142.906 257.887 140.555 253.827 140.555L253.841 140.512Z" fill="#00A053"/>
<path d="M272.262 140.512C267.384 140.512 263.982 144.182 263.982 149.414C263.982 155.55 267.226 158.933 273.094 158.933C275.618 158.933 277.01 158.402 278.144 157.987C278.302 157.929 278.443 157.872 278.588 157.815L278.746 157.757V153.916L278.344 154.245C277.642 154.819 275.26 155.908 273.222 155.908C270.266 155.908 267.942 153.629 267.814 150.676H280.052V150.432C280.052 143.852 277.426 140.512 272.246 140.512H272.262ZM267.856 147.837C268.158 145.716 269.434 143.551 272.19 143.551C274.944 143.551 276.134 145.673 276.22 147.837H267.856Z" fill="#00A053"/>
<path d="M292.977 140.512C290.697 140.512 288.645 141.516 287.539 143.107V140.914H283.995V158.531H287.641V150.36C287.641 147.809 288.285 143.537 292.605 143.537C295.087 143.695 296.005 145.286 296.005 149.414V158.531H299.648V148.11C299.648 143.136 297.338 140.512 292.977 140.512Z" fill="#00A053"/>
<path d="M311.999 155.908C310.796 155.908 309.59 155.034 309.59 153.098V143.967H314.123V140.928H309.59V135.868L305.946 137.029V140.928H302.072V143.967H305.946V153.743C305.946 157.098 307.912 158.947 311.47 158.947C312.545 158.947 313.593 158.646 314.223 158.474L314.395 158.417V155.105L314.023 155.335C313.435 155.707 312.762 155.908 311.999 155.908Z" fill="#00A053"/>
<path d="M357.579 154.933V147.852C357.579 142.849 355.31 140.512 350.447 140.512C348.453 140.512 346.503 141.071 344.665 142.161L344.551 142.233L344.751 145.544L345.111 145.228C346.345 144.182 348.195 143.537 349.931 143.537C352.685 143.537 353.863 144.698 353.919 147.508C352.801 147.451 351.955 147.451 350.807 147.451C347.765 147.451 342.599 148.683 342.599 153.328C342.599 156.926 344.925 158.904 349.127 158.904C351.839 158.904 353.475 157.557 354.265 156.653V158.503H357.737L357.692 158.23C357.606 157.571 357.562 156.496 357.562 154.905L357.579 154.933ZM353.935 151.651C353.935 154.274 352.199 155.908 349.401 155.908C348.209 155.908 346.445 155.105 346.445 153.356C346.445 150.705 350.017 150.303 352.155 150.303C352.485 150.303 352.815 150.317 353.145 150.332C353.403 150.332 353.661 150.36 353.919 150.36V151.636L353.935 151.651Z" fill="#00A053"/>
<path d="M371.58 140.512C368.912 140.512 366.99 141.688 365.942 142.949V140.928H362.426V165.599H366.072V156.625C367.276 158.173 369.126 158.947 371.61 158.947C377.217 158.947 379.211 153.83 379.211 149.429C379.211 145.028 376.845 140.527 371.566 140.527L371.58 140.512ZM373.604 154.747C372.858 155.521 371.923 155.908 370.861 155.908C367.564 155.908 366.056 152.726 366.056 149.758C366.056 146.791 367.564 143.551 370.892 143.551C372.054 143.551 373.016 143.938 373.762 144.698C374.821 145.773 375.395 147.579 375.353 149.658C375.395 151.135 374.951 153.342 373.587 154.733L373.604 154.747Z" fill="#00A053"/>
<path d="M396.9 154.933V147.852C396.9 142.849 394.634 140.512 389.77 140.512C387.777 140.512 385.838 141.071 384.003 142.161L383.875 142.233L384.075 145.544L384.433 145.243C385.667 144.196 387.519 143.551 389.254 143.551C392.008 143.551 393.184 144.712 393.256 147.522C392.138 147.465 391.276 147.465 390.128 147.465C387.089 147.465 381.923 148.698 381.923 153.342C381.923 156.94 384.247 158.919 388.45 158.919C391.162 158.919 392.798 157.585 393.586 156.668V158.517H397.058L397.016 158.245C396.93 157.557 396.886 156.467 396.886 154.919L396.9 154.933ZM393.27 151.651C393.27 154.274 391.534 155.908 388.739 155.908C387.546 155.908 385.783 155.105 385.783 153.356C385.783 150.705 389.354 150.303 391.492 150.303C391.822 150.303 392.152 150.317 392.482 150.332C392.74 150.332 392.998 150.36 393.256 150.36V151.636L393.27 151.651Z" fill="#00A053"/>
<path d="M410.315 140.512C408.033 140.512 405.981 141.516 404.877 143.107V140.914H401.334V158.531H404.977V150.36C404.977 147.809 405.623 143.537 409.941 143.537C412.423 143.695 413.341 145.286 413.341 149.414V158.531H416.984V148.11C416.984 143.136 414.677 140.512 410.329 140.512H410.315Z" fill="#00A053"/>
</g>
</svg>
