<svg width="304" height="216" viewBox="0 0 304 216" fill="none" xmlns="http://www.w3.org/2000/svg">
<path fill-rule="evenodd" clip-rule="evenodd" d="M198.994 85.9414C199.056 87.0247 198.359 88.1204 196.93 88.9547L156.992 112.04C154.232 113.633 149.768 113.633 147.008 112.04L107.07 88.9422C105.752 88.1827 105.056 87.1866 105.006 86.178V91.9555C105.056 92.964 105.752 93.9477 107.07 94.7197L147.008 117.805C149.768 119.399 154.232 119.399 156.992 117.805L196.93 94.7197C198.359 93.8855 199.056 92.7897 198.994 91.7064V85.929V85.9414Z" fill="#B9B9B9"/>
<path fill-rule="evenodd" clip-rule="evenodd" d="M105.006 86.1906C104.944 85.1073 105.64 84.0116 107.07 83.1773L147.008 60.0923C149.768 58.4985 154.232 58.4985 156.992 60.0923L196.93 83.1773C198.248 83.9369 198.944 84.9328 198.994 85.9414L198.994 91.719C198.944 90.7105 198.248 89.7267 196.93 88.9547L156.992 65.8698C154.232 64.276 149.768 64.276 147.008 65.8698L107.07 88.9422C105.64 89.7765 104.944 90.8722 105.006 91.9555V86.178L105.006 86.1906Z" fill="#B9B9B9"/>
<path d="M156.992 60.0921L196.93 83.1771C199.69 84.7709 199.69 87.3608 196.93 88.9546L156.992 112.04C154.232 113.633 149.768 113.633 147.008 112.04L107.07 88.9421C104.31 87.3483 104.31 84.7584 107.07 83.1646L147.008 60.0796C149.768 58.4858 154.232 58.4858 156.992 60.0796V60.0921Z" fill="#ECECEC"/>
<path d="M151.825 20.7341L181.976 38.0752L151.825 55.4162L121.675 38.0752L151.825 20.7341Z" fill="#FFC1C0"/>
<path d="M121.675 38.0752L151.825 55.4162V101.659L121.675 84.318V38.0752Z" fill="#FF898A"/>
<path d="M151.825 55.4163L181.976 38.0752V84.318L151.825 101.659V55.4163Z" fill="#B9B9B9"/>
<path d="M142.136 77.9595L147.161 80.8496V103.971L142.136 101.081V77.9595Z" fill="#FF898A"/>
<path d="M147.161 80.8496L149.673 79.4045V102.526L147.161 103.971V80.8496Z" fill="#B9B9B9"/>
<path d="M116.651 65.2427L121.676 68.1328V91.2542L116.651 88.3641V65.2427Z" fill="#FF898A"/>
<path d="M121.676 68.1331L124.189 66.688V89.8094L121.676 91.2544V68.1331Z" fill="#B9B9B9"/>
<path d="M149.313 19.2891L174.438 33.7399L154.338 45.3006L129.212 30.8498L149.313 19.2891Z" fill="#FFC1C0"/>
<path d="M129.212 30.8496L154.338 45.3005V51.0808L129.212 36.63V30.8496Z" fill="#FF898A"/>
<path d="M154.338 45.3005L174.438 33.7398V39.5202L154.338 51.0809V45.3005Z" fill="#B9B9B9"/>
<path d="M121.675 58.3064L151.825 75.6474L146.8 78.5376L116.65 61.1966L121.675 58.3064Z" fill="#FFC1C0"/>
<path d="M116.65 61.1965L146.8 78.5376V84.3179L116.65 66.9769V61.1965Z" fill="#FF898A"/>
<path d="M146.8 78.5376L151.825 75.6474V81.4278L146.8 84.3179V78.5376Z" fill="#B9B9B9"/>
<path d="M123.607 43.5664L148.732 58.0173V69.578L123.607 55.1271V43.5664Z" fill="#FFC1C0"/>
<path d="M174.437 42.4104L189.502 51.0848L184.485 53.9638L169.407 45.3019L174.437 42.4104Z" fill="#FFC1C0"/>
<path d="M169.407 45.302L184.485 53.964V100.19L169.407 91.5282V45.302Z" fill="#FF898A"/>
<path d="M184.485 53.9637L189.502 51.0847V97.2985L184.485 100.19V53.9637Z" fill="#B9B9B9"/>
<path fill-rule="evenodd" clip-rule="evenodd" d="M173.436 53.403L175.664 54.6867C177.228 55.5841 177.791 56.5687 177.791 57.6904C177.791 58.1141 177.665 58.4132 177.428 58.5503L179.943 57.1046C180.168 56.9675 180.306 56.6684 180.306 56.2446C180.306 55.1229 179.73 54.1383 178.178 53.241L175.951 51.9573L173.436 53.403Z" fill="#FE6262"/>
<path fill-rule="evenodd" clip-rule="evenodd" d="M177.44 58.5502C177.228 58.6749 176.927 58.6749 176.564 58.5502L179.079 57.1045C179.442 57.2416 179.743 57.2416 179.955 57.1045L177.44 58.5502Z" fill="#FE6262"/>
<path fill-rule="evenodd" clip-rule="evenodd" d="M176.564 58.5378V58.6001L179.079 57.1544V57.092L176.564 58.5378Z" fill="#FE6262"/>
<path fill-rule="evenodd" clip-rule="evenodd" d="M176.564 58.6127C177.49 59.3231 177.991 60.2454 177.991 61.1677C177.991 61.7285 177.841 62.1024 177.54 62.2769L180.055 60.8312C180.343 60.6567 180.506 60.2828 180.506 59.722C180.506 58.7997 180.005 57.8774 179.079 57.167L176.564 58.6127Z" fill="#FE6262"/>
<path fill-rule="evenodd" clip-rule="evenodd" d="M177.54 62.2643C177.165 62.4886 176.577 62.3764 175.776 61.9278L173.436 60.5817L175.951 59.136L178.291 60.482C179.092 60.9432 179.68 61.0429 180.055 60.8185L177.54 62.2643Z" fill="#FE6262"/>
<path fill-rule="evenodd" clip-rule="evenodd" d="M173.436 60.5819V53.403L175.951 51.9573V59.1361L173.436 60.5819Z" fill="#FE6262"/>
<path fill-rule="evenodd" clip-rule="evenodd" d="M174.5 54.9484V56.9675L177.015 55.5217V53.5027L174.5 54.9484Z" fill="#FE6262"/>
<path fill-rule="evenodd" clip-rule="evenodd" d="M174.5 56.9675L175.451 57.5158C175.926 57.79 176.264 57.8648 176.477 57.7527L178.992 56.3069C178.779 56.4066 178.441 56.3443 177.966 56.0701L177.015 55.5217L174.5 56.9675Z" fill="#FE6262"/>
<path fill-rule="evenodd" clip-rule="evenodd" d="M176.477 57.7402C176.64 57.653 176.715 57.466 176.715 57.1918C176.715 56.5562 176.414 56.0452 175.538 55.5467L174.5 54.9484L177.015 53.5027L178.066 54.1009C178.929 54.5995 179.242 55.1104 179.242 55.7461C179.242 56.0327 179.167 56.2197 178.992 56.2945L176.477 57.7402Z" fill="#FE6262"/>
<path fill-rule="evenodd" clip-rule="evenodd" d="M174.5 57.9023V60.2578L177.015 58.8121V56.4565L174.5 57.9023Z" fill="#FE6262"/>
<path fill-rule="evenodd" clip-rule="evenodd" d="M174.5 60.2578L175.651 60.9183C176.076 61.1676 176.402 61.2299 176.602 61.1302L179.117 59.6844C178.917 59.7841 178.591 59.7218 178.166 59.4726L177.002 58.812L174.487 60.2578H174.5Z" fill="#FE6262"/>
<path fill-rule="evenodd" clip-rule="evenodd" d="M176.615 61.1303C176.802 61.0306 176.902 60.8062 176.902 60.4448C176.902 59.7095 176.402 58.9866 175.526 58.4881L174.5 57.9023L177.015 56.4565L178.041 57.0423C178.904 57.5408 179.417 58.2637 179.417 58.999C179.417 59.3605 179.317 59.5973 179.129 59.6845L176.615 61.1303Z" fill="#FE6262"/>
<path fill-rule="evenodd" clip-rule="evenodd" d="M176.202 64.8068L178.116 73.0824L180.631 71.6367L178.704 63.3611L176.189 64.8068H176.202Z" fill="#FE6262"/>
<path fill-rule="evenodd" clip-rule="evenodd" d="M178.116 73.0826L176.977 72.4345L179.492 70.9888L180.631 71.6369L178.116 73.0826Z" fill="#FE6262"/>
<path fill-rule="evenodd" clip-rule="evenodd" d="M176.99 72.4344L176.464 70.0165L178.979 68.5708L179.505 70.9887L176.99 72.4344Z" fill="#FE6262"/>
<path fill-rule="evenodd" clip-rule="evenodd" d="M176.452 70.0291L174.537 68.9323L177.052 67.4866L178.967 68.5833L176.452 70.0291Z" fill="#FE6262"/>
<path fill-rule="evenodd" clip-rule="evenodd" d="M174.537 68.9199L173.999 70.7146L176.514 69.2688L177.052 67.4741L174.537 68.9199Z" fill="#FE6262"/>
<path fill-rule="evenodd" clip-rule="evenodd" d="M173.999 70.7268L172.973 70.1411L175.488 68.6953L176.514 69.2811L173.999 70.7268Z" fill="#FE6262"/>
<path fill-rule="evenodd" clip-rule="evenodd" d="M172.973 70.1286L174.888 64.059L177.403 62.6133L175.488 68.6829L172.973 70.1286Z" fill="#FE6262"/>
<path fill-rule="evenodd" clip-rule="evenodd" d="M174.888 64.059L176.202 64.8068L178.717 63.3611L177.403 62.6133L174.888 64.059Z" fill="#FE6262"/>
<path fill-rule="evenodd" clip-rule="evenodd" d="M176.264 68.9944L175.901 67.3368C175.764 66.6887 175.664 66.1154 175.526 65.3552L178.041 63.9094C178.179 64.6572 178.279 65.243 178.416 65.8911L178.779 67.5487L176.264 68.9944Z" fill="#FE6262"/>
<path fill-rule="evenodd" clip-rule="evenodd" d="M175.526 65.3552L175.451 65.3178L177.966 63.8721L178.041 63.9095L175.526 65.3552Z" fill="#FE6262"/>
<path fill-rule="evenodd" clip-rule="evenodd" d="M175.463 65.3054C175.326 65.9161 175.213 66.3647 175.075 66.8383L174.738 68.1096L177.253 66.6639L177.59 65.3926C177.728 64.919 177.841 64.4579 177.978 63.8596L175.463 65.3054Z" fill="#FE6262"/>
<path fill-rule="evenodd" clip-rule="evenodd" d="M174.738 68.1096L176.264 68.982L178.779 67.5362L177.253 66.6638L174.738 68.1096Z" fill="#FE6262"/>
<path fill-rule="evenodd" clip-rule="evenodd" d="M177.928 75.6249V82.8038L180.443 81.358V74.1792L177.928 75.6249Z" fill="#FE6262"/>
<path fill-rule="evenodd" clip-rule="evenodd" d="M177.928 82.8039L176.602 82.0436L179.117 80.5979L180.443 81.3582L177.928 82.8039Z" fill="#FE6262"/>
<path fill-rule="evenodd" clip-rule="evenodd" d="M176.602 82.0435L175.088 77.482C174.725 76.3728 174.475 75.5626 174.2 74.603L176.715 73.1572C176.99 74.1294 177.24 74.927 177.603 76.0362L179.117 80.5978L176.602 82.0435Z" fill="#FE6262"/>
<path fill-rule="evenodd" clip-rule="evenodd" d="M174.2 74.5906L174.087 74.5283L176.602 73.0825L176.715 73.1448L174.2 74.5906Z" fill="#FE6262"/>
<path fill-rule="evenodd" clip-rule="evenodd" d="M174.087 74.5283C174.125 75.4007 174.137 76.2606 174.137 77.1455V80.6228L176.652 79.1771V75.6998C176.652 74.8149 176.639 73.9549 176.602 73.0825L174.087 74.5283Z" fill="#FE6262"/>
<path fill-rule="evenodd" clip-rule="evenodd" d="M174.15 80.6228L173.149 80.0495L175.664 78.6038L176.665 79.1771L174.15 80.6228Z" fill="#FE6262"/>
<path fill-rule="evenodd" clip-rule="evenodd" d="M173.149 80.0494V72.8705L175.664 71.4248V78.6036L173.149 80.0494Z" fill="#FE6262"/>
<path fill-rule="evenodd" clip-rule="evenodd" d="M173.149 72.883L174.775 73.8177L177.29 72.372L175.664 71.4373L173.149 72.883Z" fill="#FE6262"/>
<path fill-rule="evenodd" clip-rule="evenodd" d="M174.788 73.8178L176.076 77.7437C176.427 78.8405 176.677 79.7129 176.902 80.6726L179.417 79.2269C179.179 78.2547 178.942 77.3948 178.591 76.298L177.303 72.3721L174.788 73.8178Z" fill="#FE6262"/>
<path fill-rule="evenodd" clip-rule="evenodd" d="M176.902 80.6725L177.015 80.7349L179.53 79.2891L179.417 79.2268L176.902 80.6725Z" fill="#FE6262"/>
<path fill-rule="evenodd" clip-rule="evenodd" d="M177.015 80.7474C176.965 79.8376 176.94 79.0399 176.94 78.0803V75.0641L179.455 73.6184V76.6345C179.455 77.5942 179.492 78.4043 179.53 79.3017L177.015 80.7474Z" fill="#FE6262"/>
<path fill-rule="evenodd" clip-rule="evenodd" d="M176.94 75.0641L177.941 75.6375L180.456 74.1917L179.455 73.6184L176.94 75.0641Z" fill="#FE6262"/>
<path fill-rule="evenodd" clip-rule="evenodd" d="M178.078 85.5334L175.914 87.1411L178.429 85.6954L180.593 84.0876L178.078 85.5334Z" fill="#FE6262"/>
<path fill-rule="evenodd" clip-rule="evenodd" d="M175.914 87.1535L178.266 92.8243L180.781 91.3786L178.429 85.7078L175.914 87.1535Z" fill="#FE6262"/>
<path fill-rule="evenodd" clip-rule="evenodd" d="M178.266 92.8119L177.04 92.1015L179.555 90.6558L180.781 91.3662L178.266 92.8119Z" fill="#FE6262"/>
<path fill-rule="evenodd" clip-rule="evenodd" d="M177.027 92.1139L175.213 87.6271L177.728 86.1814L179.542 90.6682L177.027 92.1139Z" fill="#FE6262"/>
<path fill-rule="evenodd" clip-rule="evenodd" d="M175.213 87.6147L174.487 88.1381L177.002 86.6924L177.728 86.1689L175.213 87.6147Z" fill="#FE6262"/>
<path fill-rule="evenodd" clip-rule="evenodd" d="M174.487 88.1381V90.6432L177.002 89.1975V86.6924L174.487 88.1381Z" fill="#FE6262"/>
<path fill-rule="evenodd" clip-rule="evenodd" d="M174.487 90.6434L173.424 90.0327L175.939 88.5869L177.002 89.1976L174.487 90.6434Z" fill="#FE6262"/>
<path fill-rule="evenodd" clip-rule="evenodd" d="M173.411 90.0325V82.8537L175.926 81.408V88.5868L173.411 90.0325Z" fill="#FE6262"/>
<path fill-rule="evenodd" clip-rule="evenodd" d="M173.411 82.8537L174.475 83.4644L176.99 82.0187L175.926 81.408L173.411 82.8537Z" fill="#FE6262"/>
<path fill-rule="evenodd" clip-rule="evenodd" d="M174.487 83.4643V86.7421L177.002 85.2964V82.0186L174.487 83.4643Z" fill="#FE6262"/>
<path fill-rule="evenodd" clip-rule="evenodd" d="M174.487 86.7423L176.84 84.8229L179.355 83.3772L177.002 85.2965L174.487 86.7423Z" fill="#FE6262"/>
<path fill-rule="evenodd" clip-rule="evenodd" d="M176.84 84.8229L178.078 85.5333L180.593 84.0876L179.355 83.3772L176.84 84.8229Z" fill="#FE6262"/>
<path d="M173.436 53.4031L175.664 54.6868C177.228 55.5842 177.791 56.5688 177.791 57.6905C177.791 58.513 177.303 58.8246 176.552 58.538V58.6003C177.478 59.3107 177.978 60.233 177.978 61.1552C177.978 62.4265 177.19 62.7381 175.764 61.9155L173.424 60.5695V53.3906L173.436 53.4031ZM174.5 54.9485V56.9676L175.451 57.516C176.302 58.002 176.715 57.84 176.715 57.2044C176.715 56.5688 176.414 56.0578 175.538 55.5592L174.5 54.961V54.9485ZM174.5 57.9023V60.2579L175.651 60.9184C176.477 61.392 176.89 61.1926 176.89 60.4324C176.89 59.6721 176.389 58.9742 175.513 58.4756L174.487 57.8899L174.5 57.9023ZM176.202 64.807L178.116 73.0826L176.977 72.4345L176.452 70.0166L174.537 68.9199L173.999 70.7146L172.973 70.1288L174.888 64.0592L176.202 64.807ZM176.264 68.9946L175.901 67.337C175.764 66.6889 175.664 66.1156 175.526 65.3554L175.451 65.318C175.313 65.9287 175.201 66.3773 175.063 66.8509L174.725 68.1222L176.252 68.9946H176.264ZM177.928 75.6251V82.8039L176.602 82.0437L175.088 77.4821C174.725 76.3729 174.475 75.5628 174.2 74.6031L174.087 74.5408C174.125 75.4132 174.137 76.2732 174.137 77.1581V80.6353L173.136 80.062V72.8832L174.763 73.8179L176.051 77.7438C176.402 78.8406 176.652 79.713 176.877 80.6727L176.99 80.735C176.94 79.8252 176.915 79.0276 176.915 78.0679V75.0518L177.916 75.6251H177.928ZM178.078 85.5334L175.914 87.1411L178.266 92.8119L177.04 92.1015L175.226 87.6147L174.5 88.1382V90.6433L173.436 90.0326V82.8538L174.5 83.4645V86.7423L176.852 84.823L178.091 85.5334H178.078Z" fill="white"/>
<g clip-path="url(#clip0_509_2716)">
<path fill-rule="evenodd" clip-rule="evenodd" d="M132.335 147.694C132.397 148.786 131.698 149.89 130.263 150.73L90.1807 173.988C87.4103 175.593 82.9304 175.593 80.16 173.988L40.0775 150.718C38.7548 149.952 38.0559 148.949 38.006 147.933V153.753C38.0559 154.77 38.7548 155.761 40.0775 156.538L80.16 179.796C82.9304 181.402 87.4103 181.402 90.1807 179.796L130.263 156.538C131.698 155.698 132.397 154.594 132.335 153.503V147.682V147.694Z" fill="#B9B9B9"/>
<path fill-rule="evenodd" clip-rule="evenodd" d="M38.0062 147.946C37.9438 146.854 38.6426 145.75 40.0777 144.91L80.1602 121.652C82.9305 120.047 87.4105 120.047 90.1808 121.652L130.263 144.91C131.586 145.675 132.285 146.678 132.335 147.694L132.335 153.515C132.285 152.499 131.586 151.508 130.263 150.73L90.1808 127.473C87.4105 125.867 82.9305 125.867 80.1602 127.473L40.0775 150.718C38.6424 151.558 37.9436 152.662 38.006 153.753V147.933L38.0062 147.946Z" fill="#B9B9B9"/>
<path d="M90.1809 121.652L130.263 144.91C133.034 146.515 133.034 149.125 130.263 150.73L90.1809 173.988C87.4106 175.593 82.9306 175.593 80.1603 173.988L40.0778 150.718C37.3074 149.112 37.3074 146.503 40.0778 144.897L80.1603 121.64C82.9306 120.034 87.4106 120.034 90.1809 121.64V121.652Z" fill="#ECECEC"/>
<path d="M85.1653 95.9753L114.86 113.075L85.1653 130.188L55.4706 113.075L85.1653 95.9753Z" fill="#FDEAAA"/>
<path d="M55.4706 113.075L85.1653 130.188V164.413L55.4706 147.3V113.075Z" fill="#FFC337"/>
<path d="M85.1652 130.188L114.86 113.075V147.3L85.1652 164.413V130.188Z" fill="#B9B9B9"/>
<path d="M85.1652 95.9753L104.962 107.379L85.1652 118.784L65.3687 107.379L85.1652 95.9753Z" fill="#FDEAAA"/>
<path d="M65.3687 107.379L85.1652 118.784V124.492L65.3687 113.075V107.379Z" fill="#FFC337"/>
<path d="M85.1652 118.784L104.962 107.379V113.075L85.1652 124.492V118.784Z" fill="#B9B9B9"/>
<path d="M60.4259 127.334L80.2223 138.75L75.2671 141.592L55.4706 130.188L60.4259 127.334Z" fill="#FDEAAA"/>
<path d="M55.4706 130.188L75.2671 141.592V164.412L55.4706 153.008V130.188Z" fill="#FFC337"/>
<path d="M57.9851 137.323L62.9281 140.235V151.581L57.9851 154.423V137.323Z" fill="#B9B9B9"/>
<path d="M62.9281 151.581L77.7816 160.131L71.4853 163.529L56.6441 154.967L62.9281 151.581Z" fill="#ECECEC"/>
<path d="M62.9281 134.469L77.7816 143.019V160.131L62.9281 151.581V134.469Z" fill="#FFC337"/>
<path d="M75.2797 141.581L80.235 138.739V161.547L75.2797 164.401V141.581Z" fill="#B9B9B9"/>
<path d="M70.2364 138.669L75.2797 141.58V164.403L70.2364 161.491V138.669Z" fill="#FFC337"/>
<path d="M59.4882 83.427L99.0811 106.235V123.348L59.4882 100.539V83.427Z" fill="#FFC337"/>
<path d="M99.0811 106.235L101.559 104.808V121.921L99.0811 123.348V106.235Z" fill="#FEA612"/>
<path fill-rule="evenodd" clip-rule="evenodd" d="M65.5652 94.0315L67.7594 95.2987C69.3002 96.1844 69.8549 97.1563 69.8549 98.2635C69.8549 98.6818 69.7316 98.977 69.4974 99.1124L71.975 97.6853C72.1969 97.55 72.3325 97.2547 72.3325 96.8365C72.3325 95.7293 71.7655 94.7574 70.237 93.8716L68.0429 92.6045L65.5652 94.0315Z" fill="#FEA612"/>
<path fill-rule="evenodd" clip-rule="evenodd" d="M69.5097 99.1124C69.3002 99.2354 69.0044 99.2354 68.6469 99.1124L71.1245 97.6853C71.482 97.8206 71.7778 97.8206 71.9874 97.6853L69.5097 99.1124Z" fill="#FEA612"/>
<path fill-rule="evenodd" clip-rule="evenodd" d="M68.6469 99.1002V99.1617L71.1245 97.7346V97.6731L68.6469 99.1002Z" fill="#FEA612"/>
<path fill-rule="evenodd" clip-rule="evenodd" d="M68.6469 99.1617C69.5591 99.8629 70.0521 100.773 70.0521 101.684C70.0521 102.237 69.9042 102.606 69.6084 102.779L72.086 101.351C72.3695 101.179 72.5298 100.81 72.5298 100.257C72.5298 99.3462 72.0367 98.4358 71.1245 97.7346L68.6469 99.1617Z" fill="#FEA612"/>
<path fill-rule="evenodd" clip-rule="evenodd" d="M69.6083 102.779C69.2385 103 68.6592 102.889 67.8703 102.446L65.5652 101.118L68.0429 99.6907L70.3479 101.019C71.1368 101.474 71.7162 101.573 72.086 101.351L69.6083 102.779Z" fill="#FEA612"/>
<path fill-rule="evenodd" clip-rule="evenodd" d="M65.5652 101.105V94.0193L68.0429 92.5923V99.6784L65.5652 101.105Z" fill="#FEA612"/>
<path fill-rule="evenodd" clip-rule="evenodd" d="M66.6129 95.5569V97.5499L69.0906 96.1228V94.1299L66.6129 95.5569Z" fill="#FEA612"/>
<path fill-rule="evenodd" clip-rule="evenodd" d="M66.6129 97.5377L67.5497 98.0789C68.0182 98.3496 68.351 98.4234 68.5605 98.3127L71.0382 96.8856C70.8286 96.9841 70.4958 96.9225 70.0274 96.6519L69.0906 96.1106L66.6129 97.5377Z" fill="#FEA612"/>
<path fill-rule="evenodd" clip-rule="evenodd" d="M68.5605 98.3126C68.7208 98.2265 68.8071 98.042 68.8071 97.7713C68.8071 97.1439 68.5112 96.6395 67.6484 96.1474L66.6129 95.5569L69.0906 94.1299L70.126 94.7204C70.9765 95.2125 71.2847 95.7169 71.2847 96.3443C71.2847 96.6272 71.2107 96.8118 71.0382 96.8856L68.5605 98.3126Z" fill="#FEA612"/>
<path fill-rule="evenodd" clip-rule="evenodd" d="M66.6129 98.4603V100.785L69.0906 99.3583V97.0332L66.6129 98.4603Z" fill="#FEA612"/>
<path fill-rule="evenodd" clip-rule="evenodd" d="M66.6129 100.785L67.747 101.437C68.1661 101.684 68.4866 101.745 68.6838 101.647L71.1614 100.22C70.9642 100.318 70.6437 100.256 70.2246 100.01L69.0906 99.3584L66.6129 100.785Z" fill="#FEA612"/>
<path fill-rule="evenodd" clip-rule="evenodd" d="M68.6961 101.659C68.881 101.561 68.9796 101.339 68.9796 100.982C68.9796 100.257 68.4866 99.543 67.6237 99.0509L66.6129 98.4727L69.0906 97.0457L70.1013 97.6239C70.9519 98.1159 71.4573 98.8295 71.4573 99.5553C71.4573 99.9121 71.3587 100.146 71.1738 100.232L68.6961 101.659Z" fill="#FEA612"/>
<path fill-rule="evenodd" clip-rule="evenodd" d="M74.6005 99.2354L76.4988 107.404L78.9764 105.977L77.0782 97.8083L74.6005 99.2354Z" fill="#FEA612"/>
<path fill-rule="evenodd" clip-rule="evenodd" d="M76.4866 107.404L75.3649 106.764L77.8425 105.337L78.9642 105.977L76.4866 107.404Z" fill="#FEA612"/>
<path fill-rule="evenodd" clip-rule="evenodd" d="M75.3771 106.764L74.8594 104.378L77.3371 102.951L77.8548 105.337L75.3771 106.764Z" fill="#FEA612"/>
<path fill-rule="evenodd" clip-rule="evenodd" d="M74.847 104.378L72.9611 103.295L75.4387 101.868L77.3247 102.951L74.847 104.378Z" fill="#FEA612"/>
<path fill-rule="evenodd" clip-rule="evenodd" d="M72.9611 103.295L72.4311 105.067L74.9087 103.64L75.4387 101.868L72.9611 103.295Z" fill="#FEA612"/>
<path fill-rule="evenodd" clip-rule="evenodd" d="M72.4311 105.067L71.4203 104.488L73.898 103.061L74.9087 103.639L72.4311 105.067Z" fill="#FEA612"/>
<path fill-rule="evenodd" clip-rule="evenodd" d="M71.4203 104.476L73.3063 98.4849L75.7839 97.0579L73.898 103.049L71.4203 104.476Z" fill="#FEA612"/>
<path fill-rule="evenodd" clip-rule="evenodd" d="M73.3063 98.4849L74.6006 99.2231L77.0782 97.796L75.7839 97.0579L73.3063 98.4849Z" fill="#FEA612"/>
<path fill-rule="evenodd" clip-rule="evenodd" d="M74.6623 103.357L74.3048 101.721C74.1692 101.081 74.0706 100.515 73.935 99.7645L76.4126 98.3374C76.5482 99.0755 76.6468 99.6537 76.7824 100.293L77.1399 101.93L74.6623 103.357Z" fill="#FEA612"/>
<path fill-rule="evenodd" clip-rule="evenodd" d="M73.9349 99.7645L73.8609 99.7276L76.3386 98.3005L76.4125 98.3374L73.9349 99.7645Z" fill="#FEA612"/>
<path fill-rule="evenodd" clip-rule="evenodd" d="M73.8734 99.7276C73.7378 100.33 73.6268 100.773 73.4912 101.241L73.1584 102.496L75.6361 101.069L75.9689 99.8137C76.1045 99.3462 76.2154 98.891 76.351 98.3005L73.8734 99.7276Z" fill="#FEA612"/>
<path fill-rule="evenodd" clip-rule="evenodd" d="M73.1584 102.483L74.6623 103.344L77.1399 101.917L75.6361 101.056L73.1584 102.483Z" fill="#FEA612"/>
<path fill-rule="evenodd" clip-rule="evenodd" d="M82.9087 104.021V111.107L85.3863 109.68V102.594L82.9087 104.021Z" fill="#FEA612"/>
<path fill-rule="evenodd" clip-rule="evenodd" d="M82.9087 111.095L81.6021 110.344L84.0797 108.917L85.3864 109.668L82.9087 111.095Z" fill="#FEA612"/>
<path fill-rule="evenodd" clip-rule="evenodd" d="M81.602 110.344L80.1105 105.842C79.753 104.747 79.5065 103.947 79.2353 103L81.7129 101.573C81.9841 102.532 82.2307 103.32 82.5881 104.415L84.0796 108.917L81.602 110.344Z" fill="#FEA612"/>
<path fill-rule="evenodd" clip-rule="evenodd" d="M79.2353 103L79.1244 102.938L81.602 101.511L81.713 101.573L79.2353 103Z" fill="#FEA612"/>
<path fill-rule="evenodd" clip-rule="evenodd" d="M79.1244 102.938C79.1614 103.799 79.1737 104.648 79.1737 105.522V108.954L81.6513 107.527V104.095C81.6513 103.221 81.639 102.372 81.602 101.511L79.1244 102.938Z" fill="#FEA612"/>
<path fill-rule="evenodd" clip-rule="evenodd" d="M79.1737 108.954L78.1876 108.388L80.6652 106.961L81.6514 107.527L79.1737 108.954Z" fill="#FEA612"/>
<path fill-rule="evenodd" clip-rule="evenodd" d="M78.2 108.388V101.302L80.6776 99.875V106.961L78.2 108.388Z" fill="#FEA612"/>
<path fill-rule="evenodd" clip-rule="evenodd" d="M78.2 101.302L79.8024 102.225L82.2801 100.798L80.6776 99.875L78.2 101.302Z" fill="#FEA612"/>
<path fill-rule="evenodd" clip-rule="evenodd" d="M79.8023 102.225L81.0719 106.1C81.4171 107.183 81.6636 108.044 81.8855 108.991L84.3631 107.564C84.1289 106.604 83.8947 105.756 83.5496 104.673L82.2799 100.798L79.8023 102.225Z" fill="#FEA612"/>
<path fill-rule="evenodd" clip-rule="evenodd" d="M81.8978 109.003L82.0088 109.065L84.4864 107.638L84.3755 107.576L81.8978 109.003Z" fill="#FEA612"/>
<path fill-rule="evenodd" clip-rule="evenodd" d="M82.0088 109.065C81.9595 108.167 81.9348 107.38 81.9348 106.432V103.455L84.4124 102.028V105.005C84.4124 105.952 84.4494 106.752 84.4864 107.638L82.0088 109.065Z" fill="#FEA612"/>
<path fill-rule="evenodd" clip-rule="evenodd" d="M81.9226 103.455L82.9087 104.021L85.3863 102.594L84.4002 102.028L81.9226 103.455Z" fill="#FEA612"/>
<path fill-rule="evenodd" clip-rule="evenodd" d="M89.7623 107.97L87.6298 109.557L90.1074 108.13L92.2399 106.543L89.7623 107.97Z" fill="#FEA612"/>
<path fill-rule="evenodd" clip-rule="evenodd" d="M87.6298 109.569L89.9472 115.167L92.4248 113.74L90.1074 108.142L87.6298 109.569Z" fill="#FEA612"/>
<path fill-rule="evenodd" clip-rule="evenodd" d="M89.9471 115.154L88.7391 114.453L91.2167 113.026L92.4247 113.727L89.9471 115.154Z" fill="#FEA612"/>
<path fill-rule="evenodd" clip-rule="evenodd" d="M88.7391 114.453L86.9518 110.024L89.4294 108.597L91.2168 113.026L88.7391 114.453Z" fill="#FEA612"/>
<path fill-rule="evenodd" clip-rule="evenodd" d="M86.9519 110.024L86.2369 110.541L88.7145 109.114L89.4295 108.597L86.9519 110.024Z" fill="#FEA612"/>
<path fill-rule="evenodd" clip-rule="evenodd" d="M86.2245 110.541V113.014L88.7022 111.587V109.114L86.2245 110.541Z" fill="#FEA612"/>
<path fill-rule="evenodd" clip-rule="evenodd" d="M86.2245 113.014L85.1767 112.411L87.6543 110.984L88.7021 111.587L86.2245 113.014Z" fill="#FEA612"/>
<path fill-rule="evenodd" clip-rule="evenodd" d="M85.1767 112.411V105.325L87.6543 103.898V110.984L85.1767 112.411Z" fill="#FEA612"/>
<path fill-rule="evenodd" clip-rule="evenodd" d="M85.1767 105.325L86.2245 105.928L88.7021 104.501L87.6543 103.898L85.1767 105.325Z" fill="#FEA612"/>
<path fill-rule="evenodd" clip-rule="evenodd" d="M86.2245 105.928V109.163L88.7022 107.736V104.501L86.2245 105.928Z" fill="#FEA612"/>
<path fill-rule="evenodd" clip-rule="evenodd" d="M86.2245 109.163L88.5419 107.269L91.0196 105.842L88.7022 107.736L86.2245 109.163Z" fill="#FEA612"/>
<path fill-rule="evenodd" clip-rule="evenodd" d="M88.5419 107.269L89.7622 107.97L92.2398 106.543L91.0195 105.842L88.5419 107.269Z" fill="#FEA612"/>
<path d="M65.5652 94.0316L67.7593 95.2987C69.3001 96.1845 69.8548 97.1563 69.8548 98.2635C69.8548 99.0755 69.3741 99.383 68.6345 99.1001V99.1616C69.5467 99.8628 70.0397 100.773 70.0397 101.684C70.0397 102.938 69.2632 103.246 67.8579 102.434L65.5529 101.105V94.0193L65.5652 94.0316ZM66.6129 95.5571V97.55L67.5498 98.0913C68.388 98.5711 68.7947 98.4112 68.7947 97.7838C68.7947 97.1563 68.4989 96.652 67.636 96.1599L66.6006 95.5694L66.6129 95.5571ZM66.6129 98.4604V100.786L67.747 101.438C68.5605 101.905 68.9673 101.708 68.9673 100.958C68.9673 100.207 68.4743 99.5184 67.6114 99.0263L66.6006 98.4481L66.6129 98.4604ZM74.6006 99.2354L76.4988 107.404L75.3771 106.764L74.8594 104.378L72.9734 103.295L72.4434 105.067L71.4326 104.488L73.3186 98.4973L74.6129 99.2354H74.6006ZM74.6622 103.357L74.3047 101.72C74.1691 101.081 74.0705 100.515 73.9349 99.7644L73.861 99.7275C73.7254 100.33 73.6144 100.773 73.4788 101.241L73.146 102.496L74.6499 103.357H74.6622ZM82.9087 104.021V111.107L81.602 110.357L80.1105 105.854C79.7531 104.759 79.5065 103.959 79.2353 103.012L79.1244 102.951C79.1614 103.812 79.1737 104.661 79.1737 105.534V108.966L78.1876 108.401V101.314L79.79 102.237L81.0597 106.112C81.4048 107.195 81.6513 108.056 81.8732 109.003L81.9842 109.065C81.9349 108.167 81.9102 107.379 81.9102 106.432V103.455L82.8963 104.021H82.9087ZM89.7622 107.97L87.6297 109.557L89.9471 115.154L88.7391 114.453L86.9518 110.024L86.2368 110.541V113.014L85.1891 112.411V105.325L86.2368 105.928V109.163L88.5542 107.269L89.7745 107.97H89.7622Z" fill="white"/>
<path d="M61.9658 82L101.559 104.808L99.0811 106.235L59.4882 83.4271L61.9658 82Z" fill="#FDEAAA"/>
</g>
<path fill-rule="evenodd" clip-rule="evenodd" d="M265.994 147.732C266.056 148.822 265.359 149.925 263.93 150.764L223.992 173.996C221.232 175.599 216.768 175.599 214.008 173.996L174.07 150.752C172.752 149.987 172.056 148.985 172.006 147.97V153.784C172.056 154.799 172.752 155.789 174.07 156.566L214.008 179.797C216.768 181.401 221.232 181.401 223.992 179.797L263.93 156.566C265.359 155.726 266.056 154.623 265.994 153.533V147.719V147.732Z" fill="#B9B9B9"/>
<path fill-rule="evenodd" clip-rule="evenodd" d="M172.006 147.983C171.944 146.892 172.64 145.79 174.07 144.95L214.008 121.719C216.768 120.115 221.232 120.115 223.992 121.719L263.93 144.95C265.248 145.715 265.944 146.717 265.994 147.732L265.994 153.546C265.944 152.531 265.248 151.541 263.93 150.764L223.992 127.533C221.232 125.929 216.768 125.929 214.008 127.533L174.07 150.752C172.64 151.591 171.944 152.694 172.006 153.784V147.97L172.006 147.983Z" fill="#B9B9B9"/>
<path d="M223.992 121.719L263.93 144.95C266.69 146.554 266.69 149.16 263.93 150.764L223.992 173.996C221.232 175.599 216.768 175.599 214.008 173.996L174.07 150.752C171.31 149.148 171.31 146.541 174.07 144.937L214.008 121.706C216.768 120.102 221.232 120.102 223.992 121.706V121.719Z" fill="#ECECEC"/>
<rect width="34.8366" height="34.8366" transform="matrix(0.865483 0.500938 -0.865483 0.500938 218.825 94.9084)" fill="#9FABFB"/>
<rect width="34.8366" height="34.902" transform="matrix(0.865483 0.500938 0 1 188.675 112.359)" fill="#7486FD"/>
<rect width="34.8366" height="34.902" transform="matrix(0.865483 -0.500938 0 1 218.825 129.811)" fill="#B9B9B9"/>
<rect width="23.2244" height="2.90305" transform="matrix(0.865483 0.500938 -0.865483 0.500938 194.088 138.827)" fill="#9FABFB"/>
<rect width="23.2244" height="11.634" transform="matrix(0.865483 0.500938 0 1 191.576 140.281)" fill="#7486FD"/>
<rect width="2.90305" height="11.634" transform="matrix(0.865483 -0.500938 0 1 211.676 151.915)" fill="#B9B9B9"/>
<path d="M188.708 112.359L218.859 94.9085L233.934 92L203.783 109.451L188.708 112.359Z" fill="#9FABFB"/>
<path d="M218.859 129.81L249.009 112.359L233.934 92L203.783 109.451L218.859 129.81Z" fill="#4E61DD"/>
<path d="M188.708 112.36L218.859 129.811L203.783 109.451L188.708 112.36Z" fill="#7486FD"/>
<rect width="2.90305" height="5.8061" transform="matrix(0.865483 0.500938 -0.865483 0.500938 233.56 118.86)" fill="#9FABFB"/>
<rect width="2.90305" height="29.085" transform="matrix(0.865483 0.500938 0 1 228.535 121.769)" fill="#7486FD"/>
<rect width="5.80611" height="29.085" transform="matrix(0.865483 -0.500938 0 1 231.048 123.223)" fill="#B9B9B9"/>
<path d="M237.956 104.216L253.021 112.945L248.003 115.842L232.926 107.125L237.956 104.216Z" fill="#9FABFB"/>
<path d="M232.926 107.125L248.003 115.842V162.362L232.926 153.645V107.125Z" fill="#7486FD"/>
<path d="M248.003 115.842L253.021 112.945V159.452L248.003 162.362V115.842Z" fill="#4E61DD"/>
<path fill-rule="evenodd" clip-rule="evenodd" d="M236.955 115.278L239.182 116.57C240.746 117.473 241.309 118.464 241.309 119.592C241.309 120.019 241.184 120.32 240.946 120.458L243.461 119.003C243.686 118.865 243.824 118.564 243.824 118.138C243.824 117.009 243.249 116.018 241.697 115.115L239.47 113.823L236.955 115.278Z" fill="#4E61DD"/>
<path fill-rule="evenodd" clip-rule="evenodd" d="M240.959 120.458C240.746 120.583 240.446 120.583 240.083 120.458L242.598 119.003C242.961 119.141 243.261 119.141 243.474 119.003L240.959 120.458Z" fill="#4E61DD"/>
<path fill-rule="evenodd" clip-rule="evenodd" d="M240.083 120.445V120.508L242.598 119.053V118.99L240.083 120.445Z" fill="#4E61DD"/>
<path fill-rule="evenodd" clip-rule="evenodd" d="M240.083 120.521C241.009 121.235 241.509 122.164 241.509 123.092C241.509 123.656 241.359 124.032 241.059 124.208L243.574 122.753C243.862 122.578 244.024 122.201 244.024 121.637C244.024 120.709 243.524 119.781 242.598 119.066L240.083 120.521Z" fill="#4E61DD"/>
<path fill-rule="evenodd" clip-rule="evenodd" d="M241.059 124.195C240.684 124.421 240.095 124.308 239.295 123.857L236.955 122.502L239.47 121.047L241.81 122.402C242.61 122.866 243.198 122.966 243.574 122.741L241.059 124.195Z" fill="#4E61DD"/>
<path fill-rule="evenodd" clip-rule="evenodd" d="M236.955 122.502V115.278L239.47 113.823V121.047L236.955 122.502Z" fill="#4E61DD"/>
<path fill-rule="evenodd" clip-rule="evenodd" d="M238.018 116.833V118.865L240.533 117.41V115.378L238.018 116.833Z" fill="#4E61DD"/>
<path fill-rule="evenodd" clip-rule="evenodd" d="M238.018 118.865L238.969 119.417C239.445 119.693 239.783 119.768 239.995 119.655L242.51 118.2C242.298 118.301 241.96 118.238 241.484 117.962L240.533 117.41L238.018 118.865Z" fill="#4E61DD"/>
<path fill-rule="evenodd" clip-rule="evenodd" d="M239.995 119.643C240.158 119.555 240.233 119.367 240.233 119.091C240.233 118.451 239.933 117.937 239.057 117.435L238.018 116.833L240.533 115.378L241.584 115.98C242.448 116.482 242.761 116.996 242.761 117.636C242.761 117.924 242.686 118.113 242.51 118.188L239.995 119.643Z" fill="#4E61DD"/>
<path fill-rule="evenodd" clip-rule="evenodd" d="M238.018 119.806V122.176L240.533 120.721V118.351L238.018 119.806Z" fill="#4E61DD"/>
<path fill-rule="evenodd" clip-rule="evenodd" d="M238.018 122.176L239.17 122.841C239.595 123.092 239.92 123.155 240.12 123.054L242.635 121.599C242.435 121.7 242.11 121.637 241.685 121.386L240.521 120.721L238.006 122.176H238.018Z" fill="#4E61DD"/>
<path fill-rule="evenodd" clip-rule="evenodd" d="M240.133 123.054C240.321 122.954 240.421 122.728 240.421 122.364C240.421 121.624 239.92 120.897 239.044 120.395L238.018 119.806L240.533 118.351L241.559 118.94C242.423 119.442 242.936 120.169 242.936 120.909C242.936 121.273 242.836 121.511 242.648 121.599L240.133 123.054Z" fill="#4E61DD"/>
<path fill-rule="evenodd" clip-rule="evenodd" d="M239.72 126.754L241.635 135.082L244.149 133.627L242.223 125.299L239.708 126.754H239.72Z" fill="#4E61DD"/>
<path fill-rule="evenodd" clip-rule="evenodd" d="M241.634 135.082L240.496 134.43L243.011 132.975L244.149 133.627L241.634 135.082Z" fill="#4E61DD"/>
<path fill-rule="evenodd" clip-rule="evenodd" d="M240.508 134.43L239.983 131.997L242.498 130.542L243.023 132.975L240.508 134.43Z" fill="#4E61DD"/>
<path fill-rule="evenodd" clip-rule="evenodd" d="M239.97 132.009L238.056 130.906L240.571 129.451L242.485 130.554L239.97 132.009Z" fill="#4E61DD"/>
<path fill-rule="evenodd" clip-rule="evenodd" d="M238.056 130.893L237.518 132.699L240.033 131.244L240.571 129.438L238.056 130.893Z" fill="#4E61DD"/>
<path fill-rule="evenodd" clip-rule="evenodd" d="M237.518 132.712L236.492 132.122L239.007 130.667L240.033 131.257L237.518 132.712Z" fill="#4E61DD"/>
<path fill-rule="evenodd" clip-rule="evenodd" d="M236.492 132.11L238.406 126.002L240.921 124.547L239.007 130.655L236.492 132.11Z" fill="#4E61DD"/>
<path fill-rule="evenodd" clip-rule="evenodd" d="M238.406 126.002L239.72 126.754L242.235 125.299L240.921 124.547L238.406 126.002Z" fill="#4E61DD"/>
<path fill-rule="evenodd" clip-rule="evenodd" d="M239.783 130.968L239.42 129.3C239.282 128.648 239.182 128.071 239.044 127.306L241.559 125.851C241.697 126.604 241.797 127.193 241.935 127.845L242.298 129.513L239.783 130.968Z" fill="#4E61DD"/>
<path fill-rule="evenodd" clip-rule="evenodd" d="M239.044 127.306L238.969 127.268L241.484 125.813L241.559 125.851L239.044 127.306Z" fill="#4E61DD"/>
<path fill-rule="evenodd" clip-rule="evenodd" d="M238.982 127.256C238.844 127.871 238.732 128.322 238.594 128.799L238.256 130.078L240.771 128.623L241.109 127.344C241.247 126.867 241.359 126.403 241.497 125.801L238.982 127.256Z" fill="#4E61DD"/>
<path fill-rule="evenodd" clip-rule="evenodd" d="M238.256 130.078L239.783 130.956L242.298 129.501L240.771 128.623L238.256 130.078Z" fill="#4E61DD"/>
<path fill-rule="evenodd" clip-rule="evenodd" d="M241.447 137.641V144.865L243.962 143.41V136.186L241.447 137.641Z" fill="#4E61DD"/>
<path fill-rule="evenodd" clip-rule="evenodd" d="M241.447 144.865L240.121 144.1L242.635 142.645L243.962 143.41L241.447 144.865Z" fill="#4E61DD"/>
<path fill-rule="evenodd" clip-rule="evenodd" d="M240.121 144.1L238.607 139.51C238.244 138.393 237.993 137.578 237.718 136.612L240.233 135.157C240.508 136.136 240.759 136.938 241.121 138.055L242.635 142.645L240.121 144.1Z" fill="#4E61DD"/>
<path fill-rule="evenodd" clip-rule="evenodd" d="M237.718 136.6L237.606 136.537L240.12 135.082L240.233 135.145L237.718 136.6Z" fill="#4E61DD"/>
<path fill-rule="evenodd" clip-rule="evenodd" d="M237.606 136.537C237.643 137.415 237.656 138.281 237.656 139.171V142.67L240.171 141.215V137.716C240.171 136.826 240.158 135.96 240.12 135.082L237.606 136.537Z" fill="#4E61DD"/>
<path fill-rule="evenodd" clip-rule="evenodd" d="M237.668 142.67L236.667 142.093L239.182 140.638L240.183 141.215L237.668 142.67Z" fill="#4E61DD"/>
<path fill-rule="evenodd" clip-rule="evenodd" d="M236.667 142.093V134.869L239.182 133.414V140.638L236.667 142.093Z" fill="#4E61DD"/>
<path fill-rule="evenodd" clip-rule="evenodd" d="M236.667 134.882L238.294 135.822L240.809 134.367L239.182 133.427L236.667 134.882Z" fill="#4E61DD"/>
<path fill-rule="evenodd" clip-rule="evenodd" d="M238.306 135.822L239.595 139.773C239.945 140.877 240.196 141.755 240.421 142.721L242.936 141.266C242.698 140.287 242.46 139.422 242.11 138.318L240.821 134.367L238.306 135.822Z" fill="#4E61DD"/>
<path fill-rule="evenodd" clip-rule="evenodd" d="M240.421 142.721L240.533 142.783L243.048 141.328L242.936 141.266L240.421 142.721Z" fill="#4E61DD"/>
<path fill-rule="evenodd" clip-rule="evenodd" d="M240.533 142.796C240.483 141.88 240.458 141.077 240.458 140.112V137.076L242.973 135.622V138.657C242.973 139.623 243.011 140.438 243.048 141.341L240.533 142.796Z" fill="#4E61DD"/>
<path fill-rule="evenodd" clip-rule="evenodd" d="M240.458 137.076L241.459 137.653L243.974 136.199L242.973 135.622L240.458 137.076Z" fill="#4E61DD"/>
<path fill-rule="evenodd" clip-rule="evenodd" d="M241.597 147.612L239.432 149.23L241.947 147.775L244.112 146.157L241.597 147.612Z" fill="#4E61DD"/>
<path fill-rule="evenodd" clip-rule="evenodd" d="M239.432 149.243L241.785 154.949L244.3 153.494L241.947 147.788L239.432 149.243Z" fill="#4E61DD"/>
<path fill-rule="evenodd" clip-rule="evenodd" d="M241.785 154.937L240.558 154.222L243.073 152.767L244.3 153.482L241.785 154.937Z" fill="#4E61DD"/>
<path fill-rule="evenodd" clip-rule="evenodd" d="M240.546 154.234L238.732 149.719L241.247 148.264L243.061 152.779L240.546 154.234Z" fill="#4E61DD"/>
<path fill-rule="evenodd" clip-rule="evenodd" d="M238.732 149.707L238.006 150.233L240.521 148.778L241.247 148.252L238.732 149.707Z" fill="#4E61DD"/>
<path fill-rule="evenodd" clip-rule="evenodd" d="M238.006 150.233V152.754L240.521 151.299V148.778L238.006 150.233Z" fill="#4E61DD"/>
<path fill-rule="evenodd" clip-rule="evenodd" d="M238.006 152.754L236.942 152.14L239.457 150.685L240.521 151.299L238.006 152.754Z" fill="#4E61DD"/>
<path fill-rule="evenodd" clip-rule="evenodd" d="M236.93 152.14V144.915L239.445 143.46V150.685L236.93 152.14Z" fill="#4E61DD"/>
<path fill-rule="evenodd" clip-rule="evenodd" d="M236.93 144.915L237.993 145.53L240.508 144.075L239.445 143.46L236.93 144.915Z" fill="#4E61DD"/>
<path fill-rule="evenodd" clip-rule="evenodd" d="M238.006 145.53V148.828L240.521 147.374V144.075L238.006 145.53Z" fill="#4E61DD"/>
<path fill-rule="evenodd" clip-rule="evenodd" d="M238.006 148.829L240.358 146.897L242.873 145.442L240.521 147.374L238.006 148.829Z" fill="#4E61DD"/>
<path fill-rule="evenodd" clip-rule="evenodd" d="M240.358 146.897L241.597 147.612L244.112 146.157L242.873 145.442L240.358 146.897Z" fill="#4E61DD"/>
<path d="M236.955 115.278L239.182 116.57C240.746 117.473 241.309 118.464 241.309 119.592C241.309 120.42 240.821 120.734 240.07 120.445V120.508C240.996 121.223 241.497 122.151 241.497 123.079C241.497 124.359 240.709 124.672 239.282 123.844L236.942 122.49V115.265L236.955 115.278ZM238.018 116.833V118.865L238.969 119.417C239.82 119.906 240.233 119.743 240.233 119.103C240.233 118.464 239.933 117.949 239.057 117.448L238.018 116.846V116.833ZM238.018 119.806V122.176L239.17 122.841C239.995 123.318 240.408 123.117 240.408 122.352C240.408 121.587 239.908 120.884 239.032 120.383L238.006 119.793L238.018 119.806ZM239.72 126.754L241.634 135.082L240.496 134.43L239.97 131.997L238.056 130.893L237.518 132.699L236.492 132.11L238.406 126.002L239.72 126.754ZM239.783 130.968L239.42 129.3C239.282 128.648 239.182 128.071 239.044 127.306L238.969 127.268C238.832 127.883 238.719 128.334 238.581 128.811L238.244 130.09L239.77 130.968H239.783ZM241.447 137.641V144.865L240.12 144.1L238.606 139.51C238.244 138.393 237.993 137.578 237.718 136.612L237.606 136.55C237.643 137.428 237.656 138.293 237.656 139.184V142.683L236.655 142.106V134.882L238.281 135.822L239.57 139.773C239.92 140.877 240.171 141.755 240.396 142.72L240.508 142.783C240.458 141.868 240.433 141.065 240.433 140.099V137.064L241.434 137.641H241.447ZM241.597 147.612L239.432 149.23L241.785 154.937L240.558 154.222L238.744 149.706L238.018 150.233V152.754L236.955 152.14V144.915L238.018 145.53V148.829L240.371 146.897L241.609 147.612H241.597Z" fill="white"/>
<defs>
<clipPath id="clip0_509_2716">
<rect width="94.3412" height="99" fill="white" transform="translate(38 82)"/>
</clipPath>
</defs>
</svg>
