<svg width="304" height="229" viewBox="0 0 304 229" fill="none" xmlns="http://www.w3.org/2000/svg">
<path fill-rule="evenodd" clip-rule="evenodd" d="M42.3514 36.5069C43.9309 35.48 49.8944 80.064 52.3816 81.4999L109.525 103C114.308 105.761 115.525 113.977 115.525 119.5L140.525 168C140.525 170.651 155.154 179.545 153.696 180.493L154.562 179.993C156.02 179.045 156.913 177.151 156.913 174.5V108.5C156.913 102.977 153.036 96.2614 148.253 93.4999L49.5263 36.4999C47.0392 35.064 44.7969 34.98 43.2174 36.0069L42.3514 36.5069Z" fill="#CD7D7D"/>
<path fill-rule="evenodd" clip-rule="evenodd" d="M153.696 180.493C152.117 181.52 149.874 181.436 147.387 180L48.6603 123C43.8773 120.239 40 113.523 40 108V41.9999C40 39.349 40.8933 37.4547 42.3514 36.5069L43.2174 36.0069C41.7594 36.9547 59.0251 63.849 59.0251 66.4999L123.025 107C123.025 112.523 118.242 112.739 123.025 115.5L148.253 144.5C150.74 145.936 152.983 181.02 154.562 179.993L153.696 180.493Z" fill="#CD7D7D"/>
<rect width="134" height="86" rx="10" transform="matrix(0.866025 0.5 0 1 40 32)" fill="#FFC3C5"/>
<rect width="118" height="4" transform="matrix(0.866025 0.5 0 1 46.9282 47)" fill="#939393"/>
<rect width="72" height="20" transform="matrix(0.866025 0.5 0 1 86.7654 114)" fill="white"/>
<rect width="64" height="4" transform="matrix(0.866025 0.5 0 1 90.2295 120)" fill="#A8A8A8"/>
<rect width="64" height="4" transform="matrix(0.866025 0.5 0 1 90.2295 128)" fill="#A8A8A8"/>
<rect width="72" height="30" transform="matrix(0.866025 0.5 0 1 86.7654 80)" fill="#B3FFFF"/>
<rect width="40" height="54" transform="matrix(0.866025 0.5 0 1 46.9282 57)" fill="#81C3FF"/>
<path d="M64.0959 73.9118C68.2378 76.3031 71.6049 82.1077 71.6049 86.851C71.6049 91.5944 68.2356 93.5098 64.0959 91.1198C59.9562 88.7297 56.587 82.9239 56.587 78.1805C56.587 73.4371 59.954 71.5204 64.0959 73.9118Z" fill="white"/>
<path d="M74.3335 119.016L53.8564 107.194C53.8564 106.849 53.8564 96.7273 53.8564 96.2962C53.8564 92.5313 55.4086 90.0737 57.8159 89.3103C59.5472 91.8773 61.7253 94.0766 64.0959 95.4453C66.4666 96.814 68.6427 97.1286 70.374 96.5607C72.7813 100.104 74.3354 104.353 74.3354 108.117C74.3354 108.551 74.3354 118.672 74.3354 119.015" fill="white"/>
<path d="M183.438 17.4026C184.361 16.8027 185.672 16.8517 187.126 17.6907L247.881 52.7512C250.677 54.3648 252.943 58.2896 252.943 61.5168V201.757C252.943 203.306 252.422 204.413 251.569 204.967C251.505 205.009 251.439 205.045 251.371 205.08L246.506 207.889C245.583 208.489 244.272 208.44 242.818 207.601L182.062 172.54C179.267 170.927 177 167.002 177 163.776V23.5344C177 21.9854 177.523 20.8783 178.375 20.3245C178.439 20.2828 178.505 20.2446 178.573 20.2092L183.438 17.4026Z" fill="#B9B9B9"/>
<path d="M177 23.1687C177 20.4073 178.939 19.2876 181.331 20.6678L244.416 57.073C246.33 58.1772 247.881 60.8632 247.881 63.0723V204C247.881 207.866 245.166 209.434 241.818 207.501L181.331 172.596C178.939 171.215 177 167.858 177 165.096V23.1687Z" fill="#ECECEC"/>
<rect width="74.8219" height="140.241" transform="matrix(0.866128 0.499822 0 1 180.038 25.7651)" fill="white"/>
<g clip-path="url(#clip0_509_1519)">
<path d="M244.547 60.7147L180.287 23.614V160.015L244.547 197.116V60.7147Z" fill="white"/>
<path d="M240.585 69.9788L236.395 67.5598V68.4732L240.585 70.8921V69.9788Z" fill="#4AC2B8"/>
<path d="M240.585 68.11L236.395 65.691V66.6044L240.585 69.0234V68.11Z" fill="#4AC2B8"/>
<path d="M240.585 71.8446L236.395 69.4257V70.339L240.585 72.758V71.8446Z" fill="#4AC2B8"/>
<path d="M189.031 37.8949V44.105L186.358 42.5616V41.6602L188.388 42.8327V38.4252L186.358 37.2528V36.3514L189.031 37.8949Z" fill="#4AC2B8"/>
<path d="M186.171 41.072L185.889 40.5151L186.63 39.9035L184.25 38.5295V37.9527L186.63 39.3267L185.889 37.8622L186.171 37.6319L187.399 40.0621L186.171 41.075V41.072Z" fill="#4AC2B8"/>
<path d="M192.987 41.1765L190.607 39.8025V44.0207L192.987 45.3947V41.1765Z" fill="#939393"/>
<path d="M196.29 43.0834L193.91 41.7095V45.9277L196.29 47.3017V43.0834Z" fill="#939393"/>
<path d="M199.591 44.9892L197.211 43.6152V47.8335L199.591 49.2074V44.9892Z" fill="#939393"/>
<path d="M202.894 46.8962L200.514 45.5222V49.7404L202.894 51.1144V46.8962Z" fill="#939393"/>
<path d="M191.496 71.4265L189.117 70.0525V74.2707L191.496 75.6447V71.4265Z" fill="#939393"/>
<path d="M196.41 74.2635L194.03 72.8895V77.1077L196.41 78.4817V74.2635Z" fill="#939393"/>
<path d="M201.324 77.1004L198.944 75.7264V79.9447L201.324 81.3186V77.1004Z" fill="#939393"/>
<path d="M230.804 94.1209L228.425 92.7469V96.9652L230.804 98.3391V94.1209Z" fill="#939393"/>
<path d="M225.891 91.284L223.511 89.91V94.1283L225.891 95.5022V91.284Z" fill="#939393"/>
<path d="M220.977 88.4471L218.597 87.0731V91.2913L220.977 92.6653V88.4471Z" fill="#939393"/>
<path d="M216.065 85.6114L213.685 84.2374V88.4556L216.065 89.8296V85.6114Z" fill="#939393"/>
<path d="M211.151 82.7744L208.772 81.4004V85.6186L211.151 86.9926V82.7744Z" fill="#939393"/>
<path d="M206.238 79.9374L203.858 78.5635V82.7817L206.238 84.1557V79.9374Z" fill="#939393"/>
<path d="M235.718 96.9579L233.338 95.584V99.8022L235.718 101.176V96.9579Z" fill="#939393"/>
<path d="M201.324 83.4428L198.944 82.0688V86.2871L201.324 87.661V83.4428Z" fill="#939393"/>
<path d="M225.891 97.6264L223.511 96.2524V100.471L225.891 101.845V97.6264Z" fill="#939393"/>
<path d="M220.977 94.7894L218.597 93.4154V97.6336L220.977 99.0076V94.7894Z" fill="#939393"/>
<path d="M216.065 91.9537L213.685 90.5797V94.7979L216.065 96.1719V91.9537Z" fill="#939393"/>
<path d="M211.151 89.1166L208.772 87.7427V91.9609L211.151 93.3349V89.1166Z" fill="#939393"/>
<path d="M206.238 86.2797L203.858 84.9058V89.124L206.238 90.4979V86.2797Z" fill="#939393"/>
<path d="M233.683 176.122L191.152 151.566V162.905L233.683 187.46V176.122Z" fill="#DBDBDB"/>
<path d="M196.376 122.134L193.996 120.76V124.979L196.376 126.353V122.134Z" fill="#939393"/>
<path d="M201.29 124.971L198.91 123.597V127.816L201.29 129.19V124.971Z" fill="#939393"/>
<path d="M230.77 141.992L228.39 140.618V144.836L230.77 146.21V141.992Z" fill="#939393"/>
<path d="M225.856 139.155L223.477 137.781V141.999L225.856 143.373V139.155Z" fill="#939393"/>
<path d="M220.943 136.318L218.563 134.944V139.162L220.943 140.536V136.318Z" fill="#939393"/>
<path d="M216.031 133.482L213.651 132.108V136.326L216.031 137.7V133.482Z" fill="#939393"/>
<path d="M211.117 130.645L208.737 129.271V133.49L211.117 134.864V130.645Z" fill="#939393"/>
<path d="M206.203 127.808L203.824 126.434V130.653L206.203 132.027V127.808Z" fill="#939393"/>
<path d="M196.376 130.183L193.996 128.809V133.028L196.376 134.402V130.183Z" fill="#939393"/>
<path d="M201.29 133.02L198.91 131.646V135.864L201.29 137.238V133.02Z" fill="#939393"/>
<path d="M230.77 150.041L228.39 148.667V152.885L230.77 154.259V150.041Z" fill="#939393"/>
<path d="M225.856 147.204L223.477 145.83V150.048L225.856 151.422V147.204Z" fill="#939393"/>
<path d="M220.943 144.367L218.563 142.993V147.211L220.943 148.585V144.367Z" fill="#939393"/>
<path d="M216.031 141.531L213.651 140.157V144.375L216.031 145.749V141.531Z" fill="#939393"/>
<path d="M211.117 138.694L208.737 137.32V141.538L211.117 142.912V138.694Z" fill="#939393"/>
<path d="M206.203 135.857L203.824 134.483V138.701L206.203 140.075V135.857Z" fill="#939393"/>
<path d="M196.376 138.295L193.996 136.921V141.139L196.376 142.513V138.295Z" fill="#939393"/>
<path d="M201.29 141.132L198.91 139.758V143.977L201.29 145.35V141.132Z" fill="#939393"/>
<path d="M230.77 158.153L228.39 156.779V160.997L230.77 162.371V158.153Z" fill="#939393"/>
<path d="M225.856 155.316L223.477 153.942V158.16L225.856 159.534V155.316Z" fill="#939393"/>
<path d="M220.943 152.479L218.563 151.105V155.323L220.943 156.697V152.479Z" fill="#939393"/>
<path d="M216.031 149.643L213.651 148.269V152.487L216.031 153.861V149.643Z" fill="#939393"/>
<path d="M211.117 146.806L208.737 145.432V149.65L211.117 151.024V146.806Z" fill="#939393"/>
<path d="M206.203 143.969L203.824 142.595V146.813L206.203 148.187V143.969Z" fill="#939393"/>
<path d="M235.718 138.84L189.022 111.88V144.328L235.718 171.288V138.84Z" stroke="#757575" stroke-width="0.5" stroke-miterlimit="10"/>
<path d="M211.235 100.068L191.503 88.6757V96.0275L211.235 107.42V100.068Z" fill="#33404F"/>
<path d="M233.332 112.826L213.6 101.433V108.785L233.332 120.178V112.826Z" fill="#3B8BFD"/>
<path d="M211.235 110.737L191.503 99.3444V106.696L211.235 118.089V110.737Z" fill="#63BC6A"/>
<path d="M233.332 123.494L213.6 112.102V119.454L233.332 130.846V123.494Z" fill="#32445A"/>
<path d="M235.849 77.6249C236.329 77.9018 236.569 78.3364 236.569 78.9281V81.2885L238.233 82.2494C238.594 82.4579 238.887 82.9646 238.887 83.3817C238.887 83.7988 238.594 83.9687 238.233 83.7601L236.569 82.7992V87.7836C236.569 88.2745 236.661 88.662 236.847 88.9452C237.043 89.2219 237.332 89.4701 237.713 89.6903L237.811 89.7469C238.105 89.9169 238.351 90.0907 238.548 90.267C238.744 90.4306 238.842 90.6831 238.842 91.0228C238.842 91.4001 238.689 91.5445 238.383 91.4564C238.089 91.3872 237.751 91.2426 237.369 91.0223C236.628 90.5944 236.067 90.1064 235.686 89.559C235.304 88.9988 235.113 88.2466 235.113 87.3026V81.9589L216.581 71.2596C216.22 71.0509 215.928 70.5433 215.928 70.1263C215.928 69.7095 216.22 69.5407 216.581 69.7489L235.113 80.4481V78.0878C235.113 77.4962 235.358 77.3418 235.849 77.6249Z" fill="url(#paint0_linear_509_1519)"/>
<path d="M231.672 87.6745C231.146 87.3708 230.672 86.9562 230.248 86.4305C229.832 85.9093 229.502 85.3202 229.259 84.6631C229.023 84.0105 228.905 83.3398 228.905 82.651C228.905 81.9531 229.023 81.4183 229.259 81.0467C229.502 80.6706 229.832 80.4621 230.248 80.4213C230.672 80.376 231.146 80.5051 231.672 80.8088C232.324 81.1849 232.885 81.7174 233.356 82.4062C233.568 82.7099 233.662 82.9682 233.639 83.1812C233.623 83.3987 233.521 83.5301 233.332 83.5754C233.144 83.6208 232.979 83.5936 232.838 83.4939C232.705 83.3987 232.528 83.2061 232.308 82.9161C232.128 82.6849 231.916 82.4991 231.672 82.3587C231.296 82.1411 230.989 82.1275 230.754 82.3179C230.526 82.5037 230.413 82.9047 230.413 83.5211C230.413 84.1283 230.526 84.6608 230.754 85.1185C230.989 85.5717 231.296 85.9071 231.672 86.1246C231.908 86.2605 232.112 86.324 232.285 86.3149C232.489 86.2877 232.665 86.2991 232.814 86.3489C232.964 86.3897 233.132 86.5415 233.321 86.8044C233.509 87.0763 233.615 87.3278 233.639 87.5589C233.67 87.7946 233.588 87.9464 233.391 88.0144C232.92 88.1775 232.347 88.0642 231.672 87.6745Z" fill="url(#paint1_linear_509_1519)"/>
<path d="M225.591 84.1633C224.759 83.6829 224.084 83.0122 223.566 82.1511C223.048 81.281 222.788 80.2704 222.788 79.1193C222.788 78.4033 222.902 77.8572 223.13 77.4811C223.365 77.1004 223.687 76.8919 224.095 76.8557C224.504 76.8104 224.975 76.9418 225.508 77.25C226.042 77.5581 226.493 77.9592 226.862 78.4532C227.239 78.9517 227.526 79.4796 227.722 80.037C227.918 80.5854 228.016 81.1043 228.016 81.5937C228.016 81.9834 227.949 82.1942 227.816 82.2259C227.683 82.2576 227.49 82.201 227.239 82.056L224.248 80.3293C224.288 80.9593 224.429 81.4578 224.672 81.8248C224.924 82.1874 225.237 82.4774 225.614 82.6949C226.03 82.9351 226.36 82.985 226.603 82.8445C226.784 82.7403 226.949 82.6995 227.098 82.7221C227.255 82.7493 227.42 82.8853 227.592 83.13C227.773 83.3792 227.871 83.6217 227.887 83.8574C227.91 84.0885 227.828 84.2675 227.639 84.3944C227.372 84.5756 227.066 84.6436 226.721 84.5983C226.383 84.5485 226.007 84.4034 225.591 84.1633ZM224.307 79.0582L226.556 80.3565C226.415 79.4955 226.058 78.8995 225.485 78.5687C225.171 78.3874 224.916 78.3308 224.719 78.3988C224.523 78.4668 224.386 78.6865 224.307 79.0582Z" fill="url(#paint2_linear_509_1519)"/>
<path d="M217.558 79.3761C217.064 79.0906 216.816 78.6487 216.816 78.0505V73.2921C216.816 72.6939 217.036 72.5217 217.476 72.7755C217.923 73.0338 218.159 73.2921 218.182 73.5504L218.217 73.9379C218.374 73.7929 218.575 73.7 218.818 73.6592C219.069 73.623 219.363 73.7023 219.701 73.8971C220.29 74.237 220.769 74.731 221.137 75.379C221.514 76.0316 221.703 76.7839 221.703 77.6359V80.8716C221.703 81.4698 221.455 81.6262 220.961 81.3406C220.466 81.0551 220.219 80.6133 220.219 80.0151V77.2008C220.219 76.7205 220.137 76.3103 219.972 75.9704C219.815 75.6351 219.599 75.3881 219.324 75.2295C219.026 75.0573 218.779 75.0414 218.582 75.1819C218.394 75.3179 218.3 75.6532 218.3 76.188V78.9071C218.3 79.5053 218.053 79.6616 217.558 79.3761Z" fill="url(#paint3_linear_509_1519)"/>
<path d="M211.292 75.7582C210.797 75.4727 210.55 75.0308 210.55 74.4326V69.6742C210.55 69.076 210.77 68.9038 211.209 69.1576C211.657 69.4159 211.892 69.6742 211.916 69.9325L211.951 70.32C212.108 70.175 212.308 70.0821 212.552 70.0413C212.803 70.005 213.097 70.0843 213.435 70.2792C214.023 70.6191 214.502 71.1131 214.871 71.7611C215.248 72.4137 215.436 73.166 215.436 74.018V77.2537C215.436 77.8519 215.189 78.0082 214.694 77.7227C214.2 77.4372 213.953 76.9954 213.953 76.3972V73.5829C213.953 73.1025 213.87 72.6924 213.705 72.3525C213.548 72.0172 213.333 71.7702 213.058 71.6116C212.76 71.4394 212.512 71.4235 212.316 71.564C212.128 71.6999 212.033 72.0353 212.033 72.57V75.2891C212.033 75.8873 211.786 76.0437 211.292 75.7582Z" fill="url(#paint4_linear_509_1519)"/>
<path d="M206.699 73.2559C206.173 72.9523 205.698 72.5376 205.274 72.0119C204.858 71.4908 204.528 70.9016 204.285 70.2445C204.049 69.5919 203.932 68.9212 203.932 68.2324C203.932 67.5345 204.049 66.9997 204.285 66.6281C204.528 66.252 204.858 66.0435 205.274 66.0027C205.698 65.9574 206.173 66.0866 206.699 66.3902C207.232 66.6984 207.707 67.1175 208.123 67.6478C208.539 68.1689 208.865 68.7558 209.1 69.4084C209.344 70.0564 209.465 70.7294 209.465 71.4273C209.465 72.1161 209.344 72.6486 209.1 73.0248C208.865 73.4054 208.539 73.6162 208.123 73.657C207.707 73.6978 207.232 73.5641 206.699 73.2559ZM206.699 71.706C207.075 71.9235 207.381 71.9417 207.617 71.7604C207.86 71.5746 207.982 71.1781 207.982 70.5708C207.982 69.9545 207.86 69.4174 207.617 68.9597C207.381 68.4975 207.075 68.1576 206.699 67.9401C206.322 67.7225 206.016 67.709 205.78 67.8993C205.553 68.0851 205.439 68.4862 205.439 69.1025C205.439 69.7097 205.553 70.2422 205.78 70.7C206.016 71.1531 206.322 71.4885 206.699 71.706Z" fill="url(#paint5_linear_509_1519)"/>
<path d="M199.906 69.416C199.161 68.9855 198.494 68.3964 197.905 67.6486C197.316 66.9009 196.853 66.0579 196.516 65.1198C196.186 64.1772 196.021 63.1984 196.021 62.1832C196.021 61.159 196.186 60.3705 196.516 59.8176C196.853 59.2602 197.316 58.9475 197.905 58.8795C198.494 58.8025 199.161 58.9792 199.906 59.4098C200.464 59.7315 200.974 60.1394 201.437 60.6333C201.9 61.1273 202.304 61.6825 202.65 62.2988C202.83 62.6296 202.889 62.8902 202.826 63.0805C202.764 63.2709 202.642 63.3774 202.461 63.4L202.403 63.4068C202.285 63.4204 202.12 63.357 201.908 63.2165C201.704 63.0805 201.512 62.8653 201.331 62.5707C200.939 61.9362 200.464 61.4581 199.906 61.1364C199.443 60.869 199.039 60.7761 198.694 60.8577C198.356 60.9347 198.093 61.1636 197.905 61.5442C197.716 61.9249 197.622 62.4461 197.622 63.1077C197.622 63.7603 197.716 64.3857 197.905 64.9839C198.093 65.5821 198.356 66.1191 198.694 66.595C199.039 67.0663 199.443 67.4356 199.906 67.703C200.464 68.0247 200.939 68.095 201.331 67.9137C201.512 67.8276 201.692 67.8231 201.873 67.9001C202.061 67.9726 202.238 68.1063 202.403 68.3012L202.426 68.3284C202.607 68.5414 202.736 68.7929 202.815 69.0829C202.893 69.3639 202.846 69.5633 202.673 69.6811C202.328 69.9077 201.92 70.0029 201.449 69.9666C200.978 69.9213 200.464 69.7378 199.906 69.416Z" fill="url(#paint6_linear_509_1519)"/>
<path d="M190.679 53.7366C193.389 55.3009 195.584 59.1052 195.584 62.2336C195.584 65.3619 193.388 66.6297 190.679 65.0657C187.97 63.5014 185.773 59.6976 185.773 56.5691C185.773 53.4405 187.97 52.1723 190.679 53.7366ZM190.842 55.5378C190.293 55.2208 189.79 55.0434 189.332 55.0056C188.874 54.9603 188.475 55.0358 188.134 55.2322C187.801 55.4323 187.539 55.7386 187.35 56.1501C187.167 56.5655 187.075 57.0675 187.075 57.6565C187.075 58.2834 187.17 58.9015 187.36 59.5095C187.549 60.1096 187.814 60.6814 188.154 61.2249C188.501 61.7649 188.9 62.2566 189.351 62.6985C189.803 63.1327 190.287 63.4993 190.804 63.7976C191.32 64.0959 191.788 64.2716 192.207 64.3245C192.632 64.3811 192.995 64.3371 193.296 64.1936C193.427 64.1332 193.492 64.0387 193.492 63.9104C193.499 63.7784 193.456 63.6369 193.364 63.4861C193.266 63.3237 193.158 63.2309 193.041 63.2083C192.923 63.1781 192.782 63.1912 192.618 63.2478C192.39 63.3271 192.128 63.3344 191.834 63.2703C191.546 63.2023 191.203 63.0533 190.804 62.823C190.261 62.5095 189.779 62.1184 189.361 61.6501C188.949 61.1783 188.629 60.6534 188.4 60.0759C188.171 59.4981 188.056 58.88 188.056 58.2229C188.056 57.5733 188.167 57.0674 188.39 56.7048C188.619 56.3387 188.942 56.1404 189.361 56.1101C189.779 56.0723 190.273 56.2172 190.842 56.5457C191.333 56.8289 191.762 57.1979 192.128 57.6511C192.494 58.0967 192.779 58.5818 192.981 59.1067C193.184 59.6315 193.286 60.1508 193.286 60.6643C193.286 60.9136 193.249 61.1348 193.178 61.3274C193.106 61.5122 192.998 61.6393 192.854 61.7073C192.711 61.7677 192.524 61.7311 192.295 61.5989C192.046 61.4554 191.942 61.2933 191.981 61.1121L192.344 59.3391C192.396 59.1051 192.393 58.903 192.334 58.7332C192.282 58.5594 192.187 58.4321 192.049 58.3528C191.932 58.285 191.831 58.2497 191.746 58.2458C191.661 58.2345 191.604 58.2587 191.578 58.3191L191.529 58.4382C191.32 58.0531 191.058 57.7699 190.744 57.5886C190.391 57.3848 190.064 57.2977 189.763 57.3279C189.469 57.3543 189.234 57.5018 189.057 57.7698C188.881 58.0379 188.792 58.4369 188.792 58.9656C188.792 59.3431 188.854 59.681 188.978 59.9792C189.109 60.2813 189.279 60.542 189.488 60.761C189.698 60.98 189.92 61.1578 190.156 61.2937C190.515 61.5014 190.833 61.556 191.108 61.4578C191.252 61.7976 191.536 62.0908 191.961 62.3362C192.498 62.6457 192.929 62.7774 193.256 62.7322C193.59 62.6906 193.832 62.5286 193.983 62.2454C194.14 61.9583 194.218 61.6103 194.218 61.2024C194.218 60.6813 194.126 60.1448 193.943 59.5935C193.766 59.0385 193.521 58.5003 193.207 57.9792C192.9 57.462 192.54 56.9899 192.128 56.5632C191.722 56.1403 191.294 55.7984 190.842 55.5378ZM190.784 58.5061C190.876 58.559 190.967 58.6351 191.059 58.7332C191.15 58.8238 191.235 58.9598 191.314 59.1409L191.215 59.8547C191.137 60.2019 191.026 60.4098 190.882 60.4778C190.745 60.5495 190.551 60.5134 190.303 60.3699C190.159 60.2869 190.042 60.1737 189.95 60.0305C189.859 59.887 189.812 59.6862 189.812 59.4294C189.812 59.1123 189.861 58.8721 189.96 58.7097C190.058 58.5475 190.182 58.4534 190.332 58.427C190.483 58.393 190.634 58.4192 190.784 58.5061Z" fill="url(#paint7_linear_509_1519)"/>
<path d="M198.047 94.6991L196.364 93.7274V96.7106L198.047 97.6823V94.6991Z" fill="#C9A75D"/>
<path d="M205.021 98.6844L203.338 97.7127V100.696L205.021 101.668V98.6844Z" fill="#C9A75D"/>
<path d="M201.534 96.6917L199.851 95.72V98.7033L201.534 99.675V96.6917Z" fill="#C9A75D"/>
<path d="M198.047 105.515L196.364 104.543V107.527L198.047 108.498V105.515Z" fill="white"/>
<path d="M205.021 109.5L203.338 108.529V111.512L205.021 112.484V109.5Z" fill="white"/>
<path d="M201.534 107.508L199.851 106.536V109.519L201.534 110.491V107.508Z" fill="white"/>
<path d="M220.06 107.593L218.377 106.622V109.605L220.06 110.577V107.593Z" fill="white"/>
<path d="M227.034 111.579L225.351 110.607V113.59L227.034 114.562V111.579Z" fill="white"/>
<path d="M223.547 109.586L221.864 108.614V111.598L223.547 112.569V109.586Z" fill="white"/>
<path d="M220.06 118.109L218.377 117.137V120.12L220.06 121.092V118.109Z" fill="white"/>
<path d="M227.034 122.094L225.351 121.122V124.106L227.034 125.077V122.094Z" fill="white"/>
<path d="M223.547 120.102L221.864 119.13V122.113L223.547 123.085V120.102Z" fill="white"/>
</g>
<defs>
<linearGradient id="paint0_linear_509_1519" x1="238.887" y1="85.6385" x2="215.928" y2="85.6385" gradientUnits="userSpaceOnUse">
<stop stop-color="#116792"/>
<stop offset="0.255" stop-color="#0E6E8D"/>
<stop offset="0.655" stop-color="#0D7489"/>
<stop offset="1" stop-color="white" stop-opacity="0"/>
</linearGradient>
<linearGradient id="paint1_linear_509_1519" x1="194.8" y1="57.966" x2="240.195" y2="57.966" gradientUnits="userSpaceOnUse">
<stop stop-color="#07847E"/>
<stop offset="1" stop-color="#116792"/>
</linearGradient>
<linearGradient id="paint2_linear_509_1519" x1="194.8" y1="57.966" x2="240.195" y2="57.966" gradientUnits="userSpaceOnUse">
<stop stop-color="#07847E"/>
<stop offset="1" stop-color="#116792"/>
</linearGradient>
<linearGradient id="paint3_linear_509_1519" x1="194.8" y1="57.966" x2="240.195" y2="57.966" gradientUnits="userSpaceOnUse">
<stop stop-color="#07847E"/>
<stop offset="1" stop-color="#116792"/>
</linearGradient>
<linearGradient id="paint4_linear_509_1519" x1="194.8" y1="57.966" x2="240.195" y2="57.966" gradientUnits="userSpaceOnUse">
<stop stop-color="#07847E"/>
<stop offset="1" stop-color="#116792"/>
</linearGradient>
<linearGradient id="paint5_linear_509_1519" x1="194.8" y1="57.9661" x2="240.195" y2="57.9661" gradientUnits="userSpaceOnUse">
<stop stop-color="#07847E"/>
<stop offset="1" stop-color="#116792"/>
</linearGradient>
<linearGradient id="paint6_linear_509_1519" x1="194.8" y1="57.966" x2="240.195" y2="57.966" gradientUnits="userSpaceOnUse">
<stop stop-color="#07847E"/>
<stop offset="1" stop-color="#116792"/>
</linearGradient>
<linearGradient id="paint7_linear_509_1519" x1="185.773" y1="56.5687" x2="195.585" y2="56.5687" gradientUnits="userSpaceOnUse">
<stop stop-color="#009970"/>
<stop offset="1" stop-color="#07847E"/>
</linearGradient>
<clipPath id="clip0_509_1519">
<rect width="74.2013" height="168.162" fill="white" transform="matrix(0.866025 0.5 0 1 180.287 23.614)"/>
</clipPath>
</defs>
</svg>
