<svg width="304" height="216" viewBox="0 0 304 216" fill="none" xmlns="http://www.w3.org/2000/svg">
<path fill-rule="evenodd" clip-rule="evenodd" d="M211.992 99.6849C212.071 101.071 211.182 102.474 209.357 103.542L158.373 133.091C154.849 135.131 149.151 135.131 145.627 133.091L94.6426 103.526C92.9601 102.554 92.0712 101.279 92.0077 99.9877V107.383C92.0712 108.674 92.9601 109.933 94.6426 110.921L145.627 140.47C149.151 142.51 154.849 142.51 158.373 140.47L209.357 110.921C211.182 109.853 212.071 108.451 211.992 107.064V99.6689V99.6849Z" fill="#B9B9B9"/>
<path fill-rule="evenodd" clip-rule="evenodd" d="M92.0079 100.004C91.9285 98.6172 92.8174 97.2147 94.6428 96.1469L145.627 66.598C149.151 64.558 154.849 64.558 158.373 66.598L209.357 96.1469C211.04 97.1191 211.928 98.3939 211.992 99.6849L211.992 107.08C211.928 105.789 211.039 104.53 209.357 103.542L158.373 73.9932C154.849 71.9532 149.151 71.9532 145.627 73.9932L94.6426 103.526C92.8172 104.594 91.9283 105.996 92.0077 107.383V99.9877L92.0079 100.004Z" fill="#B9B9B9"/>
<path d="M158.373 66.598L209.357 96.1468C212.881 98.1869 212.881 101.502 209.357 103.542L158.373 133.091C154.849 135.131 149.151 135.131 145.627 133.091L94.6429 103.526C91.119 101.486 91.119 98.1709 94.6429 96.1309L145.627 66.582C149.151 64.542 154.849 64.542 158.373 66.582V66.598Z" fill="#ECECEC"/>
<path d="M151.777 16.2196L190.267 38.4161L151.777 60.6127L113.287 38.4161L151.777 16.2196Z" fill="#FFC1C0"/>
<path d="M113.287 38.4161L151.777 60.6127V119.803L113.287 97.6069V38.4161Z" fill="#FF898A"/>
<path d="M151.777 60.6127L190.267 38.4161V97.6069L151.777 119.803V60.6127Z" fill="#B9B9B9"/>
<path d="M139.407 89.4683L145.822 93.1677V122.763L139.407 119.064V89.4683Z" fill="#FF898A"/>
<path d="M145.822 93.1676L149.03 91.3179V120.913L145.822 122.763V93.1676Z" fill="#B9B9B9"/>
<path d="M106.874 73.1908L113.289 76.8902V106.486L106.874 102.786V73.1908Z" fill="#FF898A"/>
<path d="M113.289 76.8901L116.497 75.0404V104.636L113.289 106.486V76.8901Z" fill="#B9B9B9"/>
<path d="M148.569 14.37L180.644 32.8671L154.984 47.6648L122.909 29.1677L148.569 14.37Z" fill="#FFC1C0"/>
<path d="M122.909 29.1676L154.984 47.6647V55.0636L122.909 36.5664V29.1676Z" fill="#FF898A"/>
<path d="M154.984 47.6648L180.645 32.8671V40.266L154.984 55.0636V47.6648Z" fill="#B9B9B9"/>
<path d="M113.287 64.3121L151.777 86.5087L145.362 90.2081L106.872 68.0116L113.287 64.3121Z" fill="#FFC1C0"/>
<path d="M106.872 68.0116L145.362 90.2081V97.607L106.872 75.4104V68.0116Z" fill="#FF898A"/>
<path d="M145.362 90.2081L151.777 86.5087V93.9076L145.362 97.607V90.2081Z" fill="#B9B9B9"/>
<path d="M115.754 45.4451L147.829 63.9422V78.7399L115.754 60.2428V45.4451Z" fill="#FFC1C0"/>
<path d="M180.643 43.9653L199.875 55.0686L193.47 58.7537L174.222 47.6664L180.643 43.9653Z" fill="#FFC1C0"/>
<path d="M174.222 47.6664L193.47 58.7537V117.923L174.222 106.836V47.6664Z" fill="#FF898A"/>
<path d="M193.47 58.7537L199.875 55.0686V114.222L193.47 117.923V58.7537Z" fill="#B9B9B9"/>
<path fill-rule="evenodd" clip-rule="evenodd" d="M179.365 58.0358L182.209 59.679C184.205 60.8276 184.924 62.0879 184.924 63.5237C184.924 64.0661 184.764 64.4489 184.461 64.6244L187.671 62.7739C187.959 62.5984 188.135 62.2155 188.135 61.6731C188.135 60.2374 187.4 58.9771 185.419 57.8285L182.576 56.1853L179.365 58.0358Z" fill="#FE6262"/>
<path fill-rule="evenodd" clip-rule="evenodd" d="M184.477 64.6245C184.205 64.784 183.822 64.784 183.359 64.6245L186.569 62.7739C187.033 62.9494 187.416 62.9494 187.688 62.7739L184.477 64.6245Z" fill="#FE6262"/>
<path fill-rule="evenodd" clip-rule="evenodd" d="M183.359 64.6085V64.6882L186.569 62.8377V62.7579L183.359 64.6085Z" fill="#FE6262"/>
<path fill-rule="evenodd" clip-rule="evenodd" d="M183.359 64.7042C184.541 65.6135 185.18 66.794 185.18 67.9745C185.18 68.6924 184.988 69.171 184.605 69.3944L187.815 67.5438C188.183 67.3205 188.39 66.8419 188.39 66.124C188.39 64.9435 187.751 63.763 186.569 62.8536L183.359 64.7042Z" fill="#FE6262"/>
<path fill-rule="evenodd" clip-rule="evenodd" d="M184.605 69.3785C184.125 69.6656 183.375 69.522 182.352 68.9477L179.365 67.2248L182.576 65.3743L185.563 67.0972C186.585 67.6874 187.336 67.8151 187.815 67.5279L184.605 69.3785Z" fill="#FE6262"/>
<path fill-rule="evenodd" clip-rule="evenodd" d="M179.365 67.2248V58.0358L182.576 56.1853V65.3742L179.365 67.2248Z" fill="#FE6262"/>
<path fill-rule="evenodd" clip-rule="evenodd" d="M180.723 60.014V62.5984L183.934 60.7478V58.1635L180.723 60.014Z" fill="#FE6262"/>
<path fill-rule="evenodd" clip-rule="evenodd" d="M180.723 62.5983L181.937 63.3003C182.544 63.6512 182.976 63.747 183.247 63.6034L186.458 61.7528C186.186 61.8805 185.755 61.8007 185.148 61.4497L183.934 60.7478L180.723 62.5983Z" fill="#FE6262"/>
<path fill-rule="evenodd" clip-rule="evenodd" d="M183.247 63.5875C183.455 63.4758 183.551 63.2365 183.551 62.8855C183.551 62.0719 183.167 61.4179 182.049 60.7797L180.723 60.014L183.934 58.1635L185.276 58.9292C186.378 59.5673 186.777 60.2214 186.777 61.035C186.777 61.4019 186.681 61.6412 186.458 61.7369L183.247 63.5875Z" fill="#FE6262"/>
<path fill-rule="evenodd" clip-rule="evenodd" d="M180.723 63.7949V66.81L183.934 64.9594V61.9443L180.723 63.7949Z" fill="#FE6262"/>
<path fill-rule="evenodd" clip-rule="evenodd" d="M180.723 66.81L182.193 67.6555C182.736 67.9746 183.151 68.0544 183.407 67.9267L186.617 66.0762C186.362 66.2038 185.946 66.124 185.403 65.805L183.918 64.9595L180.707 66.81H180.723Z" fill="#FE6262"/>
<path fill-rule="evenodd" clip-rule="evenodd" d="M183.423 67.9267C183.662 67.7991 183.79 67.5119 183.79 67.0493C183.79 66.1081 183.151 65.1828 182.033 64.5447L180.723 63.7949L183.934 61.9443L185.244 62.6941C186.346 63.3322 187.001 64.2575 187.001 65.1987C187.001 65.6614 186.873 65.9645 186.633 66.0762L183.423 67.9267Z" fill="#FE6262"/>
<path fill-rule="evenodd" clip-rule="evenodd" d="M182.896 72.6328L185.34 83.2255L188.55 81.375L186.09 70.7822L182.88 72.6328H182.896Z" fill="#FE6262"/>
<path fill-rule="evenodd" clip-rule="evenodd" d="M185.34 83.2256L183.886 82.3961L187.097 80.5455L188.55 81.3751L185.34 83.2256Z" fill="#FE6262"/>
<path fill-rule="evenodd" clip-rule="evenodd" d="M183.902 82.396L183.231 79.3011L186.442 77.4506L187.113 80.5454L183.902 82.396Z" fill="#FE6262"/>
<path fill-rule="evenodd" clip-rule="evenodd" d="M183.215 79.3172L180.771 77.9133L183.982 76.0627L186.426 77.4666L183.215 79.3172Z" fill="#FE6262"/>
<path fill-rule="evenodd" clip-rule="evenodd" d="M180.771 77.8973L180.084 80.1945L183.295 78.344L183.982 76.0468L180.771 77.8973Z" fill="#FE6262"/>
<path fill-rule="evenodd" clip-rule="evenodd" d="M180.084 80.2104L178.775 79.4607L181.985 77.6101L183.295 78.3599L180.084 80.2104Z" fill="#FE6262"/>
<path fill-rule="evenodd" clip-rule="evenodd" d="M178.775 79.4447L181.218 71.6756L184.429 69.8251L181.985 77.5942L178.775 79.4447Z" fill="#FE6262"/>
<path fill-rule="evenodd" clip-rule="evenodd" d="M181.219 71.6756L182.896 72.6328L186.106 70.7823L184.429 69.8251L181.219 71.6756Z" fill="#FE6262"/>
<path fill-rule="evenodd" clip-rule="evenodd" d="M182.975 77.9931L182.512 75.8713C182.337 75.0418 182.209 74.3079 182.033 73.3348L185.244 71.4843C185.419 72.4414 185.547 73.1912 185.723 74.0208L186.186 76.1425L182.975 77.9931Z" fill="#FE6262"/>
<path fill-rule="evenodd" clip-rule="evenodd" d="M182.033 73.3348L181.937 73.2869L185.148 71.4364L185.244 71.4843L182.033 73.3348Z" fill="#FE6262"/>
<path fill-rule="evenodd" clip-rule="evenodd" d="M181.953 73.271C181.777 74.0527 181.634 74.627 181.458 75.2332L181.027 76.8604L184.237 75.0098L184.669 73.3826C184.844 72.7764 184.988 72.1862 185.164 71.4204L181.953 73.271Z" fill="#FE6262"/>
<path fill-rule="evenodd" clip-rule="evenodd" d="M181.027 76.8603L182.975 77.977L186.186 76.1265L184.237 75.0098L181.027 76.8603Z" fill="#FE6262"/>
<path fill-rule="evenodd" clip-rule="evenodd" d="M185.1 86.4799V95.6689L188.311 93.8183V84.6294L185.1 86.4799Z" fill="#FE6262"/>
<path fill-rule="evenodd" clip-rule="evenodd" d="M185.1 95.6689L183.407 94.6958L186.617 92.8452L188.31 93.8183L185.1 95.6689Z" fill="#FE6262"/>
<path fill-rule="evenodd" clip-rule="evenodd" d="M183.407 94.6958L181.474 88.857C181.011 87.4372 180.691 86.4002 180.34 85.1718L183.551 83.3213C183.902 84.5656 184.221 85.5866 184.685 87.0064L186.617 92.8452L183.407 94.6958Z" fill="#FE6262"/>
<path fill-rule="evenodd" clip-rule="evenodd" d="M180.34 85.1559L180.196 85.0761L183.407 83.2256L183.551 83.3053L180.34 85.1559Z" fill="#FE6262"/>
<path fill-rule="evenodd" clip-rule="evenodd" d="M180.196 85.0761C180.244 86.1928 180.26 87.2936 180.26 88.4263V92.8771L183.471 91.0266V86.5757C183.471 85.443 183.455 84.3423 183.407 83.2256L180.196 85.0761Z" fill="#FE6262"/>
<path fill-rule="evenodd" clip-rule="evenodd" d="M180.276 92.8771L178.998 92.1433L182.209 90.2927L183.487 91.0266L180.276 92.8771Z" fill="#FE6262"/>
<path fill-rule="evenodd" clip-rule="evenodd" d="M178.998 92.1433V82.9544L182.209 81.1039V90.2928L178.998 92.1433Z" fill="#FE6262"/>
<path fill-rule="evenodd" clip-rule="evenodd" d="M178.998 82.9703L181.075 84.1668L184.285 82.3162L182.209 81.1198L178.998 82.9703Z" fill="#FE6262"/>
<path fill-rule="evenodd" clip-rule="evenodd" d="M181.091 84.1668L182.736 89.192C183.183 90.5959 183.503 91.7126 183.79 92.941L187.001 91.0904C186.697 89.8461 186.394 88.7453 185.946 87.3415L184.301 82.3163L181.091 84.1668Z" fill="#FE6262"/>
<path fill-rule="evenodd" clip-rule="evenodd" d="M183.79 92.941L183.934 93.0208L187.144 91.1702L187.001 91.0905L183.79 92.941Z" fill="#FE6262"/>
<path fill-rule="evenodd" clip-rule="evenodd" d="M183.934 93.0367C183.87 91.8722 183.838 90.8512 183.838 89.6228V85.7622L187.049 83.9116V87.7722C187.049 89.0006 187.097 90.0376 187.144 91.1862L183.934 93.0367Z" fill="#FE6262"/>
<path fill-rule="evenodd" clip-rule="evenodd" d="M183.838 85.7622L185.116 86.496L188.326 84.6455L187.049 83.9116L183.838 85.7622Z" fill="#FE6262"/>
<path fill-rule="evenodd" clip-rule="evenodd" d="M185.292 99.1626L182.528 101.22L185.739 99.3699L188.502 97.312L185.292 99.1626Z" fill="#FE6262"/>
<path fill-rule="evenodd" clip-rule="evenodd" d="M182.528 101.237L185.531 108.495L188.742 106.645L185.739 99.386L182.528 101.237Z" fill="#FE6262"/>
<path fill-rule="evenodd" clip-rule="evenodd" d="M185.531 108.479L183.966 107.57L187.176 105.719L188.742 106.629L185.531 108.479Z" fill="#FE6262"/>
<path fill-rule="evenodd" clip-rule="evenodd" d="M183.95 107.586L181.634 101.843L184.844 99.9922L187.16 105.735L183.95 107.586Z" fill="#FE6262"/>
<path fill-rule="evenodd" clip-rule="evenodd" d="M181.634 101.827L180.707 102.497L183.918 100.646L184.844 99.9762L181.634 101.827Z" fill="#FE6262"/>
<path fill-rule="evenodd" clip-rule="evenodd" d="M180.707 102.497V105.703L183.918 103.853V100.646L180.707 102.497Z" fill="#FE6262"/>
<path fill-rule="evenodd" clip-rule="evenodd" d="M180.707 105.703L179.35 104.922L182.56 103.071L183.918 103.853L180.707 105.703Z" fill="#FE6262"/>
<path fill-rule="evenodd" clip-rule="evenodd" d="M179.334 104.922V95.7327L182.544 93.8822V103.071L179.334 104.922Z" fill="#FE6262"/>
<path fill-rule="evenodd" clip-rule="evenodd" d="M179.334 95.7327L180.691 96.5144L183.902 94.6639L182.544 93.8822L179.334 95.7327Z" fill="#FE6262"/>
<path fill-rule="evenodd" clip-rule="evenodd" d="M180.707 96.5144V100.71L183.918 98.8595V94.6638L180.707 96.5144Z" fill="#FE6262"/>
<path fill-rule="evenodd" clip-rule="evenodd" d="M180.707 100.71L183.71 98.2533L186.921 96.4027L183.918 98.8595L180.707 100.71Z" fill="#FE6262"/>
<path fill-rule="evenodd" clip-rule="evenodd" d="M183.71 98.2533L185.292 99.1626L188.502 97.312L186.921 96.4027L183.71 98.2533Z" fill="#FE6262"/>
<path d="M179.366 58.0359L182.209 59.679C184.205 60.8276 184.924 62.0879 184.924 63.5237C184.924 64.5766 184.301 64.9754 183.343 64.6085V64.6882C184.525 65.5976 185.164 66.7781 185.164 67.9586C185.164 69.5858 184.157 69.9846 182.337 68.9317L179.35 67.2088V58.0199L179.366 58.0359ZM180.723 60.014V62.5984L181.937 63.3003C183.023 63.9225 183.55 63.7151 183.55 62.9015C183.55 62.0879 183.167 61.4338 182.049 60.7957L180.723 60.03V60.014ZM180.723 63.7949V66.81L182.193 67.6555C183.247 68.2617 183.774 68.0065 183.774 67.0333C183.774 66.0602 183.135 65.1668 182.017 64.5287L180.707 63.7789L180.723 63.7949ZM182.896 72.6328L185.339 83.2256L183.886 82.396L183.215 79.3012L180.771 77.8973L180.084 80.1945L178.775 79.4447L181.218 71.6756L182.896 72.6328ZM182.975 77.993L182.512 75.8713C182.337 75.0417 182.209 74.3079 182.033 73.3348L181.937 73.2869C181.762 74.0686 181.618 74.6429 181.442 75.2491L181.011 76.8763L182.959 77.993H182.975ZM185.1 86.48V95.6689L183.407 94.6958L181.474 88.857C181.011 87.4372 180.691 86.4002 180.34 85.1719L180.196 85.0921C180.244 86.2088 180.26 87.3096 180.26 88.4422V92.8931L178.982 92.1593V82.9704L181.059 84.1668L182.704 89.192C183.151 90.5959 183.471 91.7126 183.758 92.941L183.902 93.0207C183.838 91.8562 183.806 90.8352 183.806 89.6068V85.7462L185.084 86.48H185.1ZM185.292 99.1626L182.528 101.221L185.531 108.479L183.966 107.57L181.65 101.827L180.723 102.497V105.703L179.366 104.922V95.7327L180.723 96.5144V100.71L183.726 98.2533L185.308 99.1626H185.292Z" fill="white"/>
<g clip-path="url(#clip0_509_1527)">
<path fill-rule="evenodd" clip-rule="evenodd" d="M131.062 161.611C131.142 163 130.252 164.405 128.426 165.475L77.4117 195.075C73.8859 197.119 68.1841 197.119 64.6582 195.075L13.6441 165.459C11.9606 164.485 11.0712 163.208 11.0076 161.914V169.322C11.0712 170.616 11.9606 171.877 13.6441 172.867L64.6582 202.467C68.1841 204.511 73.8859 204.511 77.4117 202.467L128.426 172.867C130.252 171.797 131.142 170.392 131.062 169.003V161.595V161.611Z" fill="#B9B9B9"/>
<path fill-rule="evenodd" clip-rule="evenodd" d="M11.0078 161.931C10.9284 160.542 11.8178 159.137 13.6443 158.067L64.6584 128.466C68.1843 126.423 73.8861 126.423 77.4119 128.466L128.426 158.067C130.11 159.041 130.999 160.318 131.062 161.611L131.063 169.019C130.999 167.726 130.109 166.465 128.426 165.475L77.4119 135.875C73.8861 133.831 68.1843 133.831 64.6584 135.875L13.6441 165.459C11.8176 166.528 10.9282 167.933 11.0076 169.322V161.914L11.0078 161.931Z" fill="#B9B9B9"/>
<path d="M77.4121 128.466L128.426 158.067C131.952 160.11 131.952 163.431 128.426 165.475L77.4121 195.075C73.8862 197.119 68.1844 197.119 64.6585 195.075L13.6444 165.459C10.1185 163.415 10.1185 160.094 13.6444 158.051L64.6585 128.45C68.1844 126.407 73.8862 126.407 77.4121 128.45V128.466Z" fill="#ECECEC"/>
<path d="M71.0285 95.7867L108.822 117.55L71.0285 139.33L33.2353 117.55L71.0285 95.7867Z" fill="#FDEAAA"/>
<path d="M33.2353 117.551L71.0285 139.33V182.889L33.2353 161.109V117.551Z" fill="#FFC337"/>
<path d="M71.0284 139.33L108.822 117.551V161.109L71.0284 182.889V139.33Z" fill="#B9B9B9"/>
<path d="M71.0284 95.7867L96.2239 110.301L71.0284 124.815L45.8329 110.301L71.0284 95.7867Z" fill="#FDEAAA"/>
<path d="M45.8329 110.301L71.0284 124.816V132.081L45.8329 117.551V110.301Z" fill="#FFC337"/>
<path d="M71.0284 124.816L96.2239 110.301V117.551L71.0284 132.081V124.816Z" fill="#B9B9B9"/>
<path d="M39.542 135.697L64.7375 150.227L58.4308 153.844L33.2353 139.33L39.542 135.697Z" fill="#FDEAAA"/>
<path d="M33.2353 139.33L58.4308 153.844V182.889L33.2353 168.374V139.33Z" fill="#FFC337"/>
<path d="M36.4356 148.411L42.7266 152.118V166.558L36.4356 170.175V148.411Z" fill="#B9B9B9"/>
<path d="M42.7267 166.558L61.6311 177.44L53.6177 181.765L34.7289 170.867L42.7267 166.558Z" fill="#ECECEC"/>
<path d="M42.7266 144.779L61.6311 155.661V177.44L42.7266 166.558V144.779Z" fill="#FFC337"/>
<path d="M58.4469 153.83L64.7536 150.213V179.242L58.4469 182.874V153.83Z" fill="#B9B9B9"/>
<path d="M52.0281 150.124L58.4469 153.83V182.876L52.0281 179.171V150.124Z" fill="#FFC337"/>
<path d="M38.3486 79.8163L88.7396 108.845V130.624L38.3486 101.596V79.8163Z" fill="#FFC337"/>
<path d="M88.7396 108.845L91.8929 107.029V128.808L88.7396 130.624V108.845Z" fill="#FEA612"/>
<path fill-rule="evenodd" clip-rule="evenodd" d="M46.083 93.3128L48.8755 94.9255C50.8366 96.0529 51.5426 97.2898 51.5426 98.699C51.5426 99.2313 51.3857 99.6071 51.0876 99.7793L54.241 97.9631C54.5233 97.7908 54.6959 97.4151 54.6959 96.8827C54.6959 95.4736 53.9742 94.2366 52.0289 93.1093L49.2364 91.4966L46.083 93.3128Z" fill="#FEA612"/>
<path fill-rule="evenodd" clip-rule="evenodd" d="M51.1033 99.7794C50.8366 99.936 50.4601 99.936 50.0051 99.7794L53.1585 97.9631C53.6134 98.1354 53.99 98.1354 54.2567 97.9631L51.1033 99.7794Z" fill="#FEA612"/>
<path fill-rule="evenodd" clip-rule="evenodd" d="M50.0051 99.7638V99.8421L53.1585 98.0258V97.9475L50.0051 99.7638Z" fill="#FEA612"/>
<path fill-rule="evenodd" clip-rule="evenodd" d="M50.0051 99.842C51.1661 100.734 51.7936 101.893 51.7936 103.052C51.7936 103.756 51.6053 104.226 51.2288 104.445L54.3822 102.629C54.743 102.41 54.947 101.94 54.947 101.236C54.947 100.077 54.3194 98.9182 53.1585 98.0258L50.0051 99.842Z" fill="#FEA612"/>
<path fill-rule="evenodd" clip-rule="evenodd" d="M51.2288 104.445C50.7581 104.727 50.0208 104.586 49.0167 104.023L46.083 102.332L49.2364 100.515L52.1701 102.206C53.1741 102.786 53.9115 102.911 54.3821 102.629L51.2288 104.445Z" fill="#FEA612"/>
<path fill-rule="evenodd" clip-rule="evenodd" d="M46.083 102.316V93.2972L49.2364 91.481V100.5L46.083 102.316Z" fill="#FEA612"/>
<path fill-rule="evenodd" clip-rule="evenodd" d="M47.4164 95.2544V97.7909L50.5698 95.9746V93.4381L47.4164 95.2544Z" fill="#FEA612"/>
<path fill-rule="evenodd" clip-rule="evenodd" d="M47.4164 97.7752L48.6088 98.4642C49.2049 98.8086 49.6285 98.9026 49.8952 98.7617L53.0486 96.9454C52.7819 97.0707 52.3583 96.9924 51.7621 96.6479L50.5698 95.959L47.4164 97.7752Z" fill="#FEA612"/>
<path fill-rule="evenodd" clip-rule="evenodd" d="M49.8952 98.7616C50.0991 98.652 50.209 98.4171 50.209 98.0727C50.209 97.2742 49.8324 96.6322 48.7343 96.0059L47.4164 95.2544L50.5698 93.4381L51.8876 94.1897C52.9701 94.816 53.3623 95.4579 53.3623 96.2564C53.3623 96.6166 53.2682 96.8514 53.0486 96.9454L49.8952 98.7616Z" fill="#FEA612"/>
<path fill-rule="evenodd" clip-rule="evenodd" d="M47.4164 98.9496V101.909L50.5698 100.093V97.1333L47.4164 98.9496Z" fill="#FEA612"/>
<path fill-rule="evenodd" clip-rule="evenodd" d="M47.4164 101.909L48.8598 102.739C49.3932 103.052 49.8011 103.13 50.0521 103.005L53.2054 101.189C52.9544 101.314 52.5465 101.236 52.0131 100.922L50.5698 100.093L47.4164 101.909Z" fill="#FEA612"/>
<path fill-rule="evenodd" clip-rule="evenodd" d="M50.0678 103.02C50.3031 102.895 50.4286 102.613 50.4286 102.159C50.4286 101.235 49.8011 100.327 48.7029 99.7011L47.4164 98.9652L50.5698 97.1489L51.8562 97.8848C52.9387 98.5111 53.582 99.4192 53.582 100.343C53.582 100.797 53.4565 101.095 53.2211 101.204L50.0678 103.02Z" fill="#FEA612"/>
<path fill-rule="evenodd" clip-rule="evenodd" d="M57.5825 99.936L59.9985 110.332L63.1518 108.516L60.7358 98.1198L57.5825 99.936Z" fill="#FEA612"/>
<path fill-rule="evenodd" clip-rule="evenodd" d="M59.9829 110.332L58.5552 109.518L61.7086 107.702L63.1362 108.516L59.9829 110.332Z" fill="#FEA612"/>
<path fill-rule="evenodd" clip-rule="evenodd" d="M58.5709 109.518L57.912 106.481L61.0653 104.664L61.7243 107.702L58.5709 109.518Z" fill="#FEA612"/>
<path fill-rule="evenodd" clip-rule="evenodd" d="M57.8962 106.481L55.4959 105.103L58.6493 103.287L61.0496 104.664L57.8962 106.481Z" fill="#FEA612"/>
<path fill-rule="evenodd" clip-rule="evenodd" d="M55.4959 105.103L54.8214 107.358L57.9747 105.541L58.6493 103.287L55.4959 105.103Z" fill="#FEA612"/>
<path fill-rule="evenodd" clip-rule="evenodd" d="M54.8214 107.358L53.535 106.622L56.6883 104.805L57.9748 105.541L54.8214 107.358Z" fill="#FEA612"/>
<path fill-rule="evenodd" clip-rule="evenodd" d="M53.535 106.606L55.9353 98.9808L59.0886 97.1646L56.6883 104.79L53.535 106.606Z" fill="#FEA612"/>
<path fill-rule="evenodd" clip-rule="evenodd" d="M55.9352 98.9808L57.5825 99.9202L60.7359 98.104L59.0886 97.1646L55.9352 98.9808Z" fill="#FEA612"/>
<path fill-rule="evenodd" clip-rule="evenodd" d="M57.661 105.181L57.2061 103.099C57.0335 102.285 56.908 101.564 56.7354 100.609L59.8888 98.793C60.0613 99.7324 60.1868 100.468 60.3594 101.282L60.8144 103.365L57.661 105.181Z" fill="#FEA612"/>
<path fill-rule="evenodd" clip-rule="evenodd" d="M56.7353 100.609L56.6412 100.562L59.7945 98.746L59.8887 98.7929L56.7353 100.609Z" fill="#FEA612"/>
<path fill-rule="evenodd" clip-rule="evenodd" d="M56.657 100.562C56.4844 101.329 56.3432 101.893 56.1707 102.488L55.7471 104.085L58.9004 102.269L59.324 100.672C59.4966 100.077 59.6378 99.4975 59.8104 98.746L56.657 100.562Z" fill="#FEA612"/>
<path fill-rule="evenodd" clip-rule="evenodd" d="M55.7471 104.07L57.661 105.166L60.8144 103.349L58.9004 102.253L55.7471 104.07Z" fill="#FEA612"/>
<path fill-rule="evenodd" clip-rule="evenodd" d="M68.1566 106.027V115.045L71.3099 113.229V104.21L68.1566 106.027Z" fill="#FEA612"/>
<path fill-rule="evenodd" clip-rule="evenodd" d="M68.1566 115.03L66.4936 114.075L69.6469 112.258L71.3099 113.213L68.1566 115.03Z" fill="#FEA612"/>
<path fill-rule="evenodd" clip-rule="evenodd" d="M66.4935 114.075L64.5952 108.344C64.1402 106.95 63.8265 105.933 63.4813 104.727L66.6347 102.911C66.9798 104.132 67.2936 105.134 67.7486 106.528L69.6468 112.258L66.4935 114.075Z" fill="#FEA612"/>
<path fill-rule="evenodd" clip-rule="evenodd" d="M63.4813 104.727L63.3401 104.649L66.4935 102.833L66.6347 102.911L63.4813 104.727Z" fill="#FEA612"/>
<path fill-rule="evenodd" clip-rule="evenodd" d="M63.3401 104.649C63.3872 105.745 63.4029 106.825 63.4029 107.937V112.305L66.5563 110.489V106.121C66.5563 105.009 66.5406 103.929 66.4935 102.833L63.3401 104.649Z" fill="#FEA612"/>
<path fill-rule="evenodd" clip-rule="evenodd" d="M63.403 112.305L62.1479 111.585L65.3012 109.769L66.5563 110.489L63.403 112.305Z" fill="#FEA612"/>
<path fill-rule="evenodd" clip-rule="evenodd" d="M62.1636 111.585V102.566L65.317 100.75V109.769L62.1636 111.585Z" fill="#FEA612"/>
<path fill-rule="evenodd" clip-rule="evenodd" d="M62.1636 102.566L64.2031 103.741L67.3565 101.924L65.317 100.75L62.1636 102.566Z" fill="#FEA612"/>
<path fill-rule="evenodd" clip-rule="evenodd" d="M64.2029 103.741L65.8188 108.673C66.2581 110.051 66.5719 111.147 66.8543 112.352L70.0076 110.536C69.7096 109.315 69.4115 108.234 68.9722 106.857L67.3563 101.924L64.2029 103.741Z" fill="#FEA612"/>
<path fill-rule="evenodd" clip-rule="evenodd" d="M66.87 112.368L67.0112 112.446L70.1646 110.63L70.0234 110.552L66.87 112.368Z" fill="#FEA612"/>
<path fill-rule="evenodd" clip-rule="evenodd" d="M67.0111 112.446C66.9484 111.303 66.917 110.301 66.917 109.095V105.306L70.0704 103.49V107.279C70.0704 108.485 70.1174 109.503 70.1645 110.63L67.0111 112.446Z" fill="#FEA612"/>
<path fill-rule="evenodd" clip-rule="evenodd" d="M66.9014 105.306L68.1565 106.027L71.3099 104.21L70.0548 103.49L66.9014 105.306Z" fill="#FEA612"/>
<path fill-rule="evenodd" clip-rule="evenodd" d="M76.8793 111.053L74.1652 113.073L77.3186 111.256L80.0327 109.236L76.8793 111.053Z" fill="#FEA612"/>
<path fill-rule="evenodd" clip-rule="evenodd" d="M74.1652 113.088L77.1146 120.212L80.268 118.396L77.3186 111.272L74.1652 113.088Z" fill="#FEA612"/>
<path fill-rule="evenodd" clip-rule="evenodd" d="M77.1144 120.197L75.577 119.304L78.7303 117.488L80.2678 118.38L77.1144 120.197Z" fill="#FEA612"/>
<path fill-rule="evenodd" clip-rule="evenodd" d="M75.5771 119.304L73.3022 113.667L76.4556 111.851L78.7304 117.488L75.5771 119.304Z" fill="#FEA612"/>
<path fill-rule="evenodd" clip-rule="evenodd" d="M73.3023 113.667L72.3924 114.325L75.5457 112.509L76.4557 111.851L73.3023 113.667Z" fill="#FEA612"/>
<path fill-rule="evenodd" clip-rule="evenodd" d="M72.3767 114.325V117.472L75.5301 115.656V112.509L72.3767 114.325Z" fill="#FEA612"/>
<path fill-rule="evenodd" clip-rule="evenodd" d="M72.3766 117.472L71.0431 116.705L74.1965 114.889L75.53 115.656L72.3766 117.472Z" fill="#FEA612"/>
<path fill-rule="evenodd" clip-rule="evenodd" d="M71.0431 116.705V107.686L74.1965 105.87V114.889L71.0431 116.705Z" fill="#FEA612"/>
<path fill-rule="evenodd" clip-rule="evenodd" d="M71.0431 107.686L72.3766 108.454L75.53 106.637L74.1965 105.87L71.0431 107.686Z" fill="#FEA612"/>
<path fill-rule="evenodd" clip-rule="evenodd" d="M72.3767 108.454V112.571L75.5301 110.755V106.637L72.3767 108.454Z" fill="#FEA612"/>
<path fill-rule="evenodd" clip-rule="evenodd" d="M72.3767 112.571L75.3261 110.16L78.4795 108.344L75.5301 110.755L72.3767 112.571Z" fill="#FEA612"/>
<path fill-rule="evenodd" clip-rule="evenodd" d="M75.326 110.16L76.8791 111.053L80.0325 109.236L78.4794 108.344L75.326 110.16Z" fill="#FEA612"/>
<path d="M46.0829 93.3129L48.8755 94.9256C50.8365 96.0529 51.5425 97.2899 51.5425 98.699C51.5425 99.7324 50.9306 100.124 49.9893 99.7637V99.842C51.1503 100.734 51.7778 101.893 51.7778 103.052C51.7778 104.649 50.7895 105.04 49.001 104.007L46.0673 102.316V93.2972L46.0829 93.3129ZM47.4165 95.2544V97.7909L48.6088 98.4798C49.6756 99.0905 50.1933 98.8869 50.1933 98.0884C50.1933 97.2899 49.8168 96.6479 48.7186 96.0216L47.4008 95.2701L47.4165 95.2544ZM47.4165 98.9495V101.909L48.8598 102.739C49.8952 103.334 50.4129 103.083 50.4129 102.128C50.4129 101.173 49.7854 100.296 48.6872 99.6698L47.4008 98.9339L47.4165 98.9495ZM57.5825 99.936L59.9985 110.332L58.5709 109.518L57.912 106.481L55.5116 105.103L54.837 107.358L53.5506 106.622L55.9509 98.9965L57.5982 99.936H57.5825ZM57.661 105.181L57.206 103.099C57.0334 102.285 56.9079 101.564 56.7353 100.609L56.6412 100.562C56.4686 101.329 56.3274 101.893 56.1549 102.488L55.7313 104.085L57.6453 105.181H57.661ZM68.1565 106.027V115.045L66.4935 114.09L64.5952 108.36C64.1402 106.966 63.8265 105.948 63.4813 104.743L63.3401 104.664C63.3872 105.76 63.4029 106.841 63.4029 107.953V112.321L62.1478 111.601V102.582L64.1873 103.756L65.8032 108.688C66.2425 110.066 66.5562 111.162 66.8386 112.368L66.9798 112.446C66.9171 111.303 66.8857 110.301 66.8857 109.096V105.306L68.1408 106.027H68.1565ZM76.8792 111.053L74.1651 113.072L77.1145 120.197L75.577 119.304L73.3022 113.667L72.3923 114.325V117.472L71.0588 116.705V107.686L72.3923 108.454V112.571L75.3417 110.16L76.8949 111.053H76.8792Z" fill="white"/>
<path d="M41.502 78L91.893 107.029L88.7396 108.845L38.3486 79.8163L41.502 78Z" fill="#FDEAAA"/>
</g>
<path fill-rule="evenodd" clip-rule="evenodd" d="M293.992 161.761C294.071 163.145 293.182 164.545 291.357 165.611L240.373 195.107C236.849 197.143 231.151 197.143 227.627 195.107L176.643 165.595C174.96 164.624 174.071 163.352 174.008 162.063V169.445C174.071 170.733 174.96 171.99 176.643 172.977L227.627 202.473C231.151 204.509 236.849 204.509 240.373 202.473L291.357 172.977C293.182 171.911 294.071 170.511 293.992 169.127V161.745V161.761Z" fill="#B9B9B9"/>
<path fill-rule="evenodd" clip-rule="evenodd" d="M174.008 162.079C173.929 160.695 174.817 159.295 176.643 158.229L227.627 128.733C231.151 126.696 236.849 126.696 240.373 128.733L291.357 158.229C293.04 159.199 293.928 160.472 293.992 161.761L293.992 169.143C293.928 167.854 293.039 166.597 291.357 165.611L240.373 136.115C236.849 134.078 231.151 134.078 227.627 136.115L176.643 165.595C174.817 166.661 173.928 168.061 174.008 169.445V162.063L174.008 162.079Z" fill="#B9B9B9"/>
<path d="M240.373 128.733L291.357 158.229C294.881 160.265 294.881 163.574 291.357 165.611L240.373 195.107C236.849 197.143 231.151 197.143 227.627 195.107L176.643 165.595C173.119 163.558 173.119 160.249 176.643 158.213L227.627 128.717C231.151 126.68 236.849 126.68 240.373 128.717V128.733Z" fill="#ECECEC"/>
<rect width="44.4118" height="44.4118" transform="matrix(0.866662 0.498896 -0.866662 0.498896 233.777 94.6929)" fill="#9FABFB"/>
<rect width="44.4118" height="44.3137" transform="matrix(0.866662 0.498896 0 1 195.287 116.85)" fill="#7486FD"/>
<rect width="44.4118" height="44.3137" transform="matrix(0.866662 -0.498896 0 1 233.777 139.007)" fill="#B9B9B9"/>
<rect width="29.6079" height="3.70098" transform="matrix(0.866662 0.498896 -0.866662 0.498896 202.198 150.454)" fill="#9FABFB"/>
<rect width="29.6079" height="14.7712" transform="matrix(0.866662 0.498896 0 1 198.99 152.301)" fill="#7486FD"/>
<rect width="3.70099" height="14.7712" transform="matrix(0.866662 -0.498896 0 1 224.651 167.072)" fill="#B9B9B9"/>
<path d="M195.33 116.85L233.82 94.6928L253.065 91L214.575 113.157L195.33 116.85Z" fill="#9FABFB"/>
<path d="M233.82 139.007L272.31 116.85L253.065 91L214.575 113.157L233.82 139.007Z" fill="#4E61DD"/>
<path d="M195.33 116.85L233.82 139.007L214.575 113.157L195.33 116.85Z" fill="#7486FD"/>
<rect width="3.70098" height="7.40197" transform="matrix(0.866662 0.498896 -0.866662 0.498896 252.588 125.103)" fill="#9FABFB"/>
<rect width="3.70098" height="36.9281" transform="matrix(0.866662 0.498896 0 1 246.173 128.796)" fill="#7486FD"/>
<rect width="7.40197" height="36.9281" transform="matrix(0.866662 -0.498896 0 1 249.38 130.643)" fill="#B9B9B9"/>
<path d="M258.199 106.51L277.431 117.593L271.025 121.272L251.778 110.204L258.199 106.51Z" fill="#9FABFB"/>
<path d="M251.778 110.204L271.025 121.272V180.336L251.778 169.268V110.204Z" fill="#7486FD"/>
<path d="M271.025 121.272L277.431 117.593V176.641L271.025 180.336V121.272Z" fill="#4E61DD"/>
<path fill-rule="evenodd" clip-rule="evenodd" d="M256.921 120.555L259.764 122.195C261.761 123.342 262.48 124.6 262.48 126.033C262.48 126.575 262.32 126.957 262.017 127.132L265.227 125.285C265.515 125.11 265.69 124.727 265.69 124.186C265.69 122.753 264.956 121.495 262.975 120.348L260.132 118.708L256.921 120.555Z" fill="#4E61DD"/>
<path fill-rule="evenodd" clip-rule="evenodd" d="M262.033 127.132C261.761 127.291 261.378 127.291 260.914 127.132L264.125 125.285C264.588 125.46 264.972 125.46 265.243 125.285L262.033 127.132Z" fill="#4E61DD"/>
<path fill-rule="evenodd" clip-rule="evenodd" d="M260.914 127.116V127.196L264.125 125.348V125.269L260.914 127.116Z" fill="#4E61DD"/>
<path fill-rule="evenodd" clip-rule="evenodd" d="M260.914 127.212C262.096 128.119 262.735 129.298 262.735 130.476C262.735 131.193 262.544 131.67 262.16 131.893L265.371 130.046C265.738 129.823 265.946 129.345 265.946 128.629C265.946 127.45 265.307 126.272 264.125 125.364L260.914 127.212Z" fill="#4E61DD"/>
<path fill-rule="evenodd" clip-rule="evenodd" d="M262.16 131.878C261.681 132.164 260.93 132.021 259.908 131.448L256.921 129.728L260.132 127.88L263.119 129.6C264.141 130.19 264.892 130.317 265.371 130.03L262.16 131.878Z" fill="#4E61DD"/>
<path fill-rule="evenodd" clip-rule="evenodd" d="M256.921 129.728V120.555L260.132 118.708V127.88L256.921 129.728Z" fill="#4E61DD"/>
<path fill-rule="evenodd" clip-rule="evenodd" d="M258.279 122.53V125.11L261.49 123.262V120.683L258.279 122.53Z" fill="#4E61DD"/>
<path fill-rule="evenodd" clip-rule="evenodd" d="M258.279 125.11L259.493 125.81C260.1 126.161 260.531 126.256 260.803 126.113L264.013 124.266C263.742 124.393 263.31 124.313 262.703 123.963L261.49 123.262L258.279 125.11Z" fill="#4E61DD"/>
<path fill-rule="evenodd" clip-rule="evenodd" d="M260.803 126.097C261.01 125.985 261.106 125.747 261.106 125.396C261.106 124.584 260.723 123.931 259.605 123.294L258.279 122.53L261.49 120.683L262.831 121.447C263.933 122.084 264.333 122.737 264.333 123.549C264.333 123.915 264.237 124.154 264.013 124.25L260.803 126.097Z" fill="#4E61DD"/>
<path fill-rule="evenodd" clip-rule="evenodd" d="M258.279 126.304V129.314L261.49 127.466V124.457L258.279 126.304Z" fill="#4E61DD"/>
<path fill-rule="evenodd" clip-rule="evenodd" d="M258.279 129.314L259.748 130.158C260.292 130.476 260.707 130.556 260.962 130.428L264.173 128.581C263.917 128.709 263.502 128.629 262.959 128.31L261.474 127.466L258.263 129.314H258.279Z" fill="#4E61DD"/>
<path fill-rule="evenodd" clip-rule="evenodd" d="M260.978 130.428C261.218 130.301 261.346 130.014 261.346 129.552C261.346 128.613 260.707 127.689 259.589 127.052L258.279 126.304L261.49 124.457L262.799 125.205C263.901 125.842 264.556 126.766 264.556 127.705C264.556 128.167 264.429 128.47 264.189 128.581L260.978 130.428Z" fill="#4E61DD"/>
<path fill-rule="evenodd" clip-rule="evenodd" d="M260.451 135.126L262.895 145.7L266.106 143.853L263.646 133.279L260.435 135.126H260.451Z" fill="#4E61DD"/>
<path fill-rule="evenodd" clip-rule="evenodd" d="M262.895 145.7L261.442 144.872L264.652 143.025L266.106 143.853L262.895 145.7Z" fill="#4E61DD"/>
<path fill-rule="evenodd" clip-rule="evenodd" d="M261.457 144.872L260.787 141.783L263.997 139.935L264.668 143.025L261.457 144.872Z" fill="#4E61DD"/>
<path fill-rule="evenodd" clip-rule="evenodd" d="M260.771 141.798L258.327 140.397L261.537 138.55L263.981 139.951L260.771 141.798Z" fill="#4E61DD"/>
<path fill-rule="evenodd" clip-rule="evenodd" d="M258.327 140.381L257.64 142.674L260.85 140.827L261.537 138.534L258.327 140.381Z" fill="#4E61DD"/>
<path fill-rule="evenodd" clip-rule="evenodd" d="M257.64 142.69L256.33 141.942L259.541 140.094L260.85 140.843L257.64 142.69Z" fill="#4E61DD"/>
<path fill-rule="evenodd" clip-rule="evenodd" d="M256.33 141.926L258.774 134.171L261.985 132.323L259.541 140.079L256.33 141.926Z" fill="#4E61DD"/>
<path fill-rule="evenodd" clip-rule="evenodd" d="M258.774 134.171L260.451 135.126L263.662 133.279L261.985 132.323L258.774 134.171Z" fill="#4E61DD"/>
<path fill-rule="evenodd" clip-rule="evenodd" d="M260.531 140.477L260.068 138.359C259.892 137.531 259.764 136.798 259.589 135.827L262.799 133.979C262.975 134.935 263.103 135.683 263.278 136.511L263.742 138.629L260.531 140.477Z" fill="#4E61DD"/>
<path fill-rule="evenodd" clip-rule="evenodd" d="M259.589 135.827L259.493 135.779L262.703 133.932L262.799 133.98L259.589 135.827Z" fill="#4E61DD"/>
<path fill-rule="evenodd" clip-rule="evenodd" d="M259.509 135.763C259.333 136.543 259.189 137.117 259.014 137.722L258.582 139.346L261.793 137.499L262.224 135.874C262.4 135.269 262.544 134.68 262.719 133.916L259.509 135.763Z" fill="#4E61DD"/>
<path fill-rule="evenodd" clip-rule="evenodd" d="M258.582 139.346L260.531 140.461L263.742 138.613L261.793 137.499L258.582 139.346Z" fill="#4E61DD"/>
<path fill-rule="evenodd" clip-rule="evenodd" d="M262.656 148.949V158.121L265.866 156.274V147.101L262.656 148.949Z" fill="#4E61DD"/>
<path fill-rule="evenodd" clip-rule="evenodd" d="M262.656 158.121L260.962 157.15L264.173 155.302L265.866 156.274L262.656 158.121Z" fill="#4E61DD"/>
<path fill-rule="evenodd" clip-rule="evenodd" d="M260.962 157.15L259.03 151.321C258.566 149.904 258.247 148.869 257.896 147.643L261.106 145.795C261.458 147.038 261.777 148.057 262.24 149.474L264.173 155.302L260.962 157.15Z" fill="#4E61DD"/>
<path fill-rule="evenodd" clip-rule="evenodd" d="M257.895 147.627L257.752 147.547L260.962 145.7L261.106 145.78L257.895 147.627Z" fill="#4E61DD"/>
<path fill-rule="evenodd" clip-rule="evenodd" d="M257.752 147.547C257.8 148.662 257.816 149.761 257.816 150.891V155.334L261.026 153.487V149.044C261.026 147.913 261.01 146.815 260.962 145.7L257.752 147.547Z" fill="#4E61DD"/>
<path fill-rule="evenodd" clip-rule="evenodd" d="M257.832 155.334L256.554 154.602L259.764 152.754L261.042 153.487L257.832 155.334Z" fill="#4E61DD"/>
<path fill-rule="evenodd" clip-rule="evenodd" d="M256.554 154.602V145.429L259.764 143.582V152.754L256.554 154.602Z" fill="#4E61DD"/>
<path fill-rule="evenodd" clip-rule="evenodd" d="M256.554 145.445L258.63 146.639L261.841 144.792L259.764 143.598L256.554 145.445Z" fill="#4E61DD"/>
<path fill-rule="evenodd" clip-rule="evenodd" d="M258.646 146.639L260.291 151.656C260.739 153.057 261.058 154.172 261.346 155.398L264.556 153.551C264.253 152.309 263.949 151.21 263.502 149.808L261.857 144.792L258.646 146.639Z" fill="#4E61DD"/>
<path fill-rule="evenodd" clip-rule="evenodd" d="M261.346 155.398L261.489 155.478L264.7 153.63L264.556 153.551L261.346 155.398Z" fill="#4E61DD"/>
<path fill-rule="evenodd" clip-rule="evenodd" d="M261.489 155.493C261.425 154.331 261.394 153.312 261.394 152.086V148.232L264.604 146.385V150.238C264.604 151.465 264.652 152.5 264.7 153.646L261.489 155.493Z" fill="#4E61DD"/>
<path fill-rule="evenodd" clip-rule="evenodd" d="M261.394 148.232L262.671 148.964L265.882 147.117L264.604 146.385L261.394 148.232Z" fill="#4E61DD"/>
<path fill-rule="evenodd" clip-rule="evenodd" d="M262.847 161.608L260.084 163.663L263.294 161.815L266.058 159.761L262.847 161.608Z" fill="#4E61DD"/>
<path fill-rule="evenodd" clip-rule="evenodd" d="M260.084 163.679L263.087 170.924L266.297 169.077L263.294 161.831L260.084 163.679Z" fill="#4E61DD"/>
<path fill-rule="evenodd" clip-rule="evenodd" d="M263.087 170.908L261.521 170.001L264.732 168.153L266.297 169.061L263.087 170.908Z" fill="#4E61DD"/>
<path fill-rule="evenodd" clip-rule="evenodd" d="M261.505 170.017L259.189 164.284L262.4 162.437L264.716 168.169L261.505 170.017Z" fill="#4E61DD"/>
<path fill-rule="evenodd" clip-rule="evenodd" d="M259.189 164.268L258.263 164.937L261.474 163.089L262.4 162.421L259.189 164.268Z" fill="#4E61DD"/>
<path fill-rule="evenodd" clip-rule="evenodd" d="M258.263 164.937V168.138L261.474 166.29V163.089L258.263 164.937Z" fill="#4E61DD"/>
<path fill-rule="evenodd" clip-rule="evenodd" d="M258.263 168.138L256.905 167.357L260.116 165.51L261.473 166.29L258.263 168.138Z" fill="#4E61DD"/>
<path fill-rule="evenodd" clip-rule="evenodd" d="M256.889 167.357V158.185L260.1 156.337V165.51L256.889 167.357Z" fill="#4E61DD"/>
<path fill-rule="evenodd" clip-rule="evenodd" d="M256.889 158.185L258.247 158.965L261.457 157.118L260.1 156.337L256.889 158.185Z" fill="#4E61DD"/>
<path fill-rule="evenodd" clip-rule="evenodd" d="M258.263 158.965V163.153L261.474 161.306V157.118L258.263 158.965Z" fill="#4E61DD"/>
<path fill-rule="evenodd" clip-rule="evenodd" d="M258.263 163.153L261.266 160.701L264.476 158.854L261.474 161.306L258.263 163.153Z" fill="#4E61DD"/>
<path fill-rule="evenodd" clip-rule="evenodd" d="M261.266 160.701L262.847 161.608L266.058 159.761L264.476 158.854L261.266 160.701Z" fill="#4E61DD"/>
<path d="M256.921 120.555L259.764 122.195C261.761 123.342 262.48 124.6 262.48 126.033C262.48 127.084 261.857 127.482 260.898 127.116V127.196C262.08 128.103 262.719 129.282 262.719 130.46C262.719 132.085 261.713 132.483 259.892 131.432L256.905 129.712V120.539L256.921 120.555ZM258.279 122.53V125.11L259.493 125.81C260.579 126.431 261.106 126.224 261.106 125.412C261.106 124.6 260.723 123.947 259.605 123.31L258.279 122.546V122.53ZM258.279 126.304V129.314L259.748 130.158C260.803 130.763 261.33 130.508 261.33 129.537C261.33 128.565 260.691 127.673 259.573 127.036L258.263 126.288L258.279 126.304ZM260.451 135.126L262.895 145.7L261.441 144.872L260.771 141.783L258.327 140.381L257.64 142.674L256.33 141.926L258.774 134.171L260.451 135.126ZM260.531 140.477L260.068 138.359C259.892 137.531 259.764 136.798 259.589 135.827L259.493 135.779C259.317 136.559 259.173 137.133 258.998 137.738L258.566 139.362L260.515 140.477H260.531ZM262.655 148.949V158.121L260.962 157.15L259.03 151.321C258.566 149.904 258.247 148.869 257.895 147.643L257.752 147.563C257.8 148.678 257.816 149.777 257.816 150.907V155.35L256.538 154.618V145.445L258.614 146.64L260.259 151.656C260.707 153.057 261.026 154.172 261.314 155.398L261.457 155.478C261.394 154.315 261.362 153.296 261.362 152.07V148.216L262.639 148.949H262.655ZM262.847 161.608L260.084 163.663L263.087 170.908L261.521 170.001L259.205 164.268L258.279 164.937V168.138L256.921 167.357V158.185L258.279 158.965V163.153L261.282 160.701L262.863 161.608H262.847Z" fill="white"/>
<defs>
<clipPath id="clip0_509_1527">
<rect width="120.071" height="126" fill="white" transform="translate(11 78)"/>
</clipPath>
</defs>
</svg>
