<svg width="304" height="216" viewBox="0 0 304 216" fill="none" xmlns="http://www.w3.org/2000/svg">
<g clip-path="url(#clip0_509_1523)">
<path d="M190.215 125.07C190.215 125.07 174.751 101.771 177.141 98.4816C179.53 95.1926 193.59 106.905 197.72 110.63C197.782 110.693 190.215 125.07 190.215 125.07Z" fill="#EACFEC"/>
<path d="M176.35 85.7535L181.963 84.8711L179.654 80.2629C179.654 80.2629 180.56 78.6318 180.418 77.0452C180.356 76.3856 180.462 75.7172 180.782 75.1378C180.782 75.12 180.8 75.1021 180.809 75.0843C181.191 74.3445 181.546 73.578 181.937 72.8382C182.123 72.4905 182.328 72.1162 182.452 71.7418C182.47 71.6884 182.487 71.626 182.47 71.5636C182.461 71.5101 182.416 71.4744 182.372 71.4388C181.617 70.8416 180.4 72.4549 180.107 72.963C179.992 73.159 179.77 73.9167 179.627 74.0771C179.388 74.3445 178.961 74.4515 178.633 74.2999C178.1 74.0593 177.7 73.4264 177.274 72.7936C177.274 72.7936 176.199 69.1748 175.489 68.1409C174.698 66.9911 174.334 67.6061 174.334 67.6061C174.334 67.6061 173.748 66.8752 173.401 67.0089C173.126 67.1158 172.966 67.4367 173.188 68.1141C173.188 68.1141 172.815 67.6328 172.469 67.7309C172.131 67.82 172.158 68.3013 172.211 68.542C172.264 68.7826 172.815 70.4316 172.815 70.4316C172.815 70.4316 172.531 69.8611 172.247 69.8968C171.874 69.9414 171.874 70.5296 171.962 71.0377C172.016 71.3764 172.238 72.4014 172.531 73.783C172.797 75.0576 173.508 76.8491 174.121 77.9989L175.364 80.5392L176.341 85.7713V85.7535H176.35Z" fill="#FFCAB2"/>
<path d="M180.72 103.847C187.444 102.965 181.288 80.762 181.288 80.762L174.414 80.4501C174.414 80.4501 173.57 104.783 180.72 103.847Z" fill="#EACFEC"/>
<path d="M198.004 173.763C183.704 167.372 184.699 161.828 184.699 161.828C184.699 161.828 191.547 111.014 192.595 108.696C193.474 106.762 225.991 116.192 225.191 119.187L220.519 176.749C220.519 176.749 210.749 177.605 198.013 173.763H198.004Z" fill="#EACFEC"/>
<path d="M203.271 108.901C202.978 110.167 202.96 113.509 202.96 113.509L209.088 115.025L215.093 113.5C215.093 113.5 214.871 112.395 214.799 110.72C211.966 107.021 205.18 107.208 203.262 108.892L203.271 108.901Z" fill="#EACFEC"/>
<path d="M209.097 104.864C206.495 104.685 204.976 105.648 204.781 106.949L202.88 115.836C202.658 117.315 204.887 118.67 207.854 118.875C210.82 119.071 213.405 118.046 213.627 116.567L212.89 107.894C212.97 106.611 211.691 105.042 209.089 104.864H209.097Z" fill="#FFCAB2"/>
<path d="M257.352 100.104L252.982 96.4494L257.326 93.6952C257.326 93.6952 257.379 91.8324 258.32 90.5399C258.711 90.0051 258.96 89.3812 258.987 88.7127C258.987 88.6949 258.987 88.6681 258.987 88.6503C259.049 87.8125 259.129 86.9746 259.173 86.1457C259.191 85.7535 259.2 85.3257 259.289 84.9424C259.306 84.88 259.315 84.8176 259.36 84.782C259.395 84.7463 259.457 84.7285 259.502 84.7196C260.461 84.5948 260.674 86.6003 260.665 87.1975C260.665 87.4203 260.47 88.1868 260.514 88.4007C260.585 88.7484 260.905 89.0692 261.26 89.1049C261.846 89.1673 262.504 88.8375 263.197 88.5166C263.197 88.5166 265.968 85.9674 267.113 85.4415C268.383 84.8622 268.375 85.5752 268.375 85.5752C268.375 85.5752 269.254 85.2544 269.476 85.5485C269.654 85.7802 269.627 86.1457 269.085 86.6092C269.085 86.6092 269.654 86.3953 269.902 86.6448C270.151 86.8944 269.876 87.2866 269.707 87.4648C269.538 87.652 268.224 88.7751 268.224 88.7751C268.224 88.7751 268.765 88.4275 268.987 88.6057C269.289 88.8375 268.987 89.3366 268.65 89.7288C268.428 89.9962 267.708 90.7538 266.758 91.7967C265.879 92.7504 264.351 93.9181 263.241 94.5866L260.878 96.1196L257.361 100.095L257.352 100.104Z" fill="#FFCAB2"/>
<path d="M256.18 92.6702C256.18 92.6702 232.537 117.021 239.686 121.041C246.978 125.141 261.207 97.1892 261.207 97.1892L256.18 92.6613V92.6702Z" fill="#EACFEC"/>
<path d="M201.406 88.7216C200.127 91.3867 199.114 98.5618 200.189 102.912C202.001 110.229 206.593 109.891 210.332 109.311C213.405 108.839 219.516 106.896 220.688 98.0805C221.594 91.3064 220.306 85.4504 212.952 84.4076C205.589 83.3647 202.516 86.4041 201.406 88.7216Z" fill="#FFCAB2"/>
<path d="M204.994 88.7572C200.446 91.2262 199.869 95.6294 199.869 95.6294C197.684 89.497 201.885 83.4806 205.625 82.2149C217.002 78.3555 220.457 85.8248 220.457 85.8248C228.682 91.3064 221.408 103.108 217.793 105.274C218.095 101.12 214.711 100.38 214.711 100.38C214.711 100.38 213.76 97.3051 214.258 93.9626C211.131 93.8111 208.884 88.9088 208.2 88.989C208.2 88.989 205.927 91.1014 205.82 94.3637C203.884 91.6541 204.985 88.7572 204.985 88.7572H204.994Z" fill="#543D3D"/>
<path d="M215.83 99.3017C215.83 99.3017 214.4 103.562 215.679 103.785C216.958 104.017 218.361 103.188 219.178 101.165C219.986 99.1412 220.191 97.9469 218.397 97.421C216.292 96.806 215.83 99.3017 215.83 99.3017Z" fill="#FFCAB2"/>
<path d="M202.445 120.123L205.651 120.934L208.067 118.073L205.456 114.249L201.805 116.816L202.454 120.123H202.445Z" fill="#C99133"/>
<path d="M202.445 120.123C202.445 120.123 198.004 129.143 195.499 145.597C195.304 146.899 198.43 150.758 198.43 150.758C198.43 150.758 203.475 148.209 203.555 146.872C204.497 132.236 205.651 120.934 205.651 120.934L202.445 120.123Z" fill="#C99133"/>
<path d="M214.799 110.72C214.799 110.72 215.936 113.251 216.514 115.203C213.281 119.695 210.749 120.123 207.33 120.943C206.459 117.734 205.438 114.24 205.438 114.24C210.59 114.08 214.791 110.72 214.791 110.72H214.799Z" fill="#FFF5FF"/>
<path d="M205.456 114.249C205.456 114.249 203.191 116.103 201.139 118.893C200.553 116.816 200.145 114.918 201.05 111.237C201.841 110.443 203.271 108.901 203.271 108.901C203.44 112.181 205.447 114.249 205.447 114.249" fill="#FFF5FF"/>
<path d="M217.26 116.068C216.745 116.023 222.251 133.493 222.251 133.493C222.251 133.493 249.323 120.533 247.431 115.622C245.539 110.702 218.565 116.183 217.26 116.068Z" fill="#EACFEC"/>
<path d="M172.179 139.717L235.487 176.172L199.308 197L136 160.545L172.179 139.717Z" fill="#C5D7D9"/>
<path d="M208.683 169.902V170.779L191.376 180.75L161.089 163.307V162.43L208.683 169.902Z" fill="#717171"/>
<path d="M178.396 152.468L208.683 169.902L191.376 179.873L161.089 162.43L178.396 152.468Z" fill="#8A8A8A"/>
<path d="M161.978 138.095L192.256 155.529V180.241L191.376 180.75L161.098 138.972L161.978 138.095Z" fill="#A1A1A1"/>
<path d="M161.098 138.972L191.376 156.406V180.75L161.089 163.307L161.098 138.972Z" fill="#B7B7B7"/>
</g>
<path d="M193.81 56.7569C189.433 58.114 188.114 59.433 186.757 63.81C186.677 64.0633 186.32 64.0633 186.243 63.81C184.889 59.433 183.567 58.114 179.19 56.7569C178.937 56.677 178.937 56.3195 179.19 56.2431C183.57 54.886 184.889 53.567 186.243 49.19C186.323 48.9367 186.68 48.9367 186.757 49.19C188.111 53.567 189.433 54.886 193.81 56.2431C194.063 56.323 194.063 56.6805 193.81 56.7569Z" fill="#FFC51A"/>
<path d="M242.81 73.7569C238.433 75.114 237.114 76.433 235.757 80.81C235.677 81.0633 235.32 81.0633 235.243 80.81C233.889 76.433 232.567 75.114 228.19 73.7569C227.937 73.677 227.937 73.3195 228.19 73.2431C232.57 71.886 233.889 70.567 235.243 66.19C235.323 65.9367 235.68 65.9367 235.757 66.19C237.111 70.567 238.433 71.886 242.81 73.2431C243.063 73.323 243.063 73.6805 242.81 73.7569Z" fill="#FFC51A"/>
<path d="M249.861 80.6884C246.651 81.6836 245.684 82.6509 244.688 85.8606C244.63 86.0465 244.368 86.0465 244.312 85.8606C243.319 82.6509 242.349 81.6836 239.139 80.6884C238.954 80.6298 238.954 80.3676 239.139 80.3116C242.352 79.3164 243.319 78.3491 244.312 75.1394C244.37 74.9535 244.632 74.9535 244.688 75.1394C245.681 78.3491 246.651 79.3164 249.861 80.3116C250.046 80.3702 250.046 80.6324 249.861 80.6884Z" fill="#FFC51A"/>
<g clip-path="url(#clip1_509_1523)">
<path d="M102 152.814L53 181V81.1855L101.987 53L102 152.814Z" fill="#E6E6E6"/>
<path d="M68.105 105.049L96.6296 88.6452L96.6165 80.0659L68.105 96.4695V105.049Z" fill="white"/>
<path d="M65.8968 97.7323L59.873 101.208V109.788L65.8968 106.325V97.7323Z" fill="#BCBCBC"/>
<path d="M73.5277 116.544L96.6296 103.252L96.6165 94.6859L73.5277 107.965V116.544Z" fill="white"/>
<path d="M71.3325 109.228L59.873 115.815V124.395L71.3325 117.807V109.228Z" fill="#BCBCBC"/>
<path d="M68.105 148.883L96.6296 132.479L96.6165 123.9L68.105 140.303V148.883Z" fill="white"/>
<path d="M65.8968 141.566L59.873 145.042V153.622L65.8968 150.146V141.566Z" fill="#BCBCBC"/>
<path d="M96.6296 147.086L59.873 168.229V159.649L96.6165 138.507L96.6296 147.086Z" fill="#4AC2B8"/>
<path d="M73.5277 87.3173L96.6296 74.0252L96.6165 65.4589L73.5277 78.738V87.3173Z" fill="white"/>
<path d="M71.3325 80.0009L59.873 86.6013V95.1807L71.3325 88.5932V80.0009Z" fill="#BCBCBC"/>
<path d="M68.105 134.276L96.6296 117.859L96.6165 109.293L68.105 125.697V134.276Z" fill="white"/>
<path d="M65.8968 126.959L59.873 130.422V139.015L65.8968 135.539V126.959Z" fill="#BCBCBC"/>
</g>
<g clip-path="url(#clip2_509_1523)">
<path d="M155 121.814L106 150V50.1855L154.987 22L155 121.814Z" fill="#E6E6E6"/>
<path d="M121.105 74.0488L149.63 57.6452L149.617 49.0659L121.105 65.4695V74.0488Z" fill="white"/>
<path d="M118.897 66.7323L112.873 70.2083V78.7876L118.897 75.3246V66.7323Z" fill="#BCBCBC"/>
<path d="M126.528 85.5443L149.63 72.2522L149.617 63.6859L126.528 76.965V85.5443Z" fill="white"/>
<path d="M124.333 78.2278L112.873 84.8153V93.3946L124.333 86.8071V78.2278Z" fill="#BCBCBC"/>
<path d="M121.105 117.883L149.63 101.479L149.617 92.8999L121.105 109.303V117.883Z" fill="white"/>
<path d="M118.897 110.566L112.873 114.042V122.622L118.897 119.146V110.566Z" fill="#BCBCBC"/>
<path d="M149.63 116.086L112.873 137.229V128.649L149.617 107.507L149.63 116.086Z" fill="#4AC2B8"/>
<path d="M126.528 56.3173L149.63 43.0252L149.617 34.4589L126.528 47.738V56.3173Z" fill="white"/>
<path d="M124.333 49.0009L112.873 55.6013V64.1807L124.333 57.5932V49.0009Z" fill="#BCBCBC"/>
<path d="M121.105 103.276L149.63 86.8593L149.617 78.293L121.105 94.6965V103.276Z" fill="white"/>
<path d="M118.897 95.9594L112.873 99.4223V108.015L118.897 104.539V95.9594Z" fill="#BCBCBC"/>
</g>
<defs>
<clipPath id="clip0_509_1523">
<rect width="134" height="130" fill="white" transform="translate(136 67)"/>
</clipPath>
<clipPath id="clip1_509_1523">
<rect width="49" height="128" fill="white" transform="translate(53 53)"/>
</clipPath>
<clipPath id="clip2_509_1523">
<rect width="49" height="128" fill="white" transform="translate(106 22)"/>
</clipPath>
</defs>
</svg>
