<svg width="132" height="88" viewBox="0 0 132 88" fill="none" xmlns="http://www.w3.org/2000/svg">
<path d="M64.0756 36.2398C67.7467 38.3593 70.731 43.5041 70.731 47.7083C70.731 51.9125 67.7447 53.6102 64.0756 51.4918C60.4064 49.3734 57.4201 44.2275 57.4201 40.0233C57.4201 35.8191 60.4044 34.1203 64.0756 36.2398Z" fill="#B9B9B9"/>
<path d="M73.1495 76.2174L55 65.7388C55 65.4331 55 56.4619 55 56.0798C55 52.7429 56.3758 50.5647 58.5094 49.888C60.0439 52.1632 61.9744 54.1125 64.0756 55.3256C66.1768 56.5388 68.1056 56.8176 69.6401 56.3143C71.7737 59.4547 73.1512 63.2205 73.1512 66.5575C73.1512 66.9415 73.1512 75.9127 73.1512 76.2164" fill="#B9B9B9"/>
<path d="M83.4727 8.21777C83.9708 7.89303 84.6785 7.91989 85.4629 8.37402L118.238 27.3496C119.747 28.2229 120.97 30.3471 120.97 32.0938V107.998C120.97 108.836 120.688 109.435 120.229 109.734C120.195 109.756 120.159 109.775 120.124 109.794L117.497 111.316C116.999 111.641 116.291 111.614 115.507 111.16L82.7314 92.1846C81.223 91.3112 80 89.1868 80 87.4404V11.5371C80 10.699 80.2816 10.0997 80.7412 9.7998C80.7746 9.77804 80.8095 9.75785 80.8447 9.73926L83.4727 8.21777Z" fill="#B9B9B9"/>
<path d="M80 11.6326C80 9.97571 81.1624 9.30555 82.5963 10.1357L116.508 29.769C117.463 30.3225 118.238 31.6666 118.238 32.7711V108C118.238 110.761 116.301 111.878 113.911 110.495L81.7308 91.8636C80.7749 91.3101 80 89.9661 80 88.8615V11.6326Z" fill="#ECECEC"/>
<rect width="40.3974" height="75.9036" transform="matrix(0.865421 0.501046 0 1 81.6388 12.7439)" fill="white"/>
<rect width="20.125" height="14" transform="matrix(0.866025 0.5 0 1 89 49)" fill="white"/>
<path d="M106.429 73.0625L89 63V49.8571L97.7144 64.6027L106.429 59.9196V73.0625Z" fill="#4AC2B8"/>
<path d="M97.7144 62.6027L105.46 58.5035L89.9683 49.559L97.7144 62.6027Z" fill="#4AC2B8"/>
</svg>
