<svg width="132" height="88" viewBox="0 0 132 88" fill="none" xmlns="http://www.w3.org/2000/svg">
<path fill-rule="evenodd" clip-rule="evenodd" d="M52 7.60163V15.7236L107.964 48.5122V40.0894L109 39.4878L53.0364 7L52 7.60163Z" fill="#1E9384"/>
<path fill-rule="evenodd" clip-rule="evenodd" d="M107.964 40.0894V74.9837C107.964 76.5786 107.429 77.7182 106.557 78.2885L107.593 77.6869C108.465 77.1166 109 75.977 109 74.3821V39.4878L107.964 40.0894Z" fill="#1E9384"/>
<g clip-path="url(#clip0_509_2748)">
<path d="M52 7.51025L108.011 39.8481V74.5013C108.011 77.815 105.684 79.1582 102.815 77.5013L55.4641 50.1635C53.5509 49.0589 52 46.3726 52 44.1635V7.51025Z" fill="#FAFAFA"/>
<rect width="64.6756" height="5.98345" transform="matrix(0.866025 0.5 0 1 52 7.51025)" fill="#1E9384"/>
<rect width="64.6756" height="19.147" transform="matrix(0.866025 0.5 0 1 52 29.0508)" fill="#C6F6F0"/>
<path d="M102.171 67.2266L103.919 71.2098C104.347 72.1941 104.441 72.3993 104.688 72.8935L102.802 71.8046C102.7 71.4779 102.49 70.9124 102.301 70.4517L101.177 67.725L100.444 68.1481V69.2036C100.444 69.7229 100.459 70.0077 100.502 70.4768L98.9642 69.5889C99.0077 69.1868 99.0222 68.8852 99.0222 68.3826V63.8926C99.0222 63.3817 99.0077 63.0466 98.9642 62.6194L100.502 63.5073C100.459 63.9178 100.444 64.1858 100.444 64.7136V66.1963L101.888 65.2455C102.171 65.0654 102.359 64.8895 102.519 64.6717L104.478 65.8026C104.347 65.878 104.296 65.9157 104.195 65.9743C103.817 66.1921 103.817 66.1921 103.687 66.2675L102.171 67.2266Z" fill="#1E9384"/>
<path d="M94.7128 61.212L96.0912 64.3868C96.3016 64.8685 96.4394 65.2161 96.6135 65.6852C96.5845 65.2831 96.57 64.8894 96.57 64.4203V62.5104C96.57 61.9575 96.5555 61.6141 96.5119 61.2036L98.0572 62.0957C98.0136 62.4475 97.9991 62.791 97.9991 63.3355V67.7836C97.9991 68.2946 98.0209 68.6925 98.0572 69.0652L96.4684 68.148C96.3378 67.7543 96.171 67.348 95.9243 66.77L94.5822 63.658C94.3864 63.2098 94.263 62.8873 94.0599 62.3261C94.0962 62.724 94.1107 63.1931 94.1107 63.6036V65.48C94.1107 66.058 94.1252 66.4349 94.1687 66.8203L92.6235 65.9281C92.667 65.6266 92.6815 65.2663 92.6815 64.6465V60.2403C92.6815 59.7544 92.667 59.3691 92.6235 58.9586L94.1977 59.8675C94.2703 60.1355 94.4299 60.5628 94.7128 61.212Z" fill="#1E9384"/>
<path d="M92.1221 65.6386L90.4245 64.6585C90.3665 64.2229 90.323 63.98 90.2504 63.6533L90.0546 62.8282L87.987 61.6345L87.7911 62.2334C87.6968 62.5141 87.646 62.7444 87.6098 63.0334L85.9122 62.0533C86.021 61.8649 86.0863 61.7015 86.2604 61.2324L87.8274 57.0943C87.958 56.7592 88.0233 56.5456 88.0596 56.3236L89.953 57.4168C90.0038 57.689 90.0546 57.9361 90.1996 58.4639L91.7739 64.4156C91.9117 64.9392 92.0278 65.3496 92.1221 65.6386ZM89.6991 61.2157L89.0099 58.3047L88.3352 60.4282L89.6991 61.2157Z" fill="#1E9384"/>
<path d="M83.5772 60.7052L81.6039 59.566C81.0526 59.2476 80.8422 59.1345 80.5302 58.9712C80.5738 58.6361 80.5883 58.3597 80.5883 57.7733V53.1912C80.5883 52.7472 80.5738 52.3786 80.5302 51.9514C80.9002 52.1902 81.0018 52.2488 81.5967 52.5922L83.4974 53.6896C84.6726 54.3681 85.3618 55.4194 85.3618 56.5252C85.3618 57.0362 85.2167 57.3545 84.941 57.4801C84.7814 57.5471 84.6508 57.5555 84.3534 57.5094C84.7089 57.8068 84.8975 58.0162 85.1079 58.3471C85.4198 58.8455 85.5794 59.39 85.5794 59.9429C85.5794 61.1492 84.8394 61.434 83.5772 60.7052ZM82.0102 55.5199L83.287 56.2571C83.6715 56.4791 83.9109 56.3576 83.9109 55.9472C83.9109 55.5367 83.686 55.1723 83.2725 54.9336L82.0102 54.2048V55.5199ZM82.0102 56.8602V58.4183L83.345 59.189C83.802 59.4529 84.0777 59.3188 84.0777 58.8246C84.0777 58.3387 83.802 57.8948 83.3378 57.6267L82.0102 56.8602Z" fill="#1E9384"/>
</g>
<rect width="51.5283" height="3.60672" transform="matrix(0.864837 0.502052 0 1 57.7 22.9399)" fill="#1E9384"/>
<ellipse cx="11.8761" cy="18.7411" rx="11.8761" ry="18.7411" transform="matrix(0.799517 -0.600643 0.610241 0.792216 35.5465 39.7395)" fill="white"/>
<path d="M56.0934 28.6517C47.3078 23.6424 40.186 27.7036 40.186 37.7207C40.186 47.7378 47.3078 59.9212 56.0934 64.9305C64.8791 69.9398 72 65.8782 72 55.8601C72 45.842 64.8782 33.6605 56.0934 28.6517ZM45.2793 37.4571L53.8284 45.2588C53.8284 45.2588 52.0517 48.1418 48.4551 44.9038C44.8589 41.666 45.2793 37.4571 45.2793 37.4571ZM56.093 57.5467C52.1971 55.3254 49.0392 49.4884 49.0392 49.4884C49.0392 49.4884 52.1971 52.3709 56.093 54.5923C59.9889 56.8136 63.1468 57.5321 63.1468 57.5321C63.1468 57.5321 59.9885 59.7678 56.093 57.5467ZM63.7309 53.6131C60.1348 52.75 58.3576 47.8407 58.3576 47.8407L66.9068 49.788C66.9068 49.788 67.3271 54.4762 63.7309 53.6131Z" fill="#E27070"/>
<path d="M39.9495 33.3274L29.6736 24.7323L29.6197 29.2869L17.4146 15L27.834 22.4638L28.2867 18.7045L39.9495 33.3274Z" fill="#F9A800"/>
<path d="M38.1763 35.4249L27.5191 32.926L29.1811 36.2506L15 30.3232L25.3388 31.9491L24.2629 29.0564L38.1763 35.4249Z" fill="#F9A800"/>
<defs>
<clipPath id="clip0_509_2748">
<path d="M52 7.51025L108.011 39.8481V74.5013C108.011 77.815 105.684 79.1582 102.815 77.5013L55.4641 50.1635C53.5509 49.0589 52 46.3726 52 44.1635V7.51025Z" fill="white"/>
</clipPath>
</defs>
</svg>
