<svg width="133" height="88" viewBox="0 0 133 88" fill="none" xmlns="http://www.w3.org/2000/svg">
<path d="M46.772 23.3082C41.5196 24.9368 39.9368 26.5196 38.3082 31.772C38.2124 32.076 37.7834 32.076 37.6918 31.772C36.0673 26.5196 34.4804 24.9368 29.228 23.3082C28.924 23.2124 28.924 22.7834 29.228 22.6918C34.4846 21.0632 36.0673 19.4804 37.6918 14.228C37.7876 13.924 38.2166 13.924 38.3082 14.228C39.9327 19.4804 41.5196 21.0632 46.772 22.6918C47.076 22.7876 47.076 23.2166 46.772 23.3082Z" fill="#FFC51A"/>
<path d="M127.823 42.7569C123.737 44.114 122.506 45.433 121.24 49.81C121.165 50.0633 120.832 50.0633 120.76 49.81C119.497 45.433 118.263 44.114 114.177 42.7569C113.941 42.677 113.941 42.3195 114.177 42.2431C118.266 40.886 119.497 39.567 120.76 35.19C120.835 34.9367 121.168 34.9367 121.24 35.19C122.503 39.567 123.737 40.886 127.823 42.2431C128.059 42.323 128.059 42.6805 127.823 42.7569Z" fill="#FFC51A"/>
<path d="M132.873 53.1712C129.955 54.076 129.076 54.9553 128.171 57.8733C128.118 58.0422 127.88 58.0422 127.829 57.8733C126.926 54.9553 126.045 54.076 123.127 53.1712C122.958 53.118 122.958 52.8797 123.127 52.8288C126.047 51.924 126.926 51.0447 127.829 48.1267C127.882 47.9578 128.12 47.9578 128.171 48.1267C129.074 51.0447 129.955 51.924 132.873 52.8288C133.042 52.882 133.042 53.1203 132.873 53.1712Z" fill="#FFC51A"/>
<rect width="57" height="74" transform="translate(52 7)" fill="white"/>
<g clip-path="url(#clip0_509_2746)">
<path d="M52.3729 12C52.3729 9.23858 54.312 8.1185 56.704 9.49824L104.827 37.2559C107.219 38.6356 109.158 41.9927 109.158 44.7541V76C109.158 78.7614 107.219 79.8815 104.827 78.5018L55.8378 50.2445C53.9242 49.1407 52.3729 46.455 52.3729 44.2459V12Z" fill="#3EC3B5"/>
<rect width="65.5543" height="7.27869" transform="matrix(0.866228 0.499649 0 1 52.3729 11.8525)" fill="#1E9384"/>
<path d="M56.5792 17.9182L59.7339 17.3116V22.1641L56.5792 17.9182Z" fill="white"/>
<rect width="52.2006" height="3.63934" transform="matrix(0.866228 0.499649 0 1 58.1566 41.877)" fill="white"/>
<rect width="9.71174" height="9.71174" rx="2" transform="matrix(0.866228 0.499649 0 1 56.0534 27.2671)" fill="#FFC924"/>
<path d="M100.818 58.2917V54.7983C100.818 54.3624 100.807 54.1444 100.768 53.8271C100.991 53.9682 101.13 54.0547 101.591 54.3207L102.752 54.9906C103.435 55.3848 103.986 55.92 104.358 56.5514C104.763 57.2468 104.969 58.0385 104.969 58.891C104.969 59.7692 104.747 60.346 104.325 60.5896C103.952 60.7979 103.424 60.7114 102.763 60.33L101.591 59.6538C101.163 59.407 101.007 59.3237 100.774 59.2019C100.807 58.9391 100.818 58.734 100.818 58.2917ZM101.919 58.7211L102.663 59.1506C103.024 59.3589 103.28 59.3974 103.48 59.282C103.708 59.1442 103.83 58.7852 103.83 58.2532C103.83 57.7084 103.724 57.2501 103.508 56.8751C103.313 56.5385 103.047 56.2822 102.646 56.0514L101.919 55.6315V58.7211Z" fill="white"/>
<path d="M100.306 58.9127L99.0056 58.1627C98.9723 57.9383 98.9056 57.6371 98.7333 57.0057C98.5555 56.3455 98.4889 56.1596 98.35 55.9384C98.2333 55.7494 98.0944 55.618 97.9166 55.5154L97.3498 55.1885V56.2397C97.3498 56.6756 97.3609 56.9192 97.3943 57.2333L96.1996 56.5442C96.233 56.2686 96.2441 56.0827 96.2441 55.6083V52.1598C96.2441 51.7624 96.233 51.5188 96.1996 51.1919C96.4441 51.3457 96.6497 51.4707 97.0275 51.6887L98.4722 52.522C99.3723 53.0412 99.8946 53.8809 99.8946 54.8039C99.8946 55.259 99.7835 55.5539 99.5668 55.666C99.4279 55.7333 99.3112 55.7365 99.0389 55.682C99.3223 55.9481 99.4501 56.1692 99.6279 56.7269C99.7113 56.9801 99.7891 57.2429 100.039 58.0794C100.1 58.2941 100.167 58.4928 100.306 58.9127ZM97.3498 54.0924L98.2166 54.5924C98.5444 54.7815 98.7445 54.6661 98.7445 54.3007C98.7445 53.9418 98.5667 53.6533 98.2222 53.4546L97.3498 52.9514V54.0924Z" fill="white"/>
<path d="M95.8156 56.3228L94.5154 55.5729C94.471 55.2396 94.4377 55.0537 94.3821 54.8037L94.2321 54.1723L92.6485 53.2589L92.4985 53.7172C92.4263 53.9319 92.3874 54.1082 92.3596 54.3294L91.0594 53.5794C91.1427 53.4352 91.1927 53.3102 91.3261 52.9512L92.5263 49.7847C92.6263 49.5283 92.6763 49.3649 92.7041 49.195L94.1543 50.0315C94.1932 50.2398 94.2321 50.4289 94.3432 50.8327L95.5489 55.387C95.6545 55.7876 95.7434 56.1017 95.8156 56.3228ZM93.9598 52.9384L93.432 50.711L92.9152 52.3359L93.9598 52.9384Z" fill="white"/>
<path d="M90.7831 49.6894L89.6385 49.2856C89.5329 48.6414 89.2384 48.1831 88.7605 47.9075C88.0827 47.5165 87.6882 47.9043 87.6882 48.9619C87.6882 50.0067 88.0993 50.8785 88.7883 51.2759C89.0939 51.4522 89.3551 51.4554 89.5162 51.2919C89.6107 51.1926 89.6496 51.0868 89.6829 50.8368L90.8386 51.7022C90.7331 52.1861 90.6108 52.4297 90.3774 52.6092C90.033 52.8656 89.494 52.7983 88.8217 52.4104C88.1438 52.0194 87.5715 51.4458 87.177 50.7567C86.7658 50.0388 86.5324 49.1542 86.5324 48.2953C86.5324 47.4235 86.7658 46.821 87.2048 46.5742C87.5882 46.3659 88.1493 46.4524 88.7994 46.8274C89.5162 47.2408 90.0774 47.8466 90.4386 48.6126C90.6164 48.9779 90.7108 49.2696 90.7831 49.6894Z" fill="white"/>
<path d="M82.932 43.5582L84.1266 44.2473C84.0933 44.4908 84.0821 44.7216 84.0821 45.1703V48.606C84.0821 49.0227 84.0933 49.247 84.1266 49.5803L82.932 48.8913C82.9653 48.6413 82.9764 48.4105 82.9764 47.9682V46.7247L81.1039 45.6446V46.8882C81.1039 47.3048 81.115 47.5548 81.1484 47.8625L79.9538 47.1734C79.9871 46.9298 79.9982 46.6991 79.9982 46.2504V42.8146C79.9982 42.3724 79.9871 42.1352 79.9538 41.8403L81.1484 42.5294C81.115 42.8114 81.1039 43.055 81.1039 43.4524V44.5165L82.9764 45.5966V44.5325C82.9764 44.0902 82.9653 43.8274 82.932 43.5582Z" fill="white"/>
<path d="M75.5717 43.0369L76.7274 43.5754C76.7496 43.8189 76.7885 43.9568 76.8718 44.133C77.0052 44.4023 77.2386 44.6458 77.5219 44.8093C77.9498 45.0561 78.2054 44.9856 78.2054 44.6266C78.2054 44.4279 78.1165 44.2035 77.972 44.0433C77.8553 43.9119 77.7164 43.7869 77.1386 43.2997C76.6274 42.8767 76.4496 42.6972 76.244 42.412C75.8939 41.928 75.705 41.3896 75.705 40.8704C75.705 39.8833 76.394 39.6589 77.4886 40.2903C78.1943 40.6973 78.7332 41.2582 79.0333 41.912C79.1722 42.2036 79.2389 42.4344 79.3111 42.8414L78.1331 42.3094C78.0665 41.8543 77.8664 41.5659 77.4442 41.3223C77.1052 41.1268 76.8552 41.1941 76.8552 41.4889C76.8552 41.6684 76.9385 41.8511 77.1163 42.0498C77.2275 42.1716 77.2275 42.1716 77.8831 42.7036C78.3054 43.0498 78.5721 43.3126 78.7832 43.5882C79.1833 44.1074 79.3833 44.6522 79.3833 45.242C79.3833 45.7227 79.25 46.056 78.9944 46.197C78.6721 46.3701 78.1831 46.274 77.5331 45.899C77.0608 45.6265 76.594 45.242 76.294 44.8702C76.0162 44.5305 75.8106 44.1362 75.6939 43.7036C75.6383 43.5177 75.6105 43.3542 75.5717 43.0369Z" fill="white"/>
<path d="M75.3265 44.5045L74.0263 43.7545C73.9819 43.4212 73.9486 43.2353 73.893 42.9853L73.743 42.354L72.1594 41.4405L72.0094 41.8989C71.9371 42.1136 71.8983 42.2899 71.8705 42.511L70.5703 41.761C70.6536 41.6168 70.7036 41.4918 70.837 41.1329L72.0372 37.9664C72.1372 37.71 72.1872 37.5465 72.215 37.3766L73.6652 38.2131C73.7041 38.4215 73.743 38.6106 73.8541 39.0144L75.0598 43.5686C75.1654 43.9693 75.2543 44.2833 75.3265 44.5045ZM73.4707 41.12L72.9429 38.8926L72.4261 40.5175L73.4707 41.12Z" fill="white"/>
<path d="M70.294 37.8711L69.1494 37.4672C69.0438 36.8231 68.7493 36.3647 68.2715 36.0891C67.5936 35.6981 67.1991 36.0859 67.1991 37.1435C67.1991 38.1884 67.6103 39.0601 68.2993 39.4575C68.6049 39.6338 68.866 39.637 69.0271 39.4736C69.1216 39.3742 69.1605 39.2684 69.1938 39.0185L70.3495 39.8838C70.244 40.3677 70.1217 40.6113 69.8884 40.7908C69.5439 41.0472 69.0049 40.9799 68.3326 40.5921C67.6547 40.2011 67.0824 39.6274 66.6879 38.9383C66.2767 38.2204 66.0434 37.3358 66.0434 36.4769C66.0434 35.6052 66.2767 35.0026 66.7157 34.7558C67.0991 34.5475 67.6603 34.6341 68.3104 35.009C69.0271 35.4225 69.5883 36.0282 69.9495 36.7942C70.1273 37.1596 70.2218 37.4512 70.294 37.8711Z" fill="white"/>
</g>
<defs>
<clipPath id="clip0_509_2746">
<path d="M52.3729 12C52.3729 9.23858 54.312 8.1185 56.704 9.49824L104.827 37.2559C107.219 38.6356 109.158 41.9927 109.158 44.7541V76C109.158 78.7614 107.219 79.8815 104.827 78.5018L55.8378 50.2445C53.9242 49.1407 52.3729 46.455 52.3729 44.2459V12Z" fill="white"/>
</clipPath>
</defs>
</svg>
