<svg width="132" height="88" viewBox="0 0 132 88" fill="none" xmlns="http://www.w3.org/2000/svg">
<path d="M83.4727 8.21777C83.9708 7.89303 84.6785 7.91989 85.4629 8.37402L118.238 27.3496C119.747 28.2229 120.97 30.3471 120.97 32.0938V107.998C120.97 108.836 120.688 109.435 120.229 109.734C120.195 109.756 120.159 109.775 120.124 109.794L117.497 111.316C116.999 111.641 116.291 111.614 115.507 111.16L82.7314 92.1846C81.223 91.3112 80 89.1868 80 87.4404V11.5371C80 10.699 80.2816 10.0997 80.7412 9.7998C80.7746 9.77804 80.8095 9.75785 80.8447 9.73926L83.4727 8.21777Z" fill="#B9B9B9"/>
<path d="M80 11.6326C80 9.97571 81.1624 9.30555 82.5963 10.1357L116.508 29.769C117.463 30.3225 118.238 31.6666 118.238 32.7711V108C118.238 110.761 116.301 111.878 113.911 110.495L81.7308 91.8636C80.7749 91.3101 80 89.9661 80 88.8615V11.6326Z" fill="#ECECEC"/>
<rect width="40.3974" height="75.9036" transform="matrix(0.865421 0.501046 0 1 81.6388 12.7439)" fill="white"/>
<rect width="20.125" height="14" transform="matrix(0.866025 0.5 0 1 89 49)" fill="white"/>
<path d="M106.429 73.0625L89 63V49.8571L97.7144 64.6027L106.429 59.9196V73.0625Z" fill="#4AC2B8"/>
<path d="M97.7144 62.6027L105.46 58.5035L89.9683 49.559L97.7144 62.6027Z" fill="#4AC2B8"/>
<path d="M37.4727 8.21777C37.9708 7.89303 38.6785 7.91989 39.4629 8.37402L72.2383 27.3496C73.7467 28.2229 74.9696 30.3471 74.9697 32.0938V107.998C74.9696 108.836 74.688 109.435 74.2285 109.734C74.195 109.756 74.1594 109.775 74.124 109.794L71.4971 111.316C70.9989 111.641 70.2912 111.614 69.5068 111.16L36.7314 92.1846C35.223 91.3112 34 89.1868 34 87.4404V11.5371C34 10.699 34.2816 10.0997 34.7412 9.7998C34.7746 9.77804 34.8095 9.75785 34.8447 9.73926L37.4727 8.21777Z" fill="#B9B9B9"/>
<path d="M34 11.6326C34 9.97571 35.1624 9.30555 36.5963 10.1357L70.5075 29.769C71.4634 30.3225 72.2384 31.6666 72.2384 32.7711V108C72.2384 110.761 70.301 111.878 67.9112 110.495L35.7308 91.8636C34.7749 91.3101 34 89.9661 34 88.8615V11.6326Z" fill="#ECECEC"/>
<rect width="40.3974" height="75.9036" transform="matrix(0.865421 0.501046 0 1 35.6388 12.7439)" fill="white"/>
<path d="M49.7349 51.8836C50.7519 51.7656 51.5737 51.592 51.8584 51.5658C52.1432 51.53 52.1269 51.0156 51.891 50.4028C51.6469 49.7854 49.6454 44.6845 49.6454 44.6845C49.3281 43.8818 48.9864 43.0556 48.4983 43.1168C48.0101 43.1781 47.644 43.2145 46.391 43.3774C45.13 43.526 43.4621 47.4996 47.8392 58.6228C53.0303 72.5777 56.7075 72.9774 57.9686 72.8287C59.2215 72.6753 59.5958 72.6341 60.0758 72.5777C60.5639 72.5164 60.2548 71.6899 59.9456 70.8824C59.9456 70.8824 57.9441 65.7815 57.7001 65.1641C57.456 64.5467 57.0817 64.0828 56.797 64.109C56.5122 64.1447 55.6417 64.1853 54.6247 64.3129C53.6077 64.4309 52.4768 61.9959 51.0041 58.2391C49.5315 54.4917 48.7261 52.0159 49.7431 51.8978L49.7349 51.8836Z" fill="#4AC2B8"/>
</svg>
