<svg width="132" height="88" viewBox="0 0 132 88" fill="none" xmlns="http://www.w3.org/2000/svg">
<path d="M54.4727 8.21777C54.9708 7.89303 55.6785 7.91989 56.4629 8.37402L89.2383 27.3496C90.7467 28.2229 91.9696 30.3471 91.9697 32.0938V107.998C91.9696 108.836 91.688 109.435 91.2285 109.734C91.195 109.756 91.1594 109.775 91.124 109.794L88.4971 111.316C87.9989 111.641 87.2912 111.614 86.5068 111.16L53.7314 92.1846C52.223 91.3112 51 89.1868 51 87.4404V11.5371C51 10.699 51.2816 10.0997 51.7412 9.7998C51.7746 9.77804 51.8095 9.75785 51.8447 9.73926L54.4727 8.21777Z" fill="#B9B9B9"/>
<path d="M51 11.6326C51 9.97571 52.1624 9.30555 53.5963 10.1357L87.5075 29.769C88.4634 30.3225 89.2384 31.6666 89.2384 32.7711V108C89.2384 110.761 87.301 111.878 84.9112 110.495L52.7308 91.8636C51.7749 91.3101 51 89.9661 51 88.8615V11.6326Z" fill="#ECECEC"/>
<rect width="40.3974" height="75.9036" transform="matrix(0.865421 0.501046 0 1 52.6388 12.7439)" fill="white"/>
<path d="M69.913 37.4542C72.4084 38.895 74.4369 42.5219 74.4369 45.5392C74.4369 48.5565 72.4071 49.8404 69.913 48.4004C67.419 46.9605 65.3891 43.3328 65.3891 40.3154C65.3891 37.2981 67.4176 36.0135 69.913 37.4542Z" fill="#B9B9B9"/>
<path d="M76.0808 65.9469L63.744 58.8242C63.744 58.6048 63.744 52.1663 63.744 51.8921C63.744 49.4972 64.6792 47.9038 66.1295 47.3714C67.1725 48.9706 68.4848 50.3273 69.913 51.1519C71.3413 51.9765 72.6523 52.1344 73.6954 51.7396C75.1457 53.9466 76.082 56.6191 76.082 59.014C76.082 59.2896 76.082 65.7282 76.082 65.9461" fill="#B9B9B9"/>
<path d="M81.1807 80.2979V81.8121C80.8792 81.5975 80.6267 81.4356 80.0237 81.0874L77.8148 79.8121C77.2818 79.5044 77.0855 79.3991 76.7839 79.2412C76.826 78.9416 76.84 78.6501 76.84 78.0914V73.6703C76.84 73.1683 76.826 72.8768 76.7839 72.4557C77.0714 72.6379 77.2678 72.7594 77.8148 73.0752L80.0517 74.3667C80.5286 74.642 80.767 74.7634 81.0966 74.9132V76.4274C80.774 76.2007 80.5216 76.0388 80.0517 75.7675L78.2285 74.7149V75.9052L79.7432 76.7797C80.206 77.0469 80.3743 77.1359 80.795 77.3303V78.8283C80.4655 78.5975 80.227 78.4436 79.7432 78.1643L78.2285 77.2898V78.6501L80.0377 79.6947C80.5706 80.0024 80.8792 80.1643 81.1807 80.2979Z" fill="#4AC2B8"/>
<path d="M73.3456 77.2317L72.1254 76.5273C72.0903 76.2236 72.0132 75.8795 71.8239 75.1548L71.1787 72.6284C71.1717 72.5839 70.9613 71.7094 70.9403 71.6325C70.8632 71.2964 70.8632 71.2964 70.8281 71.1628C70.8702 71.6972 70.8982 72.3774 70.8982 72.8066V74.5637C70.8982 75.1224 70.9122 75.4868 70.9543 75.8511L69.5729 75.0536C69.615 74.7135 69.629 74.3815 69.629 73.8309V69.6122C69.629 69.1264 69.6079 68.6851 69.5729 68.3167L71.4242 69.3855C71.4732 69.762 71.5293 70.0535 71.6906 70.681L72.7425 74.7782L73.7873 71.8916C73.9486 71.4422 74.0047 71.2155 74.0468 70.8997L75.9051 71.9726C75.863 72.3369 75.849 72.6608 75.849 73.2033V77.422C75.849 78.0374 75.863 78.3613 75.9051 78.7095L74.5236 77.9119C74.5657 77.5637 74.5797 77.2641 74.5797 76.6892V74.924C74.5797 74.7297 74.6008 74.1345 74.6148 73.8916C74.6358 73.4746 74.6358 73.4746 74.6429 73.3572C74.4886 73.8997 74.4185 74.1507 74.3273 74.3896L73.6471 76.2155C73.4718 76.6892 73.3806 76.9928 73.3456 77.2317Z" fill="#4AC2B8"/>
<path d="M69.0883 74.7736L67.4474 73.8262C67.3913 73.4051 67.3493 73.1703 67.2791 72.8545L67.0898 72.0569L65.0913 70.9031L64.9019 71.482C64.8108 71.7533 64.7617 71.976 64.7266 72.2553L63.0857 71.3079C63.1909 71.1258 63.254 70.9679 63.4223 70.5144L64.937 66.5144C65.0632 66.1905 65.1263 65.984 65.1614 65.7694L66.9916 66.8261C67.0407 67.0893 67.0898 67.3282 67.2301 67.8383L68.7518 73.5914C68.885 74.0974 68.9972 74.4942 69.0883 74.7736ZM66.7462 70.4982L66.08 67.6844L65.4279 69.7371L66.7462 70.4982Z" fill="#4AC2B8"/>
<path d="M59.3619 63.4333L60.6942 66.5021C60.8976 66.9677 61.0308 67.3038 61.1991 67.7572C61.1711 67.3685 61.157 66.988 61.157 66.5345V64.6884C61.157 64.1539 61.143 63.822 61.1009 63.4252L62.5946 64.2875C62.5525 64.6276 62.5385 64.9596 62.5385 65.4859V69.7856C62.5385 70.2795 62.5595 70.6641 62.5946 71.0244L61.0589 70.1378C60.9326 69.7572 60.7714 69.3645 60.5329 68.8058L59.2356 65.7977C59.0463 65.3645 58.9271 65.0527 58.7307 64.5102C58.7658 64.8948 58.7798 65.3483 58.7798 65.745V67.5588C58.7798 68.1175 58.7939 68.4819 58.8359 68.8544L57.3423 67.992C57.3844 67.7005 57.3984 67.3523 57.3984 66.7532V62.494C57.3984 62.0244 57.3844 61.6519 57.3423 61.2551L58.864 62.1337C58.9341 62.3928 59.0884 62.8057 59.3619 63.4333Z" fill="#4AC2B8"/>
</svg>
