<svg width="211" height="71" viewBox="0 0 211 71" fill="none" xmlns="http://www.w3.org/2000/svg">
<g clip-path="url(#clip0_431_4168)">
<path d="M12.5804 14.3655C9.24046 13.2129 6.3574 12.2257 6.3574 8.38757C6.3574 7.19197 6.6846 5.16865 8.86387 5.05829L21.3592 4.59231V0H8.28973C3.21506 0 0.183838 3.13307 0.183838 8.38757C0.183838 15.7328 4.85105 17.4189 8.96882 18.9027C12.3272 20.1167 15.2288 21.159 15.2288 25.0033C15.2288 26.4319 14.7905 28.1486 12.7223 28.2529L0.183838 28.7188V33.3111H13.2903C18.365 33.3111 21.3962 30.1535 21.3962 24.8684C21.3962 17.4005 16.7105 15.788 12.5742 14.3655H12.5804Z" fill="#175C90"/>
<path d="M102.282 5.0399H114.679V0H101.696C99.282 0 97.2385 0.754145 95.7939 2.21338C94.3369 3.68489 93.5591 5.78791 93.6023 8.12392V33.305H99.7697V15.5673L112.265 14.7825V10.6929H99.7697V8.07487C99.7697 6.11287 100.152 5.09508 102.276 5.03376L102.282 5.0399Z" fill="#175C90"/>
<path d="M53.9061 15.0338C56.8385 14.7273 60.6229 14.5372 60.6599 14.5311L61.1538 14.5065V10.6868H55.8754C51.7638 10.6868 45.5532 10.6868 45.5532 18.9149V25.0768C45.5532 33.3111 51.7638 33.3111 55.8754 33.3111H61.1538V29.4913L60.6538 29.4668C60.6167 29.4668 57.0978 29.3074 53.9061 28.9641C50.9674 28.6452 50.7205 26.3521 50.7205 24.0284V19.9695C50.7205 17.6396 50.9674 15.3404 53.9061 15.0338Z" fill="#175C90"/>
<path d="M39.5281 11.7168C37.5463 10.699 35.1757 10.6929 33.2495 10.6929H33.0273C31.1197 10.6929 28.7428 10.6929 26.7673 11.7168C24.4028 12.9369 23.199 15.3588 23.199 18.921V25.1136C23.199 28.6759 24.3966 31.1038 26.7673 32.324C28.749 33.3417 31.1197 33.3479 33.0458 33.3479H33.2681C35.1757 33.3479 37.5463 33.3479 39.5281 32.324C41.8925 31.1038 43.0964 28.682 43.0964 25.1136V18.921C43.0964 15.3588 41.8987 12.9308 39.5281 11.7168ZM37.9291 19.5587V24.4698C37.9291 28.3141 36.2005 29.0621 33.2187 29.0621H33.0767C30.0948 29.0621 28.3663 28.3141 28.3663 24.4698V19.5587C28.3663 15.7205 30.0948 14.9664 33.0767 14.9664H33.2187C36.2005 14.9664 37.9291 15.7205 37.9291 19.5587Z" fill="#175C90"/>
<path d="M128.755 10.6929V24.476C128.755 28.3203 127.026 29.0683 124.044 29.0683H123.896C120.914 29.0683 119.186 28.3203 119.186 24.476V10.6929H114.024V25.1136C114.024 33.3418 120.173 33.3418 123.853 33.3418H124.1C125.909 33.3418 128.384 33.3418 130.372 32.3117C132.73 31.0916 133.928 28.6698 133.928 25.1075V10.6868H128.761L128.755 10.6929Z" fill="#175C90"/>
<path d="M166.635 10.6682V24.4758C166.635 28.3201 164.907 29.0682 161.925 29.0682H161.777C158.795 29.0682 157.066 28.3201 157.066 24.4758V10.6989H151.899V25.1135C151.899 33.3416 158.054 33.3416 161.727 33.3416H161.974C163.783 33.3416 166.259 33.3416 168.247 32.3116C170.605 31.0915 171.803 28.6696 171.803 25.1074V10.6621H166.635V10.6682Z" fill="#175C90"/>
<path d="M149.856 29.5036C149.856 29.5036 146.849 29.3258 144.707 29.0008C141.762 28.5594 141.521 26.3153 141.521 24.0529V14.9848L149.461 14.5065V10.6868H136.36V25.1075C136.36 30.877 139.157 33.3356 145.707 33.3356H150.356V29.522L149.868 29.4913L149.856 29.5036Z" fill="#175C90"/>
<path d="M183.613 10.699C180.582 10.699 174.266 10.699 174.266 18.9271V33.3111H179.433V19.994C179.433 17.7377 179.68 15.4936 182.625 15.046C183.718 14.8805 186.181 14.6966 189.391 14.5494L189.984 14.5187V10.7051H183.613V10.699Z" fill="#175C90"/>
<path d="M200.355 10.6746H200.115C196.441 10.6746 190.286 10.6746 190.286 18.9027V25.0769C190.286 28.1425 191.095 30.2701 192.756 31.5822C194.25 32.7594 196.448 33.3112 199.67 33.3112H209.171V29.5159L208.665 29.5037C208.61 29.5037 203.214 29.3504 198.639 28.9641C195.694 28.7189 195.447 26.3828 195.447 24.0162V23.4153H208.171C209.616 23.4153 210.178 22.8451 210.178 21.3736V18.9027C210.178 10.6746 204.029 10.6746 200.349 10.6746H200.355ZM205.017 19.5404C205.017 19.5404 205.017 19.6017 205.017 19.6262C204.955 19.6262 204.875 19.6262 204.776 19.6262H195.454V19.5404C195.454 15.6961 197.182 14.948 200.164 14.948H200.306C203.288 14.948 205.017 15.7022 205.017 19.5404Z" fill="#175C90"/>
<path d="M81.2489 10.6929H81.0082C77.3349 10.6929 71.186 10.6929 71.186 18.9211V25.1136C71.186 33.3418 77.3349 33.3418 81.0143 33.3418H81.2551C83.064 33.3418 85.5396 33.3418 87.5275 32.3117C89.8858 31.0916 91.0834 28.6698 91.0834 25.1075V18.9149C91.0834 10.6868 84.9346 10.6868 81.2551 10.6868L81.2489 10.6929ZM85.91 19.5587V24.4698C85.91 28.3141 84.1814 29.0622 81.1996 29.0622H81.0576C78.0757 29.0622 76.3471 28.3141 76.3471 24.4698V19.5587C76.3471 15.7205 78.0757 14.9664 81.0576 14.9664H81.1996C84.1814 14.9664 85.91 15.7205 85.91 19.5587Z" fill="#175C90"/>
<path d="M68.7288 10.6868H63.6047V33.3111H68.7288V10.6868Z" fill="#175C90"/>
<path d="M66.1978 8.22205C67.4387 8.22205 69.5068 8.22205 69.5068 5.45072V4.05893C69.5068 1.2876 67.4325 1.2876 66.1978 1.2876H66.1237C64.8828 1.2876 62.8147 1.2876 62.8147 4.05893V5.45072C62.8147 8.22205 64.889 8.22205 66.1237 8.22205H66.1978Z" fill="#E60012"/>
<path d="M34.7001 41.7048L30.7367 51.803L30.6812 51.944H33.0024L33.8852 49.6448H37.8363L38.7068 51.944H41.1762L37.1325 41.7048H34.7063H34.7001ZM37.2004 47.8545H34.5396L35.8731 44.0899L37.2004 47.8545Z" fill="#175C90"/>
<path d="M47.3559 45.2303C46.8373 44.5681 46.0409 44.237 44.9853 44.237C42.7134 44.237 41.7009 46.15 41.7009 48.0445C41.7009 49.9391 42.5591 52.1157 44.9729 52.1157C46.1274 52.1157 46.9608 51.6129 47.4177 51.0734V51.944H48.924V41.7109H47.3559V45.2303ZM45.2878 50.8159C44.8309 50.8159 44.4358 50.6503 44.1086 50.3192C43.5221 49.7245 43.3307 48.7741 43.3493 48.1426C43.3307 47.2536 43.5777 46.4811 44.0345 46.0212C44.3556 45.6963 44.7754 45.5307 45.2754 45.5307C46.7077 45.5307 47.3559 46.9102 47.3559 48.1855C47.3559 49.4608 46.7077 50.8159 45.2878 50.8159Z" fill="#00A053"/>
<path d="M53.9618 50.2089L52.0233 44.4087H50.3132L53.0358 51.944H54.8014L57.524 44.4087H55.9435L53.9618 50.2089Z" fill="#00A053"/>
<path d="M63.3392 51.1531V51.9441H64.8332L64.8147 51.8276C64.7777 51.5394 64.7592 51.0795 64.7592 50.4051V47.3701C64.7592 45.2303 63.7837 44.2371 61.6909 44.2371C60.8328 44.2371 59.9993 44.4762 59.2091 44.9422L59.1536 44.9728L59.24 46.3891L59.3943 46.2604C59.9253 45.8128 60.7217 45.5369 61.4687 45.5369C62.654 45.5369 63.1602 46.0274 63.1849 47.2352C62.7034 47.2107 62.3391 47.2107 61.8452 47.2107C60.5303 47.2107 58.314 47.7441 58.314 49.7307C58.314 51.2696 59.3141 52.1157 61.1229 52.1157C62.2897 52.1157 62.9935 51.5394 63.3331 51.1531H63.3392ZM59.9685 49.7307C59.9685 48.5964 61.5057 48.4247 62.4256 48.4247C62.5675 48.4247 62.7095 48.4308 62.8515 48.437C62.9627 48.437 63.0738 48.4492 63.1849 48.4492V48.9949C63.1849 50.1169 62.4379 50.8159 61.2341 50.8159C60.7217 50.8159 59.9623 50.4726 59.9623 49.7245L59.9685 49.7307Z" fill="#00A053"/>
<path d="M68.4201 48.4492C68.4201 47.3579 68.6979 45.5369 70.5561 45.5308C71.6241 45.5982 72.0193 46.2788 72.0193 48.0446V51.9441H73.5873V47.4866C73.5873 45.3591 72.5934 44.2371 70.7228 44.2371C69.7412 44.2371 68.8584 44.6662 68.383 45.3468V44.4087H66.8582V51.9441H68.4262V48.4492H68.4201Z" fill="#00A053"/>
<path d="M80.7918 51.8031L80.8597 51.7724L80.7363 50.3193L80.5881 50.4174C80.2115 50.6565 79.6621 50.8159 79.1805 50.8159C77.5507 50.8159 76.8222 49.4916 76.8222 48.1734C76.8222 46.8551 77.6001 45.5308 79.0941 45.5308C79.5386 45.5308 80.051 45.6411 80.5325 45.8373L80.6622 45.8925L80.798 44.5559L80.7239 44.5253C80.3103 44.3597 79.5818 44.231 79.0324 44.231C76.7543 44.231 75.1677 45.8496 75.1677 48.1734C75.1677 50.4971 76.8284 52.1096 79.0324 52.1096C79.7547 52.1096 80.3288 52.0054 80.7857 51.7969L80.7918 51.8031Z" fill="#00A053"/>
<path d="M85.5703 52.1158C86.6568 52.1158 87.2557 51.8889 87.7434 51.705C87.8113 51.6804 87.873 51.6559 87.9409 51.6314L88.0088 51.6069V49.9637L87.8422 50.1047C87.5397 50.35 86.5148 50.8159 85.6382 50.8159C84.3664 50.8159 83.3663 49.8411 83.3108 48.578H88.5768V48.4738C88.5768 45.6595 87.4471 44.231 85.2184 44.231C83.1194 44.231 81.6562 45.8006 81.6562 48.0385C81.6562 50.6626 83.0515 52.1096 85.5826 52.1096L85.5703 52.1158ZM85.1814 45.5369C86.3358 45.5369 86.8791 46.4382 86.9161 47.3702H83.3169C83.4466 46.4627 84.0022 45.5369 85.1814 45.5369Z" fill="#00A053"/>
<path d="M95.5715 51.0734V51.944H97.0778V41.7109H95.5097V45.2303C94.9911 44.5681 94.1948 44.237 93.1391 44.237C90.8672 44.237 89.8547 46.15 89.8547 48.0445C89.8547 49.9391 90.7129 52.1157 93.1267 52.1157C94.2812 52.1157 95.1146 51.6129 95.5715 51.0734ZM93.4478 50.8159C92.9909 50.8159 92.5958 50.6503 92.2686 50.3192C91.6821 49.7245 91.4907 48.7741 91.5092 48.1426C91.4907 47.2536 91.7377 46.4811 92.1945 46.0212C92.5155 45.6963 92.9353 45.5307 93.4354 45.5307C94.8677 45.5307 95.5159 46.9102 95.5159 48.1855C95.5159 49.4608 94.8677 50.8159 93.4478 50.8159Z" fill="#00A053"/>
<path d="M105.474 51.944H107.703V43.4952H110.598V41.7048H102.579V43.4952H105.474V51.944Z" fill="#175C90"/>
<path d="M116.475 51.6375L116.543 51.613V49.9698L116.37 50.1108C116.068 50.3561 115.043 50.822 114.166 50.822C112.895 50.822 111.895 49.8472 111.845 48.5841H117.111V48.4799C117.111 45.6656 115.981 44.2371 113.753 44.2371C111.654 44.2371 110.191 45.8067 110.191 48.0446C110.191 50.6688 111.586 52.1157 114.117 52.1157C115.204 52.1157 115.802 51.8889 116.284 51.7049C116.352 51.6804 116.414 51.6559 116.475 51.6314V51.6375ZM113.716 45.5369C114.87 45.5369 115.414 46.4382 115.451 47.3701H111.851C111.981 46.4627 112.537 45.5369 113.716 45.5369Z" fill="#00A053"/>
<path d="M123.951 51.7724L123.828 50.3193L123.68 50.4174C123.303 50.6565 122.754 50.8159 122.272 50.8159C120.642 50.8159 119.914 49.4916 119.914 48.1734C119.914 46.8551 120.692 45.5308 122.186 45.5308C122.63 45.5308 123.143 45.6411 123.624 45.8373L123.754 45.8925L123.89 44.5559L123.815 44.5253C123.402 44.3597 122.673 44.231 122.124 44.231C119.846 44.231 118.259 45.8496 118.259 48.1734C118.259 50.4971 119.92 52.1096 122.124 52.1096C122.846 52.1096 123.42 52.0054 123.877 51.7969L123.939 51.7663L123.951 51.7724Z" fill="#00A053"/>
<path d="M132.008 51.944V47.4866C132.008 45.359 131.014 44.237 129.143 44.237C128.193 44.237 127.372 44.611 126.847 45.2793V41.7109H125.279V51.944H126.847V48.4492C126.847 47.3578 127.125 45.5368 128.983 45.5307C130.051 45.5982 130.446 46.2787 130.446 48.0445V51.944H132.014H132.008Z" fill="#00A053"/>
<path d="M137.984 44.2371C137.002 44.2371 136.119 44.6662 135.644 45.3468V44.4087H134.119V51.9441H135.687V48.4492C135.687 47.3579 135.965 45.5369 137.817 45.5308C138.885 45.5982 139.28 46.2788 139.28 48.0446V51.9441H140.848V47.4866C140.848 45.3591 139.854 44.2371 137.978 44.2371H137.984Z" fill="#00A053"/>
<path d="M149.93 48.1795C149.93 45.8557 148.343 44.2371 146.078 44.2371C143.812 44.2371 142.213 45.8557 142.213 48.1795C142.213 50.5032 143.874 52.1157 146.078 52.1157C148.282 52.1157 149.93 50.4235 149.93 48.1795ZM146.078 50.8159C144.559 50.8159 143.867 49.4486 143.867 48.1733C143.867 46.898 144.645 45.5308 146.078 45.5308C147.51 45.5308 148.275 46.8919 148.275 48.1733C148.275 49.4548 147.59 50.8159 146.078 50.8159Z" fill="#00A053"/>
<path d="M153.208 41.7109H151.64V51.944H153.208V41.7109Z" fill="#00A053"/>
<path d="M158.758 52.1157C160.956 52.1157 162.61 50.4235 162.61 48.1795C162.61 45.9354 161.024 44.2371 158.758 44.2371C156.492 44.2371 154.893 45.8557 154.893 48.1795C154.893 50.5032 156.554 52.1157 158.758 52.1157ZM158.758 45.5369C160.184 45.5369 160.956 46.898 160.956 48.1795C160.956 49.4609 160.27 50.822 158.758 50.822C157.245 50.822 156.548 49.4548 156.548 48.1795C156.548 46.9042 157.32 45.5369 158.758 45.5369Z" fill="#00A053"/>
<path d="M169.63 45.2794C169.148 44.5804 168.376 44.2371 167.271 44.2371C165.036 44.2371 163.87 46.2481 163.87 48.2346C163.87 50.0801 164.876 51.9441 167.129 51.9441C168.08 51.9441 168.957 51.5762 169.531 50.9569V51.4229C169.531 52.9312 168.716 53.8386 167.345 53.8386C166.327 53.8386 165.716 53.6363 164.728 53.1887L164.598 53.1274L164.425 54.5989L164.506 54.6234C165.759 55.0526 166.438 55.1323 167.185 55.1323C169.778 55.1323 171.093 53.9183 171.093 51.521V44.4026H169.63V45.2732V45.2794ZM167.475 50.6442C166.197 50.6442 165.524 49.3935 165.524 48.1611C165.524 46.9287 166.209 45.5308 167.475 45.5308C168.994 45.5308 169.531 47.0023 169.531 48.2592C169.531 49.6203 168.648 50.6442 167.475 50.6442Z" fill="#00A053"/>
<path d="M177.834 44.4088L175.871 50.2887L173.97 44.4762L173.945 44.4026H172.235L174.785 51.38C174.809 51.4536 174.84 51.5333 174.877 51.613C174.951 51.7969 175.038 52.0238 175.038 52.1158C175.038 52.2629 174.643 53.8264 173.519 53.8264C173.291 53.8264 173.068 53.7651 172.914 53.716L172.784 53.6731L172.679 55.0036L172.871 55.0342C173.087 55.071 173.334 55.1201 173.717 55.1201C175.538 55.1201 176.106 53.5321 176.612 52.128L179.372 44.5314L179.421 44.3904H177.822L177.834 44.4088Z" fill="#00A053"/>
<path d="M51.4245 64.9791L49.1032 57.6461L49.0847 57.5725H45.6646V67.8117H47.8068V59.9882L50.375 67.8117H52.4678L55.036 59.9882V67.8117H57.1844V57.5725H53.7643L51.4245 64.9791Z" fill="#175C90"/>
<path d="M143.775 64.3537C143.775 65.0956 143.775 66.0214 142.559 66.0214C142.133 66.0214 141.849 65.9356 141.626 65.8558L141.484 65.8068V67.7749L141.565 67.7933C142.102 67.9282 142.54 67.9834 143.139 67.9834C145.108 67.9834 146.01 66.6039 146.01 65.3224V57.5725H143.775V64.3598V64.3537Z" fill="#175C90"/>
<path d="M39.0649 62.2936V62.1833H37.5029V62.2814C37.4289 63.3727 37.2869 63.9858 36.9597 64.5438L35.0891 62.4224C35.9472 62.0238 37.2375 61.1777 37.2375 59.7737C37.2375 58.6762 36.5522 57.4009 34.6322 57.4009C32.9407 57.4009 31.8973 58.3451 31.8973 59.8595C31.8973 60.7915 32.348 61.4598 32.8728 62.1036C31.3973 62.7351 30.6812 63.7099 30.6812 65.0772C30.6812 66.843 32.0023 67.9834 34.0396 67.9834C35.3422 67.9834 36.2127 67.6523 36.9288 66.8859L37.7067 67.8118H39.7933L37.9289 65.7149C38.5154 64.8074 38.9352 63.8694 39.0587 62.2998L39.0649 62.2936ZM34.5828 58.6946C35.3237 58.6946 35.6817 59.0625 35.6817 59.8289C35.6817 60.675 34.694 61.2574 34.2927 61.4536C33.8729 60.9877 33.4716 60.4849 33.4716 59.884C33.4716 59.0073 34.0457 58.6946 34.5828 58.6946ZM34.305 66.6836C33.3913 66.6836 32.4283 66.0827 32.4283 64.973C32.4283 64.0962 32.9407 63.6609 33.7247 63.1275L36.0398 65.8191C35.6817 66.2054 35.1323 66.6775 34.3112 66.6775L34.305 66.6836Z" fill="#00A053"/>
<path d="M65.2531 66.2667V63.2378C65.2531 61.098 64.2776 60.0986 62.1848 60.0986C61.3267 60.0986 60.4932 60.3378 59.703 60.8037L59.6475 60.8344L59.7339 62.2507L59.8882 62.1158C60.4192 61.6682 61.2156 61.3923 61.9626 61.3923C63.1479 61.3923 63.6541 61.889 63.6788 63.0907C63.1973 63.0662 62.833 63.0662 62.3391 63.0662C61.0242 63.0662 58.8079 63.5935 58.8079 65.58C58.8079 67.1189 59.808 67.965 61.6168 67.965C62.7836 67.965 63.4874 67.3887 63.827 67.0024V67.7934H65.321L65.3025 67.6769C65.2654 67.3948 65.2469 66.9289 65.2469 66.2544L65.2531 66.2667ZM63.6912 64.8626C63.6912 65.9846 62.9441 66.6836 61.7403 66.6836C61.2279 66.6836 60.4686 66.3403 60.4686 65.5922C60.4686 64.458 62.0119 64.2863 62.9256 64.2863C63.0676 64.2863 63.2096 64.2924 63.3516 64.2986C63.4627 64.2986 63.5739 64.3108 63.685 64.3108V64.8565L63.6912 64.8626Z" fill="#00A053"/>
<path d="M71.2106 60.0986C70.229 60.0986 69.3462 60.5278 68.8708 61.2084V60.2703H67.3459V67.8056H68.914V64.3108C68.914 63.2194 69.1918 61.3923 71.0501 61.3923C72.1181 61.4598 72.5132 62.1403 72.5132 63.9061V67.8056H74.0813V63.3482C74.0813 61.2207 73.0874 60.0986 71.2168 60.0986H71.2106Z" fill="#00A053"/>
<path d="M82.0392 66.2667V63.2378C82.0392 61.098 81.0638 60.0986 78.9709 60.0986C78.1128 60.0986 77.2794 60.3378 76.4892 60.8037L76.4336 60.8344L76.52 62.2507L76.6744 62.1158C77.2053 61.6682 78.0017 61.3923 78.7487 61.3923C79.934 61.3923 80.4402 61.889 80.4649 63.0907C79.9834 63.0662 79.6192 63.0662 79.1253 63.0662C77.8103 63.0662 75.594 63.5935 75.594 65.58C75.594 67.1189 76.5941 67.965 78.403 67.965C79.5698 67.965 80.2736 67.3887 80.6131 67.0024V67.7934H82.1071L82.0886 67.6769C82.0515 67.3948 82.033 66.9289 82.033 66.2544L82.0392 66.2667ZM80.4773 64.8626C80.4773 65.9846 79.7303 66.6836 78.5264 66.6836C78.014 66.6836 77.2547 66.3403 77.2547 65.5922C77.2547 64.458 78.7919 64.2863 79.7118 64.2863C79.8538 64.2863 79.9957 64.2924 80.1439 64.2986C80.255 64.2986 80.3662 64.3108 80.4773 64.3108V64.8565V64.8626Z" fill="#00A053"/>
<path d="M89.3732 61.1409C88.8979 60.442 88.12 60.0986 87.0149 60.0986C84.7801 60.0986 83.6133 62.1097 83.6133 64.0962C83.6133 65.9417 84.6196 67.8056 86.8729 67.8056C87.8237 67.8056 88.7003 67.4378 89.2744 66.8185V67.2845C89.2744 68.7928 88.4595 69.6941 87.089 69.6941C86.0704 69.6941 85.4592 69.4917 84.4714 69.0441L84.3418 68.9828L84.1689 70.4543L84.2492 70.4789C85.5024 70.9019 86.1815 70.9878 86.9285 70.9878C89.5214 70.9878 90.8364 69.7738 90.8364 67.3764V60.258H89.367V61.1226L89.3732 61.1409ZM87.2186 66.5119C85.9345 66.5119 85.2678 65.2612 85.2678 64.0288C85.2678 62.7964 85.9531 61.3985 87.2186 61.3985C88.7373 61.3985 89.2683 62.87 89.2683 64.1269C89.2683 65.488 88.3854 66.5119 87.2186 66.5119Z" fill="#00A053"/>
<path d="M96.047 60.0986C93.948 60.0986 92.4849 61.6682 92.4849 63.9061C92.4849 66.5303 93.8801 67.9773 96.4113 67.9773C97.4978 67.9773 98.0966 67.7504 98.5843 67.5726C98.6523 67.5481 98.714 67.5236 98.7819 67.4991L98.8498 67.4745V65.8314L98.6769 65.9724C98.3744 66.2176 97.3496 66.6836 96.473 66.6836C95.2012 66.6836 94.2011 65.7087 94.1456 64.4457H99.4116V64.3415C99.4116 61.5272 98.2818 60.0986 96.0532 60.0986H96.047ZM94.1517 63.2317C94.2814 62.3243 94.837 61.3985 96.0161 61.3985C97.1953 61.3985 97.7139 62.3059 97.7509 63.2317H94.1517Z" fill="#00A053"/>
<path d="M109.234 60.0986C108.481 60.0986 107.487 60.5033 106.956 61.3923C106.554 60.583 105.783 60.0986 104.85 60.0986C103.838 60.0986 103.11 60.4297 102.579 61.1471V60.2764H101.097V67.8118H102.665V64.0165C102.665 62.7535 103.147 61.4046 104.499 61.4046C105.505 61.4046 105.715 62.4592 105.715 63.3421V67.8179H107.283V64.0226C107.283 62.7596 107.764 61.4107 109.116 61.4107C110.116 61.4107 110.326 62.4653 110.326 63.3482V67.824H111.894V63.0232C111.894 61.1226 110.975 60.117 109.228 60.117L109.234 60.0986Z" fill="#00A053"/>
<path d="M117.161 60.0986C115.062 60.0986 113.598 61.6682 113.598 63.9061C113.598 66.5303 114.994 67.9773 117.519 67.9773C118.605 67.9773 119.204 67.7504 119.692 67.5726C119.76 67.5481 119.821 67.5236 119.883 67.4991L119.951 67.4745V65.8314L119.778 65.9724C119.476 66.2176 118.451 66.6836 117.574 66.6836C116.302 66.6836 115.302 65.7087 115.247 64.4457H120.513V64.3415C120.513 61.5272 119.383 60.0986 117.154 60.0986H117.161ZM115.265 63.2317C115.395 62.3243 115.944 61.3985 117.13 61.3985C118.315 61.3985 118.827 62.3059 118.864 63.2317H115.265Z" fill="#00A053"/>
<path d="M126.075 60.0986C125.094 60.0986 124.211 60.5278 123.735 61.2084V60.2703H122.21V67.8056H123.779V64.3108C123.779 63.2194 124.056 61.3923 125.915 61.3923C126.983 61.4598 127.378 62.1403 127.378 63.9061V67.8056H128.946V63.3482C128.946 61.2207 127.952 60.0986 126.075 60.0986Z" fill="#00A053"/>
<path d="M134.261 66.6836C133.743 66.6836 133.224 66.3096 133.224 65.4818V61.5762H135.175V60.2764H133.224V58.1121L131.656 58.6087V60.2764H129.989V61.5762H131.656V65.7577C131.656 67.1925 132.502 67.9834 134.033 67.9834C134.496 67.9834 134.947 67.8546 135.218 67.7811L135.292 67.7565V66.3402L135.132 66.4383C134.879 66.5977 134.589 66.6836 134.261 66.6836Z" fill="#00A053"/>
<path d="M153.875 66.2667V63.2378C153.875 61.098 152.899 60.0986 150.806 60.0986C149.948 60.0986 149.109 60.3378 148.318 60.8037L148.269 60.8344L148.355 62.2507L148.51 62.1158C149.041 61.6682 149.837 61.3923 150.584 61.3923C151.769 61.3923 152.276 61.889 152.3 63.0907C151.819 63.0662 151.455 63.0662 150.961 63.0662C149.652 63.0662 147.429 63.5935 147.429 65.58C147.429 67.1189 148.43 67.965 150.238 67.965C151.405 67.965 152.109 67.3887 152.449 67.0024V67.7934H153.943L153.924 67.6769C153.887 67.3948 153.868 66.935 153.868 66.2544L153.875 66.2667ZM152.307 64.8626C152.307 65.9846 151.56 66.6836 150.356 66.6836C149.843 66.6836 149.084 66.3403 149.084 65.5922C149.084 64.458 150.621 64.2863 151.541 64.2863C151.683 64.2863 151.825 64.2924 151.967 64.2986C152.078 64.2986 152.189 64.3108 152.3 64.3108V64.8565L152.307 64.8626Z" fill="#00A053"/>
<path d="M159.9 60.0986C158.752 60.0986 157.925 60.6014 157.474 61.1409V60.2764H155.961V70.8283H157.53V66.9902C158.048 67.6523 158.844 67.9834 159.913 67.9834C162.326 67.9834 163.184 65.7946 163.184 63.9123C163.184 62.03 162.166 60.1048 159.894 60.1048L159.9 60.0986ZM160.771 66.187C160.45 66.5181 160.048 66.6836 159.591 66.6836C158.172 66.6836 157.523 65.3225 157.523 64.0533C157.523 62.7841 158.172 61.3985 159.604 61.3985C160.104 61.3985 160.518 61.564 160.839 61.889C161.295 62.3488 161.542 63.1213 161.524 64.0104C161.542 64.6419 161.351 65.5861 160.764 66.1808L160.771 66.187Z" fill="#00A053"/>
<path d="M170.796 66.2667V63.2378C170.796 61.098 169.821 60.0986 167.728 60.0986C166.87 60.0986 166.036 60.3378 165.246 60.8037L165.191 60.8344L165.277 62.2507L165.431 62.122C165.962 61.6744 166.759 61.3985 167.506 61.3985C168.691 61.3985 169.197 61.8951 169.228 63.0968C168.747 63.0723 168.376 63.0723 167.882 63.0723C166.574 63.0723 164.351 63.5996 164.351 65.5861C164.351 67.1251 165.351 67.9712 167.16 67.9712C168.327 67.9712 169.031 67.401 169.37 67.0086V67.7995H170.864L170.846 67.683C170.809 67.3887 170.79 66.9227 170.79 66.2606L170.796 66.2667ZM169.234 64.8626C169.234 65.9846 168.487 66.6836 167.284 66.6836C166.771 66.6836 166.012 66.3403 166.012 65.5922C166.012 64.458 167.549 64.2863 168.469 64.2863C168.611 64.2863 168.753 64.2924 168.895 64.2986C169.006 64.2986 169.117 64.3108 169.228 64.3108V64.8565L169.234 64.8626Z" fill="#00A053"/>
<path d="M176.569 60.0986C175.587 60.0986 174.704 60.5278 174.229 61.2084V60.2703H172.704V67.8056H174.272V64.3108C174.272 63.2194 174.55 61.3923 176.408 61.3923C177.476 61.4598 177.871 62.1403 177.871 63.9061V67.8056H179.439V63.3482C179.439 61.2207 178.446 60.0986 176.575 60.0986H176.569Z" fill="#00A053"/>
</g>
<defs>
<clipPath id="clip0_431_4168">
<rect width="210" height="71" fill="white" transform="translate(0.183838)"/>
</clipPath>
</defs>
</svg>
